<svg width="1440" height="1336" viewBox="0 0 1440 1336" fill="none" xmlns="http://www.w3.org/2000/svg">
<g clip-path="url(#clip0_2408_250)">
<path fill-rule="evenodd" clip-rule="evenodd" d="M1440 522V202.412C1429.77 200.026 1419.15 199.747 1408.21 202.212C1408.62 196.891 1409.03 191.569 1409.44 186.248C1409.87 180.631 1410.3 175.014 1410.73 169.397C1397.29 165.48 1383.84 161.564 1370.4 157.647C1351.6 152.172 1332.8 146.697 1314.01 141.222C1273.68 123.076 1226.07 121.805 1184.84 137.778C1182.54 128.673 1180.24 119.568 1177.94 110.464C1162.12 110.096 1146.29 109.727 1130.47 109.357L1130.13 109.35C1109.54 109.37 1094.17 128.824 1086.88 145.835C1079.59 162.846 1068.93 183.686 1050.44 182.822C1062.41 202.591 1058 230.693 1040.55 245.851C1044.78 267.424 1038.04 290.858 1023 306.894C1007.96 322.931 985 331.159 963.194 328.331C970.438 368.904 936.731 411.902 895.591 414.569C886.584 428.371 869.915 424.976 855.965 418.741C850.779 416.424 845.75 413.737 840.724 411.052C832.23 406.514 823.748 401.982 814.544 399.252C808.535 397.47 802.339 396.494 796.14 395.517C791.297 394.754 786.452 393.991 781.692 392.843C770.841 390.225 759.857 385.065 754.048 375.533C751.827 371.888 750.364 367.657 748.915 363.468C746.346 356.038 743.822 348.739 737.194 345.078C728.629 340.352 718.119 344.611 709.122 348.451C700.126 352.291 688.803 355.388 681.324 349.085C661.512 348.077 642.998 339.661 624.484 331.245C621.723 329.989 618.91 328.718 615.899 328.355C604.406 326.964 595.945 338.447 590.178 348.484C582.063 335.174 573.947 321.866 565.831 308.557L565.142 307.428C553.166 280.792 533.66 255.163 508.258 238.172C507.479 237.651 506.688 237.13 505.892 236.606C498.487 231.729 490.683 226.589 487.958 218.3C485.415 210.555 488.069 202.733 490.766 194.785C492.57 189.471 494.392 184.1 494.693 178.659C495.599 162.292 482.963 148.712 471.445 137.042C459.925 125.375 447.789 111.02 450.02 94.7792C435.749 83.724 431.661 75.514 428.288 68.7381C427.258 66.669 426.294 64.7337 425.128 62.8919C420.141 55.0209 410.307 49.3911 401.441 52.268C398.823 53.1163 396.506 54.612 394.182 56.1115C392.8 57.0041 391.415 57.898 389.963 58.6574C386.073 60.6905 380.964 61.6096 377.53 58.8767C372.851 55.1566 374.563 48.5822 376.262 42.0554C377.98 35.4566 379.686 28.9065 374.761 25.4037C371.387 23.0029 366.77 23.9508 362.765 24.9984C347.124 29.0853 331.486 33.1723 315.848 37.2592L315.196 37.4295C296.565 34.0366 282.761 37.4251 274.045 45.1655C265.54 52.7235 260.701 63.4409 256.012 73.8277C255.897 74.0812 255.783 74.3346 255.669 74.5878C250.872 85.2095 245.569 96.1634 236.342 103.286C231.947 106.679 226.761 109.129 221.615 111.561C213.347 115.468 205.183 119.326 200.574 126.965C199.058 129.479 197.847 132.425 196.641 135.359C193.733 142.432 190.857 149.429 183.808 150.1C181.872 150.284 179.947 149.869 178.025 149.455C175.97 149.012 173.919 148.57 171.861 148.862C165.68 149.74 162.863 156.049 160.166 162.087C159.502 163.574 158.845 165.045 158.147 166.414C150.039 182.318 127.048 188.237 112.265 178.227C106.053 161.222 95.4188 143.164 85.5183 127.032C76.8207 112.856 68.3557 98.5376 60.13 84.0822C51.583 69.0621 41.8841 52.6733 25.5124 47.1299C19.845 24.4343 17.9075 7.23657 15.9704 -9.95722L15.9663 -9.99391C13.6025 -31.0004 11.2187 -52.1087 5.60935 -72.4906C3.98105 -78.4083 2.08911 -84.2373 0 -90V522V528.657V906H1440V528.657V522Z" fill="#7A3401"/>
<path fill-rule="evenodd" clip-rule="evenodd" d="M1440 522V202.412C1429.77 200.026 1419.15 199.747 1408.21 202.212C1408.62 196.891 1409.03 191.569 1409.44 186.248C1409.87 180.631 1410.3 175.014 1410.73 169.397C1397.29 165.48 1383.84 161.564 1370.4 157.647C1351.6 152.172 1332.8 146.697 1314.01 141.222C1273.68 123.076 1226.07 121.805 1184.84 137.778C1182.54 128.673 1180.24 119.568 1177.94 110.464C1162.12 110.096 1146.29 109.727 1130.47 109.357L1130.13 109.35C1109.54 109.37 1094.17 128.824 1086.88 145.835C1079.59 162.846 1068.93 183.686 1050.44 182.822C1062.41 202.591 1058 230.693 1040.55 245.851C1044.78 267.424 1038.04 290.858 1023 306.894C1007.96 322.931 985 331.159 963.194 328.331C970.438 368.904 936.731 411.902 895.591 414.569C886.584 428.371 869.915 424.976 855.965 418.741C850.779 416.424 845.75 413.737 840.724 411.052C832.23 406.514 823.748 401.982 814.544 399.252C808.535 397.47 802.339 396.494 796.14 395.517C791.297 394.754 786.452 393.991 781.692 392.843C770.841 390.225 759.857 385.065 754.048 375.533C751.827 371.888 750.364 367.657 748.915 363.468C746.346 356.038 743.822 348.739 737.194 345.078C728.629 340.352 718.119 344.611 709.122 348.451C700.126 352.291 688.803 355.388 681.324 349.085C661.512 348.077 642.998 339.661 624.484 331.245C621.723 329.989 618.91 328.718 615.899 328.355C604.406 326.964 595.945 338.447 590.178 348.484C582.063 335.174 573.947 321.866 565.831 308.557L565.142 307.428C553.166 280.792 533.66 255.163 508.258 238.172C507.479 237.651 506.688 237.13 505.892 236.606C498.487 231.729 490.683 226.589 487.958 218.3C485.415 210.555 488.069 202.733 490.766 194.785C492.57 189.471 494.392 184.1 494.693 178.659C495.599 162.292 482.963 148.712 471.445 137.042C459.925 125.375 447.789 111.02 450.02 94.7792C435.749 83.724 431.661 75.514 428.288 68.7381C427.258 66.669 426.294 64.7337 425.128 62.8919C420.141 55.0209 410.307 49.3911 401.441 52.268C398.823 53.1163 396.506 54.612 394.182 56.1115C392.8 57.0041 391.415 57.898 389.963 58.6574C386.073 60.6905 380.964 61.6096 377.53 58.8767C372.851 55.1566 374.563 48.5822 376.262 42.0554C377.98 35.4566 379.686 28.9065 374.761 25.4037C371.387 23.0029 366.77 23.9508 362.765 24.9984C347.124 29.0853 331.486 33.1723 315.848 37.2592L315.196 37.4295C296.565 34.0366 282.761 37.4251 274.045 45.1655C265.54 52.7235 260.701 63.4409 256.012 73.8277C255.897 74.0812 255.783 74.3346 255.669 74.5878C250.872 85.2095 245.569 96.1634 236.342 103.286C231.947 106.679 226.761 109.129 221.615 111.561C213.347 115.468 205.183 119.326 200.574 126.965C199.058 129.479 197.847 132.425 196.641 135.359C193.733 142.432 190.857 149.429 183.808 150.1C181.872 150.284 179.947 149.869 178.025 149.455C175.97 149.012 173.919 148.57 171.861 148.862C165.68 149.74 162.863 156.049 160.166 162.087C159.502 163.574 158.845 165.045 158.147 166.414C150.039 182.318 127.048 188.237 112.265 178.227C106.053 161.222 95.4188 143.164 85.5183 127.032C76.8207 112.856 68.3557 98.5376 60.13 84.0822C51.583 69.0621 41.8841 52.6733 25.5124 47.1299C19.845 24.4343 17.9075 7.23657 15.9704 -9.95722L15.9663 -9.99391C13.6025 -31.0004 11.2187 -52.1087 5.60935 -72.4906C3.98105 -78.4083 2.08911 -84.2373 0 -90V522V528.657V906H1440V528.657V522Z" fill="url(#paint0_radial_2408_250)" fill-opacity="0.2"/>
<path fill-rule="evenodd" clip-rule="evenodd" d="M1440 786V201.745C1431.13 199.171 1418.71 203.536 1407.76 210.705C1393.21 220.233 1381.45 235.749 1381.03 253.13C1380.84 260.953 1382.9 268.533 1384.96 276.132C1386.05 280.131 1387.14 284.135 1387.9 288.182C1390.11 299.92 1388.64 313.935 1378.9 320.845C1374.26 324.129 1368.56 325.225 1362.87 326.319C1356.95 327.459 1351.03 328.596 1346.34 332.206C1338.62 338.146 1337.03 348.142 1335.44 358.151C1334.82 362.029 1334.2 365.909 1333.23 369.555C1326.76 393.788 1299.07 410.117 1274.73 404.062C1272.07 405.466 1269.33 406.851 1266.56 408.25C1249.45 416.895 1231.23 426.101 1225.04 443.792C1223.45 448.315 1222.76 453.191 1222.08 458.036C1220.98 465.853 1219.89 473.588 1215.06 479.628C1209.11 487.059 1199.67 489.367 1190.11 491.703C1181.96 493.696 1173.72 495.71 1167.51 500.944C1159.5 507.695 1156.7 518.034 1153.88 528.449C1151.34 537.834 1148.79 547.281 1142.38 554.217C1139.62 557.645 1137.09 560.174 1134.76 562.015C1128.52 566.951 1123.7 566.949 1119.55 566.107C1118.25 565.843 1116.94 565.522 1115.63 565.2C1111.21 564.118 1106.77 563.029 1102.41 564.057C1097.65 565.178 1093.74 568.642 1089.91 572.043C1085.15 576.263 1080.51 580.388 1074.46 579.828C1071.21 579.525 1068.36 577.84 1065.51 576.155C1064.4 575.498 1063.29 574.842 1062.16 574.266C1055.34 570.809 1047.93 570.353 1040.44 571.565C1031.01 573.088 1021.45 577.259 1012.77 581.42C1007.33 593.587 999.409 595.392 993.228 593.789C989.653 592.86 986.372 591.145 983.086 589.427C980.691 588.175 978.293 586.921 975.775 585.969C969.802 583.708 962.082 583.639 958.059 588.598C953.712 581.21 949.365 573.821 945.019 566.431C949.755 551.927 952.465 542.694 951.793 533.337C951.124 523.977 946.337 514.321 937.752 510.53C935.938 509.728 933.955 509.168 931.98 508.611C927.769 507.421 923.599 506.243 921.195 502.765C917.216 497.003 920.894 489.809 924.25 483.243C924.797 482.175 925.334 481.123 925.829 480.097C933.268 464.683 929.863 444.726 917.73 432.65C910.64 440.749 897.855 441.259 883.606 441.827C870.263 442.358 855.638 442.941 843.204 449.856C841.644 450.723 840.117 451.691 838.591 452.658C834.554 455.218 830.516 457.777 825.849 458.491C819.415 459.474 811.522 454.475 812.907 448.119C798.704 455.445 785.786 465.259 774.919 476.977C771.259 483.443 765.804 487.051 760.364 490.651C758.258 492.044 756.154 493.436 754.157 494.991C747.001 500.566 741.274 508.616 740.576 517.659C740.083 524.09 742.109 530.302 744.13 536.499C744.803 538.561 745.474 540.621 746.053 542.687C748.37 550.966 748.8 560.938 742.745 567.042C739.598 570.217 735.152 571.867 730.78 573.49C725.139 575.583 719.621 577.632 717.169 582.851C715.857 585.643 715.769 588.83 715.702 591.913C715.514 600.73 715.326 609.547 715.138 618.363C714.951 627.18 714.763 635.997 714.575 644.814C714.49 648.793 714.404 652.775 714.32 656.755C713.68 671.217 708.188 676.88 702.481 678.021C698.73 678.772 694.914 678.303 691.087 677.832C689.094 677.587 687.097 677.341 685.105 677.268C679.29 677.053 672.529 679.071 670.484 684.517C668.71 689.237 671.154 693.774 673.666 698.439C675.229 701.343 676.82 704.297 677.436 707.374C679.268 716.515 671.873 725.294 663.344 729.052C657.417 731.664 650.977 732.589 644.531 733.515C641.698 733.922 638.864 734.328 636.072 734.879C626.925 736.682 617.308 740.757 613.132 749.091C593.047 726.487 566.124 717.859 541.542 722.877C539.06 723.384 536.534 724.013 533.992 724.646C523.83 727.177 513.415 729.771 504.547 724.879C500.949 722.893 498.156 719.914 495.506 716.743C494.903 716.02 494.306 715.287 493.71 714.553C491.932 712.367 490.149 710.175 488.156 708.227C477.349 697.654 459.557 695.056 446.176 702.097C427.6 686.649 409.846 673.921 390.01 675.348C389.059 675.416 388.092 675.514 387.119 675.612C382.553 676.073 377.856 676.548 374.125 674.083C371.968 672.658 370.53 670.473 369.091 668.287C368.538 667.447 367.985 666.606 367.391 665.809C361.58 658.009 350.884 654.208 341.453 656.596C317.004 635.895 306.775 600.741 319.259 574.1C316.94 573.633 314.62 573.166 312.303 572.698C315.054 563.831 305.816 553.712 296.733 555.643C295.851 539.748 291.487 524.055 284.037 509.985C280.572 501.83 273.797 499.934 268.795 501.407C266.12 502.196 263.691 503.584 261.259 504.974C259.144 506.183 257.027 507.393 254.743 508.211C249.833 509.969 243.07 508.968 241.311 504.06C240.893 502.896 240.811 501.637 240.729 500.385C240.627 498.818 240.525 497.26 239.769 495.91C238.205 493.113 234.361 492.365 231.264 493.199C228.899 493.837 226.816 495.162 224.738 496.485C224.094 496.895 223.45 497.304 222.799 497.693C210.373 505.108 193.691 504.676 181.664 496.63C178.375 497.945 174.646 498.493 170.791 499.059C167.812 499.496 164.757 499.944 161.772 500.767C154.926 502.652 148.373 506.807 145.254 513.187C140.021 523.882 145.739 536.459 151.371 546.95C148.481 550.466 145.591 553.981 142.701 557.497C139.811 561.012 136.921 564.527 134.031 568.043C110.156 567.828 99.71 566.993 89.2667 566.158C84.8404 560.876 80.414 555.594 75.9877 550.314C62.6034 537.984 57.9773 523.811 53.352 509.64L53.3509 509.637C52.2809 506.359 51.0978 502.911 48.4726 500.676C45.8452 498.444 41.2903 498.107 39.2743 500.904C38.2562 488.772 37.2361 476.642 36.2159 464.51L35.9801 461.706C34.0211 454.438 32.7393 448.213 31.6006 442.682C29.9707 434.766 28.6339 428.274 26.0241 422.185C23.7622 416.907 20.6009 412.073 17.4572 407.269C11.6421 398.383 5.82482 389.497 0.00751105 380.611L0 380.6V786V787.699V1215H1440V787.699V786Z" fill="#612B02"/>
<path fill-rule="evenodd" clip-rule="evenodd" d="M1440 786V201.745C1431.13 199.171 1418.71 203.536 1407.76 210.705C1393.21 220.233 1381.45 235.749 1381.03 253.13C1380.84 260.953 1382.9 268.533 1384.96 276.132C1386.05 280.131 1387.14 284.135 1387.9 288.182C1390.11 299.92 1388.64 313.935 1378.9 320.845C1374.26 324.129 1368.56 325.225 1362.87 326.319C1356.95 327.459 1351.03 328.596 1346.34 332.206C1338.62 338.146 1337.03 348.142 1335.44 358.151C1334.82 362.029 1334.2 365.909 1333.23 369.555C1326.76 393.788 1299.07 410.117 1274.73 404.062C1272.07 405.466 1269.33 406.851 1266.56 408.25C1249.45 416.895 1231.23 426.101 1225.04 443.792C1223.45 448.315 1222.76 453.191 1222.08 458.036C1220.98 465.853 1219.89 473.588 1215.06 479.628C1209.11 487.059 1199.67 489.367 1190.11 491.703C1181.96 493.696 1173.72 495.71 1167.51 500.944C1159.5 507.695 1156.7 518.034 1153.88 528.449C1151.34 537.834 1148.79 547.281 1142.38 554.217C1139.62 557.645 1137.09 560.174 1134.76 562.015C1128.52 566.951 1123.7 566.949 1119.55 566.107C1118.25 565.843 1116.94 565.522 1115.63 565.2C1111.21 564.118 1106.77 563.029 1102.41 564.057C1097.65 565.178 1093.74 568.642 1089.91 572.043C1085.15 576.263 1080.51 580.388 1074.46 579.828C1071.21 579.525 1068.36 577.84 1065.51 576.155C1064.4 575.498 1063.29 574.842 1062.16 574.266C1055.34 570.809 1047.93 570.353 1040.44 571.565C1031.01 573.088 1021.45 577.259 1012.77 581.42C1007.33 593.587 999.409 595.392 993.228 593.789C989.653 592.86 986.372 591.145 983.086 589.427C980.691 588.175 978.293 586.921 975.775 585.969C969.802 583.708 962.082 583.639 958.059 588.598C953.712 581.21 949.365 573.821 945.019 566.431C949.755 551.927 952.465 542.694 951.793 533.337C951.124 523.977 946.337 514.321 937.752 510.53C935.938 509.728 933.955 509.168 931.98 508.611C927.769 507.421 923.599 506.243 921.195 502.765C917.216 497.003 920.894 489.809 924.25 483.243C924.797 482.175 925.334 481.123 925.829 480.097C933.268 464.683 929.863 444.726 917.73 432.65C910.64 440.749 897.855 441.259 883.606 441.827C870.263 442.358 855.638 442.941 843.204 449.856C841.644 450.723 840.117 451.691 838.591 452.658C834.554 455.218 830.516 457.777 825.849 458.491C819.415 459.474 811.522 454.475 812.907 448.119C798.704 455.445 785.786 465.259 774.919 476.977C771.259 483.443 765.804 487.051 760.364 490.651C758.258 492.044 756.154 493.436 754.157 494.991C747.001 500.566 741.274 508.616 740.576 517.659C740.083 524.09 742.109 530.302 744.13 536.499C744.803 538.561 745.474 540.621 746.053 542.687C748.37 550.966 748.8 560.938 742.745 567.042C739.598 570.217 735.152 571.867 730.78 573.49C725.139 575.583 719.621 577.632 717.169 582.851C715.857 585.643 715.769 588.83 715.702 591.913C715.514 600.73 715.326 609.547 715.138 618.363C714.951 627.18 714.763 635.997 714.575 644.814C714.49 648.793 714.404 652.775 714.32 656.755C713.68 671.217 708.188 676.88 702.481 678.021C698.73 678.772 694.914 678.303 691.087 677.832C689.094 677.587 687.097 677.341 685.105 677.268C679.29 677.053 672.529 679.071 670.484 684.517C668.71 689.237 671.154 693.774 673.666 698.439C675.229 701.343 676.82 704.297 677.436 707.374C679.268 716.515 671.873 725.294 663.344 729.052C657.417 731.664 650.977 732.589 644.531 733.515C641.698 733.922 638.864 734.328 636.072 734.879C626.925 736.682 617.308 740.757 613.132 749.091C593.047 726.487 566.124 717.859 541.542 722.877C539.06 723.384 536.534 724.013 533.992 724.646C523.83 727.177 513.415 729.771 504.547 724.879C500.949 722.893 498.156 719.914 495.506 716.743C494.903 716.02 494.306 715.287 493.71 714.553C491.932 712.367 490.149 710.175 488.156 708.227C477.349 697.654 459.557 695.056 446.176 702.097C427.6 686.649 409.846 673.921 390.01 675.348C389.059 675.416 388.092 675.514 387.119 675.612C382.553 676.073 377.856 676.548 374.125 674.083C371.968 672.658 370.53 670.473 369.091 668.287C368.538 667.447 367.985 666.606 367.391 665.809C361.58 658.009 350.884 654.208 341.453 656.596C317.004 635.895 306.775 600.741 319.259 574.1C316.94 573.633 314.62 573.166 312.303 572.698C315.054 563.831 305.816 553.712 296.733 555.643C295.851 539.748 291.487 524.055 284.037 509.985C280.572 501.83 273.797 499.934 268.795 501.407C266.12 502.196 263.691 503.584 261.259 504.974C259.144 506.183 257.027 507.393 254.743 508.211C249.833 509.969 243.07 508.968 241.311 504.06C240.893 502.896 240.811 501.637 240.729 500.385C240.627 498.818 240.525 497.26 239.769 495.91C238.205 493.113 234.361 492.365 231.264 493.199C228.899 493.837 226.816 495.162 224.738 496.485C224.094 496.895 223.45 497.304 222.799 497.693C210.373 505.108 193.691 504.676 181.664 496.63C178.375 497.945 174.646 498.493 170.791 499.059C167.812 499.496 164.757 499.944 161.772 500.767C154.926 502.652 148.373 506.807 145.254 513.187C140.021 523.882 145.739 536.459 151.371 546.95C148.481 550.466 145.591 553.981 142.701 557.497C139.811 561.012 136.921 564.527 134.031 568.043C110.156 567.828 99.71 566.993 89.2667 566.158C84.8404 560.876 80.414 555.594 75.9877 550.314C62.6034 537.984 57.9773 523.811 53.352 509.64L53.3509 509.637C52.2809 506.359 51.0978 502.911 48.4726 500.676C45.8452 498.444 41.2903 498.107 39.2743 500.904C38.2562 488.772 37.2361 476.642 36.2159 464.51L35.9801 461.706C34.0211 454.438 32.7393 448.213 31.6006 442.682C29.9707 434.766 28.6339 428.274 26.0241 422.185C23.7622 416.907 20.6009 412.073 17.4572 407.269C11.6421 398.383 5.82482 389.497 0.00751105 380.611L0 380.6V786V787.699V1215H1440V787.699V786Z" fill="url(#paint1_radial_2408_250)" fill-opacity="0.4"/>
<path d="M1232.12 602.331C1231.38 594.978 1230.63 587.54 1228.89 580.708C1227.15 573.875 1224.3 567.602 1220.37 564.509C1217.77 562.461 1214.7 561.761 1212.65 558.327C1209.79 553.554 1210.06 545.65 1208.69 539.208C1208.14 536.613 1207.25 534.117 1205.89 532.667C1204.28 530.944 1202.28 530.929 1200.4 530.492C1198.52 530.056 1196.46 528.854 1195.64 525.899C1195.14 524.062 1195.22 521.907 1194.89 519.959C1194.3 516.56 1192.53 514.19 1190.71 512.533C1188.9 510.875 1186.92 509.654 1185.34 507.385C1183 504.016 1181.82 498.401 1182.36 493.218C1187.1 496.682 1188.72 507.874 1193.5 511.208C1194.8 512.116 1196.35 512.472 1197.21 514.378C1198.03 516.184 1197.95 518.841 1198.74 520.674C1199.66 522.791 1201.37 523.124 1202.81 524.024C1204.39 525.007 1205.77 526.871 1206.72 529.268C1207.24 530.607 1207.84 532.314 1208.78 532.242C1209.23 532.207 1209.63 531.725 1210.08 531.591C1211.23 531.246 1212.17 533.222 1212.61 535.101C1213.05 536.976 1213.35 539.158 1214.33 540.268C1214.91 540.919 1215.65 541.103 1216.15 541.926C1216.72 542.886 1216.8 544.406 1217.09 545.692C1217.9 549.187 1220.23 550.638 1222.04 552.743C1226.46 557.891 1228.1 567.92 1232.13 573.952C1230.41 568.046 1233.92 560.999 1232.99 554.584C1232.19 549.018 1228.34 545.899 1227.69 540.276C1227.17 535.717 1228.93 530.573 1227.57 526.561C1226.08 522.167 1221.73 522.133 1220.81 517.291C1220.46 515.453 1220.75 513.436 1220.58 511.526C1220.3 508.319 1218.76 505.884 1217.17 504.169C1215.57 502.455 1213.8 501.145 1212.47 498.845C1211.15 496.545 1210.39 492.801 1211.35 490.018C1213.04 493.065 1214.73 496.112 1216.43 499.159C1216.94 500.077 1217.47 501.023 1218.16 501.501C1219.27 502.282 1220.58 501.658 1221.73 502.294C1223.43 503.235 1224.23 506.497 1224.84 509.394C1226.61 505.314 1226.7 499.289 1225.06 495.048C1223.94 492.143 1222.03 489.735 1221.98 486.244C1221.92 482.401 1224.17 479.534 1224.53 475.737C1224.87 472.139 1223.45 468.84 1222.21 465.904C1220.96 462.968 1219.75 459.251 1220.53 455.864C1220.75 454.907 1221.17 453.996 1221.76 453.801C1222.56 453.529 1223.28 454.658 1223.8 455.76C1226.3 461.123 1227.55 468.181 1227.58 475.745C1227.4 478.409 1227.21 481.073 1227.02 483.737C1226.97 484.457 1226.92 485.215 1227.07 485.884C1227.28 486.795 1227.81 487.335 1228.23 488.009C1230.52 491.729 1229.03 498.451 1230 503.614C1230.26 505.004 1230.71 506.282 1230.93 507.695C1231.2 509.402 1231.13 511.205 1231.15 512.973C1231.22 517.298 1231.93 521.585 1233.18 525.333C1233.66 526.764 1234.21 528.123 1234.6 529.639C1235.31 532.467 1235.36 535.637 1235.39 538.718C1235.48 545.73 1235.57 552.747 1235.65 559.759C1235.72 565.608 1235.86 571.839 1237.81 576.624C1236.61 574.534 1237.66 570.848 1239.1 569.248C1240.53 567.652 1242.34 566.905 1243.42 564.62C1244.74 561.826 1244.51 557.711 1245.4 554.45C1246.42 550.722 1248.8 548.498 1249.78 544.735C1250.04 543.748 1250.19 542.63 1250.04 541.574C1249.7 539.059 1247.8 537.531 1247.91 534.952C1247.95 533.907 1248.33 533.007 1248.54 532.023C1249.25 528.682 1247.9 525.187 1246.69 522.313C1245.47 519.438 1244.28 515.637 1245.28 512.521C1246.71 515.446 1248.13 518.374 1249.55 521.298C1249.88 521.96 1250.23 522.661 1250.94 522.347C1249.24 517.673 1249.3 511.266 1251.09 506.692C1251.69 505.165 1252.46 503.832 1252.95 502.198C1254.87 495.798 1251.89 487.798 1253.11 480.908C1253.89 476.491 1256.33 473.031 1256.39 468.411C1256.44 464.235 1254.47 460.518 1254.65 456.354C1254.74 454.226 1255.68 451.975 1256.91 452.105C1258.7 452.293 1259.1 456.514 1258.97 459.603C1258.72 465.46 1258.47 471.316 1258.22 477.173C1258.11 479.84 1257.97 482.646 1257.09 484.851C1256.57 486.164 1255.81 487.201 1255.45 488.663C1254.77 491.408 1255.7 494.466 1255.92 497.429C1256.46 504.621 1252.78 511.568 1253.83 518.592C1254.09 520.315 1254.63 522.091 1254.3 523.775C1254.14 524.594 1253.79 525.256 1253.52 525.98C1250.91 532.915 1255.33 543.185 1252.7 550.105C1251.86 552.314 1250.41 553.746 1249.74 556.119C1248.9 559.07 1249.45 562.787 1248.59 565.722C1247.99 567.751 1246.82 569.06 1245.92 570.714C1245.01 572.367 1244.35 574.917 1245.02 576.873C1246.29 572.394 1249.01 569.248 1251.89 568.907C1252.64 568.819 1253.44 568.892 1254.11 568.279C1255.49 567.005 1255.57 563.652 1256.45 561.409C1258.09 557.229 1262.34 557.313 1263.3 552.544C1264.37 554.465 1263.95 557.776 1262.93 559.755C1261.9 561.734 1260.44 562.829 1259.15 564.279C1257.86 565.73 1256.64 567.885 1256.6 570.538C1256.59 571.223 1256.68 571.962 1256.98 572.421C1257.68 573.527 1258.74 572.245 1259.63 571.675C1261.79 570.297 1264.27 574.909 1263.32 578.526C1259.09 575.211 1254.25 579.349 1250.23 583.38C1248.55 585.068 1246.82 586.825 1245.66 589.512C1244.93 591.2 1244.46 593.171 1243.87 595.016C1242.79 598.384 1241.3 601.355 1239.53 603.682C1238.07 600.172 1237.23 595.889 1237.16 591.563C1235.91 593.121 1235.77 596.245 1235.97 598.889C1236.16 601.534 1236.56 604.329 1235.96 606.79C1235.36 609.251 1232.96 610.706 1232.12 602.327L1232.12 602.331Z" fill="#602A02"/>
<path d="M1225.59 481.598C1225.37 479.71 1225.11 477.667 1224.24 476.465C1223.83 475.894 1223.32 475.577 1222.81 475.37C1221.24 474.734 1219.6 475.041 1218.02 474.57C1216.44 474.099 1214.77 472.48 1214.44 469.766C1214.35 468.997 1214.39 468.116 1214.7 467.55C1215.14 466.765 1215.91 466.907 1216.43 467.523C1216.94 468.139 1217.27 469.104 1217.63 469.984C1218 470.865 1218.45 471.734 1219.06 471.975C1219.41 472.112 1219.76 472.036 1220.11 471.975C1221.35 471.768 1222.64 471.818 1223.78 472.706C1224.91 473.594 1225.85 475.477 1225.59 481.594V481.598Z" fill="#602A02"/>
<path d="M1224.76 463.895C1224.21 463.022 1224.02 461.629 1224.1 460.35C1224.18 459.072 1224.5 457.874 1224.83 456.721C1225.24 455.259 1225.8 453.671 1226.72 453.311C1227.45 453.024 1228.3 453.571 1228.92 452.852C1229.37 452.335 1229.52 451.344 1229.65 450.44C1230.4 452.304 1230.7 455.152 1229.73 456.691C1229.03 457.805 1227.94 457.789 1227.11 458.612C1226.39 459.324 1225.92 460.622 1225.68 461.988C1225.43 463.355 1225.36 464.859 1224.76 463.898V463.895Z" fill="#602A02"/>
<path d="M1256.72 474.727C1255.55 472.591 1254.26 470.34 1252.57 469.85C1252.12 469.72 1251.66 469.72 1251.22 469.494C1250.06 468.89 1249.36 466.823 1249.01 464.805C1248.98 464.599 1248.94 464.377 1248.98 464.17C1249.02 463.952 1249.12 463.791 1249.24 463.68C1249.67 463.267 1250.23 463.473 1250.64 463.933C1251.06 464.392 1251.38 465.07 1251.73 465.682C1252.64 467.309 1253.77 468.522 1254.79 469.946C1255.81 471.37 1256.77 473.1 1256.72 474.727Z" fill="#602A02"/>
<path d="M1257.95 467.091C1257.72 463.34 1258.83 459.451 1260.69 457.464C1260.84 457.3 1261.01 457.143 1261.19 457.173C1261.53 457.227 1261.71 457.878 1261.8 458.444C1262.31 461.946 1261.4 465.935 1259.63 467.876C1258.94 468.641 1258.07 469.12 1257.95 467.091Z" fill="#602A02"/>
<path d="M1253.46 507.465C1254.57 503.73 1255.72 499.909 1257.51 497.069C1257.98 496.323 1258.61 495.611 1259.22 495.952C1259.85 496.308 1260.12 497.709 1259.94 498.815C1259.76 499.925 1259.27 500.786 1258.78 501.563C1257.58 503.458 1256.28 505.157 1254.9 506.623C1255.67 506.505 1256.46 506.443 1257.24 506.443C1257.5 506.443 1257.78 506.455 1258.01 506.692C1258.45 507.155 1258.49 508.323 1258.21 509.073C1257.93 509.827 1257.43 510.252 1256.95 510.577C1255.7 511.427 1254.36 511.879 1253.46 507.458V507.465Z" fill="#602A02"/>
<path d="M1228.88 497.567C1228.46 493.456 1229.07 489.246 1229.81 485.272C1230.36 482.359 1231.16 479.182 1232.81 478.061C1233.36 477.686 1234.01 477.598 1234.53 478.084C1235.21 478.719 1235.5 480.197 1235.43 481.525C1235.36 482.853 1235 484.074 1234.64 485.253C1233.51 488.916 1232.29 492.618 1230.45 495.278C1231.24 493.544 1232.27 492.139 1233.42 491.217C1234.06 490.715 1234.84 490.375 1235.41 491.045C1236.07 491.802 1236.11 493.467 1235.87 494.761C1235.38 497.303 1234.13 499.178 1232.8 500.545C1231.47 501.907 1229.46 503.159 1228.88 497.567H1228.88Z" fill="#602A02"/>
<path d="M1188.6 507.714C1186.79 502.378 1186.7 495.427 1188.36 489.946C1188.55 489.291 1188.87 488.568 1189.3 488.648C1189.49 488.683 1189.66 488.886 1189.79 489.123C1190.55 490.447 1190.41 492.614 1190.17 494.428C1189.55 499.048 1188.66 503.687 1188.6 507.714H1188.6Z" fill="#602A02"/>
<path d="M1184.24 502.73C1182.42 504.77 1179.98 505.061 1178 503.465C1177.53 503.086 1177.08 502.592 1176.76 501.892C1176.43 501.192 1176.25 500.254 1176.36 499.377C1176.42 498.971 1176.54 498.573 1176.75 498.371C1176.9 498.233 1177.06 498.198 1177.23 498.175C1180.16 497.747 1183.17 499.477 1184.24 502.726V502.73Z" fill="#602A02"/>
<path d="M1197.26 519.879C1196.41 514.799 1196.32 509.352 1197 504.197C1197.08 503.515 1197.19 502.822 1197.42 502.252C1197.65 501.678 1198.03 501.242 1198.44 501.287C1198.87 501.333 1199.23 501.931 1199.4 502.62C1199.58 503.309 1199.59 504.078 1199.6 504.828C1199.64 510.83 1198.99 516.771 1197.25 519.882L1197.26 519.879Z" fill="#602A02"/>
<path d="M1198.79 510.041C1199.64 507.385 1201.15 505.39 1202.85 504.686C1202.97 504.636 1203.12 504.602 1203.21 504.751C1203.3 504.893 1203.29 505.13 1203.28 505.333C1203 509.099 1201.04 512.284 1198.79 510.041Z" fill="#602A02"/>
<path d="M1214.71 553.83C1212.07 555.158 1209.27 555.571 1206.54 555.036C1205.27 554.787 1204.01 554.327 1202.87 553.328C1202.32 552.838 1201.78 552.184 1201.48 551.235C1201.19 550.285 1201.2 548.988 1201.64 548.234C1202.05 547.552 1202.67 547.48 1203.24 547.449C1204.49 547.38 1205.76 547.315 1206.98 547.851C1209.31 548.884 1211.18 552.023 1214.7 553.826L1214.71 553.83Z" fill="#602A02"/>
<path d="M1216.28 546.688C1215.74 546.496 1215.31 545.723 1215.1 544.843C1214.89 543.962 1214.86 542.983 1214.87 542.026C1214.93 538.585 1215.55 535.174 1216.64 532.288C1216.84 531.733 1217.11 531.155 1217.48 531.033C1217.86 530.91 1218.24 531.308 1218.46 531.852C1218.68 532.399 1218.76 533.069 1218.81 533.723C1219.22 538.412 1218.62 543.335 1216.28 546.688H1216.28Z" fill="#602A02"/>
<path d="M1205.82 551.304C1204.52 551.047 1203.25 550.056 1202.33 548.421C1201.42 546.787 1200.89 544.498 1200.98 542.232C1201.01 541.589 1201.1 540.9 1201.38 540.475C1201.67 540.043 1202.11 539.989 1202.47 540.207C1202.83 540.429 1203.12 540.881 1203.38 541.375C1204.6 543.759 1204.99 547.101 1205.82 551.304H1205.82Z" fill="#602A02"/>
<path d="M1209.91 535.04C1208.22 531.005 1207.72 525.562 1208.61 520.824C1208.85 519.534 1209.39 518.075 1210.17 518.244C1210.94 518.412 1211.27 520.039 1211.32 521.386C1211.49 525.949 1210.45 530.454 1209.9 535.04H1209.91Z" fill="#602A02"/>
<path d="M1225.54 561.405C1224.91 559.576 1224.27 557.696 1224.05 555.602C1223.89 554.029 1223.97 552.41 1224.07 550.822C1224.21 548.785 1224.39 546.737 1224.8 544.816C1224.85 544.586 1224.94 544.311 1225.08 544.357C1225.15 544.376 1225.19 544.46 1225.23 544.537C1226.46 546.799 1226.78 550.117 1226.7 553.21C1226.62 556.303 1226.19 559.346 1225.54 561.401L1225.54 561.405Z" fill="#602A02"/>
<path d="M1231.99 583.525C1231 580.8 1229.91 577.929 1228.21 576.612C1226.39 575.204 1224.15 575.816 1222.47 573.967C1221.8 573.233 1221.27 572.161 1220.64 571.334C1220.01 570.507 1219.17 569.925 1218.43 570.385C1218.1 570.588 1217.78 571.1 1217.82 571.701C1217.85 572.015 1217.97 572.283 1218.08 572.528C1218.65 573.749 1219.29 574.878 1220.11 575.499C1217.83 573.914 1215.33 573.324 1212.89 573.803C1212.31 573.918 1211.61 574.289 1211.5 575.28C1211.43 576.023 1211.75 576.716 1212.09 577.175C1213.96 579.671 1216.83 578.725 1218.86 580.658C1217.58 581.01 1216.36 582.12 1215.47 583.766C1215.24 584.184 1215.03 584.685 1215.04 585.255C1215.07 586.055 1215.56 586.614 1216.03 586.622C1216.49 586.629 1216.92 586.231 1217.33 585.849C1218.48 584.765 1219.63 583.678 1220.78 582.595C1221.83 581.608 1222.95 580.589 1224.14 580.758C1225.83 580.999 1227.08 583.525 1228.61 584.811C1228.99 585.125 1229.39 585.37 1229.81 585.343C1230.82 585.282 1231.56 583.69 1231.99 583.525H1231.99Z" fill="#602A02"/>
<path d="M1232.96 538.405C1232.02 534.829 1231.9 530.734 1232.27 526.864C1232.64 522.994 1233.5 519.308 1234.46 515.756C1234.93 514.026 1235.66 512.055 1236.76 512.12C1237.07 517.486 1235.21 522.477 1234.74 527.809C1235.35 525.18 1236.7 523.094 1238.28 522.336C1238.97 522.007 1239.92 522.179 1240.09 523.373C1240.17 523.943 1240.03 524.529 1239.87 525.05C1239.23 527.235 1238.36 529.226 1237.33 530.906C1238.24 531.147 1239.14 531.549 1240.01 532.108C1240.21 532.238 1240.42 532.395 1240.55 532.701C1240.8 533.344 1240.53 534.209 1240.24 534.81C1238.73 538.003 1236.66 540.406 1232.96 538.401L1232.96 538.405Z" fill="#602A02"/>
<path d="M1215.35 499.056C1214.39 498.746 1213.92 496.866 1213.67 495.228C1213.31 492.947 1213.05 490.585 1213.18 488.235C1213.25 487.018 1213.55 485.609 1214.23 485.311C1214.48 485.2 1214.76 485.268 1215 485.437C1215.67 485.896 1216.12 487.048 1216.31 488.25C1216.51 489.452 1216.5 490.719 1216.52 491.963C1216.57 494.264 1216.72 496.556 1215.35 499.056Z" fill="#602A02"/>
<path d="M1251.57 546.699C1253.85 544.792 1255.99 542.037 1257.16 538.155C1257.56 536.816 1257.84 535.376 1258.24 534.04C1258.64 532.705 1259.21 531.441 1260 530.802C1261.1 533.068 1260.76 536.551 1259.95 539.162C1258.32 544.41 1254.98 547.947 1251.57 546.699Z" fill="#602A02"/>
<path d="M1259.05 539.426C1260.19 536.797 1261.36 534.117 1262.93 532.265C1263.27 531.855 1263.65 531.484 1264.06 531.373C1264.47 531.262 1264.94 531.457 1265.2 532.016C1265.46 532.571 1265.48 533.356 1265.43 534.064C1265.23 536.728 1264.16 539.055 1262.8 540.364C1261.44 541.673 1259.83 542.052 1259.05 539.423L1259.05 539.426Z" fill="#602A02"/>
<path d="M1259.59 559.71C1259.11 558.171 1258.62 556.605 1258.4 554.894C1258.18 553.183 1258.27 551.281 1258.86 549.857C1259.12 549.21 1259.5 548.674 1259.94 548.449C1260.38 548.223 1260.89 548.349 1261.25 548.862C1261.84 549.719 1261.83 551.27 1261.74 552.594C1261.57 555.063 1261.31 557.516 1259.59 559.71Z" fill="#602A02"/>
<path d="M1261.02 574.446C1262.93 572.785 1264.32 569.474 1264.65 565.83C1264.71 565.141 1264.74 564.433 1264.88 563.775C1265.01 563.116 1265.27 562.488 1265.66 562.266C1266.22 561.933 1266.86 562.634 1267.1 563.583C1267.34 564.532 1267.27 565.631 1267.1 566.622C1266.61 569.558 1265.41 571.954 1264.25 574.251C1263.73 575.258 1263.19 576.306 1261.02 574.45V574.446Z" fill="#602A02"/>
<path d="M1247.19 522.834C1245.66 523.833 1243.93 523.894 1242.38 523.006C1241.5 522.501 1240.63 521.624 1240.18 520.219C1239.72 518.811 1239.83 516.797 1240.58 515.863C1241.41 514.841 1242.59 515.461 1243.4 516.514C1244.21 517.567 1244.86 519.014 1245.75 519.844C1246.59 520.629 1247.62 520.82 1247.19 522.834Z" fill="#602A02"/>
<path d="M1254.1 487.469C1254.84 484.235 1255.79 480.637 1257.7 479.546C1259.17 478.708 1260.75 479.638 1262.3 479.734C1265.49 479.929 1268.61 476.044 1269.52 470.754C1269.85 468.817 1269.93 466.681 1270.6 465.028C1271.27 463.37 1272.89 462.647 1273.55 464.312C1273.89 465.177 1273.84 466.337 1273.71 467.359C1273.21 471.236 1271.77 474.585 1270.09 477.303C1269.19 478.758 1268.19 480.082 1267.04 480.867C1264.07 482.895 1260.18 481.322 1258 485.349C1257.36 486.532 1256.96 488.07 1256.28 489.188C1255.6 490.302 1254.42 490.842 1254.1 487.473V487.469Z" fill="#602A02"/>
<path d="M1265.41 479.695C1264.7 477.127 1264.55 474.118 1264.98 471.381C1265.16 470.317 1265.43 469.249 1265.93 468.556C1266.06 468.377 1266.21 468.216 1266.38 468.223C1266.74 468.239 1266.93 468.932 1267.03 469.521C1267.67 473.203 1267.81 477.138 1265.41 479.695Z" fill="#602A02"/>
<path d="M1271.2 473.403C1274.74 469.078 1276.62 461.552 1280.16 457.231C1280.51 461.748 1279.15 466.26 1277.2 469.353C1275.26 472.446 1272.81 474.36 1271.2 473.403Z" fill="#602A02"/>
<path d="M1226.95 521.134C1225.56 521.731 1224.15 522.133 1222.73 522.343C1220.83 522.623 1218.84 522.523 1217.12 521.084C1215.41 519.645 1214.03 516.59 1214.15 513.299C1214.17 512.747 1214.24 512.185 1214.42 511.733C1214.73 510.967 1215.32 510.677 1215.86 510.749C1216.85 510.883 1217.75 512.146 1218.04 513.792C1218.22 514.841 1218.21 516.131 1218.72 516.77C1219.02 517.149 1219.42 517.168 1219.8 517.176C1220.64 517.191 1221.5 517.199 1222.29 516.728C1222.68 516.499 1223.05 516.158 1223.45 516.055C1224.54 515.767 1225.5 517.245 1226.95 521.138V521.134Z" fill="#602A02"/>
<path d="M1254.98 497.586C1253.43 498.267 1251.85 496.828 1250.47 495.423C1249.04 493.968 1247.6 492.476 1246.43 490.436C1245.27 488.399 1244.38 485.727 1244.33 482.864C1244.31 481.789 1244.54 480.445 1245.16 480.315C1245.64 480.212 1246.03 480.916 1246.34 481.555C1247.04 483.025 1247.75 484.491 1248.46 485.961C1249.75 488.663 1251.17 491.5 1253.11 492.487C1253.4 492.633 1253.7 492.736 1253.97 492.973C1254.85 493.743 1255.15 495.622 1254.98 497.586Z" fill="#602A02"/>
<path d="M1249.01 489.578C1247.51 487.006 1246.83 483.078 1247.27 479.503C1247.37 478.711 1247.64 477.773 1248.11 477.815C1248.29 477.834 1248.46 478.011 1248.6 478.206C1249.18 479.013 1249.53 480.292 1249.53 481.582C1249.53 482.784 1249.23 483.924 1249.13 485.115C1248.98 486.868 1249.28 488.717 1249.01 489.574V489.578Z" fill="#602A02"/>
<path d="M1364.19 375.743C1362.88 370.878 1361.44 366.403 1360.67 361.519C1359.79 355.877 1359.84 349.96 1359.63 344.134C1359.41 338.312 1358.87 332.276 1356.98 327.43C1355.97 325.133 1354.67 324.306 1353.42 324.513C1352.17 324.72 1350.99 325.956 1350.31 327.786C1350.14 332.544 1350.8 337.244 1352.01 341.55C1350.66 337.818 1349.19 334.121 1347.72 330.427C1347.51 329.902 1347.27 329.34 1346.92 329.19C1346.59 329.049 1346.25 329.324 1345.95 329.612C1344.84 330.695 1343.85 332.126 1343.03 333.814C1341.94 332.26 1340.46 332.762 1339.64 334.323C1338.82 335.889 1338.62 338.266 1338.93 340.341C1339.25 342.419 1340.02 344.218 1340.93 345.676C1340.26 347.674 1340.44 350.503 1340.93 353.087C1341.41 355.67 1342.18 358.063 1342.95 360.436C1340.09 354.759 1337.61 349.638 1335.41 344.187C1334.9 342.917 1334.28 341.5 1333.4 341.374C1332.49 341.244 1331.71 342.652 1331.52 344.195C1331.33 345.741 1331.59 347.353 1331.91 348.846C1332.86 353.251 1334.35 357.232 1335.83 361.171C1335.19 361.094 1334.56 361.833 1334.36 362.889C1332.62 355.892 1330.44 349.171 1327.97 342.775C1327.49 341.508 1326.96 340.214 1326.2 339.46C1325.12 338.381 1323.65 338.714 1322.78 340.233C1321.9 341.753 1321.7 344.329 1322.31 346.235C1322.57 347.047 1322.96 347.782 1323.03 348.7C1323.09 349.619 1322.52 350.664 1322.08 350.147C1321.68 349.45 1321.27 348.754 1320.86 348.061C1319.8 347.567 1319.05 348.719 1318.93 349.998C1318.81 351.28 1319.12 352.566 1319.45 353.734C1319.98 355.579 1320.58 357.355 1321.22 359.077C1320.98 359.23 1320.76 359.425 1320.55 359.663C1319.91 356.065 1319.15 352.57 1317.84 349.615C1316.05 350.231 1314.49 351.188 1314.02 353.535C1313.62 355.548 1314.2 357.737 1314.78 359.644C1316.36 364.937 1317.95 370.231 1319.53 375.529C1316.97 372.133 1315.67 367.751 1314.53 363.563C1313.38 359.379 1312.17 354.962 1309.99 352.317C1308.34 352.317 1306.89 352.551 1305.67 353.753C1304.46 354.955 1303.54 357.381 1303.82 359.801C1304.03 361.596 1304.82 362.989 1305.56 364.294C1309.23 370.744 1312.54 377.833 1315.42 385.419C1315.69 384.068 1316 382.748 1316.35 381.458C1316.61 380.528 1316.92 379.567 1317.43 379.058C1317.94 378.549 1318.62 378.763 1318.86 379.827C1319.28 381.687 1319.18 383.877 1318.59 385.561C1318 387.245 1316.93 388.386 1315.8 388.547C1315.51 388.589 1315.14 388.481 1315.05 387.988C1315 387.747 1315.04 387.486 1315.08 387.245C1315.16 386.748 1315.32 385.909 1315.42 385.419C1312.19 378.889 1308.64 373.09 1304.93 367.402C1304.04 368.754 1303.13 370.139 1302.54 371.931C1301.95 373.722 1301.73 376.022 1302.27 377.894C1302.58 378.973 1303.1 379.808 1303.62 380.612C1307.26 386.284 1310.9 391.957 1314.54 397.63C1314.24 402.227 1315.34 406.755 1316.9 410.506C1318.47 414.257 1320.48 417.342 1322.48 420.393C1327.91 428.657 1333.32 436.921 1338.75 445.181C1338.5 450.195 1340.05 451.413 1341.51 451.466C1342.97 451.52 1344.38 450.624 1345.74 449.74C1347.83 448.385 1349.93 447.026 1352.02 445.671C1353.11 444.963 1354.34 444.018 1354.69 442.062C1354.94 440.615 1354.64 438.908 1355.06 437.595C1355.58 436.014 1356.82 435.865 1357.73 434.977C1359.6 433.147 1359.75 428.657 1360.1 424.94C1361.05 414.931 1364.97 406.686 1366.89 397.14C1367.78 392.753 1368.23 388.129 1368.68 383.536C1368.85 381.779 1369 379.85 1368.49 378.296C1367.69 375.877 1365.78 375.663 1364.19 375.747M1311.98 360.145C1311.78 361.125 1311.24 361.852 1310.64 361.94C1309.91 362.047 1309.24 361.282 1308.58 360.708C1307.8 360.026 1306.95 359.582 1306.09 359.402C1305.67 359.314 1305.19 359.215 1304.98 358.576C1304.78 357.959 1304.97 357.198 1305.19 356.616C1305.87 354.825 1306.9 353.351 1308.11 353.022C1309.32 352.693 1310.06 354.495 1311.61 357.236C1312.03 357.986 1312.18 359.165 1311.98 360.145ZM1305.47 371.008C1305.11 372.474 1304.52 373.764 1303.79 374.713C1303.54 375.035 1303.2 375.314 1302.94 374.996C1302.71 374.702 1302.72 374.105 1302.65 373.883C1303.19 372.443 1303.88 371.173 1304.67 370.139C1304.79 369.978 1304.92 369.821 1305.07 369.764C1305.22 369.707 1305.4 369.764 1305.49 369.982C1305.62 370.269 1305.55 370.683 1305.47 371.012M1320.54 396.129C1319.65 399.41 1317.55 401.53 1315.48 401.235C1315.23 401.201 1314.95 401.082 1314.85 400.684C1314.77 400.393 1314.83 400.056 1314.9 399.762C1315.35 397.683 1316.01 395.75 1316.84 394.074C1317.3 393.136 1317.83 392.256 1318.5 391.808C1319.16 391.36 1319.97 391.417 1320.53 392.213C1321.08 393.01 1321.01 394.361 1320.54 396.125M1317.83 352.773C1316.88 353.596 1315.89 354.262 1314.87 354.759C1314.71 354.836 1314.49 354.863 1314.43 354.591C1314.38 354.377 1314.48 354.155 1314.57 353.994C1315.25 352.869 1316.03 351.946 1316.88 351.242C1317.07 351.077 1317.28 350.92 1317.5 350.913C1317.72 350.905 1317.96 351.081 1318.05 351.429C1318.15 351.778 1318.15 352.493 1317.83 352.769M1325.91 341.964C1325.21 342.867 1324.46 343.632 1323.66 344.237C1323.35 344.471 1322.95 344.654 1322.7 344.237C1322.48 343.862 1322.53 343.223 1322.66 342.733C1322.99 341.37 1323.74 340.436 1324.53 339.916C1324.94 339.648 1325.41 339.475 1325.82 339.747C1326.24 340.023 1326.62 341.037 1325.91 341.96M1337.18 363.996C1337.18 364.627 1337.02 365.244 1336.77 365.684C1336.51 366.124 1336.17 366.384 1335.81 366.457C1335.61 366.499 1335.39 366.472 1335.2 366.296C1335.02 366.124 1334.89 365.814 1334.81 365.477C1334.58 364.467 1334.84 363.295 1335.27 362.518C1335.49 362.12 1335.76 361.779 1336.08 361.734C1336.38 361.688 1336.7 361.94 1336.88 362.377C1337.06 362.813 1337.17 363.399 1337.18 364M1334.24 343.655C1333.84 344.26 1333.39 344.773 1332.91 345.167C1332.8 345.263 1332.67 345.355 1332.55 345.301C1332.43 345.255 1332.34 345.098 1332.28 344.918C1332.1 344.375 1332.17 343.644 1332.41 343.177C1332.64 342.71 1333.01 342.496 1333.37 342.503C1333.73 342.511 1334.08 342.721 1334.24 343.651M1346.46 348.551C1346.34 349.221 1346 349.783 1345.91 348.983C1344.68 349.527 1343.36 349.504 1342.13 348.915C1341.85 348.784 1341.54 348.555 1341.46 348.072C1341.4 347.701 1341.51 347.315 1341.63 346.993C1341.94 346.166 1342.37 345.485 1342.87 345.029C1343.45 344.505 1344.12 344.283 1344.77 344.52C1345.41 344.758 1346.01 345.473 1346.31 346.495C1346.5 347.123 1346.58 347.877 1346.46 348.547M1343.84 336.582C1343.84 337.221 1343.75 337.914 1343.55 338.117C1342.71 338.982 1341.69 339.311 1340.73 339.02C1340.33 338.901 1339.91 338.626 1339.73 337.99C1339.59 337.458 1339.67 336.819 1339.83 336.302C1340.13 335.322 1340.7 334.607 1341.32 334.415C1341.78 334.277 1342.24 334.4 1342.69 334.519C1342.94 334.584 1343.19 334.653 1343.4 334.898C1343.7 335.257 1343.84 335.939 1343.84 336.582ZM1347.11 330.959C1346.8 332.352 1346.04 333.401 1345.19 333.615C1344.97 333.673 1344.68 333.611 1344.6 333.236C1344.53 332.945 1344.64 332.632 1344.74 332.387C1345.15 331.456 1345.68 330.702 1346.29 330.201C1346.46 330.059 1346.65 329.937 1346.83 330.025C1347.01 330.113 1347.21 330.53 1347.11 330.963M1350.88 328.746C1350.86 328.314 1351.08 327.989 1351.29 327.759C1352.19 326.76 1353.2 326.075 1354.25 325.761C1354.73 325.619 1355.29 325.6 1355.62 326.22C1355.95 326.821 1355.92 327.755 1355.91 327.797C1354.68 329.336 1353.11 330.01 1351.6 329.642C1351.28 329.566 1350.9 329.305 1350.88 328.75M1367.3 380.658C1366.53 381.423 1365.71 382.078 1364.83 382.261C1363.95 382.445 1363 382.097 1362.34 381.06C1361.98 380.508 1361.71 379.597 1361.93 378.87C1362.08 378.338 1362.44 378.112 1362.77 377.929C1363.16 377.707 1363.56 377.488 1363.95 377.266C1364.56 376.93 1365.17 376.589 1365.8 376.577C1366.43 376.566 1367.1 376.937 1367.51 377.798C1367.92 378.66 1367.95 379.999 1367.3 380.654" fill="#602A02"/>
<path d="M1440 765.08V1001.36C1439.6 1002.24 1439.19 1003.12 1438.79 1004H0V619.165C3.17243 628.375 6.88985 637.302 11.1234 645.841C15.8156 655.311 21.1946 664.461 23.9815 675.01C26.7707 685.557 26.4916 698.151 20.6186 706.565C29.5577 723.783 38.4945 740.999 47.4336 758.217C50.6149 764.343 53.8626 770.68 54.8884 777.84C56.1157 786.404 54.0266 795.295 55.2517 803.862C56.4768 812.426 63.7721 820.949 70.0128 816.871C67.9303 843.888 82.7003 871.467 110.678 877.572C108.6 886.976 109.086 897.694 113.705 905.612C118.324 913.53 127.655 917.508 134.64 912.911C139.523 909.696 142.343 903.319 145.941 898.139C149.538 892.958 155.332 888.579 160.394 891.338C166.958 894.916 166.841 906.989 172.2 912.865C177.328 918.49 185.208 916.486 191.965 914.972C218.45 909.05 246.772 916.742 283.208 935.907C287.078 929.396 295.639 933.314 300.249 939.048C304.859 944.782 309.407 952.438 315.96 952.304C318.84 952.247 321.517 950.598 324.284 949.613C335.467 945.627 348.591 954.224 365.051 968.677C372.654 957.354 380.572 945.714 391.232 939.105C401.891 932.496 416.12 932.253 424.658 942.519C443.279 938.363 461.901 934.208 488.339 929.805C490.728 925.418 493.118 921.031 495.506 916.644C502.323 904.126 509.142 891.608 515.959 879.091C518.407 874.595 520.963 869.965 524.683 867.075C533.531 860.196 547.176 864.392 553.658 854.279C559.174 845.674 555.419 832.644 558.736 822.471C562.211 811.81 572.198 807.219 581.109 803.802C600.746 796.269 621.435 788.659 650.583 796.075C662.477 801.073 673.718 808.413 683.752 817.729C683.313 822.801 682.872 827.872 682.434 832.944C691.847 826.79 702.942 825.069 714.575 828.09C724.09 830.561 733.964 836.199 743.569 845.178C754.321 855.503 762.05 870.497 765.063 886.864C773.156 887.884 781.249 888.904 789.342 889.923C786.333 896.661 783.327 903.401 780.32 910.141C791.03 902.387 807.047 912.663 808.013 927.913C808.403 934.077 806.757 940.482 808.316 946.363C809.874 952.244 817.379 955.811 825.964 950.797C843.559 953 861.758 946.775 875.905 933.715C872.886 939.539 877.762 947.465 883.274 948.765C888.786 950.066 894.313 947.293 899.765 945.657C913.811 941.442 929.283 945.063 946.607 948.122C956.437 945.368 966.512 942.486 974.9 935.599C983.285 928.711 989.739 916.835 988.615 904.505C988.119 899.049 986.203 893.882 985.864 888.407C985.213 877.905 990.594 867.947 997.577 861.859C1004.56 855.77 1012.98 852.828 1021.23 849.99C1008.43 828.009 1017.03 792.345 1041.9 773.616C1041.41 761.715 1040.92 749.814 1040.44 737.912C1040.28 734.155 1040.13 730.4 1039.98 726.643C1049.23 719.96 1059.96 716.421 1070.68 716.517C1074.94 701.482 1091.66 697.804 1103.8 703.317C1115.11 708.454 1124.26 718.859 1134.76 726.155C1135.53 726.687 1136.3 727.202 1137.08 727.698C1169.21 748.085 1210.91 732.669 1248.03 763.888C1265.28 740.478 1289.01 724.435 1314.33 719.077C1315.41 736.077 1331.38 748.944 1340.44 746.258C1338.91 763.394 1337.38 780.534 1335.85 797.67C1335.44 802.289 1335.44 807.987 1338.7 810.33C1343.95 814.098 1350.68 804.517 1356.15 807.78C1362.16 811.363 1357.71 822.61 1358.8 830.716C1360.09 840.363 1370.98 844.45 1377.74 839.318C1384.51 834.187 1387.06 823.256 1386.16 813.539C1385.5 806.381 1383.32 799.541 1382.64 792.389C1381.96 785.234 1383.17 777.109 1387.85 772.785C1390.96 769.908 1395.02 769.229 1398.89 768.646C1412.79 766.544 1426.69 764.439 1440 765.08Z" fill="#331600"/>
<path d="M1305.97 736.2C1301.91 728.108 1297.79 719.92 1292.19 713.357C1286.6 706.794 1279.27 701.933 1271.55 701.995C1268.11 702.023 1264.47 702.971 1261.36 701.169C1258.25 699.37 1256.41 694.762 1257.14 690.634C1257.43 688.995 1258.33 687.253 1259.69 687.174C1261.06 687.097 1262.04 688.671 1262.94 689.944C1265.45 693.502 1269.15 695.735 1273.37 696.305C1267.53 690.732 1262.44 683.122 1261.51 674.103C1261.31 672.115 1261.32 670.01 1262.05 668.221C1262.3 667.63 1262.67 667.035 1263.2 666.932C1264.05 666.765 1264.67 667.883 1265.02 668.851C1266.34 672.494 1267.22 676.352 1268.48 680.03C1269.73 683.708 1271.42 687.283 1274.18 690.68C1274.2 685.701 1276.15 680.984 1276.31 676.008C1276.46 671.561 1275.18 667.24 1273.73 663.164C1272.89 660.8 1271.97 658.198 1272.58 655.731C1272.67 655.371 1272.8 655.003 1273.06 654.801C1273.57 654.403 1274.23 654.848 1274.68 655.33C1278.26 659.095 1279.27 665.402 1279.21 671.193C1279.16 676.984 1278.29 682.814 1278.84 687.793C1280.78 691.25 1282.75 694.759 1285.4 697.393C1287.73 699.708 1290.55 701.275 1293.5 701.9C1292.08 701.496 1290.98 700.133 1290.06 698.732C1286.85 693.799 1284.96 687.577 1284.76 681.257C1284.74 680.513 1284.74 679.73 1285.03 679.07C1285.31 678.41 1285.96 677.933 1286.53 678.187C1286.9 678.351 1287.15 678.765 1287.37 679.163C1291.26 686.217 1293.06 694.999 1298.11 700.924C1296.74 692.91 1299.58 684.812 1302.36 677.369C1300.54 676.717 1299.26 674.738 1298.12 672.87C1294.21 666.479 1290.08 659.188 1290.89 651.246C1290.98 650.286 1291.46 649.07 1292.23 649.288C1292.52 649.37 1292.74 649.651 1292.92 649.94C1293.95 651.603 1294.13 653.803 1294.55 655.832C1295.37 659.854 1297.26 663.537 1299.47 666.918C1301.4 662.065 1302.47 656.699 1302.59 651.298C1302.6 650.919 1302.62 650.48 1302.87 650.259C1303.34 649.842 1303.91 650.616 1304.13 651.281C1306 657.042 1305.66 663.485 1305.31 670.392C1304.86 671.144 1304.41 671.899 1303.97 672.652C1304.84 673.454 1305.67 674.329 1306.34 676.327C1306.48 673.702 1307.92 671.46 1309.51 669.691C1311.09 667.921 1312.89 666.405 1314.16 664.287C1315.93 661.334 1316.46 657.52 1316.51 653.85C1316.57 650.182 1316.2 646.51 1316.4 642.848C1317.61 643.729 1318.6 645.086 1319.22 646.695C1320.33 652.429 1321.38 658.801 1319.04 663.943C1317.79 666.673 1315.74 668.674 1314.01 670.959C1312.27 673.244 1310.75 676.161 1310.52 679.763C1310.69 680.785 1310.86 681.805 1311.03 682.828C1310.44 679.324 1313.18 676.417 1315.69 674.599C1318.19 672.783 1321.12 670.542 1321.27 666.967C1323.02 669.05 1323 672.633 1321.97 675.349C1320.93 678.064 1319.1 680.164 1317.45 682.361C1314.98 685.62 1312.83 689.227 1311.04 693.088C1309.29 696.85 1307.87 700.916 1307.42 705.215C1306.96 709.515 1307.55 714.079 1309.51 717.76C1312.82 710.175 1316.89 703.094 1321.6 696.733C1322.09 696.068 1322.61 695.364 1322.75 694.484C1322.85 693.873 1322.76 693.246 1322.66 692.635C1322.2 689.799 1321.61 686.95 1321.72 684.06C1321.82 681.17 1322.74 678.157 1324.69 676.543C1324.32 679.687 1324.59 682.939 1325.6 687.798C1327.09 681.821 1330.66 677.047 1333.8 672.137C1336.94 667.226 1339.86 661.503 1339.64 655.259C1339.61 654.31 1339.5 653.342 1339.71 652.429C1339.92 651.516 1340.55 650.66 1341.32 650.695C1342.32 650.741 1342.87 652.105 1343.12 653.288C1344.56 660.23 1342.61 667.627 1339.59 673.756C1336.57 679.886 1332.54 685.145 1329.51 692.092C1330.95 688.761 1333.93 686.89 1336.87 685.849C1339.82 684.807 1342.92 684.379 1345.74 682.898C1351.1 680.082 1354.93 673.312 1355.22 666.146C1355.31 663.853 1355.07 661.538 1355.34 659.265C1355.61 656.993 1356.53 654.648 1358.23 653.705C1359.61 658.986 1359.99 664.655 1359.28 670.776C1360.76 670.258 1362.05 668.93 1362.72 667.218C1363.06 666.356 1363.45 665.222 1364.23 665.266C1364.49 665.279 1364.72 665.437 1364.93 665.626C1366.34 666.932 1366.31 669.71 1365.32 671.501C1364.32 673.293 1362.65 674.31 1361.02 675.147C1359.4 675.984 1357.69 676.761 1356.42 678.277C1355.39 679.523 1354.73 681.172 1353.8 682.533C1350.7 687.029 1345.33 687.517 1340.83 689.535C1334.9 692.193 1330.2 697.78 1325.69 703.217C1322.14 707.492 1318.37 712.345 1318.24 719.132C1323.22 714.48 1329.77 713.526 1335.95 712.313C1342.12 711.099 1348.72 709.136 1352.76 703.263C1355 700.01 1356.32 695.713 1359.17 693.298C1360.93 694.685 1361.14 697.815 1360.53 700.275C1359.69 703.688 1357.69 706.532 1355.36 708.662C1353.04 710.791 1350.37 712.285 1346.47 714.764C1348.25 715.184 1350.06 715.426 1351.88 715.486C1352.44 715.505 1353.01 715.505 1353.54 715.287C1354.27 714.987 1354.85 714.308 1355.39 713.651C1356.25 712.632 1357.11 711.598 1357.73 710.349C1358.05 709.714 1358.4 708.945 1359.01 708.872C1359.61 708.798 1360.11 709.537 1360.17 710.276C1360.24 711.015 1359.99 711.735 1359.74 712.416C1359.32 713.572 1358.91 714.728 1358.49 715.884C1358.09 717.01 1357.63 718.21 1356.76 718.815C1355.43 719.742 1353.79 718.908 1352.27 718.663C1351.1 718.475 1349.92 718.655 1348.74 718.625C1345.99 718.554 1343.26 717.28 1341.34 714.949C1331.65 716.034 1323.01 722.564 1314.78 728.923C1313.15 730.18 1311.47 731.497 1310.42 733.479C1309.5 735.21 1308.8 737.651 1305.97 736.192V736.2Z" fill="#331600"/>
<path d="M276.529 937.589C270.567 938.069 264.592 933.109 262.722 926.127C261.77 922.568 261.801 918.68 260.733 915.174C260.658 914.929 260.569 914.67 260.39 914.528C260.124 914.312 259.769 914.432 259.468 914.569C257.164 915.613 254.986 917.273 252.54 917.53C250.095 917.783 247.221 915.866 247.212 912.845C247.21 911.989 247.671 910.948 248.358 911.087C248.573 911.13 248.761 911.289 248.943 911.441C250.205 912.513 251.466 913.587 253.746 914.517C253.243 913.252 252.93 911.872 252.828 910.471C252.795 910.023 252.806 909.505 253.081 909.208C253.511 908.745 254.206 909.205 254.499 909.808C254.794 910.411 254.906 911.158 255.312 911.654C256.273 912.835 257.88 911.763 258.921 910.689C257.895 909.511 257.137 907.987 256.754 906.326C256.537 905.386 256.428 904.38 255.996 903.559C255.662 902.924 255.157 902.452 254.63 902.067C250.454 899.03 244.432 900.69 241.036 896.426C239.753 894.815 239.082 892.497 239.248 890.253C239.266 890.013 239.299 889.757 239.432 889.58C239.795 889.097 240.427 889.596 240.788 890.084C241.893 891.578 243.001 893.072 244.543 894.597C244.124 893.582 243.694 892.508 243.75 891.374C243.803 890.239 244.541 889.07 245.462 889.154C246.94 889.288 247.153 891.949 248.298 893.105C248.754 893.566 249.348 893.762 249.92 893.945C251.453 894.436 252.986 894.929 254.521 895.42C252.456 892.993 251.878 889.263 250.447 886.223C249.058 883.273 246.803 880.956 244.195 879.8C242.458 879.031 240.196 878.952 239.098 880.776C238.513 881.746 238.358 883.12 237.562 883.827C236.842 884.465 235.861 884.323 234.984 884.154C233.885 883.941 232.471 883.249 232.618 881.891C232.728 880.868 233.681 880.388 234.797 879.999C232.921 880.148 230.954 880.279 229.239 879.325C228.173 878.733 227.212 877.632 227.006 876.214C226.798 874.796 227.604 873.152 228.772 873.07C229.549 873.016 230.245 873.605 230.976 873.937C232.174 874.485 233.495 874.346 234.773 874.417C236.049 874.488 237.438 874.864 239.033 876.421C237.434 873.324 234.563 871.672 232.203 869.425C229.846 867.178 227.815 863.405 228.947 860.01C231.047 861.681 232.713 864.165 233.65 867.02C233.253 866.129 232.848 865.199 232.79 864.184C232.733 863.17 233.129 862.041 233.909 861.698C234.944 861.243 236.027 862.369 236.463 863.609C236.902 864.85 236.977 866.262 237.498 867.454C239.244 871.445 244.667 870.715 246.625 874.556C245.97 873.689 245.285 872.759 245.108 871.595C244.931 870.431 245.509 869.013 246.468 868.94C247.773 868.841 248.318 870.9 248.617 872.465C249.891 879.115 254.098 884.347 255.943 890.79C257.66 896.786 257.481 904.088 260.536 908.088C259.614 905.377 260.053 902.046 261.624 899.834C262.496 902.056 262.849 904.584 262.634 907.038C262.335 904.832 263.715 902.493 265.512 902.16C266.559 903.823 265.919 906.195 265.503 908.238C264.541 912.957 265.102 918.119 267.036 922.361C268.97 926.604 272.257 929.884 276.032 931.332C274.962 930.991 275.038 929.101 275.357 927.801C276.05 924.97 276.744 922.14 277.836 919.654C276.015 918.787 274.154 917.887 272.689 916.297C271.225 914.708 270.217 912.259 270.627 909.912C271.992 910.989 273.283 912.207 274.479 913.552C274.145 912.36 273.265 911.526 272.791 910.408C272.317 909.29 272.572 907.474 273.595 907.373C274.477 907.286 275.007 908.507 275.383 909.494C276.347 912.019 277.845 914.233 279.686 915.858C278.644 912.704 279.943 908.728 278.412 905.893C277.84 904.835 276.95 904.11 276.238 903.188C274.202 900.56 273.808 896.669 273.343 893.081C272.878 889.495 272.047 885.569 269.572 883.589C268.755 882.935 267.811 882.548 266.987 881.904C265.206 880.511 264.116 877.877 264.249 875.287C264.275 874.758 264.402 874.15 264.796 873.943C265.514 873.567 266.03 874.785 266.358 875.655C267.018 877.403 268.5 878.635 270.733 879.355C266.327 874.578 264.998 866.709 265.376 859.498C265.427 858.519 265.5 857.504 265.219 856.586C264.874 855.468 264.063 854.688 263.473 853.739C262.671 852.447 262.279 850.781 262.397 849.161C262.474 848.087 263.055 846.805 263.919 846.991C264.501 847.113 264.838 847.847 265.095 848.501C266.127 851.127 267.16 853.755 268.715 857.046C268.979 854.909 269.736 852.869 270.877 851.225C271.925 852.163 272.195 853.987 271.969 855.56C271.743 857.131 271.121 858.568 270.704 860.078C269.426 864.719 270.241 870.145 273.316 875.26C272.397 872.926 271.506 870.248 272.235 867.816C272.452 867.091 272.858 866.388 273.46 866.172C274.362 865.853 275.29 866.813 275.574 867.914C275.857 869.016 275.689 870.205 275.589 871.355C275.25 875.279 275.753 879.232 276.256 883.131C276.475 884.846 276.697 886.559 276.478 889.441C277.904 887.197 278.873 884.516 279.271 881.711C279.568 879.62 279.679 877.182 281.07 875.928C281.546 877.403 281.885 878.943 282.08 880.514C282.712 877.059 283.817 873.736 285.335 870.728C285.552 870.3 285.796 869.856 286.17 869.649C287.032 869.174 287.951 870.216 288.361 871.263C289.28 873.607 289.163 876.446 288.321 878.834C287.479 881.223 285.971 883.189 284.245 884.694C283.337 885.487 282.353 886.177 281.58 887.164C279.302 890.079 279.449 894.777 280.468 898.621C280.16 897.462 281.227 896.249 282.202 896.459C283.177 896.669 283.844 897.904 283.904 899.12C283.963 900.336 283.54 901.511 283.022 902.547C282.504 903.583 281.877 904.546 281.693 906.692C283.057 907.313 284.132 908.827 284.449 910.577C285.211 914.773 281.879 918.506 281.637 922.795C281.71 921.772 283.106 921.699 283.505 922.601C283.906 923.504 283.525 924.651 282.955 925.401C282.386 926.151 281.64 926.683 281.101 927.468C280.093 928.938 279.976 931.062 280.248 932.957C282.419 928.311 285.248 924.131 288.569 920.665C289.985 919.187 291.62 917.538 291.702 915.258C291.773 913.282 290.63 911.599 289.985 909.786C289.347 907.995 289.19 905.953 289.54 904.047C289.606 903.681 289.721 903.275 290 903.123C290.308 902.951 290.663 903.174 290.942 903.409C291.992 904.29 292.878 905.462 294.876 907.463C293.049 904.142 292.774 899.616 294.183 896.001C294.701 894.667 295.455 893.263 295.14 891.835C294.646 889.591 291.762 888.631 291.996 886.321C292.171 884.596 294.615 884.32 295.04 885.978C294.458 885.16 293.849 884.279 293.709 883.205C293.569 882.131 294.119 880.844 295.003 880.789C295.997 880.729 296.596 882.087 296.948 883.235C297.646 885.512 298.344 887.791 299.041 890.068C299.052 884.754 299.061 879.44 299.072 874.128C299.072 873.231 299.072 872.304 298.78 871.483C298.443 870.532 297.765 869.842 297.203 869.073C295.253 866.407 294.619 862.385 295.621 859.015C296.864 860.945 298.109 862.876 299.352 864.806C298.45 862.813 298.846 860.067 300.253 858.581C300.911 857.886 301.733 857.466 302.409 856.796C304.618 854.609 304.664 850.593 304.855 847.111C304.879 846.645 304.917 846.162 305.112 845.764C305.614 844.741 306.955 844.848 307.635 845.698C308.315 846.549 308.481 847.831 308.517 849.025C308.681 854.582 306.766 859.86 305.191 865.071C303.616 870.281 302.345 876.056 303.785 881.326C302.949 878.709 303.734 875.451 305.59 873.812C307.032 874.704 307.579 876.999 307.298 878.957C307.017 880.912 306.097 882.624 305.244 884.309C300.566 893.555 297.278 903.861 295.599 914.555C296.666 914.209 296.886 912.333 297.858 911.689C298.855 911.03 300.171 912.169 300.313 913.552C300.455 914.931 299.721 916.256 298.795 917.055C297.869 917.854 296.762 918.252 295.712 918.768C291.361 920.905 287.778 925.306 285.747 931.353C287.408 928.12 290.47 926.407 293.474 925.42C296.478 924.431 299.622 923.97 302.457 922.399C305.291 920.826 307.87 917.778 308.111 913.963C308.193 912.685 308.007 911.392 308.133 910.119C308.257 908.846 308.807 907.499 309.799 907.117C311.43 906.487 312.857 908.807 313.063 910.896C313.269 912.982 312.876 915.218 313.594 917.123C314.828 913.121 315.694 908.949 316.175 904.712C316.459 902.204 316.581 899.507 315.597 897.282C315.169 896.314 314.531 895.417 314.476 894.321C314.365 892.137 316.461 890.935 318.176 890.349C318.927 892.219 319.675 894.089 320.426 895.96C322.267 891.747 324.106 887.535 325.947 883.319C326.616 881.787 327.121 879.475 325.876 878.654C325.26 878.245 324.472 878.472 323.838 878.106C322.527 877.354 322.824 874.963 323.439 873.351C324.089 874.085 324.735 874.818 325.385 875.549C323.061 872.871 321.866 868.784 322.272 864.899C322.365 864.005 322.843 862.878 323.548 863.124C323.885 863.241 324.093 863.647 324.259 864.029C325.223 866.238 325.865 868.656 326.151 871.137C327.892 866.109 324.696 860.438 325.236 855.012C325.351 853.848 326.005 852.433 326.926 852.722C327.618 852.94 327.868 853.968 327.994 854.832C328.805 860.375 329.432 865.959 329.403 873.267C330.327 871.034 331.251 868.801 332.175 866.567C333.107 868.781 332.58 871.519 331.654 873.736C330.728 875.952 329.425 877.943 328.728 880.282C327.686 883.772 328.094 887.657 327.48 891.297C326.754 895.605 324.647 899.335 322.591 902.934C324.066 901.582 325.568 900.268 327.09 898.997C327.828 902.673 325.859 906.324 323.683 908.998C321.508 911.673 318.92 914.13 317.897 917.696C317.626 918.639 317.469 919.651 317.039 920.502C315.858 922.825 313.242 923.037 311.024 923.266C310.291 923.343 309.31 923.872 309.531 924.736C310.143 925.363 311.009 925.598 311.778 925.341L312.542 926.805C313.685 925.349 314.979 923.804 316.618 923.64C318.258 923.476 320.017 925.66 319.208 927.424C318.65 928.643 317.327 928.867 316.193 928.951C314.088 929.109 311.973 929.265 309.875 928.987C308.24 928.771 306.633 928.291 304.996 928.117C296.593 927.231 289.212 934.268 281.544 938.592C280.802 939.01 279.73 939.288 276.542 937.603L276.529 937.589Z" fill="#331600"/>
<path d="M851.512 912.388C850.019 910.803 848.528 909.219 847.035 907.635C846.893 907.485 846.747 907.33 846.576 907.237C845.725 906.779 844.928 907.93 844.376 908.851C841.574 913.533 836.133 915.509 831.713 913.454C830.911 911.06 831.819 908.295 833.102 906.242C834.385 904.189 836.049 902.485 837.085 900.232C831.476 901.206 825.986 903.226 820.864 906.204C819.947 906.735 819.017 907.308 818.006 907.42C816.996 907.529 815.873 907.063 815.392 905.964C814.912 904.865 815.437 903.191 816.445 903.082C815.076 901.956 813.31 901.961 811.73 901.383C810.151 900.805 808.538 899.036 808.972 897.081C809.398 895.158 811.374 894.629 812.986 894.463C818.585 893.891 824.194 893.49 831.204 893.768C830.918 891.783 830.632 889.801 830.346 887.816C828.605 888.519 827.595 891.445 825.769 891.251C823.919 891.052 823.463 887.794 824.256 885.727C825.051 883.66 826.542 881.962 826.848 879.707C827.364 875.898 824.36 872.88 821.651 870.927C818.944 868.975 815.798 866.437 815.789 862.573C815.789 861.949 815.935 861.224 816.403 860.975C816.726 860.804 817.098 860.924 817.435 861.06C820.816 862.429 823.782 865.289 825.672 869C824.509 862.688 824.243 856.125 824.892 849.701C825.397 844.687 827.074 838.937 831.035 837.612C831.529 844.611 831.91 851.618 832.181 858.636C831.828 855.708 833.461 852.616 835.778 851.825C836.6 855.097 835.989 858.614 835.765 862.028C835.103 872.103 838.065 882.458 843.707 889.801C841.432 885.084 843.789 878.046 848.102 876.672C848.47 881.929 848.836 887.189 849.204 892.445C849.299 893.801 849.416 895.237 850.087 896.317C850.759 897.397 852.192 897.877 852.974 896.917C853.975 895.69 853.134 893.664 852.606 892.05C851.92 889.945 851.889 887.527 852.522 885.397C852.93 884.026 853.599 882.78 853.929 881.378C854.782 877.757 853.255 874.003 852.416 871.803C850.331 864.836 848.233 857.834 845.265 851.37C843.94 848.485 842.44 845.701 841.461 842.618C840.459 839.471 840.025 836.055 840.194 832.682C840.245 831.673 840.493 830.449 841.288 830.19C842.154 829.912 842.874 831.008 843.293 831.981C844.994 835.954 846.009 840.305 847.013 844.624C846.394 841.519 845.814 838.056 847.097 835.275C847.487 834.432 848.293 833.631 848.993 834.075C849.261 834.247 849.443 834.569 849.587 834.893C850.845 837.748 849.941 841.241 849.919 844.488C849.886 848.97 851.583 853.164 853.24 857.158C852.174 854.614 852.064 851.495 852.945 848.848C853.24 847.962 854.066 847.005 854.669 847.607C854.853 847.792 854.946 848.079 855.03 848.351C855.54 849.996 856.049 851.637 856.561 853.281C856.984 850.331 857.409 847.384 857.832 844.433C857.99 843.346 858.145 842.236 858.019 841.142C857.633 837.846 854.751 835.152 855.371 831.91C855.504 831.212 855.887 830.49 856.468 830.405C857.23 830.293 857.766 831.275 858.107 832.123C858.812 833.863 859.514 835.602 861.109 837.988C861.127 834.015 861.545 830.045 862.906 826.089C864.27 825.476 865.792 826.88 866.249 828.576C866.705 830.274 866.399 832.123 866.091 833.871C865.334 838.16 864.576 842.446 863.818 846.735C862.844 852.253 861.869 858.023 863.043 863.481C863.81 867.053 865.447 870.232 867.062 873.346C864.496 868.986 868.96 862.568 867.13 857.679C866.415 855.768 864.802 854.385 864.512 852.31C864.262 850.535 865.351 848.54 866.816 848.469C868.278 848.398 869.503 850.699 869.607 853.374C869.667 848.439 869.352 843.498 868.593 838.206C868.812 835.627 869.457 833.102 870.963 831.15C871.528 834.599 872.095 838.048 872.66 841.497C872.645 839.566 872.636 837.576 873.221 835.785C873.805 833.993 875.137 832.428 876.705 832.404C875.547 850.26 873.963 868.073 871.956 885.812C872.37 885.024 873.072 884.476 873.828 884.35C873.821 888.29 873.814 892.23 873.808 896.17C876.696 880.361 878.054 864.13 877.848 847.929C877.817 845.489 877.786 842.885 878.848 840.823C879.167 840.205 879.665 839.607 880.259 839.648C881.183 839.714 881.553 841.123 881.688 842.252C882.047 845.276 882.405 848.3 882.764 851.323C882.047 842.427 883.026 833.328 886.101 823.695C887.053 822.624 888.219 821.841 889.468 821.435C890.345 825.653 890.252 830.168 889.205 834.326C888.23 838.195 886.433 842.244 887.895 847.427C890.113 841.92 892.924 835.807 897.796 834.443C899.194 837.257 897.399 840.744 895.813 843.405C887.707 856.995 883.356 873.918 883.473 890.556C883.965 892.391 884.457 894.229 884.947 896.064C884.574 894.092 885.529 892.113 886.628 890.605C887.725 889.097 889.043 887.731 889.652 885.853C890.532 883.14 889.727 880.105 889.366 877.218C888.948 873.88 889.145 870.431 889.936 867.197C890.168 866.246 890.551 865.193 891.325 864.915C892.579 864.46 893.531 866.311 893.89 867.857C894.637 871.066 894.951 874.426 894.818 877.76C895.886 874.107 897.754 870.81 900.171 868.31C900.505 867.964 900.871 867.62 901.301 867.53C902.085 867.364 902.849 868.119 903.141 869.03C903.434 869.94 903.356 870.966 903.237 871.933C901.91 882.521 895.642 892.099 897.552 902.506C897.257 895.843 900.235 889.735 902.656 883.764C905.076 877.793 907.014 870.638 904.686 864.613C904.116 863.138 903.301 861.78 903.013 860.185C902.725 858.592 903.192 856.602 904.451 856.087C905.561 855.631 906.795 856.558 907.366 857.815C907.938 859.072 908.009 860.569 908.066 862.009C907.386 854.879 910.689 847.43 915.931 844.278C915.612 852.196 914.48 860.065 912.566 867.634C913.6 861.281 916 854.857 920.472 851.438C921.345 852.719 920.858 854.65 920.333 856.19C918.315 862.107 916.296 868.024 914.276 873.94C915.209 873.01 915.709 871.59 916.454 870.431C917.198 869.272 918.454 868.321 919.56 868.896C920.736 869.507 920.997 871.546 920.457 872.972C919.916 874.398 918.84 875.377 917.867 876.397C912.931 881.566 909.883 889.043 908.239 896.759C906.595 904.475 906.245 912.505 905.499 921.522C908.897 914.844 911.487 907.542 913.153 899.935C913.494 898.381 914.008 896.541 915.282 896.173C915.703 900.467 915.714 904.821 915.313 909.118C915.503 901.732 918.148 894.488 922.506 889.408C922.947 890.643 923.388 891.878 923.829 893.111C923.06 888.189 925.103 882.799 928.658 880.359C929.416 882.548 929.7 884.986 929.434 887.6C930.973 881.695 932.79 875.325 937.021 871.955C937.449 871.614 937.925 871.301 938.435 871.32C939.33 871.355 940.003 872.446 940.116 873.539C940.227 874.633 939.919 875.715 939.613 876.751C938.754 879.677 937.894 882.605 937.035 885.531C937.626 883.434 938.413 881.376 939.647 879.759C940.881 878.142 942.617 877.005 944.419 877.079C944.762 879.036 945.057 881.187 944.288 882.954C943.776 884.129 942.868 884.95 942.002 885.749C935.258 891.987 929.352 899.592 924.593 908.167C925.756 905.683 927.597 903.69 929.748 902.588C930.459 902.226 931.277 901.958 931.986 902.332C932.695 902.703 933.096 903.971 932.048 905.626C941.423 898.967 944.37 882.36 954.388 877.318C954.844 877.089 955.365 876.888 955.821 877.119C956.107 877.264 956.322 877.564 956.484 877.886C957.66 880.225 956.253 883.181 954.895 885.365C951.557 890.736 948.218 896.11 944.879 901.481C947.928 898.089 951.463 895.363 955.274 893.462C955.927 893.135 956.621 892.83 957.323 892.933C958.969 893.176 959.871 895.712 959.383 897.661C958.896 899.611 957.465 900.974 955.994 901.912C953.132 903.736 949.893 904.431 946.84 905.707C942.56 907.496 938.661 910.416 934.804 913.315C932.712 914.885 930.457 916.709 929.469 921.05C933.924 918.719 939.308 920.829 943.73 918.408C945.719 917.317 947.323 915.406 948.878 913.53C950.411 911.684 951.944 909.838 953.477 907.992C954.638 910.051 954.578 913.036 953.036 915.989C956.472 913.546 959.909 911.103 963.345 908.66C963.763 908.363 964.2 908.058 964.68 908.009C966.116 907.859 967.051 910.154 966.586 911.834C966.12 913.514 964.818 914.593 963.573 915.482C950.967 924.488 936 926.716 921.485 928.354C933.488 929.186 945.595 927.686 957.221 923.935C953.176 930.688 946.164 933.442 939.622 935.806C944.74 936.548 949.833 937.54 954.886 938.778C957.122 939.326 959.924 940.828 959.674 943.618C959.629 944.119 959.448 944.643 959.082 944.877C958.814 945.049 958.497 945.035 958.198 945.014C942.832 944.007 927.599 937.417 912.364 940.065C909.688 940.528 906.948 941.333 904.821 943.383C903.5 944.654 902.492 946.333 901.402 947.901C896.287 955.26 889.074 960.364 881.335 962.106C877.397 962.993 872.503 962.477 870.593 958.145C870.172 957.19 869.926 956.097 869.33 955.298C868.325 953.954 866.656 953.842 865.172 953.867C861.235 953.932 857.177 954.273 853.481 952.607C849.784 950.941 846.532 946.57 847.001 941.761C847.203 939.697 848.045 937.537 847.338 935.651C846.74 934.05 845.231 933.306 843.825 932.984C841.197 932.384 838.483 932.739 835.829 932.327C833.177 931.915 830.375 930.478 829.207 927.52C828.04 924.562 829.6 920.131 832.274 920.202C833.596 920.237 834.735 921.276 835.922 921.99C841.272 925.213 848.632 920.736 851.512 912.385V912.388Z" fill="#331600"/>
<path d="M151.514 914.659C149.731 903.878 154.753 893.143 154.917 882.142C155.017 875.434 153.304 868.662 154.41 862.093C154.895 859.217 155.914 856.449 155.958 853.513C156.04 848.087 152.793 842.887 153.841 837.617C154.173 835.94 154.939 834.299 154.698 832.597C154.343 830.1 152.031 828.761 151.189 826.446C149.762 822.517 153.063 818.468 153.517 814.201C153.931 810.31 151.918 806.608 151.849 802.687C151.725 795.685 157.582 790.581 158.632 783.699C158.963 781.529 158.865 779.056 160.077 777.428C161.619 775.356 164.501 775.748 166.194 773.867C167.873 771.999 167.722 768.755 168.542 766.156C170.352 760.414 176.726 758.323 178.327 752.488C178.879 750.479 178.77 748.276 179.227 746.228C180.556 740.243 186.247 736.977 187.674 731.027C190.013 733.255 190.538 737.394 190.106 740.993C189.672 744.592 188.478 748.006 188.077 751.613C187.842 753.726 187.876 755.91 187.315 757.928C185.693 763.776 179.836 766.184 177.337 771.541C175.618 775.228 175.658 779.975 173.538 783.328C171.46 786.614 167.685 787.914 165.939 791.481C163.305 796.86 166.694 803.777 165.91 809.983C165.465 813.509 163.664 816.718 163.708 820.284C163.748 823.455 165.25 826.364 165.414 829.527C165.649 834.091 163.088 838.274 163.041 842.846C162.992 847.512 165.569 851.934 164.937 856.534C164.649 858.633 163.719 860.498 163.017 862.442C161.978 865.316 161.426 868.411 160.879 871.483C160.538 873.4 160.197 875.317 159.858 877.234C157.737 889.16 155.617 901.099 151.519 914.653L151.514 914.659Z" fill="#331600"/>
<path d="M148.371 920.657C145.972 908.077 143.557 895.439 139.645 883.445C138.16 878.892 136.445 874.379 135.841 869.531C135.429 866.227 135.539 862.81 134.764 859.604C133.386 853.894 129.292 849.186 129.314 843.231C129.325 840.717 130.047 837.941 128.913 835.85C127.5 833.241 123.822 833.074 123.131 830.056C122.905 829.069 123.08 827.957 122.703 827.041C121.467 824.017 116.711 826.942 115.295 824.039C114.927 823.286 114.939 822.354 114.761 821.503C113.536 815.616 104.945 816.674 103.472 810.875C102.772 808.121 104.041 804.631 102.468 802.491C101.573 801.275 100.049 801.015 99.1406 799.816C97.5323 797.697 98.7419 794.235 100.242 791.999C101.742 789.766 103.62 787.257 103.137 784.419C102.973 783.462 102.546 782.608 102.26 781.695C100.729 776.793 103.441 771.582 105.898 767.291C108.354 762.999 110.758 757.388 108.691 752.793C110.359 752.39 111.917 751.31 114.194 750.762C111.316 756.327 113.368 763.754 112.034 770.143C111.427 773.046 110.127 775.68 109.586 778.603C109.046 781.526 109.535 785.114 111.658 786.589C112.92 787.467 114.533 787.432 115.705 788.487C117.668 790.257 117.36 793.877 117.138 796.863C116.917 799.846 117.581 803.75 119.99 804.181C120.891 804.342 121.89 803.936 122.681 804.495C124.717 805.931 122.26 810.531 123.953 812.533C124.846 813.588 126.281 813.168 127.515 813.045C132.161 812.59 136.426 818.605 135.433 824.208C135.296 824.985 135.076 825.781 135.227 826.552C135.528 828.077 137.006 828.617 138.191 829.192C141.279 830.689 143.657 834.22 144.277 838.23C144.8 841.611 144.146 845.148 144.709 848.52C145.201 851.471 146.585 854.066 147.445 856.888C149.494 863.609 148.46 871.061 147.97 878.215C146.982 892.663 148.371 907.354 148.373 920.652L148.371 920.657Z" fill="#331600"/>
<path d="M157.587 921.805C152.164 905.38 149.665 887.505 150.312 869.793C150.591 862.145 151.426 854.263 149.47 846.996C148.712 844.185 147.547 841.513 147.199 838.582C146.526 832.908 148.962 826.727 146.887 821.593C144.981 816.876 139.815 814.757 138.73 809.661C138.227 807.306 138.71 804.631 137.735 802.512C136.696 800.258 134.392 799.45 132.859 797.673C130.198 794.589 130.717 788.408 133.834 786.058C130.892 780.234 130.765 772.425 133.517 766.465C134.864 763.547 136.835 761.055 137.81 757.919C139.062 753.898 138.552 749.186 140.254 745.424C142.513 740.429 148.01 738.561 149.997 733.394C144.16 728.969 135.426 732.295 132.64 740.006C132.205 741.208 131.962 742.798 132.744 743.692C133.229 744.246 133.967 744.338 134.476 744.859C135.666 746.075 134.87 748.406 134.119 750.07C132.172 754.391 131.06 759.28 130.9 764.218C131.35 760.752 131.694 756.791 129.846 754.119C128.896 752.742 127.433 751.853 126.86 750.192C125.608 746.571 129.385 743.18 129.6 739.253C129.733 736.816 128.452 734.37 129.017 732.028C129.846 728.598 133.632 728.252 136.525 728.593C135.945 725.228 139.206 722.657 142.002 722.624C144.798 722.591 147.578 723.941 150.334 723.368C152.122 722.998 154.288 721.972 155.502 723.633C156.171 724.546 156.247 726.021 157.051 726.755C157.871 727.505 159.016 727.12 160.037 727.194C162.066 727.344 163.748 729.571 164.091 732.039C164.435 734.506 163.622 737.061 162.304 738.967C161.533 740.08 160.547 741.124 160.365 742.569C160.23 743.643 160.578 744.709 160.722 745.784C161.331 750.323 158.356 754.274 155.66 757.461C152.064 761.712 148.231 767.651 150.123 773.327C150.564 774.65 151.3 775.833 151.523 777.234C152.179 781.36 148.249 784.656 148.112 788.855C147.959 793.496 152.465 797.269 151.599 801.79C151.324 803.227 150.509 804.514 150.527 805.992C150.538 806.976 150.921 807.886 151.255 808.781C153.236 814.087 153.719 820.216 152.605 825.893C152.348 827.196 152.009 828.535 152.206 829.854C152.447 831.466 153.44 832.728 154.025 834.201C155.753 838.563 153.692 844.022 155.123 848.545C155.684 850.315 156.741 851.792 157.312 853.554C158.187 856.245 157.846 859.269 157.54 862.142C155.522 881.125 155.62 900.445 157.585 921.808L157.587 921.805Z" fill="#331600"/>
<path d="M151.814 921.382C151.151 914.648 154.167 908.238 157.425 902.765C160.684 897.293 164.417 891.878 165.558 885.242C166.265 881.133 165.924 876.768 167.058 872.806C168.155 868.967 170.543 865.853 171.666 862.025C173.186 856.837 172.204 851.024 173.21 845.649C175.131 835.389 183.678 828.987 186.934 819.251C187.586 817.301 188.027 815.216 188.979 813.462C190.997 809.746 194.868 808.263 197.36 805.01C199.87 801.733 200.705 796.664 199.434 792.443C198.709 790.039 197.362 787.893 197.065 785.354C196.578 781.196 198.977 777.477 200.989 774.085C203 770.691 204.795 766.143 203.127 762.478C202.254 760.564 200.55 759.261 200.027 757.162C199.101 753.434 202.26 750.332 204.115 747.169C207.291 741.748 206.503 733.402 201.239 728.988C202.75 730.114 204.863 729.986 206.013 731.636C207.484 733.749 206.303 737.037 206.815 739.75C207.404 742.883 210.165 744.797 211.372 748.666C208.51 752.695 208.43 759.296 211.197 763.43C212.376 765.191 214.046 766.658 214.438 768.889C215.074 772.509 212.061 775.408 210.973 778.862C208.592 786.426 215.768 795.11 212.954 802.444C211.618 805.929 208.282 808.017 207.551 811.766C207.006 814.553 208.087 817.495 207.688 820.317C207.035 824.958 202.823 827.455 201.075 831.643C199.418 835.613 200.207 840.466 199.188 844.75C197.028 853.826 187.637 857.791 185.038 866.693C183.651 871.443 183.93 877.877 180.235 880.067C179.209 880.675 178.04 880.798 176.963 881.258C171.965 883.404 170.915 891.317 168.17 896.887C164.583 904.164 157.179 908.579 151.818 921.391L151.814 921.382Z" fill="#331600"/>
<rect y="1004" width="1440" height="332" fill="#331600"/>
</g>
<defs>
<radialGradient id="paint0_radial_2408_250" cx="0" cy="0" r="1" gradientUnits="userSpaceOnUse" gradientTransform="translate(796.5 -240.5) rotate(89.0477) scale(752.104 1087.38)">
<stop offset="0.684928" stop-color="#B84F02" stop-opacity="0.6"/>
<stop offset="0.998612" stop-color="#3D1B01"/>
</radialGradient>
<radialGradient id="paint1_radial_2408_250" cx="0" cy="0" r="1" gradientUnits="userSpaceOnUse" gradientTransform="translate(773 1296) rotate(-89.9763) scale(1207.5 1711.89)">
<stop offset="0.36289" stop-color="#17110E"/>
<stop offset="0.947615" stop-color="#7A3401"/>
</radialGradient>
<clipPath id="clip0_2408_250">
<rect width="1440" height="1336" fill="white"/>
</clipPath>
</defs>
</svg>
