<svg width="1440" height="171" viewBox="0 0 1440 171" fill="none" xmlns="http://www.w3.org/2000/svg">
<path fill-rule="evenodd" clip-rule="evenodd" d="M92.918 29.8817C89.2581 28.4356 86.001 28.1931 83.9756 28.1978C85.9398 26.4479 88.7989 24.2671 92.6024 22.4113C96.738 20.3953 100.511 19.4838 103.229 19.0434C100.212 18.4217 94.6608 17.6987 88.0782 19.359C82.8687 20.6732 79.0346 22.9671 76.7148 24.6203C77.4496 22.3406 78.5848 17.7717 77.6616 12.1006C76.6795 6.06442 73.8793 1.91 72.4003 0C73.745 3.60803 76.1779 11.7473 73.6626 21.2525C72.6994 24.8935 71.2439 27.8516 69.8756 30.0913C70.4031 28.7936 73.5802 20.6214 69.3504 12.8354C65.1348 5.07975 56.6544 3.39096 53.3625 2.73542L53.3568 2.73429C46.5082 1.37303 40.8606 3.02396 38.2064 3.99663C40.1117 4.22978 54.5673 6.23869 61.4584 18.6219C64.2092 23.5653 64.7673 28.3862 64.8262 31.4572C62.603 21.9402 55.5871 14.8561 47.4667 13.7821C38.3218 12.5716 30.9903 19.4038 29.6856 20.6214C26.8689 23.2473 25.1897 26.0311 24.2147 27.9858C26.2989 26.5068 29.7939 24.4249 34.5253 23.3557L34.5284 23.355C37.1443 22.7653 46.1957 20.7248 54.2 26.1959C58.8772 29.3942 61.1522 33.7582 62.1956 36.297C57.2851 29.38 49.193 25.5412 41.0466 26.4079C30.7124 27.5054 23.9132 35.793 21.5816 43.2422C19.9967 48.3175 20.5407 52.8205 21.0565 55.3428C21.8949 52.5755 24.2359 46.2944 30.4204 41.4547C31.2164 40.8329 41.2916 33.2071 53.3568 36.4053C56.687 37.2885 59.1857 38.7345 60.7213 39.7731C55.9804 38.7934 51.2419 40.2041 48.4111 43.5602C46.2185 46.1602 45.8558 49.1182 45.7804 50.3994C46.5529 49.13 49.6899 44.3091 55.5659 43.035C57.4147 42.6346 59.075 42.6841 60.3703 42.8583C58.5993 44.6105 55.9333 47.4084 53.0766 51.1366C38.1404 70.6063 35.7123 92.2144 34.629 103.043C34.1844 107.487 33.8247 113.495 34.1195 120.69H0V170.69H1440V120.69H1405.88C1406.18 113.495 1405.82 107.487 1405.37 103.043C1404.29 92.2144 1401.86 70.6063 1386.92 51.1366C1384.07 47.4084 1381.4 44.6105 1379.63 42.8583C1380.93 42.6841 1382.59 42.6346 1384.44 43.035C1390.31 44.3091 1393.45 49.13 1394.22 50.3994C1394.15 49.1182 1393.78 46.1602 1391.59 43.5602C1388.76 40.2041 1384.02 38.7934 1379.28 39.7731C1380.82 38.7345 1383.31 37.2885 1386.64 36.4053C1398.71 33.2071 1408.78 40.8329 1409.58 41.4547C1415.77 46.2944 1418.11 52.5755 1418.94 55.3428C1419.46 52.8205 1420 48.3175 1418.42 43.2422C1416.09 35.793 1409.29 27.5054 1398.95 26.4079C1390.81 25.5412 1382.72 29.38 1377.81 36.297C1378.85 33.7582 1381.12 29.3942 1385.8 26.1959C1393.81 20.7248 1402.86 22.7653 1405.47 23.355L1405.48 23.3557C1410.21 24.4249 1413.7 26.5068 1415.79 27.9858C1414.81 26.0311 1413.13 23.2473 1410.32 20.6214C1409.01 19.4038 1401.68 12.5716 1392.53 13.7821C1384.41 14.8561 1377.4 21.9402 1375.18 31.4572C1375.23 28.3862 1375.79 23.5653 1378.54 18.6219C1385.43 6.23869 1399.89 4.22978 1401.79 3.99663C1399.14 3.02396 1393.49 1.37303 1386.64 2.73429L1386.64 2.73543C1383.35 3.39097 1374.87 5.07978 1370.65 12.8354C1366.42 20.6214 1369.6 28.7936 1370.13 30.0913C1368.76 27.8516 1367.3 24.8935 1366.34 21.2525C1363.82 11.7473 1366.26 3.60803 1367.6 0C1366.12 1.91 1363.32 6.06442 1362.34 12.1006C1361.42 17.7717 1362.55 22.3406 1363.29 24.6203C1360.97 22.9671 1357.13 20.6732 1351.92 19.359C1345.34 17.6987 1339.79 18.4217 1336.77 19.0434C1339.49 19.4838 1343.26 20.3953 1347.4 22.4113C1351.2 24.2671 1354.06 26.4479 1356.03 28.1978C1354 28.1931 1350.74 28.4356 1347.08 29.8817C1345.59 30.4704 1341.04 32.4417 1337.19 37.1425C1332.43 42.969 1331.75 49.3113 1331.62 51.6618C1332.95 49.6693 1335.07 47.0269 1338.25 44.6129C1343.54 40.5904 1348.94 39.3657 1351.82 38.9324C1349.68 39.9639 1346.15 42.0081 1343.09 45.7716C1335.93 54.5645 1337.4 65.3035 1337.72 67.6525L1337.72 67.6553C1338.5 73.3382 1340.75 77.8459 1342.88 81.0182C1342.65 77.0381 1342.87 71.2516 1345.09 64.815C1349.93 50.7692 1360.91 43.5766 1364.66 41.3511C1363.4 42.1 1357.2 45.9836 1355.29 53.8708C1352.78 64.2498 1360 72.123 1360.55 72.7047C1359.87 69.8997 1359.12 65.1707 1360.24 59.5537C1362.17 49.9166 1368.32 44.1113 1370.55 42.1942C1369.78 43.7651 1369.01 45.741 1368.55 48.0867C1367.22 54.82 1369.2 60.4204 1370.34 63.0275C1370.51 60.7172 1371 57.5378 1372.34 53.9792C1373.78 50.1356 1375.69 47.2553 1377.18 45.3524C1383.78 55.3734 1387.44 64.6384 1389.54 71.334C1396.05 92.092 1394.18 109.324 1393.43 114.788C1393.13 116.954 1392.79 118.933 1392.43 120.69H1257.8C1257.45 118.933 1257.1 116.954 1256.8 114.788C1256.06 109.324 1254.19 92.092 1260.69 71.334C1262.8 64.6384 1266.46 55.3734 1273.06 45.3524C1274.54 47.2553 1276.45 50.1356 1277.9 53.9792C1279.23 57.5378 1279.72 60.7172 1279.9 63.0275C1281.03 60.4204 1283.01 54.82 1281.68 48.0867C1281.22 45.741 1280.46 43.7651 1279.68 42.1942C1281.92 44.1113 1288.07 49.9166 1289.99 59.5537C1291.12 65.1707 1290.37 69.8997 1289.68 72.7047C1290.23 72.123 1297.45 64.2498 1294.94 53.8708C1293.04 45.9836 1286.83 42.1 1285.58 41.3511C1289.32 43.5766 1300.3 50.7692 1305.15 64.815C1307.37 71.2516 1307.58 77.0381 1307.36 81.0182C1309.48 77.8459 1311.73 73.3382 1312.51 67.6553L1312.51 67.6525C1312.83 65.3035 1314.3 54.5645 1307.15 45.7716C1304.09 42.0081 1300.55 39.9639 1298.41 38.9324C1301.29 39.3657 1306.69 40.5904 1311.99 44.6129C1315.17 47.0269 1317.28 49.6693 1318.62 51.6618C1318.48 49.3113 1317.81 42.969 1313.04 37.1425C1309.19 32.4417 1304.64 30.4704 1303.15 29.8817C1299.49 28.4356 1296.23 28.1931 1294.21 28.1978C1296.17 26.4479 1299.03 24.2671 1302.83 22.4113C1306.97 20.3953 1310.74 19.4838 1313.46 19.0434C1310.44 18.4217 1304.89 17.6987 1298.31 19.359C1293.1 20.6732 1289.27 22.9671 1286.95 24.6203C1287.68 22.3406 1288.82 17.7717 1287.89 12.1006C1286.91 6.06442 1284.11 1.91 1282.63 0C1283.98 3.60803 1286.41 11.7473 1283.9 21.2525C1282.93 24.8935 1281.48 27.8516 1280.11 30.0913C1280.64 28.7936 1283.81 20.6214 1279.58 12.8354C1275.37 5.07976 1266.89 3.39096 1263.6 2.73542L1263.59 2.73429C1256.74 1.37303 1251.09 3.02396 1248.44 3.99663C1250.34 4.22978 1264.8 6.23869 1271.69 18.6219C1274.44 23.5653 1275 28.3862 1275.06 31.4572C1272.84 21.9402 1265.82 14.8561 1257.7 13.7821C1248.55 12.5716 1241.22 19.4038 1239.92 20.6214C1237.1 23.2473 1235.42 26.0311 1234.45 27.9858C1236.53 26.5068 1240.03 24.4249 1244.76 23.3557L1244.76 23.355C1247.38 22.7653 1256.43 20.7248 1264.43 26.1959C1269.11 29.3942 1271.38 33.7582 1272.43 36.297C1267.52 29.38 1259.43 25.5412 1251.28 26.4079C1240.94 27.5054 1234.15 35.793 1231.81 43.2422C1230.23 48.3175 1230.77 52.8205 1231.29 55.3428C1232.13 52.5755 1234.47 46.2944 1240.65 41.4547C1241.45 40.8329 1251.52 33.2071 1263.59 36.4053C1266.92 37.2885 1269.42 38.7345 1270.95 39.7731C1266.21 38.7934 1261.47 40.2041 1258.64 43.5602C1256.45 46.1602 1256.09 49.1182 1256.01 50.3994C1256.79 49.13 1259.92 44.3091 1265.8 43.035C1267.65 42.6346 1269.31 42.6841 1270.6 42.8583C1268.83 44.6105 1266.17 47.4084 1263.31 51.1366C1248.37 70.6063 1245.94 92.2144 1244.86 103.043C1244.42 107.487 1244.06 113.495 1244.35 120.69H1204.18C1204.47 113.495 1204.11 107.487 1203.67 103.043C1202.58 92.2144 1200.16 70.6063 1185.22 51.1366C1182.36 47.4084 1179.7 44.6105 1177.93 42.8583C1179.22 42.6841 1180.88 42.6346 1182.73 43.035C1188.61 44.3091 1191.74 49.13 1192.52 50.3994C1192.44 49.1182 1192.08 46.1602 1189.89 43.5602C1187.05 40.2041 1182.32 38.7934 1177.57 39.7731C1179.11 38.7345 1181.61 37.2885 1184.94 36.4053C1197 33.2071 1207.08 40.8329 1207.88 41.4547C1214.06 46.2944 1216.4 52.5755 1217.24 55.3428C1217.76 52.8205 1218.3 48.3175 1216.71 43.2422C1214.38 35.793 1207.58 27.5054 1197.25 26.4079C1189.1 25.5412 1181.01 29.38 1176.1 36.297C1177.14 33.7582 1179.42 29.3942 1184.1 26.1959C1192.1 20.7248 1201.15 22.7653 1203.77 23.355L1203.77 23.3557C1208.5 24.4249 1212 26.5068 1214.08 27.9858C1213.11 26.0311 1211.43 23.2473 1208.61 20.6214C1207.31 19.4038 1199.97 12.5716 1190.83 13.7821C1182.71 14.8561 1175.69 21.9402 1173.47 31.4572C1173.53 28.3862 1174.09 23.5653 1176.84 18.6219C1183.73 6.23869 1198.18 4.22978 1200.09 3.99663C1197.44 3.02396 1191.79 1.37303 1184.94 2.73429L1184.93 2.73543C1181.64 3.39097 1173.16 5.07978 1168.95 12.8354C1164.72 20.6214 1167.89 28.7936 1168.42 30.0913C1167.05 27.8516 1165.6 24.8935 1164.63 21.2525C1162.12 11.7473 1164.55 3.60803 1165.9 0C1164.42 1.91 1161.62 6.06442 1160.63 12.1006C1159.71 17.7717 1160.85 22.3406 1161.58 24.6203C1159.26 22.9671 1155.43 20.6732 1150.22 19.359C1143.64 17.6987 1138.08 18.4217 1135.07 19.0434C1137.79 19.4838 1141.56 20.3953 1145.69 22.4113C1149.5 24.2671 1152.36 26.4479 1154.32 28.1978C1152.3 28.1931 1149.04 28.4356 1145.38 29.8817C1143.89 30.4704 1139.33 32.4417 1135.49 37.1425C1130.72 42.969 1130.04 49.3113 1129.91 51.6618C1131.25 49.6693 1133.36 47.0269 1136.54 44.6129C1141.84 40.5904 1147.24 39.3657 1150.11 38.9324C1147.98 39.9639 1144.44 42.0081 1141.38 45.7716C1134.23 54.5645 1135.7 65.3035 1136.02 67.6525L1136.02 67.6553C1136.79 73.3382 1139.05 77.8459 1141.17 81.0182C1140.95 77.0381 1141.16 71.2516 1143.38 64.815C1148.23 50.7692 1159.21 43.5766 1162.95 41.3511C1161.7 42.1 1155.49 45.9836 1153.59 53.8708C1151.08 64.2498 1158.3 72.123 1158.85 72.7047C1158.16 69.8997 1157.41 65.1707 1158.53 59.5537C1160.46 49.9166 1166.61 44.1113 1168.84 42.1942C1168.07 43.7651 1167.31 45.741 1166.84 48.0867C1165.52 54.82 1167.49 60.4204 1168.63 63.0275C1168.81 60.7172 1169.29 57.5378 1170.63 53.9792C1172.08 50.1356 1173.99 47.2553 1175.47 45.3524C1182.07 55.3734 1185.73 64.6384 1187.83 71.334C1194.34 92.092 1192.47 109.324 1191.73 114.788C1191.43 116.954 1191.08 118.933 1190.73 120.69H1056.09C1055.74 118.933 1055.39 116.954 1055.1 114.788C1054.35 109.324 1052.48 92.092 1058.99 71.334C1061.09 64.6384 1064.75 55.3734 1071.35 45.3524C1072.84 47.2553 1074.75 50.1356 1076.19 53.9792C1077.53 57.5378 1078.02 60.7172 1078.19 63.0275C1079.33 60.4204 1081.31 54.82 1079.98 48.0867C1079.52 45.741 1078.75 43.7651 1077.98 42.1942C1080.21 44.1113 1086.36 49.9166 1088.29 59.5537C1089.41 65.1707 1088.66 69.8997 1087.97 72.7047C1088.53 72.123 1095.74 64.2498 1093.24 53.8708C1091.33 45.9836 1085.12 42.1 1083.87 41.3511C1087.62 43.5766 1098.6 50.7692 1103.44 64.815C1105.66 71.2516 1105.88 77.0381 1105.65 81.0182C1107.78 77.8459 1110.03 73.3382 1110.81 67.6553L1110.81 67.6525C1111.13 65.3035 1112.6 54.5645 1105.44 45.7716C1102.38 42.0081 1098.85 39.9639 1096.71 38.9324C1099.58 39.3657 1104.99 40.5904 1110.28 44.6129C1113.46 47.0269 1115.58 49.6693 1116.91 51.6618C1116.78 49.3113 1116.1 42.969 1111.33 37.1425C1107.49 32.4417 1102.94 30.4704 1101.45 29.8817C1097.79 28.4356 1094.53 28.1931 1092.5 28.1978C1094.47 26.4479 1097.33 24.2671 1101.13 22.4113C1105.27 20.3953 1109.04 19.4838 1111.76 19.0434C1108.74 18.4217 1103.19 17.6987 1096.61 19.359C1091.4 20.6732 1087.56 22.9671 1085.24 24.6203C1085.98 22.3406 1087.11 17.7717 1086.19 12.1006C1085.21 6.06442 1082.41 1.91 1080.93 0C1082.27 3.60803 1084.71 11.7473 1082.19 21.2525C1081.23 24.8935 1079.77 27.8516 1078.4 30.0913C1078.93 28.7936 1082.11 20.6214 1077.88 12.8354C1073.66 5.07976 1065.18 3.39096 1061.89 2.73542L1061.88 2.73429C1055.04 1.37303 1049.39 3.02396 1046.73 3.99663C1048.64 4.22978 1063.09 6.23869 1069.99 18.6219C1072.74 23.5653 1073.29 28.3862 1073.35 31.4572C1071.13 21.9402 1064.11 14.8561 1055.99 13.7821C1046.85 12.5716 1039.52 19.4038 1038.21 20.6214C1035.4 23.2473 1033.72 26.0311 1032.74 27.9858C1034.83 26.5068 1038.32 24.4249 1043.05 23.3557L1043.06 23.3549C1045.67 22.7652 1054.72 20.7248 1062.73 26.1959C1067.4 29.3942 1069.68 33.7582 1070.72 36.297C1065.81 29.38 1057.72 25.5412 1049.57 26.4079C1039.24 27.5054 1032.44 35.793 1030.11 43.2422C1028.52 48.3175 1029.07 52.8205 1029.58 55.3428C1030.42 52.5755 1032.76 46.2944 1038.95 41.4547C1039.74 40.8329 1049.82 33.2071 1061.88 36.4053C1065.21 37.2885 1067.71 38.7345 1069.25 39.7731C1064.51 38.7934 1059.77 40.2041 1056.94 43.5602C1054.75 46.1602 1054.38 49.1182 1054.31 50.3994C1055.08 49.13 1058.22 44.3091 1064.09 43.035C1065.94 42.6346 1067.6 42.6841 1068.9 42.8583C1067.13 44.6105 1064.46 47.4084 1061.6 51.1366C1046.67 70.6063 1044.24 92.2144 1043.16 103.043C1042.71 107.487 1042.35 113.495 1042.65 120.69H1002.47C1002.77 113.495 1002.41 107.487 1001.96 103.043C1000.88 92.2144 998.451 70.6063 983.514 51.1366C980.658 47.4084 977.992 44.6105 976.221 42.8583C977.516 42.6841 979.176 42.6346 981.025 43.035C986.901 44.3091 990.038 49.13 990.811 50.3994C990.735 49.1182 990.373 46.1602 988.18 43.5602C985.349 40.2041 980.611 38.7934 975.87 39.7731C977.405 38.7345 979.904 37.2885 983.234 36.4053C995.299 33.2071 1005.37 40.8329 1006.17 41.4547C1012.36 46.2944 1014.7 52.5755 1015.53 55.3428C1016.05 52.8205 1016.59 48.3175 1015.01 43.2422C1012.68 35.793 1005.88 27.5054 995.544 26.4079C987.398 25.5412 979.306 29.38 974.396 36.297C975.439 33.7582 977.714 29.3942 982.391 26.1959C990.395 20.7248 999.447 22.7653 1002.06 23.355L1002.07 23.3557C1006.8 24.4249 1010.29 26.5068 1012.38 27.9858C1011.4 26.0311 1009.72 23.2473 1006.91 20.6214C1005.6 19.4038 998.269 12.5716 989.124 13.7821C981.004 14.8561 973.988 21.9402 971.765 31.4572C971.824 28.3862 972.382 23.5653 975.133 18.6219C982.024 6.23869 996.479 4.22978 998.385 3.99663C995.73 3.02396 990.083 1.37303 983.234 2.73429L983.229 2.73541C979.937 3.39094 971.456 5.07972 967.241 12.8354C963.011 20.6214 966.188 28.7936 966.715 30.0913C965.347 27.8516 963.892 24.8935 962.928 21.2525C960.413 11.7473 962.846 3.60803 964.191 0C962.712 1.91 959.912 6.06442 958.93 12.1006C958.006 17.7717 959.141 22.3406 959.876 24.6203C957.556 22.9671 953.722 20.6732 948.513 19.359C941.93 17.6987 936.379 18.4217 933.362 19.0434C936.08 19.4838 939.853 20.3953 943.989 22.4113C947.792 24.2671 950.651 26.4479 952.615 28.1978C950.59 28.1931 947.333 28.4356 943.673 29.8817C942.182 30.4704 937.63 32.4417 933.784 37.1425C929.015 42.969 928.339 49.3113 928.207 51.6618C929.542 49.6693 931.657 47.0269 934.837 44.6129C940.133 40.5904 945.534 39.3657 948.409 38.9324C946.271 39.9639 942.738 42.0081 939.676 45.7716C932.522 54.5641 933.99 65.3026 934.311 67.6523L934.311 67.6553C935.089 73.3382 937.34 77.8459 939.467 81.0182C939.243 77.0381 939.455 71.2516 941.676 64.815C946.523 50.7692 957.502 43.5766 961.247 41.3511C959.994 42.1 953.788 45.9836 951.883 53.8708C949.375 64.2498 956.593 72.123 957.144 72.7047C956.457 69.8997 955.705 65.1707 956.829 59.5537C958.755 49.9166 964.907 44.1113 967.139 42.1942C966.367 43.7651 965.602 45.741 965.14 48.0867C963.812 54.82 965.79 60.4204 966.927 63.0275C967.102 60.7172 967.589 57.5378 968.927 53.9792C970.373 50.1356 972.281 47.2553 973.767 45.3524C980.366 55.3734 984.028 64.6384 986.129 71.334C992.638 92.092 990.768 109.324 990.022 114.788C989.725 116.954 989.378 118.933 989.024 120.69H854.389C854.035 118.933 853.689 116.954 853.392 114.788C852.645 109.324 850.775 92.092 857.285 71.334C859.385 64.6384 863.048 55.3734 869.647 45.3524C871.133 47.2553 873.04 50.1356 874.486 53.9792C875.824 57.5378 876.312 60.7172 876.486 63.0275C877.623 60.4204 879.602 54.82 878.273 48.0867C877.812 45.741 877.046 43.7651 876.274 42.1942C878.507 44.1113 884.658 49.9166 886.585 59.5537C887.708 65.1707 886.957 69.8997 886.269 72.7047C886.82 72.123 894.039 64.2498 891.53 53.8708C889.625 45.9836 883.419 42.1 882.166 41.3511C885.911 43.5766 896.891 50.7692 901.737 64.815C903.958 71.2516 904.17 77.0381 903.946 81.0182C906.073 77.8459 908.325 73.3382 909.102 67.6553L909.102 67.6525C909.423 65.3033 910.891 54.5644 903.737 45.7716C900.675 42.0081 897.143 39.9639 895.004 38.9324C897.88 39.3657 903.28 40.5904 908.577 44.6129C911.756 47.0269 913.871 49.6693 915.206 51.6618C915.074 49.3113 914.398 42.969 909.629 37.1425C905.784 32.4417 901.231 30.4704 899.74 29.8817C896.08 28.4356 892.823 28.1931 890.798 28.1978C892.762 26.4479 895.621 24.2671 899.425 22.4113C903.56 20.3953 907.333 19.4838 910.051 19.0434C907.034 18.4217 901.483 17.6987 894.901 19.359C889.691 20.6732 885.857 22.9671 883.537 24.6203C884.272 22.3406 885.407 17.7717 884.484 12.1006C883.502 6.06442 880.702 1.91 879.223 0C880.567 3.60803 883 11.7473 880.485 21.2525C879.522 24.8935 878.066 27.8516 876.698 30.0913C877.225 28.7936 880.402 20.6214 876.173 12.8354C871.957 5.07977 863.477 3.39097 860.185 2.73543L860.179 2.73429C853.33 1.37303 847.683 3.02396 845.029 3.99663C846.934 4.22978 861.39 6.23869 868.281 18.6219C871.031 23.5653 871.59 28.3862 871.648 31.4572C869.425 21.9402 862.409 14.8561 854.289 13.7821C845.144 12.5716 837.813 19.4038 836.508 20.6214C833.691 23.2473 832.012 26.0311 831.037 27.9858C833.121 26.5068 836.616 24.4249 841.348 23.3557L841.351 23.355C843.967 22.7653 853.018 20.7248 861.022 26.1959C865.699 29.3942 867.974 33.7582 869.018 36.297C864.107 29.38 856.015 25.5412 847.869 26.4079C837.535 27.5054 830.735 35.793 828.404 43.2422C826.819 48.3175 827.363 52.8205 827.879 55.3428C828.717 52.5755 831.058 46.2944 837.243 41.4547C838.039 40.8329 848.114 33.2071 860.179 36.4053C863.509 37.2885 866.008 38.7345 867.544 39.7731C862.803 38.7934 858.064 40.2041 855.233 43.5602C853.041 46.1602 852.678 49.1182 852.603 50.3994C853.375 49.13 856.512 44.3091 862.388 43.035C864.237 42.6346 865.897 42.6841 867.193 42.8583C865.422 44.6105 862.756 47.4084 859.899 51.1366C844.963 70.6063 842.535 92.2144 841.451 103.043C841.007 107.487 840.647 113.495 840.942 120.69H800.765C801.059 113.495 800.7 107.487 800.255 103.043C799.172 92.2144 796.744 70.6063 781.807 51.1366C778.951 47.4084 776.285 44.6105 774.514 42.8583C775.809 42.6841 777.469 42.6346 779.318 43.035C785.194 44.3091 788.331 49.13 789.104 50.3994C789.028 49.1182 788.666 46.1602 786.473 43.5602C783.642 40.2041 778.904 38.7934 774.163 39.7731C775.698 38.7345 778.197 37.2885 781.527 36.4053C793.592 33.2071 803.668 40.8329 804.464 41.4547C810.648 46.2944 812.989 52.5755 813.828 55.3428C814.343 52.8205 814.887 48.3175 813.302 43.2422C810.971 35.793 804.172 27.5054 793.837 26.4079C785.691 25.5412 777.599 29.38 772.688 36.297C773.732 33.7582 776.007 29.3942 780.684 26.1959C788.688 20.7248 797.74 22.7653 800.356 23.355L800.359 23.3557C805.09 24.4249 808.585 26.5068 810.669 27.9858C809.694 26.0311 808.015 23.2473 805.198 20.6214C803.894 19.4038 796.562 12.5716 787.417 13.7821C779.297 14.8561 772.281 21.9402 770.058 31.4572C770.117 28.3862 770.675 23.5653 773.426 18.6219C780.317 6.23869 794.772 4.22978 796.678 3.99663C794.023 3.02396 788.376 1.37303 781.527 2.73429L781.522 2.73541C778.23 3.39094 769.749 5.07972 765.534 12.8354C761.304 20.6214 764.481 28.7936 765.008 30.0913C763.64 27.8516 762.185 24.8935 761.221 21.2525C758.706 11.7473 761.139 3.60803 762.484 0C761.005 1.91 758.205 6.06442 757.222 12.1006C756.299 17.7717 757.434 22.3406 758.169 24.6203C755.849 22.9671 752.015 20.6732 746.806 19.359C740.223 17.6987 734.672 18.4217 731.655 19.0434C734.373 19.4838 738.146 20.3953 742.282 22.4113C746.085 24.2671 748.944 26.4479 750.908 28.1978C748.883 28.1931 745.626 28.4356 741.966 29.8817C740.475 30.4704 735.923 32.4417 732.077 37.1425C727.308 42.969 726.632 49.3113 726.5 51.6618C727.835 49.6693 729.95 47.0269 733.13 44.6129C738.426 40.5904 743.827 39.3657 746.702 38.9324C744.564 39.9639 741.031 42.0081 737.969 45.7716C730.815 54.5641 732.283 65.3026 732.604 67.6523L732.604 67.6553C733.382 73.3382 735.633 77.8459 737.76 81.0182C737.536 77.0381 737.748 71.2516 739.969 64.815C744.816 50.7692 755.795 43.5766 759.54 41.3511C758.287 42.1 752.081 45.9836 750.176 53.8708C747.668 64.2498 754.886 72.123 755.437 72.7047C754.75 69.8997 753.998 65.1707 755.122 59.5537C757.048 49.9166 763.2 44.1113 765.432 42.1942C764.66 43.7651 763.894 45.741 763.433 48.0867C762.105 54.82 764.083 60.4204 765.22 63.0275C765.395 60.7172 765.882 57.5378 767.22 53.9792C768.666 50.1356 770.574 47.2553 772.06 45.3524C778.659 55.3734 782.321 64.6384 784.422 71.334C790.931 92.092 789.061 109.324 788.315 114.788C788.018 116.954 787.671 118.933 787.317 120.69H652.684C652.33 118.933 651.984 116.954 651.687 114.788C650.94 109.324 649.07 92.092 655.58 71.334C657.68 64.6384 661.343 55.3734 667.942 45.3524C669.428 47.2553 671.335 50.1356 672.781 53.9792C674.119 57.5378 674.607 60.7172 674.781 63.0275C675.918 60.4204 677.897 54.82 676.568 48.0867C676.107 45.741 675.341 43.7651 674.569 42.1942C676.802 44.1113 682.953 49.9166 684.88 59.5537C686.003 65.1707 685.252 69.8997 684.564 72.7047C685.115 72.123 692.333 64.2498 689.825 53.8708C687.92 45.9836 681.714 42.1 680.461 41.3511C684.206 43.5766 695.185 50.7692 700.032 64.815C702.253 71.2516 702.465 77.0381 702.241 81.0182C704.368 77.8459 706.62 73.3382 707.397 67.6553L707.397 67.6525C707.718 65.3033 709.186 54.5644 702.032 45.7716C698.97 42.0081 695.438 39.9639 693.299 38.9324C696.175 39.3657 701.575 40.5904 706.872 44.6129C710.051 47.0269 712.166 49.6693 713.501 51.6618C713.369 49.3113 712.693 42.969 707.924 37.1425C704.078 32.4417 699.526 30.4704 698.035 29.8817C694.375 28.4356 691.118 28.1931 689.093 28.1978C691.057 26.4479 693.916 24.2671 697.72 22.4113C701.855 20.3953 705.628 19.4838 708.346 19.0434C705.329 18.4217 699.778 17.6987 693.195 19.359C687.986 20.6732 684.152 22.9671 681.832 24.6203C682.567 22.3406 683.702 17.7717 682.779 12.1006C681.797 6.06442 678.996 1.91 677.517 0C678.862 3.60803 681.295 11.7473 678.78 21.2525C677.817 24.8935 676.361 27.8516 674.993 30.0913C675.52 28.7936 678.697 20.6214 674.468 12.8354C670.252 5.07977 661.772 3.39097 658.48 2.73543L658.474 2.73429C651.625 1.37303 645.978 3.02396 643.324 3.99663C645.229 4.22978 659.685 6.23869 666.576 18.6219C669.326 23.5653 669.885 28.3862 669.943 31.4572C667.72 21.9402 660.704 14.8561 652.584 13.7821C643.439 12.5716 636.107 19.4038 634.803 20.6214C631.986 23.2473 630.307 26.0311 629.332 27.9858C631.416 26.5068 634.911 24.4249 639.643 23.3557L639.646 23.355C642.262 22.7653 651.313 20.7248 659.317 26.1959C663.994 29.3942 666.269 33.7582 667.313 36.297C662.402 29.38 654.31 25.5412 646.164 26.4079C635.83 27.5054 629.03 35.793 626.699 43.2422C625.114 48.3175 625.658 52.8205 626.174 55.3428C627.012 52.5755 629.353 46.2944 635.538 41.4547C636.334 40.8329 646.409 33.2071 658.474 36.4053C661.804 37.2885 664.303 38.7345 665.838 39.7731C661.098 38.7934 656.359 40.2041 653.528 43.5602C651.336 46.1602 650.973 49.1182 650.898 50.3994C651.67 49.13 654.807 44.3091 660.683 43.035C662.532 42.6346 664.192 42.6841 665.488 42.8583C663.716 44.6105 661.05 47.4084 658.194 51.1366C643.258 70.6063 640.83 92.2144 639.746 103.043C639.302 107.487 638.942 113.495 639.237 120.69H599.059C599.354 113.495 598.995 107.487 598.55 103.043C597.467 92.2144 595.039 70.6063 580.102 51.1366C577.246 47.4084 574.58 44.6105 572.809 42.8583C574.104 42.6841 575.764 42.6346 577.613 43.035C583.489 44.3091 586.626 49.13 587.398 50.3994C587.323 49.1182 586.96 46.1602 584.768 43.5602C581.937 40.2041 577.199 38.7934 572.458 39.7731C573.993 38.7345 576.492 37.2885 579.822 36.4053C591.887 33.2071 601.963 40.8329 602.759 41.4547C608.943 46.2944 611.284 52.5755 612.122 55.3428C612.638 52.8205 613.182 48.3175 611.597 43.2422C609.266 35.793 602.467 27.5054 592.132 26.4079C583.986 25.5412 575.894 29.38 570.983 36.297C572.027 33.7582 574.302 29.3942 578.979 26.1959C586.983 20.7248 596.035 22.7653 598.651 23.355L598.654 23.3557C603.385 24.4249 606.88 26.5068 608.964 27.9858C607.989 26.0311 606.31 23.2473 603.493 20.6214C602.189 19.4038 594.857 12.5716 585.712 13.7821C577.592 14.8561 570.576 21.9402 568.353 31.4572C568.412 28.3862 568.97 23.5653 571.721 18.6219C578.612 6.23869 593.067 4.22978 594.973 3.99663C592.318 3.02396 586.671 1.37303 579.822 2.73429L579.816 2.73541C576.525 3.39094 568.044 5.07972 563.829 12.8354C559.599 20.6214 562.776 28.7936 563.303 30.0913C561.935 27.8516 560.48 24.8935 559.516 21.2525C557.001 11.7473 559.434 3.60803 560.779 0C559.3 1.91 556.499 6.06442 555.517 12.1006C554.594 17.7717 555.729 22.3406 556.464 24.6203C554.144 22.9671 550.31 20.6732 545.101 19.359C538.518 17.6987 532.967 18.4217 529.95 19.0434C532.668 19.4838 536.441 20.3953 540.577 22.4113C544.38 24.2671 547.239 26.4479 549.203 28.1978C547.178 28.1931 543.921 28.4356 540.261 29.8817C538.77 30.4704 534.218 32.4417 530.372 37.1425C525.603 42.969 524.927 49.3113 524.795 51.6618C526.13 49.6693 528.245 47.0269 531.425 44.6129C536.721 40.5904 542.121 39.3657 544.997 38.9324C542.859 39.9639 539.326 42.0081 536.264 45.7716C529.11 54.5645 530.578 65.3035 530.899 67.6525L530.899 67.6553C531.677 73.3382 533.928 77.8459 536.055 81.0182C535.831 77.0381 536.043 71.2516 538.264 64.815C543.111 50.7692 554.09 43.5766 557.835 41.3511C556.582 42.1 550.376 45.9836 548.471 53.8708C545.963 64.2498 553.181 72.123 553.732 72.7047C553.044 69.8997 552.293 65.1707 553.417 59.5537C555.343 49.9166 561.495 44.1113 563.727 42.1942C562.955 43.7651 562.189 45.741 561.728 48.0867C560.4 54.82 562.378 60.4204 563.515 63.0275C563.69 60.7172 564.177 57.5378 565.515 53.9792C566.961 50.1356 568.868 47.2553 570.355 45.3524C576.954 55.3734 580.616 64.6384 582.717 71.334C589.226 92.092 587.356 109.324 586.61 114.788C586.313 116.954 585.966 118.933 585.612 120.69H450.977C450.623 118.933 450.276 116.954 449.98 114.788C449.233 109.324 447.363 92.092 453.873 71.334C455.973 64.6384 459.635 55.3734 466.235 45.3524C467.721 47.2553 469.628 50.1356 471.074 53.9792C472.412 57.5378 472.9 60.7172 473.074 63.0275C474.211 60.4204 476.19 54.82 474.861 48.0867C474.4 45.741 473.634 43.7651 472.862 42.1942C475.094 44.1113 481.246 49.9166 483.172 59.5537C484.296 65.1707 483.545 69.8997 482.857 72.7047C483.408 72.123 490.626 64.2498 488.118 53.8708C486.213 45.9836 480.007 42.1 478.754 41.3511C482.499 43.5766 493.478 50.7692 498.325 64.815C500.546 71.2516 500.758 77.0381 500.534 81.0182C502.661 77.8459 504.913 73.3382 505.69 67.6553L505.69 67.6524C506.011 65.303 507.479 54.5643 500.325 45.7716C497.263 42.0081 493.73 39.9639 491.592 38.9324C494.468 39.3657 499.868 40.5904 505.165 44.6129C508.344 47.0269 510.459 49.6693 511.794 51.6618C511.662 49.3113 510.986 42.969 506.217 37.1425C502.371 32.4417 497.819 30.4704 496.328 29.8817C492.668 28.4356 489.411 28.1931 487.386 28.1978C489.35 26.4479 492.209 24.2671 496.013 22.4113C500.148 20.3953 503.921 19.4838 506.639 19.0434C503.622 18.4217 498.071 17.6987 491.488 19.359C486.279 20.6732 482.445 22.9671 480.125 24.6203C480.86 22.3406 481.995 17.7717 481.072 12.1006C480.09 6.06442 477.289 1.91 475.81 0C477.155 3.60803 479.588 11.7473 477.073 21.2525C476.11 24.8935 474.654 27.8516 473.286 30.0913C473.813 28.7936 476.99 20.6214 472.761 12.8354C468.545 5.07975 460.065 3.39095 456.773 2.73542L456.767 2.73429C449.918 1.37303 444.271 3.02396 441.617 3.99663C443.522 4.22978 457.978 6.23869 464.869 18.6219C467.619 23.5653 468.177 28.3862 468.236 31.4572C466.013 21.9402 458.997 14.8561 450.877 13.7821C441.732 12.5716 434.4 19.4038 433.096 20.6214C430.279 23.2473 428.6 26.0311 427.625 27.9858C429.709 26.5068 433.204 24.4249 437.935 23.3557L437.939 23.3549C440.555 22.7652 449.606 20.7248 457.61 26.1959C462.287 29.3942 464.562 33.7582 465.606 36.297C460.695 29.38 452.603 25.5412 444.457 26.4079C434.123 27.5054 427.323 35.793 424.992 43.2422C423.407 48.3175 423.951 52.8205 424.467 55.3428C425.305 52.5755 427.646 46.2944 433.831 41.4547C434.627 40.8329 444.702 33.2071 456.767 36.4053C460.097 37.2885 462.596 38.7345 464.131 39.7731C459.391 38.7934 454.652 40.2041 451.821 43.5602C449.629 46.1602 449.266 49.1182 449.191 50.3994C449.963 49.13 453.1 44.3091 458.976 43.035C460.825 42.6346 462.485 42.6841 463.781 42.8583C462.009 44.6105 459.343 47.4084 456.487 51.1366C441.551 70.6063 439.122 92.2144 438.039 103.043C437.595 107.487 437.235 113.495 437.53 120.69H397.354C397.649 113.495 397.289 107.487 396.845 103.043C395.762 92.2144 393.333 70.6063 378.397 51.1366C375.541 47.4084 372.875 44.6105 371.104 42.8583C372.399 42.6841 374.059 42.6346 375.908 43.035C381.784 44.3091 384.921 49.13 385.693 50.3994C385.618 49.1182 385.255 46.1602 383.063 43.5602C380.232 40.2041 375.493 38.7934 370.753 39.7731C372.288 38.7345 374.787 37.2885 378.117 36.4053C390.182 33.2071 400.257 40.8329 401.053 41.4547C407.238 46.2944 409.579 52.5755 410.417 55.3428C410.933 52.8205 411.477 48.3175 409.892 43.2422C407.561 35.793 400.761 27.5054 390.427 26.4079C382.281 25.5412 374.189 29.38 369.278 36.297C370.322 33.7582 372.597 29.3942 377.274 26.1959C385.278 20.7248 394.33 22.7653 396.945 23.355L396.949 23.3557C401.68 24.4249 405.175 26.5068 407.259 27.9858C406.284 26.0311 404.605 23.2473 401.788 20.6214C400.484 19.4038 393.152 12.5716 384.007 13.7821C375.887 14.8561 368.871 21.9402 366.648 31.4572C366.707 28.3862 367.265 23.5653 370.015 18.6219C376.907 6.23869 391.362 4.22978 393.267 3.99663C390.613 3.02396 384.966 1.37303 378.117 2.73429L378.111 2.73542C374.819 3.39096 366.339 5.07976 362.123 12.8354C357.894 20.6214 361.071 28.7936 361.598 30.0913C360.23 27.8516 358.775 24.8935 357.811 21.2525C355.296 11.7473 357.729 3.60803 359.074 0C357.595 1.91 354.794 6.06442 353.812 12.1006C352.889 17.7717 354.024 22.3406 354.759 24.6203C352.439 22.9671 348.605 20.6732 343.396 19.359C336.813 17.6987 331.262 18.4217 328.245 19.0434C330.963 19.4838 334.736 20.3953 338.871 22.4113C342.675 24.2671 345.534 26.4479 347.498 28.1978C345.473 28.1931 342.216 28.4356 338.556 29.8817C337.065 30.4704 332.513 32.4417 328.667 37.1425C323.898 42.969 323.222 49.3113 323.09 51.6618C324.425 49.6693 326.54 47.0269 329.719 44.6129C335.016 40.5904 340.416 39.3657 343.292 38.9324C341.154 39.9639 337.621 42.0081 334.559 45.7716C327.405 54.5645 328.873 65.3035 329.194 67.6525L329.194 67.6553C329.971 73.3382 332.223 77.8459 334.35 81.0182C334.126 77.0381 334.338 71.2516 336.559 64.815C341.406 50.7692 352.385 43.5766 356.13 41.3511C354.877 42.1 348.671 45.9836 346.766 53.8708C344.258 64.2498 351.476 72.123 352.027 72.7047C351.339 69.8997 350.588 65.1707 351.712 59.5537C353.638 49.9166 359.79 44.1113 362.022 42.1942C361.25 43.7651 360.484 45.741 360.023 48.0867C358.694 54.82 360.673 60.4204 361.81 63.0275C361.985 60.7172 362.472 57.5378 363.81 53.9792C365.256 50.1356 367.163 47.2553 368.65 45.3524C375.249 55.3734 378.911 64.6384 381.011 71.334C387.521 92.092 385.651 109.324 384.904 114.788C384.608 116.954 384.261 118.933 383.907 120.69H249.272C248.918 118.933 248.571 116.954 248.274 114.788C247.528 109.324 245.658 92.092 252.167 71.334C254.268 64.6384 257.93 55.3734 264.529 45.3524C266.016 47.2553 267.923 50.1356 269.369 53.9792C270.707 57.5378 271.194 60.7172 271.369 63.0275C272.506 60.4204 274.485 54.82 273.156 48.0867C272.695 45.741 271.929 43.7651 271.157 42.1942C273.389 44.1113 279.541 49.9166 281.467 59.5537C282.591 65.1707 281.84 69.8997 281.152 72.7047C281.703 72.123 288.921 64.2498 286.413 53.8708C284.508 45.9836 278.302 42.1 277.049 41.3511C280.794 43.5766 291.773 50.7692 296.62 64.815C298.841 71.2516 299.053 77.0381 298.829 81.0182C300.956 77.8459 303.207 73.3382 303.985 67.6553L303.985 67.6524C304.306 65.303 305.774 54.5643 298.62 45.7716C295.558 42.0081 292.025 39.9639 289.887 38.9324C292.763 39.3657 298.163 40.5904 303.459 44.6129C306.639 47.0269 308.754 49.6693 310.089 51.6618C309.957 49.3113 309.281 42.969 304.512 37.1425C300.666 32.4417 296.114 30.4704 294.623 29.8817C290.963 28.4356 287.706 28.1931 285.681 28.1978C287.645 26.4479 290.504 24.2671 294.307 22.4113C298.443 20.3953 302.216 19.4838 304.934 19.0434C301.917 18.4217 296.366 17.6987 289.783 19.359C284.574 20.6732 280.74 22.9671 278.42 24.6203C279.155 22.3406 280.29 17.7717 279.367 12.1006C278.385 6.06442 275.584 1.91 274.105 0C275.45 3.60803 277.883 11.7473 275.368 21.2525C274.404 24.8935 272.949 27.8516 271.581 30.0913C272.108 28.7936 275.285 20.6214 271.055 12.8354C266.84 5.07975 258.359 3.39096 255.068 2.73542L255.062 2.73429C248.213 1.37303 242.566 3.02396 239.911 3.99663C241.817 4.22978 256.272 6.23869 263.163 18.6219C265.914 23.5653 266.472 28.3862 266.531 31.4572C264.308 21.9402 257.292 14.8561 249.172 13.7821C240.027 12.5716 232.695 19.4038 231.391 20.6214C228.574 23.2473 226.895 26.0311 225.92 27.9858C228.004 26.5068 231.499 24.4249 236.23 23.3557L236.234 23.355C238.849 22.7653 247.901 20.7248 255.905 26.1959C260.582 29.3942 262.857 33.7582 263.901 36.297C258.99 29.38 250.898 25.5412 242.752 26.4079C232.417 27.5054 225.618 35.793 223.287 43.2422C221.702 48.3175 222.246 52.8205 222.762 55.3428C223.6 52.5755 225.941 46.2944 232.125 41.4547C232.921 40.8329 242.997 33.2071 255.062 36.4053C258.392 37.2885 260.891 38.7345 262.426 39.7731C257.686 38.7934 252.947 40.2041 250.116 43.5602C247.924 46.1602 247.561 49.1182 247.486 50.3994C248.258 49.13 251.395 44.3091 257.271 43.035C259.12 42.6346 260.78 42.6841 262.075 42.8583C260.304 44.6105 257.638 47.4084 254.782 51.1366C239.846 70.6063 237.417 92.2144 236.334 103.043C235.889 107.487 235.53 113.495 235.825 120.69H195.648C195.943 113.495 195.583 107.487 195.139 103.043C194.055 92.2144 191.627 70.6063 176.691 51.1366C173.834 47.4084 171.168 44.6105 169.397 42.8583C170.693 42.6841 172.353 42.6346 174.202 43.035C180.078 44.3091 183.215 49.13 183.987 50.3994C183.912 49.1182 183.549 46.1602 181.356 43.5602C178.526 40.2041 173.787 38.7934 169.046 39.7731C170.582 38.7345 173.081 37.2885 176.411 36.4053C188.476 33.2071 198.551 40.8329 199.347 41.4547C205.532 46.2944 207.873 52.5755 208.711 55.3428C209.227 52.8205 209.771 48.3175 208.186 43.2422C205.854 35.793 199.055 27.5054 188.721 26.4079C180.575 25.5412 172.482 29.38 167.572 36.297C168.615 33.7582 170.89 29.3942 175.568 26.1959C183.572 20.7248 192.623 22.7653 195.239 23.355L195.242 23.3557C199.974 24.4249 203.469 26.5068 205.553 27.9858C204.578 26.0311 202.899 23.2473 200.082 20.6214C198.777 19.4038 191.446 12.5716 182.301 13.7821C174.18 14.8561 167.165 21.9402 164.941 31.4572C165 28.3862 165.558 23.5653 168.309 18.6219C175.2 6.23869 189.656 4.22978 191.561 3.99663C188.907 3.02396 183.259 1.37303 176.411 2.73429L176.405 2.73542C173.113 3.39096 164.633 5.07975 160.417 12.8354C156.187 20.6214 159.364 28.7936 159.892 30.0913C158.524 27.8516 157.068 24.8935 156.105 21.2525C153.59 11.7473 156.023 3.60803 157.367 0C155.888 1.91 153.088 6.06442 152.106 12.1006C151.183 17.7717 152.318 22.3406 153.053 24.6203C150.733 22.9671 146.899 20.6732 141.689 19.359C135.107 17.6987 129.556 18.4217 126.539 19.0434C129.257 19.4838 133.03 20.3953 137.165 22.4113C140.969 24.2671 143.828 26.4479 145.792 28.1978C143.767 28.1931 140.509 28.4356 136.85 29.8817C135.359 30.4704 130.806 32.4417 126.96 37.1425C122.191 42.969 121.515 49.3113 121.384 51.6618C122.719 49.6693 124.834 47.0269 128.013 44.6129C133.31 40.5904 138.71 39.3657 141.586 38.9324C139.447 39.9639 135.915 42.0081 132.853 45.7716C125.699 54.5643 127.167 65.3031 127.488 67.6524L127.488 67.6553C128.265 73.3382 130.517 77.8459 132.643 81.0182C132.42 77.0381 132.632 71.2516 134.852 64.815C139.699 50.7692 150.679 43.5766 154.423 41.3511C153.171 42.1 146.965 45.9836 145.06 53.8708C142.551 64.2498 149.77 72.123 150.321 72.7047C149.633 69.8997 148.882 65.1707 150.005 59.5537C151.932 49.9166 158.083 44.1113 160.316 42.1942C159.543 43.7651 158.778 45.741 158.316 48.0867C156.988 54.82 158.966 60.4204 160.104 63.0275C160.278 60.7172 160.766 57.5378 162.103 53.9792C163.549 50.1356 165.457 47.2553 166.943 45.3524C173.542 55.3734 177.204 64.6384 179.305 71.334C185.815 92.092 183.945 109.324 183.198 114.788C182.901 116.954 182.554 118.933 182.201 120.69H47.5667C47.2132 118.933 46.8663 116.954 46.5694 114.788C45.8228 109.324 43.9529 92.092 50.4624 71.334C52.5631 64.6384 56.2253 55.3734 62.8244 45.3524C64.3105 47.2553 66.2181 50.1356 67.6641 53.9792C69.0018 57.5378 69.4893 60.7172 69.6636 63.0275C70.8011 60.4204 72.7794 54.82 71.4512 48.0867C70.9896 45.741 70.2241 43.7651 69.4517 42.1942C71.6843 44.1113 77.8359 49.9166 79.7623 59.5537C80.8857 65.1707 80.1344 69.8997 79.4468 72.7047C79.9979 72.123 87.2163 64.2498 84.7081 53.8708C82.8028 45.9836 76.5971 42.1 75.3442 41.3511C79.0888 43.5766 90.0683 50.7692 94.9151 64.815C97.136 71.2516 97.348 77.0381 97.1242 81.0182C99.2509 77.8459 101.502 73.3382 102.28 67.6553L102.28 67.6524C102.601 65.3031 104.069 54.5643 96.9146 45.7716C93.853 42.0081 90.3203 39.9639 88.1819 38.9324C91.0575 39.3657 96.4577 40.5904 101.754 44.6129C104.934 47.0269 107.049 49.6693 108.384 51.6618C108.252 49.3113 107.576 42.969 102.807 37.1425C98.9612 32.4417 94.4088 30.4704 92.918 29.8817Z" fill="#933E00"/>
</svg>
