<svg width="693" height="171" viewBox="0 0 693 171" fill="none" xmlns="http://www.w3.org/2000/svg">
<g clip-path="url(#clip0_2440_1102)">
<path fill-rule="evenodd" clip-rule="evenodd" d="M63.4444 28.1978C65.4698 28.1931 68.7269 28.4356 72.3867 29.8817C73.8775 30.4704 78.43 32.4417 82.2759 37.1425C87.045 42.969 87.7209 49.3113 87.8528 51.6618C86.5174 49.6693 84.4025 47.0269 81.2231 44.6129C75.9265 40.5904 70.5262 39.3657 67.6506 38.9324C69.7891 39.9639 73.3217 42.0081 76.3834 45.7716C83.5376 54.5643 82.0698 65.3031 81.7487 67.6524L81.7483 67.6553C80.9711 73.3382 78.7197 77.8459 76.593 81.0182C76.8167 77.0381 76.6048 71.2516 74.3839 64.815C69.5371 50.7692 58.5575 43.5766 54.8129 41.3511C56.0658 42.1 62.2715 45.9836 64.1768 53.8708C66.685 64.2498 59.4666 72.123 58.9155 72.7047C59.6032 69.8997 60.3545 65.1707 59.2311 59.5537C57.3046 49.9166 51.1531 44.1113 48.9204 42.1942C49.6929 43.7651 50.4583 45.741 50.9199 48.0867C52.2482 54.82 50.2699 60.4204 49.1324 63.0275C48.9581 60.7172 48.4706 57.5378 47.1329 53.9792C45.6868 50.1356 43.7792 47.2553 42.2931 45.3524C35.6941 55.3734 32.0319 64.6384 29.9311 71.334C23.4216 92.092 25.2916 109.324 26.0381 114.788C26.6293 119.1 27.4182 122.671 28.0635 125.224L13.8905 125.69C13.1368 116.26 13.5537 108.481 14.0977 103.043C15.1811 92.2144 17.6092 70.6063 32.5453 51.1366C35.4021 47.4084 38.0681 44.6105 39.8391 42.8583C38.5438 42.6841 36.8834 42.6346 35.0347 43.035C29.1587 44.3091 26.0217 49.13 25.2492 50.3994C25.3245 49.1182 25.6872 46.1602 27.8798 43.5602C30.7107 40.2041 35.4492 38.7934 40.19 39.7731C38.6545 38.7345 36.1557 37.2885 32.8256 36.4053C20.7603 33.2071 10.6852 40.8329 9.88913 41.4547C3.70461 46.2944 1.36363 52.5755 0.525206 55.3428C0.00943625 52.8205 -0.534595 48.3175 1.0504 43.2422C3.38196 35.793 10.1812 27.5054 20.5154 26.4079C28.6617 25.5412 36.7539 29.38 41.6643 36.297C40.621 33.7582 38.346 29.3942 33.6687 26.1959C25.6645 20.7248 16.6131 22.7653 13.9972 23.355L13.9941 23.3557C9.26267 24.4249 5.76769 26.5068 3.68341 27.9858C4.65843 26.0311 6.33762 23.2473 9.15434 20.6214C10.4591 19.4038 17.7905 12.5716 26.9354 13.7821C35.0559 14.8561 42.0717 21.9402 44.295 31.4572C44.2361 28.3862 43.6779 23.5653 40.9272 18.6219C34.0361 6.23869 19.5804 4.22978 17.6751 3.99663C20.3293 3.02396 25.9769 1.37303 32.8256 2.73429L32.8313 2.73542C36.1231 3.39096 44.6036 5.07975 48.8191 12.8354C53.0489 20.6214 49.8719 28.7936 49.3443 30.0913C50.7127 27.8516 52.1681 24.8935 53.1314 21.2525C55.6466 11.7473 53.2138 3.60803 51.869 0C53.348 1.91 56.1483 6.06442 57.1303 12.1006C58.0535 17.7717 56.9184 22.3406 56.1836 24.6203C58.5034 22.9671 62.3375 20.6732 67.547 19.359C74.1295 17.6987 79.6805 18.4217 82.6974 19.0434C79.9796 19.4838 76.2067 20.3953 72.0712 22.4113C68.2677 24.2671 65.4086 26.4479 63.4444 28.1978ZM125.261 28.1978C123.235 28.1931 119.978 28.4356 116.318 29.8817C114.828 30.4704 110.275 32.4417 106.429 37.1425C101.66 42.969 100.984 49.3113 100.852 51.6618C102.188 49.6693 104.303 47.0269 107.482 44.6129C112.779 40.5904 118.179 39.3657 121.054 38.9324C118.916 39.9639 115.383 42.0081 112.322 45.7716C105.167 54.5643 106.635 65.3031 106.956 67.6524L106.957 67.6553C107.734 73.3382 109.985 77.8459 112.112 81.0182C111.888 77.0381 112.1 71.2516 114.321 64.815C119.168 50.7692 130.148 43.5766 133.892 41.3511C132.639 42.1 126.434 45.9836 124.528 53.8708C122.02 64.2498 129.238 72.123 129.79 72.7047C129.102 69.8997 128.351 65.1707 129.474 59.5537C131.4 49.9166 137.552 44.1113 139.785 42.1942C139.012 43.7651 138.247 45.741 137.785 48.0867C136.457 54.82 138.435 60.4204 139.573 63.0275C139.747 60.7172 140.234 57.5378 141.572 53.9792C143.018 50.1356 144.926 47.2553 146.412 45.3524C153.011 55.3734 156.673 64.6384 158.774 71.334C165.283 92.092 163.414 109.324 162.667 114.788C162.076 119.1 161.287 122.671 160.642 125.224L174.815 125.69C175.568 116.26 175.151 108.481 174.607 103.043C173.524 92.2144 171.096 70.6063 156.16 51.1366C153.303 47.4084 150.637 44.6105 148.866 42.8583C150.161 42.6841 151.822 42.6346 153.67 43.035C159.546 44.3091 162.683 49.13 163.456 50.3994C163.381 49.1182 163.018 46.1602 160.825 43.5602C157.994 40.2041 153.256 38.7934 148.515 39.7731C150.051 38.7345 152.549 37.2885 155.88 36.4053C167.945 33.2071 178.02 40.8329 178.816 41.4547C185 46.2944 187.341 52.5755 188.18 55.3428C188.696 52.8205 189.24 48.3175 187.655 43.2422C185.323 35.793 178.524 27.5054 168.19 26.4079C160.043 25.5412 151.951 29.38 147.041 36.297C148.084 33.7582 150.359 29.3942 155.036 26.1959C163.041 20.7248 172.092 22.7653 174.708 23.355L174.711 23.3557C179.442 24.4249 182.937 26.5068 185.022 27.9858C184.047 26.0311 182.367 23.2473 179.551 20.6214C178.246 19.4038 170.915 12.5716 161.77 13.7821C153.649 14.8561 146.633 21.9402 144.41 31.4572C144.469 28.3862 145.027 23.5653 147.778 18.6219C154.669 6.23869 169.125 4.22978 171.03 3.99663C168.376 3.02396 162.728 1.37303 155.88 2.73429L155.874 2.73542C152.582 3.39096 144.102 5.07975 139.886 12.8354C135.656 20.6214 138.833 28.7936 139.361 30.0913C137.992 27.8516 136.537 24.8935 135.574 21.2525C133.058 11.7473 135.491 3.60803 136.836 0C135.357 1.91 132.557 6.06442 131.575 12.1006C130.652 17.7717 131.787 22.3406 132.521 24.6203C130.202 22.9671 126.368 20.6732 121.158 19.359C114.576 17.6987 109.025 18.4217 106.008 19.0434C108.725 19.4838 112.498 20.3953 116.634 22.4113C120.437 24.2671 123.297 26.4479 125.261 28.1978ZM274.092 29.8817C270.432 28.4356 267.175 28.1931 265.149 28.1978C267.114 26.4479 269.973 24.2671 273.776 22.4113C277.912 20.3953 281.685 19.4838 284.403 19.0434C281.386 18.4217 275.835 17.6987 269.252 19.359C264.043 20.6732 260.208 22.9671 257.889 24.6203C258.623 22.3406 259.759 17.7717 258.835 12.1006C257.853 6.06442 255.053 1.91 253.574 0C254.919 3.60803 257.352 11.7473 254.836 21.2525C253.873 24.8935 252.418 27.8516 251.049 30.0913C251.577 28.7936 254.754 20.6214 250.524 12.8354C246.309 5.07975 237.828 3.39096 234.536 2.73542L234.531 2.73429C227.682 1.37303 222.034 3.02396 219.38 3.99663C221.286 4.22978 235.741 6.23869 242.632 18.6219C245.383 23.5653 245.941 28.3862 246 31.4572C243.777 21.9402 236.761 14.8561 228.641 13.7821C219.496 12.5716 212.164 19.4038 210.859 20.6214C208.043 23.2473 206.364 26.0311 205.388 27.9858C207.473 26.5068 210.968 24.4249 215.699 23.3557L215.702 23.355C218.318 22.7653 227.37 20.7248 235.374 26.1959C240.051 29.3942 242.326 33.7582 243.369 36.297C238.459 29.38 230.367 25.5412 222.22 26.4079C211.886 27.5054 205.087 35.793 202.755 43.2422C201.17 48.3175 201.715 52.8205 202.23 55.3428C203.069 52.5755 205.41 46.2944 211.594 41.4547C212.39 40.8329 222.465 33.2071 234.531 36.4053C237.861 37.2885 240.36 38.7345 241.895 39.7731C237.154 38.7934 232.416 40.2041 229.585 43.5602C227.392 46.1602 227.03 49.1182 226.954 50.3994C227.727 49.13 230.864 44.3091 236.74 43.035C238.589 42.6346 240.249 42.6841 241.544 42.8583C239.773 44.6105 237.107 47.4084 234.25 51.1366C219.314 70.6063 216.886 92.2144 215.803 103.043C215.259 108.481 214.842 116.26 215.596 125.69L229.769 125.224C229.123 122.671 228.334 119.1 227.743 114.788C226.997 109.324 225.127 92.092 231.636 71.334C233.737 64.6384 237.399 55.3734 243.998 45.3524C245.484 47.2553 247.392 50.1356 248.838 53.9792C250.176 57.5378 250.663 60.7172 250.837 63.0275C251.975 60.4204 253.953 54.82 252.625 48.0867C252.163 45.741 251.398 43.7651 250.625 42.1942C252.858 44.1113 259.01 49.9166 260.936 59.5537C262.06 65.1707 261.308 69.8997 260.621 72.7047C261.172 72.123 268.39 64.2498 265.882 53.8708C263.977 45.9836 257.771 42.1 256.518 41.3511C260.263 43.5766 271.242 50.7692 276.089 64.815C278.31 71.2516 278.522 77.0381 278.298 81.0182C280.425 77.8459 282.676 73.3382 283.453 67.6553L283.454 67.6524C283.775 65.303 285.243 54.5643 278.088 45.7716C275.027 42.0081 271.494 39.9639 269.356 38.9324C272.231 39.3657 277.632 40.5904 282.928 44.6129C286.108 47.0269 288.223 49.6693 289.558 51.6618C289.426 49.3113 288.75 42.969 283.981 37.1425C280.135 32.4417 275.583 30.4704 274.092 29.8817ZM326.967 28.1978C324.942 28.1931 321.684 28.4356 318.025 29.8817C316.534 30.4704 311.981 32.4417 308.135 37.1425C303.366 42.969 302.69 49.3113 302.559 51.6618C303.894 49.6693 306.009 47.0269 309.188 44.6129C314.485 40.5904 319.885 39.3657 322.761 38.9324C320.622 39.9639 317.09 42.0081 314.028 45.7716C306.874 54.5645 308.342 65.3035 308.663 67.6525L308.663 67.6553C309.44 73.3382 311.692 77.8459 313.818 81.0182C313.595 77.0381 313.807 71.2516 316.027 64.815C320.874 50.7692 331.854 43.5766 335.598 41.3511C334.346 42.1 328.14 45.9836 326.235 53.8708C323.726 64.2498 330.945 72.123 331.496 72.7047C330.808 69.8997 330.057 65.1707 331.18 59.5537C333.107 49.9166 339.258 44.1113 341.491 42.1942C340.718 43.7651 339.953 45.741 339.491 48.0867C338.163 54.82 340.141 60.4204 341.279 63.0275C341.453 60.7172 341.941 57.5378 343.279 53.9792C344.725 50.1356 346.632 47.2553 348.118 45.3524C354.717 55.3734 358.379 64.6384 360.48 71.334C366.99 92.092 365.12 109.324 364.373 114.788C363.782 119.1 362.993 122.671 362.348 125.224L376.521 125.69C377.275 116.26 376.858 108.481 376.314 103.043C375.23 92.2144 372.802 70.6063 357.866 51.1366C355.009 47.4084 352.343 44.6105 350.572 42.8583C351.868 42.6841 353.528 42.6346 355.377 43.035C361.253 44.3091 364.39 49.13 365.162 50.3994C365.087 49.1182 364.724 46.1602 362.532 43.5602C359.701 40.2041 354.962 38.7934 350.221 39.7731C351.757 38.7345 354.256 37.2885 357.586 36.4053C369.651 33.2071 379.726 40.8329 380.522 41.4547C386.707 46.2944 389.048 52.5755 389.886 55.3428C390.402 52.8205 390.946 48.3175 389.361 43.2422C387.029 35.793 380.23 27.5054 369.896 26.4079C361.75 25.5412 353.657 29.38 348.747 36.297C349.79 33.7582 352.065 29.3942 356.743 26.1959C364.747 20.7248 373.798 22.7653 376.414 23.355L376.417 23.3557C381.149 24.4249 384.644 26.5068 386.728 27.9858C385.753 26.0311 384.074 23.2473 381.257 20.6214C379.952 19.4038 372.621 12.5716 363.476 13.7821C355.355 14.8561 348.34 21.9402 346.116 31.4572C346.175 28.3862 346.733 23.5653 349.484 18.6219C356.375 6.23869 370.831 4.22978 372.736 3.99663C370.082 3.02396 364.434 1.37303 357.586 2.73429L357.58 2.73542C354.288 3.39096 345.808 5.07976 341.592 12.8354C337.362 20.6214 340.539 28.7936 341.067 30.0913C339.699 27.8516 338.243 24.8935 337.28 21.2525C334.765 11.7473 337.198 3.60803 338.542 0C337.063 1.91 334.263 6.06442 333.281 12.1006C332.358 17.7717 333.493 22.3406 334.228 24.6203C331.908 22.9671 328.074 20.6732 322.864 19.359C316.282 17.6987 310.731 18.4217 307.714 19.0434C310.432 19.4838 314.205 20.3953 318.34 22.4113C322.144 24.2671 325.003 26.4479 326.967 28.1978ZM475.797 29.8817C472.137 28.4356 468.88 28.1931 466.855 28.1978C468.819 26.4479 471.678 24.2671 475.481 22.4113C479.617 20.3953 483.39 19.4838 486.108 19.0434C483.091 18.4217 477.54 17.6987 470.957 19.359C465.748 20.6732 461.914 22.9671 459.594 24.6203C460.329 22.3406 461.464 17.7717 460.54 12.1006C459.558 6.06442 456.758 1.91 455.279 0C456.624 3.60803 459.057 11.7473 456.542 21.2525C455.578 24.8935 454.123 27.8516 452.754 30.0913C453.282 28.7936 456.459 20.6214 452.229 12.8354C448.014 5.07975 439.533 3.39095 436.241 2.73542L436.236 2.73429C429.387 1.37303 423.74 3.02396 421.085 3.99663C422.991 4.22978 437.446 6.23869 444.337 18.6219C447.088 23.5653 447.646 28.3862 447.705 31.4572C445.482 21.9402 438.466 14.8561 430.346 13.7821C421.201 12.5716 413.869 19.4038 412.564 20.6214C409.748 23.2473 408.069 26.0311 407.094 27.9858C409.178 26.5068 412.673 24.4249 417.404 23.3557L417.407 23.3549C420.023 22.7652 429.075 20.7248 437.079 26.1959C441.756 29.3942 444.031 33.7582 445.074 36.297C440.164 29.38 432.072 25.5412 423.926 26.4079C413.591 27.5054 406.792 35.793 404.461 43.2422C402.876 48.3175 403.42 52.8205 403.935 55.3428C404.774 52.5755 407.115 46.2944 413.299 41.4547C414.095 40.8329 424.171 33.2071 436.236 36.4053C439.566 37.2885 442.065 38.7345 443.6 39.7731C438.859 38.7934 434.121 40.2041 431.29 43.5602C429.097 46.1602 428.735 49.1182 428.659 50.3994C429.432 49.13 432.569 44.3091 438.445 43.035C440.294 42.6346 441.954 42.6841 443.249 42.8583C441.478 44.6105 438.812 47.4084 435.955 51.1366C421.019 70.6063 418.591 92.2144 417.508 103.043C416.964 108.481 416.547 116.26 417.301 125.69L431.474 125.224C430.828 122.671 430.039 119.1 429.448 114.788C428.702 109.324 426.832 92.092 433.341 71.334C435.442 64.6384 439.104 55.3734 445.703 45.3524C447.189 47.2553 449.097 50.1356 450.543 53.9792C451.881 57.5378 452.368 60.7172 452.543 63.0275C453.68 60.4204 455.658 54.82 454.33 48.0867C453.868 45.741 453.103 43.7651 452.331 42.1942C454.563 44.1113 460.715 49.9166 462.641 59.5537C463.765 65.1707 463.013 69.8997 462.326 72.7047C462.877 72.123 470.095 64.2498 467.587 53.8708C465.682 45.9836 459.476 42.1 458.223 41.3511C461.968 43.5766 472.947 50.7692 477.794 64.815C480.015 71.2516 480.227 77.0381 480.003 81.0182C482.13 77.8459 484.381 73.3382 485.158 67.6553L485.159 67.6524C485.48 65.303 486.948 54.5643 479.794 45.7716C476.732 42.0081 473.199 39.9639 471.061 38.9324C473.936 39.3657 479.337 40.5904 484.633 44.6129C487.813 47.0269 489.928 49.6693 491.263 51.6618C491.131 49.3113 490.455 42.969 485.686 37.1425C481.84 32.4417 477.288 30.4704 475.797 29.8817ZM528.672 28.1978C526.647 28.1931 523.39 28.4356 519.73 29.8817C518.239 30.4704 513.686 32.4417 509.841 37.1425C505.071 42.969 504.396 49.3113 504.264 51.6618C505.599 49.6693 507.714 47.0269 510.893 44.6129C516.19 40.5904 521.59 39.3657 524.466 38.9324C522.327 39.9639 518.795 42.0081 515.733 45.7716C508.579 54.5645 510.047 65.3035 510.368 67.6525L510.368 67.6553C511.145 73.3382 513.397 77.8459 515.523 81.0182C515.3 77.0381 515.512 71.2516 517.733 64.815C522.579 50.7692 533.559 43.5766 537.304 41.3511C536.051 42.1 529.845 45.9836 527.94 53.8708C525.431 64.2498 532.65 72.123 533.201 72.7047C532.513 69.8997 531.762 65.1707 532.885 59.5537C534.812 49.9166 540.963 44.1113 543.196 42.1942C542.424 43.7651 541.658 45.741 541.197 48.0867C539.868 54.82 541.847 60.4204 542.984 63.0275C543.158 60.7172 543.646 57.5378 544.984 53.9792C546.43 50.1356 548.337 47.2553 549.823 45.3524C556.422 55.3734 560.085 64.6384 562.185 71.334C568.695 92.092 566.825 109.324 566.078 114.788C565.487 119.1 564.698 122.671 564.053 125.224L578.226 125.69C578.98 116.26 578.563 108.481 578.019 103.043C576.935 92.2144 574.507 70.6063 559.571 51.1366C556.714 47.4084 554.048 44.6105 552.277 42.8583C553.573 42.6841 555.233 42.6346 557.082 43.035C562.958 44.3091 566.095 49.13 566.867 50.3994C566.792 49.1182 566.429 46.1602 564.237 43.5602C561.406 40.2041 556.667 38.7934 551.926 39.7731C553.462 38.7345 555.961 37.2885 559.291 36.4053C571.356 33.2071 581.431 40.8329 582.227 41.4547C588.412 46.2944 590.753 52.5755 591.591 55.3428C592.107 52.8205 592.651 48.3175 591.066 43.2422C588.734 35.793 581.935 27.5054 571.601 26.4079C563.455 25.5412 555.363 29.38 550.452 36.297C551.495 33.7582 553.771 29.3942 558.448 26.1959C566.452 20.7248 575.503 22.7653 578.119 23.355L578.122 23.3557C582.854 24.4249 586.349 26.5068 588.433 27.9858C587.458 26.0311 585.779 23.2473 582.962 20.6214C581.657 19.4038 574.326 12.5716 565.181 13.7821C557.061 14.8561 550.045 21.9402 547.821 31.4572C547.88 28.3862 548.439 23.5653 551.189 18.6219C558.08 6.23869 572.536 4.22978 574.441 3.99663C571.787 3.02396 566.14 1.37303 559.291 2.73429L559.285 2.73541C555.993 3.39094 547.513 5.07972 543.297 12.8354C539.068 20.6214 542.245 28.7936 542.772 30.0913C541.404 27.8516 539.948 24.8935 538.985 21.2525C536.47 11.7473 538.903 3.60803 540.247 0C538.768 1.91 535.968 6.06442 534.986 12.1006C534.063 17.7717 535.198 22.3406 535.933 24.6203C533.613 22.9671 529.779 20.6732 524.569 19.359C517.987 17.6987 512.436 18.4217 509.419 19.0434C512.137 19.4838 515.91 20.3953 520.045 22.4113C523.849 24.2671 526.708 26.4479 528.672 28.1978ZM677.504 29.8817C673.844 28.4356 670.587 28.1931 668.562 28.1978C670.526 26.4479 673.385 24.2671 677.188 22.4113C681.324 20.3953 685.097 19.4838 687.815 19.0434C684.798 18.4217 679.247 17.6987 672.664 19.359C667.455 20.6732 663.621 22.9671 661.301 24.6203C662.036 22.3406 663.171 17.7717 662.247 12.1006C661.265 6.06442 658.465 1.91 656.986 0C658.331 3.60803 660.764 11.7473 658.249 21.2525C657.285 24.8935 655.83 27.8516 654.462 30.0913C654.989 28.7936 658.166 20.6214 653.936 12.8354C649.721 5.07977 641.24 3.39097 637.948 2.73543L637.943 2.73429C631.094 1.37303 625.447 3.02396 622.792 3.99663C624.698 4.22978 639.153 6.23869 646.044 18.6219C648.795 23.5653 649.353 28.3862 649.412 31.4572C647.189 21.9402 640.173 14.8561 632.053 13.7821C622.908 12.5716 615.576 19.4038 614.272 20.6214C611.455 23.2473 609.776 26.0311 608.801 27.9858C610.885 26.5068 614.38 24.4249 619.111 23.3557L619.114 23.355C621.73 22.7653 630.782 20.7248 638.786 26.1959C643.463 29.3942 645.738 33.7582 646.781 36.297C641.871 29.38 633.779 25.5412 625.633 26.4079C615.298 27.5054 608.499 35.793 606.168 43.2422C604.583 48.3175 605.127 52.8205 605.642 55.3428C606.481 52.5755 608.822 46.2944 615.006 41.4547C615.802 40.8329 625.878 33.2071 637.943 36.4053C641.273 37.2885 643.772 38.7345 645.307 39.7731C640.566 38.7934 635.828 40.2041 632.997 43.5602C630.804 46.1602 630.442 49.1182 630.366 50.3994C631.139 49.13 634.276 44.3091 640.152 43.035C642.001 42.6346 643.661 42.6841 644.956 42.8583C643.185 44.6105 640.519 47.4084 637.662 51.1366C622.726 70.6063 620.298 92.2144 619.215 103.043C618.671 108.481 618.254 116.26 619.008 125.69L633.181 125.224C632.535 122.671 631.746 119.1 631.155 114.788C630.409 109.324 628.539 92.092 635.048 71.334C637.149 64.6384 640.811 55.3734 647.41 45.3524C648.896 47.2553 650.804 50.1356 652.25 53.9792C653.588 57.5378 654.075 60.7172 654.25 63.0275C655.387 60.4204 657.365 54.82 656.037 48.0867C655.576 45.741 654.81 43.7651 654.038 42.1942C656.27 44.1113 662.422 49.9166 664.348 59.5537C665.472 65.1707 664.72 69.8997 664.033 72.7047C664.584 72.123 671.802 64.2498 669.294 53.8708C667.389 45.9836 661.183 42.1 659.93 41.3511C663.675 43.5766 674.654 50.7692 679.501 64.815C681.722 71.2516 681.934 77.0381 681.71 81.0182C683.837 77.8459 686.088 73.3382 686.865 67.6553L686.866 67.6525C687.187 65.3033 688.655 54.5644 681.501 45.7716C678.439 42.0081 674.906 39.9639 672.768 38.9324C675.643 39.3657 681.044 40.5904 686.34 44.6129C689.52 47.0269 691.635 49.6693 692.97 51.6618C692.838 49.3113 692.162 42.969 687.393 37.1425C683.547 32.4417 678.995 30.4704 677.504 29.8817ZM730.377 28.1978C728.352 28.1931 725.095 28.4356 721.435 29.8817C719.944 30.4704 715.392 32.4417 711.546 37.1425C706.777 42.969 706.101 49.3113 705.969 51.6618C707.304 49.6693 709.419 47.0269 712.598 44.6129C717.895 40.5904 723.295 39.3657 726.171 38.9324C724.032 39.9639 720.5 42.0081 717.438 45.7716C710.284 54.5641 711.752 65.3026 712.073 67.6523L712.073 67.6553C712.85 73.3382 715.102 77.8459 717.229 81.0182C717.005 77.0381 717.217 71.2516 719.438 64.815C724.284 50.7692 735.264 43.5766 739.009 41.3511C737.756 42.1 731.55 45.9836 729.645 53.8708C727.136 64.2498 734.355 72.123 734.906 72.7047C734.218 69.8997 733.467 65.1707 734.59 59.5537C736.517 49.9166 742.668 44.1113 744.901 42.1942C744.129 43.7651 743.363 45.741 742.902 48.0867C741.573 54.82 743.552 60.4204 744.689 63.0275C744.863 60.7172 745.351 57.5378 746.689 53.9792C748.135 50.1356 750.042 47.2553 751.528 45.3524C758.127 55.3734 761.79 64.6384 763.89 71.334C770.4 92.092 768.53 109.324 767.783 114.788C767.192 119.1 766.403 122.671 765.758 125.224L779.931 125.69C780.685 116.26 780.268 108.481 779.724 103.043C778.64 92.2144 776.212 70.6063 761.276 51.1366C758.419 47.4084 755.753 44.6105 753.982 42.8583C755.278 42.6841 756.938 42.6346 758.787 43.035C764.663 44.3091 767.8 49.13 768.572 50.3994C768.497 49.1182 768.134 46.1602 765.942 43.5602C763.111 40.2041 758.372 38.7934 753.632 39.7731C755.167 38.7345 757.666 37.2885 760.996 36.4053C773.061 33.2071 783.136 40.8329 783.932 41.4547C790.117 46.2944 792.458 52.5755 793.296 55.3428C793.812 52.8205 794.356 48.3175 792.771 43.2422C790.44 35.793 783.64 27.5054 773.306 26.4079C765.16 25.5412 757.068 29.38 752.157 36.297C753.201 33.7582 755.476 29.3942 760.153 26.1959C768.157 20.7248 777.208 22.7653 779.824 23.355L779.827 23.3557C784.559 24.4249 788.054 26.5068 790.138 27.9858C789.163 26.0311 787.484 23.2473 784.667 20.6214C783.362 19.4038 776.031 12.5716 766.886 13.7821C758.766 14.8561 751.75 21.9402 749.527 31.4572C749.585 28.3862 750.144 23.5653 752.894 18.6219C759.785 6.23869 774.241 4.22978 776.146 3.99663C773.492 3.02396 767.845 1.37303 760.996 2.73429L760.99 2.73541C757.698 3.39094 749.218 5.07972 745.002 12.8354C740.773 20.6214 743.95 28.7936 744.477 30.0913C743.109 27.8516 741.653 24.8935 740.69 21.2525C738.175 11.7473 740.608 3.60803 741.953 0C740.474 1.91 737.673 6.06442 736.691 12.1006C735.768 17.7717 736.903 22.3406 737.638 24.6203C735.318 22.9671 731.484 20.6732 726.275 19.359C719.692 17.6987 714.141 18.4217 711.124 19.0434C713.842 19.4838 717.615 20.3953 721.75 22.4113C725.554 24.2671 728.413 26.4479 730.377 28.1978ZM879.209 29.8817C875.549 28.4356 872.292 28.1931 870.267 28.1978C872.231 26.4479 875.09 24.2671 878.893 22.4113C883.029 20.3953 886.802 19.4838 889.52 19.0434C886.503 18.4217 880.952 17.6987 874.369 19.359C869.16 20.6732 865.326 22.9671 863.006 24.6203C863.741 22.3406 864.876 17.7717 863.953 12.1006C862.971 6.06442 860.17 1.91 858.691 0C860.036 3.60803 862.469 11.7473 859.954 21.2525C858.99 24.8935 857.535 27.8516 856.167 30.0913C856.694 28.7936 859.871 20.6214 855.641 12.8354C851.426 5.07977 842.945 3.39097 839.654 2.73543L839.648 2.73429C832.799 1.37303 827.152 3.02396 824.497 3.99663C826.403 4.22978 840.858 6.23869 847.749 18.6219C850.5 23.5653 851.058 28.3862 851.117 31.4572C848.894 21.9402 841.878 14.8561 833.758 13.7821C824.613 12.5716 817.281 19.4038 815.977 20.6214C813.16 23.2473 811.481 26.0311 810.506 27.9858C812.59 26.5068 816.085 24.4249 820.816 23.3557L820.819 23.355C823.435 22.7653 832.487 20.7248 840.491 26.1959C845.168 29.3942 847.443 33.7582 848.487 36.297C843.576 29.38 835.484 25.5412 827.338 26.4079C817.003 27.5054 810.204 35.793 807.873 43.2422C806.288 48.3175 806.832 52.8205 807.347 55.3428C808.186 52.5755 810.527 46.2944 816.711 41.4547C817.507 40.8329 827.583 33.2071 839.648 36.4053C842.978 37.2885 845.477 38.7345 847.012 39.7731C842.271 38.7934 837.533 40.2041 834.702 43.5602C832.51 46.1602 832.147 49.1182 832.071 50.3994C832.844 49.13 835.981 44.3091 841.857 43.035C843.706 42.6346 845.366 42.6841 846.661 42.8583C844.89 44.6105 842.224 47.4084 839.368 51.1366C824.431 70.6063 822.003 92.2144 820.92 103.043C820.376 108.481 819.959 116.26 820.713 125.69L834.886 125.224C834.24 122.671 833.452 119.1 832.86 114.788C832.114 109.324 830.244 92.092 836.753 71.334C838.854 64.6384 842.516 55.3734 849.115 45.3524C850.601 47.2553 852.509 50.1356 853.955 53.9792C855.293 57.5378 855.78 60.7172 855.955 63.0275C857.092 60.4204 859.07 54.82 857.742 48.0867C857.281 45.741 856.515 43.7651 855.743 42.1942C857.975 44.1113 864.127 49.9166 866.053 59.5537C867.177 65.1707 866.425 69.8997 865.738 72.7047C866.289 72.123 873.507 64.2498 870.999 53.8708C869.094 45.9836 862.888 42.1 861.635 41.3511C865.38 43.5766 876.359 50.7692 881.206 64.815C883.427 71.2516 883.639 77.0381 883.415 81.0182C885.542 77.8459 887.793 73.3382 888.571 67.6553L888.571 67.6525C888.892 65.3033 890.36 54.5644 883.206 45.7716C880.144 42.0081 876.611 39.9639 874.473 38.9324C877.348 39.3657 882.749 40.5904 888.045 44.6129C891.225 47.0269 893.34 49.6693 894.675 51.6618C894.543 49.3113 893.867 42.969 889.098 37.1425C885.252 32.4417 880.7 30.4704 879.209 29.8817ZM932.084 28.1978C930.059 28.1931 926.802 28.4356 923.142 29.8817C921.651 30.4704 917.099 32.4417 913.253 37.1425C908.484 42.969 907.808 49.3113 907.676 51.6618C909.011 49.6693 911.126 47.0269 914.305 44.6129C919.602 40.5904 925.002 39.3657 927.878 38.9324C925.74 39.9639 922.207 42.0081 919.145 45.7716C911.991 54.5641 913.459 65.3026 913.78 67.6523L913.78 67.6553C914.557 73.3382 916.809 77.8459 918.936 81.0182C918.712 77.0381 918.924 71.2516 921.145 64.815C925.992 50.7692 936.971 43.5766 940.716 41.3511C939.463 42.1 933.257 45.9836 931.352 53.8708C928.844 64.2498 936.062 72.123 936.613 72.7047C935.925 69.8997 935.174 65.1707 936.297 59.5537C938.224 49.9166 944.375 44.1113 946.608 42.1942C945.836 43.7651 945.07 45.741 944.609 48.0867C943.28 54.82 945.259 60.4204 946.396 63.0275C946.57 60.7172 947.058 57.5378 948.396 53.9792C949.842 50.1356 951.749 47.2553 953.235 45.3524C959.834 55.3734 963.497 64.6384 965.597 71.334C972.107 92.092 970.237 109.324 969.49 114.788C968.899 119.1 968.11 122.671 967.465 125.224L981.638 125.69C982.392 116.26 981.975 108.481 981.431 103.043C980.347 92.2144 977.919 70.6063 962.983 51.1366C960.126 47.4084 957.461 44.6105 955.689 42.8583C956.985 42.6841 958.645 42.6346 960.494 43.035C966.37 44.3091 969.507 49.13 970.279 50.3994C970.204 49.1182 969.841 46.1602 967.649 43.5602C964.818 40.2041 960.079 38.7934 955.339 39.7731C956.874 38.7345 959.373 37.2885 962.703 36.4053C974.768 33.2071 984.843 40.8329 985.639 41.4547C991.824 46.2944 994.165 52.5755 995.003 55.3428C995.519 52.8205 996.063 48.3175 994.478 43.2422C992.147 35.793 985.347 27.5054 975.013 26.4079C966.867 25.5412 958.775 29.38 953.864 36.297C954.908 33.7582 957.183 29.3942 961.86 26.1959C969.864 20.7248 978.915 22.7653 981.531 23.355L981.534 23.3557C986.266 24.4249 989.761 26.5068 991.845 27.9858C990.87 26.0311 989.191 23.2473 986.374 20.6214C985.069 19.4038 977.738 12.5716 968.593 13.7821C960.473 14.8561 953.457 21.9402 951.234 31.4572C951.292 28.3862 951.851 23.5653 954.601 18.6219C961.492 6.23869 975.948 4.22978 977.853 3.99663C975.199 3.02396 969.552 1.37303 962.703 2.73429L962.697 2.73541C959.405 3.39094 950.925 5.07972 946.709 12.8354C942.48 20.6214 945.657 28.7936 946.184 30.0913C944.816 27.8516 943.36 24.8935 942.397 21.2525C939.882 11.7473 942.315 3.60803 943.66 0C942.181 1.91 939.38 6.06442 938.398 12.1006C937.475 17.7717 938.61 22.3406 939.345 24.6203C937.025 22.9671 933.191 20.6732 927.982 19.359C921.399 17.6987 915.848 18.4217 912.831 19.0434C915.549 19.4838 919.322 20.3953 923.457 22.4113C927.261 24.2671 930.12 26.4479 932.084 28.1978ZM1080.91 29.8817C1077.25 28.4356 1074 28.1931 1071.97 28.1978C1073.94 26.4479 1076.8 24.2671 1080.6 22.4113C1084.73 20.3953 1088.51 19.4838 1091.22 19.0434C1088.21 18.4217 1082.66 17.6987 1076.07 19.359C1070.86 20.6732 1067.03 22.9671 1064.71 24.6203C1065.45 22.3406 1066.58 17.7717 1065.66 12.1006C1064.68 6.06442 1061.88 1.91 1060.4 0C1061.74 3.60803 1064.17 11.7473 1061.66 21.2525C1060.7 24.8935 1059.24 27.8516 1057.87 30.0913C1058.4 28.7936 1061.58 20.6214 1057.35 12.8354C1053.13 5.07976 1044.65 3.39096 1041.36 2.73542L1041.35 2.73429C1034.5 1.37303 1028.86 3.02396 1026.2 3.99663C1028.11 4.22978 1042.56 6.23869 1049.45 18.6219C1052.21 23.5653 1052.76 28.3862 1052.82 31.4572C1050.6 21.9402 1043.58 14.8561 1035.46 13.7821C1026.32 12.5716 1018.99 19.4038 1017.68 20.6214C1014.86 23.2473 1013.19 26.0311 1012.21 27.9858C1014.3 26.5068 1017.79 24.4249 1022.52 23.3557L1022.52 23.3549C1025.14 22.7652 1034.19 20.7248 1042.2 26.1959C1046.87 29.3942 1049.15 33.7582 1050.19 36.297C1045.28 29.38 1037.19 25.5412 1029.04 26.4079C1018.71 27.5054 1011.91 35.793 1009.58 43.2422C1007.99 48.3175 1008.54 52.8205 1009.05 55.3428C1009.89 52.5755 1012.23 46.2944 1018.42 41.4547C1019.21 40.8329 1029.29 33.2071 1041.35 36.4053C1044.68 37.2885 1047.18 38.7345 1048.72 39.7731C1043.98 38.7934 1039.24 40.2041 1036.41 43.5602C1034.21 46.1602 1033.85 49.1182 1033.78 50.3994C1034.55 49.13 1037.69 44.3091 1043.56 43.035C1045.41 42.6346 1047.07 42.6841 1048.37 42.8583C1046.6 44.6105 1043.93 47.4084 1041.07 51.1366C1026.14 70.6063 1023.71 92.2144 1022.63 103.043C1022.08 108.481 1021.66 116.26 1022.42 125.69L1036.59 125.224C1035.95 122.671 1035.16 119.1 1034.57 114.788C1033.82 109.324 1031.95 92.092 1038.46 71.334C1040.56 64.6384 1044.22 55.3734 1050.82 45.3524C1052.31 47.2553 1054.21 50.1356 1055.66 53.9792C1057 57.5378 1057.49 60.7172 1057.66 63.0275C1058.8 60.4204 1060.78 54.82 1059.45 48.0867C1058.99 45.741 1058.22 43.7651 1057.45 42.1942C1059.68 44.1113 1065.83 49.9166 1067.76 59.5537C1068.88 65.1707 1068.13 69.8997 1067.44 72.7047C1067.99 72.123 1075.21 64.2498 1072.7 53.8708C1070.8 45.9836 1064.59 42.1 1063.34 41.3511C1067.08 43.5766 1078.06 50.7692 1082.91 64.815C1085.13 71.2516 1085.34 77.0381 1085.12 81.0182C1087.25 77.8459 1089.5 73.3382 1090.28 67.6553L1090.28 67.6525C1090.6 65.3035 1092.07 54.5645 1084.91 45.7716C1081.85 42.0081 1078.32 39.9639 1076.18 38.9324C1079.05 39.3657 1084.45 40.5904 1089.75 44.6129C1092.93 47.0269 1095.04 49.6693 1096.38 51.6618C1096.25 49.3113 1095.57 42.969 1090.8 37.1425C1086.96 32.4417 1082.4 30.4704 1080.91 29.8817ZM1133.79 28.1978C1131.76 28.1931 1128.51 28.4356 1124.85 29.8817C1123.36 30.4704 1118.8 32.4417 1114.96 37.1425C1110.19 42.969 1109.51 49.3113 1109.38 51.6618C1110.72 49.6693 1112.83 47.0269 1116.01 44.6129C1121.31 40.5904 1126.71 39.3657 1129.58 38.9324C1127.44 39.9639 1123.91 42.0081 1120.85 45.7716C1113.7 54.5645 1115.16 65.3035 1115.48 67.6525L1115.49 67.6553C1116.26 73.3382 1118.51 77.8459 1120.64 81.0182C1120.42 77.0381 1120.63 71.2516 1122.85 64.815C1127.7 50.7692 1138.68 43.5766 1142.42 41.3511C1141.17 42.1 1134.96 45.9836 1133.06 53.8708C1130.55 64.2498 1137.77 72.123 1138.32 72.7047C1137.63 69.8997 1136.88 65.1707 1138 59.5537C1139.93 49.9166 1146.08 44.1113 1148.31 42.1942C1147.54 43.7651 1146.78 45.741 1146.31 48.0867C1144.99 54.82 1146.96 60.4204 1148.1 63.0275C1148.28 60.7172 1148.76 57.5378 1150.1 53.9792C1151.55 50.1356 1153.45 47.2553 1154.94 45.3524C1161.54 55.3734 1165.2 64.6384 1167.3 71.334C1173.81 92.092 1171.94 109.324 1171.2 114.788C1170.6 119.1 1169.82 122.671 1169.17 125.224L1183.34 125.69C1184.1 116.26 1183.68 108.481 1183.14 103.043C1182.05 92.2144 1179.62 70.6063 1164.69 51.1366C1161.83 47.4084 1159.17 44.6105 1157.39 42.8583C1158.69 42.6841 1160.35 42.6346 1162.2 43.035C1168.07 44.3091 1171.21 49.13 1171.98 50.3994C1171.91 49.1182 1171.55 46.1602 1169.35 43.5602C1166.52 40.2041 1161.78 38.7934 1157.04 39.7731C1158.58 38.7345 1161.08 37.2885 1164.41 36.4053C1176.47 33.2071 1186.55 40.8329 1187.34 41.4547C1193.53 46.2944 1195.87 52.5755 1196.71 55.3428C1197.22 52.8205 1197.77 48.3175 1196.18 43.2422C1193.85 35.793 1187.05 27.5054 1176.72 26.4079C1168.57 25.5412 1160.48 29.38 1155.57 36.297C1156.61 33.7582 1158.89 29.3942 1163.56 26.1959C1171.57 20.7248 1180.62 22.7653 1183.24 23.355L1183.24 23.3557C1187.97 24.4249 1191.47 26.5068 1193.55 27.9858C1192.58 26.0311 1190.9 23.2473 1188.08 20.6214C1186.77 19.4038 1179.44 12.5716 1170.3 13.7821C1162.18 14.8561 1155.16 21.9402 1152.94 31.4572C1153 28.3862 1153.56 23.5653 1156.31 18.6219C1163.2 6.23869 1177.65 4.22978 1179.56 3.99663C1176.9 3.02396 1171.26 1.37303 1164.41 2.73429L1164.4 2.73543C1161.11 3.39097 1152.63 5.07978 1148.41 12.8354C1144.18 20.6214 1147.36 28.7936 1147.89 30.0913C1146.52 27.8516 1145.07 24.8935 1144.1 21.2525C1141.59 11.7473 1144.02 3.60803 1145.36 0C1143.89 1.91 1141.09 6.06442 1140.1 12.1006C1139.18 17.7717 1140.32 22.3406 1141.05 24.6203C1138.73 22.9671 1134.9 20.6732 1129.69 19.359C1123.1 17.6987 1117.55 18.4217 1114.54 19.0434C1117.25 19.4838 1121.03 20.3953 1125.16 22.4113C1128.97 24.2671 1131.83 26.4479 1133.79 28.1978ZM1282.62 29.8817C1278.96 28.4356 1275.7 28.1931 1273.68 28.1978C1275.64 26.4479 1278.5 24.2671 1282.3 22.4113C1286.44 20.3953 1290.21 19.4838 1292.93 19.0434C1289.91 18.4217 1284.36 17.6987 1277.78 19.359C1272.57 20.6732 1268.74 22.9671 1266.42 24.6203C1267.15 22.3406 1268.29 17.7717 1267.36 12.1006C1266.38 6.06442 1263.58 1.91 1262.1 0C1263.45 3.60803 1265.88 11.7473 1263.36 21.2525C1262.4 24.8935 1260.95 27.8516 1259.58 30.0913C1260.1 28.7936 1263.28 20.6214 1259.05 12.8354C1254.84 5.07976 1246.36 3.39096 1243.06 2.73542L1243.06 2.73429C1236.21 1.37303 1230.56 3.02396 1227.91 3.99663C1229.81 4.22978 1244.27 6.23869 1251.16 18.6219C1253.91 23.5653 1254.47 28.3862 1254.53 31.4572C1252.3 21.9402 1245.29 14.8561 1237.17 13.7821C1228.02 12.5716 1220.69 19.4038 1219.39 20.6214C1216.57 23.2473 1214.89 26.0311 1213.92 27.9858C1216 26.5068 1219.5 24.4249 1224.23 23.3557L1224.23 23.355C1226.85 22.7653 1235.9 20.7248 1243.9 26.1959C1248.58 29.3942 1250.85 33.7582 1251.9 36.297C1246.99 29.38 1238.89 25.5412 1230.75 26.4079C1220.41 27.5054 1213.61 35.793 1211.28 43.2422C1209.7 48.3175 1210.24 52.8205 1210.76 55.3428C1211.6 52.5755 1213.94 46.2944 1220.12 41.4547C1220.92 40.8329 1230.99 33.2071 1243.06 36.4053C1246.39 37.2885 1248.89 38.7345 1250.42 39.7731C1245.68 38.7934 1240.94 40.2041 1238.11 43.5602C1235.92 46.1602 1235.56 49.1182 1235.48 50.3994C1236.25 49.13 1239.39 44.3091 1245.27 43.035C1247.12 42.6346 1248.78 42.6841 1250.07 42.8583C1248.3 44.6105 1245.63 47.4084 1242.78 51.1366C1227.84 70.6063 1225.41 92.2144 1224.33 103.043C1223.79 108.481 1223.37 116.26 1224.12 125.69L1238.3 125.224C1237.65 122.671 1236.86 119.1 1236.27 114.788C1235.52 109.324 1233.65 92.092 1240.16 71.334C1242.26 64.6384 1245.93 55.3734 1252.53 45.3524C1254.01 47.2553 1255.92 50.1356 1257.37 53.9792C1258.7 57.5378 1259.19 60.7172 1259.36 63.0275C1260.5 60.4204 1262.48 54.82 1261.15 48.0867C1260.69 45.741 1259.93 43.7651 1259.15 42.1942C1261.39 44.1113 1267.54 49.9166 1269.46 59.5537C1270.59 65.1707 1269.84 69.8997 1269.15 72.7047C1269.7 72.123 1276.92 64.2498 1274.41 53.8708C1272.5 45.9836 1266.3 42.1 1265.05 41.3511C1268.79 43.5766 1279.77 50.7692 1284.62 64.815C1286.84 71.2516 1287.05 77.0381 1286.83 81.0182C1288.95 77.8459 1291.2 73.3382 1291.98 67.6553L1291.98 67.6525C1292.3 65.3035 1293.77 54.5645 1286.62 45.7716C1283.55 42.0081 1280.02 39.9639 1277.88 38.9324C1280.76 39.3657 1286.16 40.5904 1291.46 44.6129C1294.64 47.0269 1296.75 49.6693 1298.09 51.6618C1297.95 49.3113 1297.28 42.969 1292.51 37.1425C1288.66 32.4417 1284.11 30.4704 1282.62 29.8817ZM1335.49 28.1978C1333.47 28.1931 1330.21 28.4356 1326.55 29.8817C1325.06 30.4704 1320.51 32.4417 1316.66 37.1425C1311.89 42.969 1311.22 49.3113 1311.09 51.6618C1312.42 49.6693 1314.54 47.0269 1317.72 44.6129C1323.01 40.5904 1328.41 39.3657 1331.29 38.9324C1329.15 39.9639 1325.62 42.0081 1322.56 45.7716C1315.4 54.5645 1316.87 65.3035 1317.19 67.6525L1317.19 67.6553C1317.97 73.3382 1320.22 77.8459 1322.35 81.0182C1322.12 77.0381 1322.33 71.2516 1324.55 64.815C1329.4 50.7692 1340.38 43.5766 1344.13 41.3511C1342.87 42.1 1336.67 45.9836 1334.76 53.8708C1332.25 64.2498 1339.47 72.123 1340.02 72.7047C1339.34 69.8997 1338.58 65.1707 1339.71 59.5537C1341.63 49.9166 1347.79 44.1113 1350.02 42.1942C1349.25 43.7651 1348.48 45.741 1348.02 48.0867C1346.69 54.82 1348.67 60.4204 1349.81 63.0275C1349.98 60.7172 1350.47 57.5378 1351.81 53.9792C1353.25 50.1356 1355.16 47.2553 1356.65 45.3524C1363.24 55.3734 1366.91 64.6384 1369.01 71.334C1375.52 92.092 1373.65 109.324 1372.9 114.788C1372.31 119.1 1371.52 122.671 1370.88 125.224L1385.05 125.69C1385.8 116.26 1385.39 108.481 1384.84 103.043C1383.76 92.2144 1381.33 70.6063 1366.39 51.1366C1363.54 47.4084 1360.87 44.6105 1359.1 42.8583C1360.39 42.6841 1362.06 42.6346 1363.9 43.035C1369.78 44.3091 1372.92 49.13 1373.69 50.3994C1373.61 49.1182 1373.25 46.1602 1371.06 43.5602C1368.23 40.2041 1363.49 38.7934 1358.75 39.7731C1360.28 38.7345 1362.78 37.2885 1366.11 36.4053C1378.18 33.2071 1388.25 40.8329 1389.05 41.4547C1395.23 46.2944 1397.58 52.5755 1398.41 55.3428C1398.93 52.8205 1399.47 48.3175 1397.89 43.2422C1395.56 35.793 1388.76 27.5054 1378.42 26.4079C1370.28 25.5412 1362.18 29.38 1357.27 36.297C1358.32 33.7582 1360.59 29.3942 1365.27 26.1959C1373.27 20.7248 1382.33 22.7653 1384.94 23.355L1384.94 23.3557C1389.68 24.4249 1393.17 26.5068 1395.26 27.9858C1394.28 26.0311 1392.6 23.2473 1389.78 20.6214C1388.48 19.4038 1381.15 12.5716 1372 13.7821C1363.88 14.8561 1356.87 21.9402 1354.64 31.4572C1354.7 28.3862 1355.26 23.5653 1358.01 18.6219C1364.9 6.23869 1379.36 4.22978 1381.26 3.99663C1378.61 3.02396 1372.96 1.37303 1366.11 2.73429L1366.11 2.73543C1362.82 3.39097 1354.34 5.07978 1350.12 12.8354C1345.89 20.6214 1349.07 28.7936 1349.59 30.0913C1348.23 27.8516 1346.77 24.8935 1345.81 21.2525C1343.29 11.7473 1345.72 3.60803 1347.07 0C1345.59 1.91 1342.79 6.06442 1341.81 12.1006C1340.89 17.7717 1342.02 22.3406 1342.76 24.6203C1340.44 22.9671 1336.6 20.6732 1331.39 19.359C1324.81 17.6987 1319.26 18.4217 1316.24 19.0434C1318.96 19.4838 1322.73 20.3953 1326.87 22.4113C1330.67 24.2671 1333.53 26.4479 1335.49 28.1978Z" fill="#933E00"/>
<path d="M0 120.69H1440V170.69H0V120.69Z" fill="#933E00"/>
</g>
<defs>
<clipPath id="clip0_2440_1102">
<rect width="693" height="170.69" fill="white"/>
</clipPath>
</defs>
</svg>
