<?xml version="1.0" encoding="UTF-8"?>
<svg id="Layer_2" data-name="Layer 2" xmlns="http://www.w3.org/2000/svg" viewBox="0 0 373.04 533.67">
  <defs>
    <style>
      .cls-1 {
        fill: #333132;
        stroke-width: 0px;
      }
    </style>
  </defs>
  <g id="Layer_3" data-name="Layer 3">
    <path class="cls-1" d="M307.36,126.88c-15.54-6.14-29.37-7.17-37.97-7.15,8.34-7.43,20.48-16.69,36.63-24.57,17.56-8.56,33.58-12.43,45.12-14.3-12.81-2.64-36.38-5.71-64.33,1.34-22.12,5.58-38.4,15.32-48.25,22.34,3.12-9.68,7.94-29.08,4.02-53.16-4.17-25.63-16.06-43.27-22.34-51.38,5.71,15.32,16.04,49.88,5.36,90.24-4.09,15.46-10.27,28.02-16.08,37.53,2.24-5.51,15.73-40.21-2.23-73.27-17.91-32.95-53.95-40.11-67.91-42.89-29.08-5.78-53.06,1.23-64.33,5.36,8.09.99,69.47,9.52,98.73,62.1,11.68,20.99,14.05,41.46,14.3,54.5-9.44-40.41-39.23-70.49-73.71-75.05-38.83-5.14-69.96,23.87-75.5,29.04-11.96,11.15-19.09,22.97-23.23,31.27,8.85-6.28,23.69-15.12,43.78-19.66,11.09-2.5,49.54-11.18,83.54,12.06,19.86,13.58,29.52,32.11,33.95,42.89-20.85-29.37-55.21-45.67-89.8-41.99-43.88,4.66-72.75,39.85-82.65,71.48C-2.27,205.16.04,224.28,2.23,234.99c3.56-11.75,13.5-38.42,39.76-58.97,3.38-2.64,46.16-35.02,97.39-21.44,14.14,3.75,24.75,9.89,31.27,14.3-20.13-4.16-40.25,1.83-52.27,16.08-9.31,11.04-10.85,23.6-11.17,29.04,3.28-5.39,16.6-25.86,41.55-31.27,7.85-1.7,14.9-1.49,20.4-.75-7.52,7.44-18.84,19.32-30.97,35.15-63.42,82.67-73.73,174.42-78.33,220.4-2.31,23.09-4.08,56.12-.88,96.16,20.06-.66,40.12-1.32,60.18-1.98-2.74-10.84-6.09-26-8.6-44.31-3.17-23.2-11.11-96.37,16.53-184.51,8.92-28.43,24.47-67.77,52.49-110.32,6.31,8.08,14.41,20.31,20.55,36.63,5.68,15.11,7.75,28.61,8.49,38.42,4.83-11.07,13.23-34.85,7.59-63.44-1.96-9.96-5.21-18.35-8.49-25.02,9.48,8.14,35.6,32.79,43.78,73.71,4.77,23.85,1.58,43.93-1.34,55.84,2.34-2.47,32.99-35.9,22.34-79.97-8.09-33.49-34.44-49.98-39.76-53.16,15.9,9.45,62.52,39.99,83.1,99.63,9.43,27.33,10.33,51.9,9.38,68.8,9.03-13.47,18.59-32.61,21.89-56.74,1.36-9.95,7.61-55.57-22.78-92.92-13-15.98-28-24.66-37.08-29.04,12.21,1.84,35.14,7.04,57.63,24.12,13.5,10.25,22.48,21.47,28.15,29.93-.56-9.98-3.43-36.91-23.68-61.65-16.33-19.96-35.66-28.33-41.99-30.83Z"/>
  </g>
</svg>