<svg width="1400" height="126" viewBox="0 0 1400 126" fill="none" xmlns="http://www.w3.org/2000/svg">
<path fill-rule="evenodd" clip-rule="evenodd" d="M63.9756 28.1978C66.001 28.1931 69.2581 28.4356 72.918 29.8817C74.4088 30.4704 78.9612 32.4417 82.8071 37.1425C87.5762 42.969 88.2521 49.3113 88.384 51.6618C87.0487 49.6693 84.9338 47.0269 81.7544 44.6129C76.4577 40.5904 71.0575 39.3657 68.1819 38.9324C70.3203 39.9639 73.853 42.0081 76.9146 45.7716C84.0689 54.5643 82.6011 65.3031 82.28 67.6524L82.2796 67.6553C81.5024 73.3382 79.2509 77.8459 77.1242 81.0182C77.348 77.0381 77.136 71.2516 74.9151 64.815C70.0683 50.7692 59.0888 43.5766 55.3442 41.3511C56.5971 42.1 62.8028 45.9836 64.7081 53.8708C67.2163 64.2498 59.9979 72.123 59.4468 72.7047C60.1344 69.8997 60.8857 65.1707 59.7623 59.5537C57.8359 49.9166 51.6843 44.1113 49.4517 42.1942C50.2241 43.7651 50.9896 45.741 51.4512 48.0867C52.7794 54.82 50.8011 60.4204 49.6636 63.0275C49.4893 60.7172 49.0018 57.5378 47.6641 53.9792C46.2181 50.1356 44.3105 47.2553 42.8244 45.3524C36.2253 55.3734 32.5631 64.6384 30.4624 71.334C23.9529 92.092 25.8228 109.324 26.5694 114.788C27.1605 119.1 27.9495 122.671 28.5948 125.224L14.4217 125.69C13.6681 116.26 14.0849 108.481 14.629 103.043C15.7123 92.2144 18.1404 70.6063 33.0766 51.1366C35.9333 47.4084 38.5993 44.6105 40.3703 42.8583C39.075 42.6841 37.4147 42.6346 35.5659 43.035C29.6899 44.3091 26.5529 49.13 25.7804 50.3994C25.8558 49.1182 26.2185 46.1602 28.4111 43.5602C31.2419 40.2041 35.9804 38.7934 40.7213 39.7731C39.1857 38.7345 36.687 37.2885 33.3568 36.4053C21.2916 33.2071 11.2164 40.8329 10.4204 41.4547C4.23586 46.2944 1.89488 52.5755 1.05646 55.3428C0.540686 52.8205 -0.00334468 48.3175 1.58165 43.2422C3.91321 35.793 10.7124 27.5054 21.0466 26.4079C29.193 25.5412 37.2851 29.38 42.1956 36.297C41.1522 33.7582 38.8772 29.3942 34.2 26.1959C26.1957 20.7248 17.1443 22.7653 14.5284 23.355L14.5253 23.3557C9.79392 24.4249 6.29894 26.5068 4.21466 27.9858C5.18968 26.0311 6.86887 23.2473 9.68559 20.6214C10.9903 19.4038 18.3218 12.5716 27.4667 13.7821C35.5871 14.8561 42.603 21.9402 44.8262 31.4572C44.7673 28.3862 44.2092 23.5653 41.4584 18.6219C34.5673 6.23869 20.1117 4.22978 18.2064 3.99663C20.8606 3.02396 26.5082 1.37303 33.3568 2.73429L33.3625 2.73542C36.6544 3.39096 45.1348 5.07975 49.3504 12.8354C53.5802 20.6214 50.4031 28.7936 49.8756 30.0913C51.2439 27.8516 52.6994 24.8935 53.6626 21.2525C56.1779 11.7473 53.745 3.60803 52.4003 0C53.8793 1.91 56.6795 6.06442 57.6616 12.1006C58.5848 17.7717 57.4496 22.3406 56.7148 24.6203C59.0346 22.9671 62.8687 20.6732 68.0782 19.359C74.6608 17.6987 80.2118 18.4217 83.2287 19.0434C80.5109 19.4838 76.738 20.3953 72.6024 22.4113C68.7989 24.2671 65.9398 26.4479 63.9756 28.1978ZM125.792 28.1978C123.767 28.1931 120.509 28.4356 116.85 29.8817C115.359 30.4704 110.806 32.4417 106.96 37.1425C102.191 42.969 101.515 49.3113 101.384 51.6618C102.719 49.6693 104.834 47.0269 108.013 44.6129C113.31 40.5904 118.71 39.3657 121.586 38.9324C119.447 39.9639 115.915 42.0081 112.853 45.7716C105.699 54.5643 107.167 65.3031 107.488 67.6524L107.488 67.6553C108.265 73.3382 110.517 77.8459 112.643 81.0182C112.42 77.0381 112.632 71.2516 114.852 64.815C119.699 50.7692 130.679 43.5766 134.423 41.3511C133.171 42.1 126.965 45.9836 125.06 53.8708C122.551 64.2498 129.77 72.123 130.321 72.7047C129.633 69.8997 128.882 65.1707 130.005 59.5537C131.932 49.9166 138.083 44.1113 140.316 42.1942C139.543 43.7651 138.778 45.741 138.316 48.0867C136.988 54.82 138.966 60.4204 140.104 63.0275C140.278 60.7172 140.766 57.5378 142.103 53.9792C143.549 50.1356 145.457 47.2553 146.943 45.3524C153.542 55.3734 157.204 64.6384 159.305 71.334C165.815 92.092 163.945 109.324 163.198 114.788C162.607 119.1 161.818 122.671 161.173 125.224L175.346 125.69C176.099 116.26 175.683 108.481 175.139 103.043C174.055 92.2144 171.627 70.6063 156.691 51.1366C153.834 47.4084 151.168 44.6105 149.397 42.8583C150.693 42.6841 152.353 42.6346 154.202 43.035C160.078 44.3091 163.215 49.13 163.987 50.3994C163.912 49.1182 163.549 46.1602 161.356 43.5602C158.526 40.2041 153.787 38.7934 149.046 39.7731C150.582 38.7345 153.081 37.2885 156.411 36.4053C168.476 33.2071 178.551 40.8329 179.347 41.4547C185.532 46.2944 187.873 52.5755 188.711 55.3428C189.227 52.8205 189.771 48.3175 188.186 43.2422C185.854 35.793 179.055 27.5054 168.721 26.4079C160.575 25.5412 152.482 29.38 147.572 36.297C148.615 33.7582 150.89 29.3942 155.568 26.1959C163.572 20.7248 172.623 22.7653 175.239 23.355L175.242 23.3557C179.974 24.4249 183.469 26.5068 185.553 27.9858C184.578 26.0311 182.899 23.2473 180.082 20.6214C178.777 19.4038 171.446 12.5716 162.301 13.7821C154.18 14.8561 147.165 21.9402 144.941 31.4572C145 28.3862 145.558 23.5653 148.309 18.6219C155.2 6.23869 169.656 4.22978 171.561 3.99663C168.907 3.02396 163.259 1.37303 156.411 2.73429L156.405 2.73542C153.113 3.39096 144.633 5.07975 140.417 12.8354C136.187 20.6214 139.364 28.7936 139.892 30.0913C138.524 27.8516 137.068 24.8935 136.105 21.2525C133.59 11.7473 136.023 3.60803 137.367 0C135.888 1.91 133.088 6.06442 132.106 12.1006C131.183 17.7717 132.318 22.3406 133.053 24.6203C130.733 22.9671 126.899 20.6732 121.689 19.359C115.107 17.6987 109.556 18.4217 106.539 19.0434C109.257 19.4838 113.03 20.3953 117.165 22.4113C120.969 24.2671 123.828 26.4479 125.792 28.1978ZM274.623 29.8817C270.963 28.4356 267.706 28.1931 265.681 28.1978C267.645 26.4479 270.504 24.2671 274.307 22.4113C278.443 20.3953 282.216 19.4838 284.934 19.0434C281.917 18.4217 276.366 17.6987 269.783 19.359C264.574 20.6732 260.74 22.9671 258.42 24.6203C259.155 22.3406 260.29 17.7717 259.367 12.1006C258.385 6.06442 255.584 1.91 254.105 0C255.45 3.60803 257.883 11.7473 255.368 21.2525C254.404 24.8935 252.949 27.8516 251.581 30.0913C252.108 28.7936 255.285 20.6214 251.055 12.8354C246.84 5.07975 238.359 3.39096 235.068 2.73542L235.062 2.73429C228.213 1.37303 222.566 3.02396 219.911 3.99663C221.817 4.22978 236.272 6.23869 243.163 18.6219C245.914 23.5653 246.472 28.3862 246.531 31.4572C244.308 21.9402 237.292 14.8561 229.172 13.7821C220.027 12.5716 212.695 19.4038 211.391 20.6214C208.574 23.2473 206.895 26.0311 205.92 27.9858C208.004 26.5068 211.499 24.4249 216.23 23.3557L216.234 23.355C218.849 22.7653 227.901 20.7248 235.905 26.1959C240.582 29.3942 242.857 33.7582 243.901 36.297C238.99 29.38 230.898 25.5412 222.752 26.4079C212.417 27.5054 205.618 35.793 203.287 43.2422C201.702 48.3175 202.246 52.8205 202.762 55.3428C203.6 52.5755 205.941 46.2944 212.125 41.4547C212.921 40.8329 222.997 33.2071 235.062 36.4053C238.392 37.2885 240.891 38.7345 242.426 39.7731C237.686 38.7934 232.947 40.2041 230.116 43.5602C227.924 46.1602 227.561 49.1182 227.486 50.3994C228.258 49.13 231.395 44.3091 237.271 43.035C239.12 42.6346 240.78 42.6841 242.075 42.8583C240.304 44.6105 237.638 47.4084 234.782 51.1366C219.846 70.6063 217.417 92.2144 216.334 103.043C215.79 108.481 215.373 116.26 216.127 125.69L230.3 125.224C229.655 122.671 228.866 119.1 228.274 114.788C227.528 109.324 225.658 92.092 232.167 71.334C234.268 64.6384 237.93 55.3734 244.529 45.3524C246.016 47.2553 247.923 50.1356 249.369 53.9792C250.707 57.5378 251.194 60.7172 251.369 63.0275C252.506 60.4204 254.485 54.82 253.156 48.0867C252.695 45.741 251.929 43.7651 251.157 42.1942C253.389 44.1113 259.541 49.9166 261.467 59.5537C262.591 65.1707 261.84 69.8997 261.152 72.7047C261.703 72.123 268.921 64.2498 266.413 53.8708C264.508 45.9836 258.302 42.1 257.049 41.3511C260.794 43.5766 271.773 50.7692 276.62 64.815C278.841 71.2516 279.053 77.0381 278.829 81.0182C280.956 77.8459 283.207 73.3382 283.985 67.6553L283.985 67.6524C284.306 65.303 285.774 54.5643 278.62 45.7716C275.558 42.0081 272.025 39.9639 269.887 38.9324C272.763 39.3657 278.163 40.5904 283.459 44.6129C286.639 47.0269 288.754 49.6693 290.089 51.6618C289.957 49.3113 289.281 42.969 284.512 37.1425C280.666 32.4417 276.114 30.4704 274.623 29.8817ZM327.498 28.1978C325.473 28.1931 322.216 28.4356 318.556 29.8817C317.065 30.4704 312.513 32.4417 308.667 37.1425C303.898 42.969 303.222 49.3113 303.09 51.6618C304.425 49.6693 306.54 47.0269 309.719 44.6129C315.016 40.5904 320.416 39.3657 323.292 38.9324C321.154 39.9639 317.621 42.0081 314.559 45.7716C307.405 54.5645 308.873 65.3035 309.194 67.6525L309.194 67.6553C309.971 73.3382 312.223 77.8459 314.35 81.0182C314.126 77.0381 314.338 71.2516 316.559 64.815C321.406 50.7692 332.385 43.5766 336.13 41.3511C334.877 42.1 328.671 45.9836 326.766 53.8708C324.258 64.2498 331.476 72.123 332.027 72.7047C331.339 69.8997 330.588 65.1707 331.712 59.5537C333.638 49.9166 339.79 44.1113 342.022 42.1942C341.25 43.7651 340.484 45.741 340.023 48.0867C338.694 54.82 340.673 60.4204 341.81 63.0275C341.985 60.7172 342.472 57.5378 343.81 53.9792C345.256 50.1356 347.163 47.2553 348.65 45.3524C355.249 55.3734 358.911 64.6384 361.011 71.334C367.521 92.092 365.651 109.324 364.904 114.788C364.313 119.1 363.524 122.671 362.879 125.224L377.052 125.69C377.806 116.26 377.389 108.481 376.845 103.043C375.762 92.2144 373.333 70.6063 358.397 51.1366C355.541 47.4084 352.875 44.6105 351.104 42.8583C352.399 42.6841 354.059 42.6346 355.908 43.035C361.784 44.3091 364.921 49.13 365.693 50.3994C365.618 49.1182 365.255 46.1602 363.063 43.5602C360.232 40.2041 355.493 38.7934 350.753 39.7731C352.288 38.7345 354.787 37.2885 358.117 36.4053C370.182 33.2071 380.257 40.8329 381.053 41.4547C387.238 46.2944 389.579 52.5755 390.417 55.3428C390.933 52.8205 391.477 48.3175 389.892 43.2422C387.561 35.793 380.761 27.5054 370.427 26.4079C362.281 25.5412 354.189 29.38 349.278 36.297C350.322 33.7582 352.597 29.3942 357.274 26.1959C365.278 20.7248 374.33 22.7653 376.945 23.355L376.949 23.3557C381.68 24.4249 385.175 26.5068 387.259 27.9858C386.284 26.0311 384.605 23.2473 381.788 20.6214C380.484 19.4038 373.152 12.5716 364.007 13.7821C355.887 14.8561 348.871 21.9402 346.648 31.4572C346.707 28.3862 347.265 23.5653 350.015 18.6219C356.907 6.23869 371.362 4.22978 373.267 3.99663C370.613 3.02396 364.966 1.37303 358.117 2.73429L358.111 2.73542C354.819 3.39096 346.339 5.07976 342.123 12.8354C337.894 20.6214 341.071 28.7936 341.598 30.0913C340.23 27.8516 338.775 24.8935 337.811 21.2525C335.296 11.7473 337.729 3.60803 339.074 0C337.595 1.91 334.794 6.06442 333.812 12.1006C332.889 17.7717 334.024 22.3406 334.759 24.6203C332.439 22.9671 328.605 20.6732 323.396 19.359C316.813 17.6987 311.262 18.4217 308.245 19.0434C310.963 19.4838 314.736 20.3953 318.871 22.4113C322.675 24.2671 325.534 26.4479 327.498 28.1978ZM476.328 29.8817C472.668 28.4356 469.411 28.1931 467.386 28.1978C469.35 26.4479 472.209 24.2671 476.013 22.4113C480.148 20.3953 483.921 19.4838 486.639 19.0434C483.622 18.4217 478.071 17.6987 471.488 19.359C466.279 20.6732 462.445 22.9671 460.125 24.6203C460.86 22.3406 461.995 17.7717 461.072 12.1006C460.09 6.06442 457.289 1.91 455.81 0C457.155 3.60803 459.588 11.7473 457.073 21.2525C456.11 24.8935 454.654 27.8516 453.286 30.0913C453.813 28.7936 456.99 20.6214 452.761 12.8354C448.545 5.07975 440.065 3.39095 436.773 2.73542L436.767 2.73429C429.918 1.37303 424.271 3.02396 421.617 3.99663C423.522 4.22978 437.978 6.23869 444.869 18.6219C447.619 23.5653 448.177 28.3862 448.236 31.4572C446.013 21.9402 438.997 14.8561 430.877 13.7821C421.732 12.5716 414.4 19.4038 413.096 20.6214C410.279 23.2473 408.6 26.0311 407.625 27.9858C409.709 26.5068 413.204 24.4249 417.935 23.3557L417.939 23.3549C420.555 22.7652 429.606 20.7248 437.61 26.1959C442.287 29.3942 444.562 33.7582 445.606 36.297C440.695 29.38 432.603 25.5412 424.457 26.4079C414.123 27.5054 407.323 35.793 404.992 43.2422C403.407 48.3175 403.951 52.8205 404.467 55.3428C405.305 52.5755 407.646 46.2944 413.831 41.4547C414.627 40.8329 424.702 33.2071 436.767 36.4053C440.097 37.2885 442.596 38.7345 444.131 39.7731C439.391 38.7934 434.652 40.2041 431.821 43.5602C429.629 46.1602 429.266 49.1182 429.191 50.3994C429.963 49.13 433.1 44.3091 438.976 43.035C440.825 42.6346 442.485 42.6841 443.781 42.8583C442.009 44.6105 439.343 47.4084 436.487 51.1366C421.551 70.6063 419.122 92.2144 418.039 103.043C417.495 108.481 417.078 116.26 417.832 125.69L432.005 125.224C431.36 122.671 430.571 119.1 429.98 114.788C429.233 109.324 427.363 92.092 433.873 71.334C435.973 64.6384 439.635 55.3734 446.235 45.3524C447.721 47.2553 449.628 50.1356 451.074 53.9792C452.412 57.5378 452.9 60.7172 453.074 63.0275C454.211 60.4204 456.19 54.82 454.861 48.0867C454.4 45.741 453.634 43.7651 452.862 42.1942C455.094 44.1113 461.246 49.9166 463.172 59.5537C464.296 65.1707 463.545 69.8997 462.857 72.7047C463.408 72.123 470.626 64.2498 468.118 53.8708C466.213 45.9836 460.007 42.1 458.754 41.3511C462.499 43.5766 473.478 50.7692 478.325 64.815C480.546 71.2516 480.758 77.0381 480.534 81.0182C482.661 77.8459 484.913 73.3382 485.69 67.6553L485.69 67.6524C486.011 65.303 487.479 54.5643 480.325 45.7716C477.263 42.0081 473.73 39.9639 471.592 38.9324C474.468 39.3657 479.868 40.5904 485.165 44.6129C488.344 47.0269 490.459 49.6693 491.794 51.6618C491.662 49.3113 490.986 42.969 486.217 37.1425C482.371 32.4417 477.819 30.4704 476.328 29.8817ZM529.203 28.1978C527.178 28.1931 523.921 28.4356 520.261 29.8817C518.77 30.4704 514.218 32.4417 510.372 37.1425C505.603 42.969 504.927 49.3113 504.795 51.6618C506.13 49.6693 508.245 47.0269 511.425 44.6129C516.721 40.5904 522.121 39.3657 524.997 38.9324C522.859 39.9639 519.326 42.0081 516.264 45.7716C509.11 54.5645 510.578 65.3035 510.899 67.6525L510.899 67.6553C511.677 73.3382 513.928 77.8459 516.055 81.0182C515.831 77.0381 516.043 71.2516 518.264 64.815C523.111 50.7692 534.09 43.5766 537.835 41.3511C536.582 42.1 530.376 45.9836 528.471 53.8708C525.963 64.2498 533.181 72.123 533.732 72.7047C533.044 69.8997 532.293 65.1707 533.417 59.5537C535.343 49.9166 541.495 44.1113 543.727 42.1942C542.955 43.7651 542.189 45.741 541.728 48.0867C540.4 54.82 542.378 60.4204 543.515 63.0275C543.69 60.7172 544.177 57.5378 545.515 53.9792C546.961 50.1356 548.868 47.2553 550.355 45.3524C556.954 55.3734 560.616 64.6384 562.717 71.334C569.226 92.092 567.356 109.324 566.61 114.788C566.018 119.1 565.229 122.671 564.584 125.224L578.757 125.69C579.511 116.26 579.094 108.481 578.55 103.043C577.467 92.2144 575.039 70.6063 560.102 51.1366C557.246 47.4084 554.58 44.6105 552.809 42.8583C554.104 42.6841 555.764 42.6346 557.613 43.035C563.489 44.3091 566.626 49.13 567.398 50.3994C567.323 49.1182 566.96 46.1602 564.768 43.5602C561.937 40.2041 557.199 38.7934 552.458 39.7731C553.993 38.7345 556.492 37.2885 559.822 36.4053C571.887 33.2071 581.963 40.8329 582.759 41.4547C588.943 46.2944 591.284 52.5755 592.122 55.3428C592.638 52.8205 593.182 48.3175 591.597 43.2422C589.266 35.793 582.467 27.5054 572.132 26.4079C563.986 25.5412 555.894 29.38 550.983 36.297C552.027 33.7582 554.302 29.3942 558.979 26.1959C566.983 20.7248 576.035 22.7653 578.651 23.355L578.654 23.3557C583.385 24.4249 586.88 26.5068 588.964 27.9858C587.989 26.0311 586.31 23.2473 583.493 20.6214C582.189 19.4038 574.857 12.5716 565.712 13.7821C557.592 14.8561 550.576 21.9402 548.353 31.4572C548.412 28.3862 548.97 23.5653 551.721 18.6219C558.612 6.23869 573.067 4.22978 574.973 3.99663C572.318 3.02396 566.671 1.37303 559.822 2.73429L559.816 2.73541C556.525 3.39094 548.044 5.07972 543.829 12.8354C539.599 20.6214 542.776 28.7936 543.303 30.0913C541.935 27.8516 540.48 24.8935 539.516 21.2525C537.001 11.7473 539.434 3.60803 540.779 0C539.3 1.91 536.499 6.06442 535.517 12.1006C534.594 17.7717 535.729 22.3406 536.464 24.6203C534.144 22.9671 530.31 20.6732 525.101 19.359C518.518 17.6987 512.967 18.4217 509.95 19.0434C512.668 19.4838 516.441 20.3953 520.577 22.4113C524.38 24.2671 527.239 26.4479 529.203 28.1978ZM678.035 29.8817C674.375 28.4356 671.118 28.1931 669.093 28.1978C671.057 26.4479 673.916 24.2671 677.72 22.4113C681.855 20.3953 685.628 19.4838 688.346 19.0434C685.329 18.4217 679.778 17.6987 673.195 19.359C667.986 20.6732 664.152 22.9671 661.832 24.6203C662.567 22.3406 663.702 17.7717 662.779 12.1006C661.797 6.06442 658.996 1.91 657.517 0C658.862 3.60803 661.295 11.7473 658.78 21.2525C657.817 24.8935 656.361 27.8516 654.993 30.0913C655.52 28.7936 658.697 20.6214 654.468 12.8354C650.252 5.07977 641.772 3.39097 638.48 2.73543L638.474 2.73429C631.625 1.37303 625.978 3.02396 623.324 3.99663C625.229 4.22978 639.685 6.23869 646.576 18.6219C649.326 23.5653 649.885 28.3862 649.943 31.4572C647.72 21.9402 640.704 14.8561 632.584 13.7821C623.439 12.5716 616.107 19.4038 614.803 20.6214C611.986 23.2473 610.307 26.0311 609.332 27.9858C611.416 26.5068 614.911 24.4249 619.643 23.3557L619.646 23.355C622.262 22.7653 631.313 20.7248 639.317 26.1959C643.994 29.3942 646.269 33.7582 647.313 36.297C642.402 29.38 634.31 25.5412 626.164 26.4079C615.83 27.5054 609.03 35.793 606.699 43.2422C605.114 48.3175 605.658 52.8205 606.174 55.3428C607.012 52.5755 609.353 46.2944 615.538 41.4547C616.334 40.8329 626.409 33.2071 638.474 36.4053C641.804 37.2885 644.303 38.7345 645.838 39.7731C641.098 38.7934 636.359 40.2041 633.528 43.5602C631.336 46.1602 630.973 49.1182 630.898 50.3994C631.67 49.13 634.807 44.3091 640.683 43.035C642.532 42.6346 644.192 42.6841 645.488 42.8583C643.716 44.6105 641.05 47.4084 638.194 51.1366C623.258 70.6063 620.83 92.2144 619.746 103.043C619.202 108.481 618.785 116.26 619.539 125.69L633.712 125.224C633.067 122.671 632.278 119.1 631.687 114.788C630.94 109.324 629.07 92.092 635.58 71.334C637.68 64.6384 641.343 55.3734 647.942 45.3524C649.428 47.2553 651.335 50.1356 652.781 53.9792C654.119 57.5378 654.607 60.7172 654.781 63.0275C655.918 60.4204 657.897 54.82 656.568 48.0867C656.107 45.741 655.341 43.7651 654.569 42.1942C656.802 44.1113 662.953 49.9166 664.88 59.5537C666.003 65.1707 665.252 69.8997 664.564 72.7047C665.115 72.123 672.333 64.2498 669.825 53.8708C667.92 45.9836 661.714 42.1 660.461 41.3511C664.206 43.5766 675.185 50.7692 680.032 64.815C682.253 71.2516 682.465 77.0381 682.241 81.0182C684.368 77.8459 686.62 73.3382 687.397 67.6553L687.397 67.6525C687.718 65.3033 689.186 54.5644 682.032 45.7716C678.97 42.0081 675.437 39.9639 673.299 38.9324C676.175 39.3657 681.575 40.5904 686.872 44.6129C690.051 47.0269 692.166 49.6693 693.501 51.6618C693.369 49.3113 692.693 42.969 687.924 37.1425C684.078 32.4417 679.526 30.4704 678.035 29.8817ZM730.908 28.1978C728.883 28.1931 725.626 28.4356 721.966 29.8817C720.475 30.4704 715.923 32.4417 712.077 37.1425C707.308 42.969 706.632 49.3113 706.5 51.6618C707.835 49.6693 709.95 47.0269 713.13 44.6129C718.426 40.5904 723.827 39.3657 726.702 38.9324C724.564 39.9639 721.031 42.0081 717.969 45.7716C710.815 54.5641 712.283 65.3026 712.604 67.6523L712.604 67.6553C713.382 73.3382 715.633 77.8459 717.76 81.0182C717.536 77.0381 717.748 71.2516 719.969 64.815C724.816 50.7692 735.795 43.5766 739.54 41.3511C738.287 42.1 732.081 45.9836 730.176 53.8708C727.668 64.2498 734.886 72.123 735.437 72.7047C734.75 69.8997 733.998 65.1707 735.122 59.5537C737.048 49.9166 743.2 44.1113 745.432 42.1942C744.66 43.7651 743.894 45.741 743.433 48.0867C742.105 54.82 744.083 60.4204 745.22 63.0275C745.395 60.7172 745.882 57.5378 747.22 53.9792C748.666 50.1356 750.574 47.2553 752.06 45.3524C758.659 55.3734 762.321 64.6384 764.422 71.334C770.931 92.092 769.061 109.324 768.315 114.788C767.724 119.1 766.935 122.671 766.289 125.224L780.462 125.69C781.216 116.26 780.799 108.481 780.255 103.043C779.172 92.2144 776.744 70.6063 761.807 51.1366C758.951 47.4084 756.285 44.6105 754.514 42.8583C755.809 42.6841 757.469 42.6346 759.318 43.035C765.194 44.3091 768.331 49.13 769.104 50.3994C769.028 49.1182 768.666 46.1602 766.473 43.5602C763.642 40.2041 758.904 38.7934 754.163 39.7731C755.698 38.7345 758.197 37.2885 761.527 36.4053C773.592 33.2071 783.668 40.8329 784.464 41.4547C790.648 46.2944 792.989 52.5755 793.828 55.3428C794.343 52.8205 794.887 48.3175 793.302 43.2422C790.971 35.793 784.172 27.5054 773.837 26.4079C765.691 25.5412 757.599 29.38 752.688 36.297C753.732 33.7582 756.007 29.3942 760.684 26.1959C768.688 20.7248 777.74 22.7653 780.356 23.355L780.359 23.3557C785.09 24.4249 788.585 26.5068 790.669 27.9858C789.694 26.0311 788.015 23.2473 785.198 20.6214C783.894 19.4038 776.562 12.5716 767.417 13.7821C759.297 14.8561 752.281 21.9402 750.058 31.4572C750.117 28.3862 750.675 23.5653 753.426 18.6219C760.317 6.23869 774.772 4.22978 776.678 3.99663C774.023 3.02396 768.376 1.37303 761.527 2.73429L761.522 2.73541C758.23 3.39094 749.749 5.07972 745.534 12.8354C741.304 20.6214 744.481 28.7936 745.008 30.0913C743.64 27.8516 742.185 24.8935 741.221 21.2525C738.706 11.7473 741.139 3.60803 742.484 0C741.005 1.91 738.205 6.06442 737.222 12.1006C736.299 17.7717 737.434 22.3406 738.169 24.6203C735.849 22.9671 732.015 20.6732 726.806 19.359C720.223 17.6987 714.672 18.4217 711.655 19.0434C714.373 19.4838 718.146 20.3953 722.282 22.4113C726.085 24.2671 728.944 26.4479 730.908 28.1978ZM879.74 29.8817C876.08 28.4356 872.823 28.1931 870.798 28.1978C872.762 26.4479 875.621 24.2671 879.425 22.4113C883.56 20.3953 887.333 19.4838 890.051 19.0434C887.034 18.4217 881.483 17.6987 874.901 19.359C869.691 20.6732 865.857 22.9671 863.537 24.6203C864.272 22.3406 865.407 17.7717 864.484 12.1006C863.502 6.06442 860.702 1.91 859.223 0C860.567 3.60803 863 11.7473 860.485 21.2525C859.522 24.8935 858.066 27.8516 856.698 30.0913C857.225 28.7936 860.402 20.6214 856.173 12.8354C851.957 5.07977 843.477 3.39097 840.185 2.73543L840.179 2.73429C833.33 1.37303 827.683 3.02396 825.029 3.99663C826.934 4.22978 841.39 6.23869 848.281 18.6219C851.031 23.5653 851.59 28.3862 851.648 31.4572C849.425 21.9402 842.409 14.8561 834.289 13.7821C825.144 12.5716 817.813 19.4038 816.508 20.6214C813.691 23.2473 812.012 26.0311 811.037 27.9858C813.121 26.5068 816.616 24.4249 821.348 23.3557L821.351 23.355C823.967 22.7653 833.018 20.7248 841.022 26.1959C845.699 29.3942 847.974 33.7582 849.018 36.297C844.107 29.38 836.015 25.5412 827.869 26.4079C817.535 27.5054 810.735 35.793 808.404 43.2422C806.819 48.3175 807.363 52.8205 807.879 55.3428C808.717 52.5755 811.058 46.2944 817.243 41.4547C818.039 40.8329 828.114 33.2071 840.179 36.4053C843.509 37.2885 846.008 38.7345 847.544 39.7731C842.803 38.7934 838.064 40.2041 835.233 43.5602C833.041 46.1602 832.678 49.1182 832.603 50.3994C833.375 49.13 836.512 44.3091 842.388 43.035C844.237 42.6346 845.897 42.6841 847.193 42.8583C845.422 44.6105 842.756 47.4084 839.899 51.1366C824.963 70.6063 822.535 92.2144 821.451 103.043C820.907 108.481 820.49 116.26 821.244 125.69L835.417 125.224C834.772 122.671 833.983 119.1 833.392 114.788C832.645 109.324 830.775 92.092 837.285 71.334C839.385 64.6384 843.048 55.3734 849.647 45.3524C851.133 47.2553 853.04 50.1356 854.486 53.9792C855.824 57.5378 856.312 60.7172 856.486 63.0275C857.623 60.4204 859.602 54.82 858.273 48.0867C857.812 45.741 857.046 43.7651 856.274 42.1942C858.507 44.1113 864.658 49.9166 866.585 59.5537C867.708 65.1707 866.957 69.8997 866.269 72.7047C866.82 72.123 874.039 64.2498 871.53 53.8708C869.625 45.9836 863.419 42.1 862.166 41.3511C865.911 43.5766 876.891 50.7692 881.737 64.815C883.958 71.2516 884.17 77.0381 883.946 81.0182C886.073 77.8459 888.325 73.3382 889.102 67.6553L889.102 67.6525C889.423 65.3033 890.891 54.5644 883.737 45.7716C880.675 42.0081 877.143 39.9639 875.004 38.9324C877.88 39.3657 883.28 40.5904 888.577 44.6129C891.756 47.0269 893.871 49.6693 895.206 51.6618C895.074 49.3113 894.398 42.969 889.629 37.1425C885.784 32.4417 881.231 30.4704 879.74 29.8817ZM932.615 28.1978C930.59 28.1931 927.333 28.4356 923.673 29.8817C922.182 30.4704 917.63 32.4417 913.784 37.1425C909.015 42.969 908.339 49.3113 908.207 51.6618C909.542 49.6693 911.657 47.0269 914.837 44.6129C920.133 40.5904 925.534 39.3657 928.409 38.9324C926.271 39.9639 922.738 42.0081 919.676 45.7716C912.522 54.5641 913.99 65.3026 914.311 67.6523L914.311 67.6553C915.089 73.3382 917.34 77.8459 919.467 81.0182C919.243 77.0381 919.455 71.2516 921.676 64.815C926.523 50.7692 937.502 43.5766 941.247 41.3511C939.994 42.1 933.788 45.9836 931.883 53.8708C929.375 64.2498 936.593 72.123 937.144 72.7047C936.457 69.8997 935.705 65.1707 936.829 59.5537C938.755 49.9166 944.907 44.1113 947.139 42.1942C946.367 43.7651 945.602 45.741 945.14 48.0867C943.812 54.82 945.79 60.4204 946.927 63.0275C947.102 60.7172 947.589 57.5378 948.927 53.9792C950.373 50.1356 952.281 47.2553 953.767 45.3524C960.366 55.3734 964.028 64.6384 966.129 71.334C972.638 92.092 970.768 109.324 970.022 114.788C969.431 119.1 968.642 122.671 967.996 125.224L982.169 125.69C982.923 116.26 982.506 108.481 981.962 103.043C980.879 92.2144 978.451 70.6063 963.514 51.1366C960.658 47.4084 957.992 44.6105 956.221 42.8583C957.516 42.6841 959.176 42.6346 961.025 43.035C966.901 44.3091 970.038 49.13 970.811 50.3994C970.735 49.1182 970.373 46.1602 968.18 43.5602C965.349 40.2041 960.611 38.7934 955.87 39.7731C957.405 38.7345 959.904 37.2885 963.234 36.4053C975.299 33.2071 985.375 40.8329 986.171 41.4547C992.355 46.2944 994.696 52.5755 995.535 55.3428C996.05 52.8205 996.594 48.3175 995.009 43.2422C992.678 35.793 985.879 27.5054 975.544 26.4079C967.398 25.5412 959.306 29.38 954.396 36.297C955.439 33.7582 957.714 29.3942 962.391 26.1959C970.395 20.7248 979.447 22.7653 982.063 23.355L982.066 23.3557C986.797 24.4249 990.292 26.5068 992.376 27.9858C991.401 26.0311 989.722 23.2473 986.905 20.6214C985.601 19.4038 978.269 12.5716 969.124 13.7821C961.004 14.8561 953.988 21.9402 951.765 31.4572C951.824 28.3862 952.382 23.5653 955.133 18.6219C962.024 6.23869 976.479 4.22978 978.385 3.99663C975.73 3.02396 970.083 1.37303 963.234 2.73429L963.229 2.73541C959.937 3.39094 951.456 5.07972 947.241 12.8354C943.011 20.6214 946.188 28.7936 946.715 30.0913C945.347 27.8516 943.892 24.8935 942.928 21.2525C940.413 11.7473 942.846 3.60803 944.191 0C942.712 1.91 939.912 6.06442 938.93 12.1006C938.006 17.7717 939.141 22.3406 939.876 24.6203C937.556 22.9671 933.722 20.6732 928.513 19.359C921.93 17.6987 916.379 18.4217 913.362 19.0434C916.08 19.4838 919.853 20.3953 923.989 22.4113C927.792 24.2671 930.651 26.4479 932.615 28.1978ZM1081.45 29.8817C1077.79 28.4356 1074.53 28.1931 1072.5 28.1978C1074.47 26.4479 1077.33 24.2671 1081.13 22.4113C1085.27 20.3953 1089.04 19.4838 1091.76 19.0434C1088.74 18.4217 1083.19 17.6987 1076.61 19.359C1071.4 20.6732 1067.56 22.9671 1065.24 24.6203C1065.98 22.3406 1067.11 17.7717 1066.19 12.1006C1065.21 6.06442 1062.41 1.91 1060.93 0C1062.27 3.60803 1064.71 11.7473 1062.19 21.2525C1061.23 24.8935 1059.77 27.8516 1058.4 30.0913C1058.93 28.7936 1062.11 20.6214 1057.88 12.8354C1053.66 5.07976 1045.18 3.39096 1041.89 2.73542L1041.88 2.73429C1035.04 1.37303 1029.39 3.02396 1026.73 3.99663C1028.64 4.22978 1043.09 6.23869 1049.99 18.6219C1052.74 23.5653 1053.29 28.3862 1053.35 31.4572C1051.13 21.9402 1044.11 14.8561 1035.99 13.7821C1026.85 12.5716 1019.52 19.4038 1018.21 20.6214C1015.4 23.2473 1013.72 26.0311 1012.74 27.9858C1014.83 26.5068 1018.32 24.4249 1023.05 23.3557L1023.06 23.3549C1025.67 22.7652 1034.72 20.7248 1042.73 26.1959C1047.4 29.3942 1049.68 33.7582 1050.72 36.297C1045.81 29.38 1037.72 25.5412 1029.57 26.4079C1019.24 27.5054 1012.44 35.793 1010.11 43.2422C1008.52 48.3175 1009.07 52.8205 1009.58 55.3428C1010.42 52.5755 1012.76 46.2944 1018.95 41.4547C1019.74 40.8329 1029.82 33.2071 1041.88 36.4053C1045.21 37.2885 1047.71 38.7345 1049.25 39.7731C1044.51 38.7934 1039.77 40.2041 1036.94 43.5602C1034.75 46.1602 1034.38 49.1182 1034.31 50.3994C1035.08 49.13 1038.22 44.3091 1044.09 43.035C1045.94 42.6346 1047.6 42.6841 1048.9 42.8583C1047.13 44.6105 1044.46 47.4084 1041.6 51.1366C1026.67 70.6063 1024.24 92.2144 1023.16 103.043C1022.61 108.481 1022.2 116.26 1022.95 125.69L1037.12 125.224C1036.48 122.671 1035.69 119.1 1035.1 114.788C1034.35 109.324 1032.48 92.092 1038.99 71.334C1041.09 64.6384 1044.75 55.3734 1051.35 45.3524C1052.84 47.2553 1054.75 50.1356 1056.19 53.9792C1057.53 57.5378 1058.02 60.7172 1058.19 63.0275C1059.33 60.4204 1061.31 54.82 1059.98 48.0867C1059.52 45.741 1058.75 43.7651 1057.98 42.1942C1060.21 44.1113 1066.36 49.9166 1068.29 59.5537C1069.41 65.1707 1068.66 69.8997 1067.97 72.7047C1068.53 72.123 1075.74 64.2498 1073.24 53.8708C1071.33 45.9836 1065.12 42.1 1063.87 41.3511C1067.62 43.5766 1078.6 50.7692 1083.44 64.815C1085.66 71.2516 1085.88 77.0381 1085.65 81.0182C1087.78 77.8459 1090.03 73.3382 1090.81 67.6553L1090.81 67.6525C1091.13 65.3035 1092.6 54.5645 1085.44 45.7716C1082.38 42.0081 1078.85 39.9639 1076.71 38.9324C1079.58 39.3657 1084.99 40.5904 1090.28 44.6129C1093.46 47.0269 1095.58 49.6693 1096.91 51.6618C1096.78 49.3113 1096.1 42.969 1091.33 37.1425C1087.49 32.4417 1082.94 30.4704 1081.45 29.8817ZM1134.32 28.1978C1132.3 28.1931 1129.04 28.4356 1125.38 29.8817C1123.89 30.4704 1119.33 32.4417 1115.49 37.1425C1110.72 42.969 1110.04 49.3113 1109.91 51.6618C1111.25 49.6693 1113.36 47.0269 1116.54 44.6129C1121.84 40.5904 1127.24 39.3657 1130.11 38.9324C1127.98 39.9639 1124.44 42.0081 1121.38 45.7716C1114.23 54.5645 1115.7 65.3035 1116.02 67.6525L1116.02 67.6553C1116.79 73.3382 1119.05 77.8459 1121.17 81.0182C1120.95 77.0381 1121.16 71.2516 1123.38 64.815C1128.23 50.7692 1139.21 43.5766 1142.95 41.3511C1141.7 42.1 1135.49 45.9836 1133.59 53.8708C1131.08 64.2498 1138.3 72.123 1138.85 72.7047C1138.16 69.8997 1137.41 65.1707 1138.53 59.5537C1140.46 49.9166 1146.61 44.1113 1148.84 42.1942C1148.07 43.7651 1147.31 45.741 1146.84 48.0867C1145.52 54.82 1147.49 60.4204 1148.63 63.0275C1148.81 60.7172 1149.29 57.5378 1150.63 53.9792C1152.08 50.1356 1153.99 47.2553 1155.47 45.3524C1162.07 55.3734 1165.73 64.6384 1167.83 71.334C1174.34 92.092 1172.47 109.324 1171.73 114.788C1171.14 119.1 1170.35 122.671 1169.7 125.224L1183.87 125.69C1184.63 116.26 1184.21 108.481 1183.67 103.043C1182.58 92.2144 1180.16 70.6063 1165.22 51.1366C1162.36 47.4084 1159.7 44.6105 1157.93 42.8583C1159.22 42.6841 1160.88 42.6346 1162.73 43.035C1168.61 44.3091 1171.74 49.13 1172.52 50.3994C1172.44 49.1182 1172.08 46.1602 1169.89 43.5602C1167.05 40.2041 1162.32 38.7934 1157.57 39.7731C1159.11 38.7345 1161.61 37.2885 1164.94 36.4053C1177 33.2071 1187.08 40.8329 1187.88 41.4547C1194.06 46.2944 1196.4 52.5755 1197.24 55.3428C1197.76 52.8205 1198.3 48.3175 1196.71 43.2422C1194.38 35.793 1187.58 27.5054 1177.25 26.4079C1169.1 25.5412 1161.01 29.38 1156.1 36.297C1157.14 33.7582 1159.42 29.3942 1164.1 26.1959C1172.1 20.7248 1181.15 22.7653 1183.77 23.355L1183.77 23.3557C1188.5 24.4249 1192 26.5068 1194.08 27.9858C1193.11 26.0311 1191.43 23.2473 1188.61 20.6214C1187.31 19.4038 1179.97 12.5716 1170.83 13.7821C1162.71 14.8561 1155.69 21.9402 1153.47 31.4572C1153.53 28.3862 1154.09 23.5653 1156.84 18.6219C1163.73 6.23869 1178.18 4.22978 1180.09 3.99663C1177.44 3.02396 1171.79 1.37303 1164.94 2.73429L1164.93 2.73543C1161.64 3.39097 1153.16 5.07978 1148.95 12.8354C1144.72 20.6214 1147.89 28.7936 1148.42 30.0913C1147.05 27.8516 1145.6 24.8935 1144.63 21.2525C1142.12 11.7473 1144.55 3.60803 1145.9 0C1144.42 1.91 1141.62 6.06442 1140.63 12.1006C1139.71 17.7717 1140.85 22.3406 1141.58 24.6203C1139.26 22.9671 1135.43 20.6732 1130.22 19.359C1123.64 17.6987 1118.08 18.4217 1115.07 19.0434C1117.79 19.4838 1121.56 20.3953 1125.69 22.4113C1129.5 24.2671 1132.36 26.4479 1134.32 28.1978ZM1283.15 29.8817C1279.49 28.4356 1276.23 28.1931 1274.21 28.1978C1276.17 26.4479 1279.03 24.2671 1282.83 22.4113C1286.97 20.3953 1290.74 19.4838 1293.46 19.0434C1290.44 18.4217 1284.89 17.6987 1278.31 19.359C1273.1 20.6732 1269.27 22.9671 1266.95 24.6203C1267.68 22.3406 1268.82 17.7717 1267.89 12.1006C1266.91 6.06442 1264.11 1.91 1262.63 0C1263.98 3.60803 1266.41 11.7473 1263.9 21.2525C1262.93 24.8935 1261.48 27.8516 1260.11 30.0913C1260.64 28.7936 1263.81 20.6214 1259.58 12.8354C1255.37 5.07976 1246.89 3.39096 1243.6 2.73542L1243.59 2.73429C1236.74 1.37303 1231.09 3.02396 1228.44 3.99663C1230.34 4.22978 1244.8 6.23869 1251.69 18.6219C1254.44 23.5653 1255 28.3862 1255.06 31.4572C1252.84 21.9402 1245.82 14.8561 1237.7 13.7821C1228.55 12.5716 1221.22 19.4038 1219.92 20.6214C1217.1 23.2473 1215.42 26.0311 1214.45 27.9858C1216.53 26.5068 1220.03 24.4249 1224.76 23.3557L1224.76 23.355C1227.38 22.7653 1236.43 20.7248 1244.43 26.1959C1249.11 29.3942 1251.38 33.7582 1252.43 36.297C1247.52 29.38 1239.43 25.5412 1231.28 26.4079C1220.94 27.5054 1214.15 35.793 1211.81 43.2422C1210.23 48.3175 1210.77 52.8205 1211.29 55.3428C1212.13 52.5755 1214.47 46.2944 1220.65 41.4547C1221.45 40.8329 1231.52 33.2071 1243.59 36.4053C1246.92 37.2885 1249.42 38.7345 1250.95 39.7731C1246.21 38.7934 1241.47 40.2041 1238.64 43.5602C1236.45 46.1602 1236.09 49.1182 1236.01 50.3994C1236.79 49.13 1239.92 44.3091 1245.8 43.035C1247.65 42.6346 1249.31 42.6841 1250.6 42.8583C1248.83 44.6105 1246.17 47.4084 1243.31 51.1366C1228.37 70.6063 1225.94 92.2144 1224.86 103.043C1224.32 108.481 1223.9 116.26 1224.65 125.69L1238.83 125.224C1238.18 122.671 1237.39 119.1 1236.8 114.788C1236.06 109.324 1234.19 92.092 1240.69 71.334C1242.8 64.6384 1246.46 55.3734 1253.06 45.3524C1254.54 47.2553 1256.45 50.1356 1257.9 53.9792C1259.23 57.5378 1259.72 60.7172 1259.9 63.0275C1261.03 60.4204 1263.01 54.82 1261.68 48.0867C1261.22 45.741 1260.46 43.7651 1259.68 42.1942C1261.92 44.1113 1268.07 49.9166 1269.99 59.5537C1271.12 65.1707 1270.37 69.8997 1269.68 72.7047C1270.23 72.123 1277.45 64.2498 1274.94 53.8708C1273.04 45.9836 1266.83 42.1 1265.58 41.3511C1269.32 43.5766 1280.3 50.7692 1285.15 64.815C1287.37 71.2516 1287.58 77.0381 1287.36 81.0182C1289.48 77.8459 1291.73 73.3382 1292.51 67.6553L1292.51 67.6525C1292.83 65.3035 1294.3 54.5645 1287.15 45.7716C1284.09 42.0081 1280.55 39.9639 1278.41 38.9324C1281.29 39.3657 1286.69 40.5904 1291.99 44.6129C1295.17 47.0269 1297.28 49.6693 1298.62 51.6618C1298.48 49.3113 1297.81 42.969 1293.04 37.1425C1289.19 32.4417 1284.64 30.4704 1283.15 29.8817ZM1336.03 28.1978C1334 28.1931 1330.74 28.4356 1327.08 29.8817C1325.59 30.4704 1321.04 32.4417 1317.19 37.1425C1312.43 42.969 1311.75 49.3113 1311.62 51.6618C1312.95 49.6693 1315.07 47.0269 1318.25 44.6129C1323.54 40.5904 1328.94 39.3657 1331.82 38.9324C1329.68 39.9639 1326.15 42.0081 1323.09 45.7716C1315.93 54.5645 1317.4 65.3035 1317.72 67.6525L1317.72 67.6553C1318.5 73.3382 1320.75 77.8459 1322.88 81.0182C1322.65 77.0381 1322.87 71.2516 1325.09 64.815C1329.93 50.7692 1340.91 43.5766 1344.66 41.3511C1343.4 42.1 1337.2 45.9836 1335.29 53.8708C1332.78 64.2498 1340 72.123 1340.55 72.7047C1339.87 69.8997 1339.12 65.1707 1340.24 59.5537C1342.17 49.9166 1348.32 44.1113 1350.55 42.1942C1349.78 43.7651 1349.01 45.741 1348.55 48.0867C1347.22 54.82 1349.2 60.4204 1350.34 63.0275C1350.51 60.7172 1351 57.5378 1352.34 53.9792C1353.78 50.1356 1355.69 47.2553 1357.18 45.3524C1363.78 55.3734 1367.44 64.6384 1369.54 71.334C1376.05 92.092 1374.18 109.324 1373.43 114.788C1372.84 119.1 1372.05 122.671 1371.41 125.224L1385.58 125.69C1386.33 116.26 1385.92 108.481 1385.37 103.043C1384.29 92.2144 1381.86 70.6063 1366.92 51.1366C1364.07 47.4084 1361.4 44.6105 1359.63 42.8583C1360.93 42.6841 1362.59 42.6346 1364.44 43.035C1370.31 44.3091 1373.45 49.13 1374.22 50.3994C1374.15 49.1182 1373.78 46.1602 1371.59 43.5602C1368.76 40.2041 1364.02 38.7934 1359.28 39.7731C1360.82 38.7345 1363.31 37.2885 1366.64 36.4053C1378.71 33.2071 1388.78 40.8329 1389.58 41.4547C1395.77 46.2944 1398.11 52.5755 1398.94 55.3428C1399.46 52.8205 1400 48.3175 1398.42 43.2422C1396.09 35.793 1389.29 27.5054 1378.95 26.4079C1370.81 25.5412 1362.72 29.38 1357.81 36.297C1358.85 33.7582 1361.12 29.3942 1365.8 26.1959C1373.81 20.7248 1382.86 22.7653 1385.47 23.355L1385.48 23.3557C1390.21 24.4249 1393.7 26.5068 1395.79 27.9858C1394.81 26.0311 1393.13 23.2473 1390.32 20.6214C1389.01 19.4038 1381.68 12.5716 1372.53 13.7821C1364.41 14.8561 1357.4 21.9402 1355.18 31.4572C1355.23 28.3862 1355.79 23.5653 1358.54 18.6219C1365.43 6.23869 1379.89 4.22978 1381.79 3.99663C1379.14 3.02396 1373.49 1.37303 1366.64 2.73429L1366.64 2.73543C1363.35 3.39097 1354.87 5.07978 1350.65 12.8354C1346.42 20.6214 1349.6 28.7936 1350.13 30.0913C1348.76 27.8516 1347.3 24.8935 1346.34 21.2525C1343.82 11.7473 1346.26 3.60803 1347.6 0C1346.12 1.91 1343.32 6.06442 1342.34 12.1006C1341.42 17.7717 1342.55 22.3406 1343.29 24.6203C1340.97 22.9671 1337.13 20.6732 1331.92 19.359C1325.34 17.6987 1319.79 18.4217 1316.77 19.0434C1319.49 19.4838 1323.26 20.3953 1327.4 22.4113C1331.2 24.2671 1334.06 26.4479 1336.03 28.1978Z" fill="#933E00"/>
</svg>
