<?xml version="1.0" encoding="UTF-8"?>
<svg id="wave" xmlns="http://www.w3.org/2000/svg" version="1.1" viewBox="0 0 1440 490">
  <defs>
    <style>
      .cls-1 {
        fill: #331600;
        stroke-width: 0px;
      }
    </style>
  </defs>
  <path class="cls-1" d="M-497.5,1094.1l18.5-16.3c18.4-16.7,55.5-48.7,92.5-57.2,36.7-8.5,74,8.5,111,0,36.5-8.5,73-40.5,110-73.5,37.2-33,74-65,111-24.5s74.2,141.8,111.2,149.6c36.8,8.2,73.8-76.1,110.8-116.9,36.5-41.2,73-24.2,110,32.6,37.3,57.2,77.9,109.4,114.9,93.1,37.1-16.7,60.8-57.2,97.8-114.7,32.8-32.6,88.4-38.5,125.4,2,36.6,40.5,69,60.8,105,76.8,37.4,16,74-16,111-49,37.2-33,74-65,111-24.5,36.9,40.5,86.4,118.4,123.4,118.1,36.7.3,104.8-103.1,173.6-104.2,95.8-1.5,154.6,120.9,190.1,81.4,37-40.8,30-21.8,67-79,36.8-56.8,74-73.8,111-65.3,36.5,8.5,73,40.5,110,65.3,37.3,24.2,74,41.2,111,8.2,37.1-33,74-114,111-98,36.8,16,74,131,111,171.5,36.6,40.5,74,8.5,92-8.2l18.5-16.3v245H-497.5v-196Z"/>
</svg>