<?xml version="1.0" encoding="UTF-8"?>
<svg id="Layer_2" data-name="Layer 2" xmlns="http://www.w3.org/2000/svg" xmlns:xlink="http://www.w3.org/1999/xlink" viewBox="0 0 4460.96 1808.14">
  <defs>
    <style>
      .cls-1 {
        fill: url(#linear-gradient);
      }

      .cls-1, .cls-2, .cls-3, .cls-4, .cls-5, .cls-6, .cls-7, .cls-8 {
        stroke-width: 0px;
      }

      .cls-2 {
        fill: #fbfdfd;
      }

      .cls-3 {
        fill: url(#linear-gradient-4);
      }

      .cls-4 {
        fill: url(#linear-gradient-2);
      }

      .cls-5 {
        fill: url(#linear-gradient-3);
      }

      .cls-6 {
        fill: url(#linear-gradient-7);
      }

      .cls-7 {
        fill: url(#linear-gradient-5);
      }

      .cls-8 {
        fill: url(#linear-gradient-6);
      }
    </style>
    <linearGradient id="linear-gradient" x1="1811.17" y1="778.47" x2="1811.17" y2="2179.85" gradientUnits="userSpaceOnUse">
      <stop offset="0" stop-color="#a4b9c6"/>
      <stop offset="1" stop-color="#fff"/>
    </linearGradient>
    <linearGradient id="linear-gradient-2" x1="2918.89" y1="778.47" x2="2918.89" y2="2179.85" xlink:href="#linear-gradient"/>
    <linearGradient id="linear-gradient-3" x1="3673.25" y1="778.47" x2="3673.25" y2="2179.85" xlink:href="#linear-gradient"/>
    <linearGradient id="linear-gradient-4" x1="3741.14" y1="778.47" x2="3741.14" y2="2179.85" xlink:href="#linear-gradient"/>
    <linearGradient id="linear-gradient-5" x1="405.76" y1="778.47" x2="405.76" y2="2179.85" xlink:href="#linear-gradient"/>
    <linearGradient id="linear-gradient-6" x1="3480.01" y1="778.47" x2="3480.01" y2="2179.85" xlink:href="#linear-gradient"/>
    <linearGradient id="linear-gradient-7" x1="2230.48" y1="352.88" x2="2230.48" y2="2585.33" xlink:href="#linear-gradient"/>
  </defs>
  <g id="Layer_2-2" data-name="Layer 2">
    <g>
      <g>
        <path class="cls-2" d="M1745.22,865.56c-39.38-27.72-82.48-16.67-82.48-16.67-142.49-46.22-318.72,0-318.72,0-16.84-44.32-84.34-31.38-84.34-31.38-41.24-16.67-84.34,14.77-84.34,14.77,0,0-24.4-22.23-60-20.33-35.6,1.83-52.51,36.93-52.51,36.93-20.62-38.83-101.18-40.66-101.18-40.66-22.54-22.16-69.35-20.33-69.35-20.33l-28.94-24.6c-9.69-2.03-17.94-1.29-17.94-1.29-43.1-44.32-80.62-1.83-80.62-1.83-22.48-25.89-44.95-3.66-44.95-3.66-11.27-11.11-22.54-1.9-22.54-1.9-63.72-23.99-99.32,33.27-99.32,33.27-14.98-11.05-33.75,7.39-33.75,7.39-14.98-16.6-31.89,0-31.89,0-26.26,11.11,0,51.77,0,51.77-65.57-22.16-108.74,27.72-108.74,27.72-41.24-3.73-44.95,29.55-44.95,29.55-74.99-23.99-110.11,9.76-110.11,9.76-36.91-6.78-76.43,21.82-78.63,23.45,11.13-15.25-9.97-30.43-9.97-30.43,18.28-12.47,5.64-26.29,5.64-26.29-32.37-26.36-82.96,0-82.96,0-22.48-12.47-37.94,0-37.94,0-8.45-36.05-64.68-51.3-64.68-51.3v882.67l573.58-14.98c19.73-22.16,45.02-11.05,45.02-11.05,47.77-41.61,78.7-19.45,78.7-19.45,47.84-55.43,146.27-52.66,146.27-52.66,75.88-69.33,193.97-33.27,193.97-33.27,39.38-63.77,126.54-47.1,126.54-47.1,25.29-33.27,78.77-11.11,78.77-11.11,59.04-36.05,160.22,0,160.22,0-8.39-36.05-50.59-66.55-50.59-66.55,25.29-19.38,92.79,0,92.79,0,14.09-36.05,67.5-49.88,67.5-49.88-22.48-30.5-78.77-33.27-78.77-33.27,45.02-38.83,134.99-36.05,134.99-36.05,0,0-28.11-41.54-87.15-44.32-59.04-2.78-81.52,22.16-81.52,22.16-78.77-27.72-137.81,0-137.81,0-95.61-69.33-269.92-33.27-269.92-33.27,56.22-5.56,123.72,33.27,123.72,33.27,59.04-13.89,160.29,47.1,160.29,47.1-28.18,2.78-48.8,44.39-48.8,44.39-40.28-24.94-94.65,0-94.65,0-50.59-44.39-191.22-33.27-191.22-33.27-33.75-44.39-129.29-30.5-129.29-30.5-16.91-38.83-64.68-24.94-64.68-24.94-36.57-52.66-140.63-60.99-140.63-60.99,47.84-49.94,224.97-66.55,224.97-66.55,81.52-63.77,284.01-45.27,284.01-45.27,78.7-61.94,178.98-16.67,178.98-16.67,48.73-18.43,84.4,16.67,84.4,16.67,29.97-12.94,84.34-14.77,84.34-14.77-24.4-38.83-48.73-40.66-48.73-40.66,44.95-16.67,80.56,12.94,80.56,12.94,58.15-5.56,127.5,0,127.5,0-26.26-31.44-112.45-25.89-112.45-25.89,28.11-14.77,88.05-14.77,88.05-14.77-37.46-24.06-97.46-20.33-97.46-20.33-42.34-20.13-141.18-13.28-172.25-10.5-3.51.34-6.19.61-7.77.75,76.78-6.03,116.3,26.36,116.3,26.36-29.97,0-46.88,18.5-46.88,18.5-86.19-20.33-193.07,0-193.07,0-103.1-25.89-209.91,0-209.91,0-28.18-29.61-84.4-12.94-84.4-12.94-46.88-37-161.18-22.16-161.18-22.16,39.38-27.78,99.32-31.44,99.32-31.44,63.78-46.22,151.83-27.72,151.83-27.72,26.26-22.16,73.13,0,73.13,0,74.99-29.61,134.99,0,134.99,0,52.44-20.33,157.47,0,157.47,0-11.27-18.5-39.38-25.89-39.38-25.89,41.24-18.5,114.3,0,114.3,0-14.98-16.6-43.1-22.16-43.1-22.16-1.86-22.23-13.13-35.1-13.13-35.1,67.5-22.23,153.76,0,153.76,0,48.73-11.11,116.23-11.11,116.23-11.11,31.82-22.16,99.32,0,99.32,0,35.6-22.16,101.24-22.16,101.24-22.16-54.37-22.23-103.1,0-103.1,0Z"/>
        <path class="cls-2" d="M4427.7,557.83c-12.17-11.11-39.87,8.27-39.87,8.27-30.93-20.74-54.78,2.78-54.78,2.78-77.33-15.25-134.99,22.23-134.99,22.23-43.58-25.01-64.95,11.05-64.95,11.05,12.3-36.05-8.18-56.79-8.18-56.79,0,0,18.28-22.23,0-34.7-18.21-12.47-30.93,16.67-30.93,16.67-30.93-18.03-89.97,2.78-89.97,2.78,0-23.58-23.23-25.01-23.23-25.01,1.99-20.74-30.17-45.74-30.17-45.74,0,0,39.38-1.36,28.11-41.54-11.2-40.19-137.74-6.91-137.74-6.91-59.04-4.2-50.66,49.88-50.66,49.88-46.4-22.16-87.15-1.42-87.15-1.42-40.76-5.49-49.21,26.36-49.21,26.36-40.76-8.34-50.59,16.67-50.59,16.67-28.11-13.89-40.76,12.47-40.76,12.47,0,0-19.73,26.29,9.83,47.1,29.49,20.8,19.66,54.08,19.66,54.08-7.62-2.52-14.95,1.23-20.7,6.07-6.96,5.85-11.6,13.31-11.6,13.31,1.37-24.94-25.29-18.03-25.29-18.03-15.47-24.94-66.12-5.56-66.12-5.56-3.92-31.11-68.46-44.12-76.5-45.61,33.61,5.15,75.13-11.18,75.13-11.18,33.75-4.2,39.32-37.41,39.32-37.41,18.28-23.58-11.2-34.7-11.2-34.7-5.64-18.03-25.29-14.16-25.29-14.16-7.08-34.9-54.85-27.38-54.85-27.38-22.48-18.03-56.22-8.34-56.22-8.34-5.64-26.36-23.92-19.45-23.92-19.45-14.09-22.16-39.38-6.91-39.38-6.91-21.1-19.38-52.03,4.2-52.03,4.2-7.01-31.92-46.4-24.06-46.4-24.06-11.2-15.72-26.39-10.64-26.39-10.64,15.74-29.07-.27-58.21-.27-58.21,4.19-58.21-37.94-56.86-37.94-56.86-18.28-23.52-40.83-15.25-40.83-15.25-5.57-29.07-54.78-49.88-54.78-49.88-49.21-30.5-82.96,5.56-82.96,5.56,0,0-5.64-22.16-45.02-27.72-39.32-5.56-59.04,24.94-59.04,24.94-22.48-18.03-57.6-5.56-57.6-5.56-2.82-34.63-30.93-44.32-30.93-44.32-26.74-33.27-53.47-4.2-53.47-4.2-11.2-18.03-56.22-22.16-56.22-22.16-5.64-16.6-21.1-36.05-52.03-40.19-30.93-4.2-36.57,15.25-36.57,15.25-18.21-22.16-37.94-6.91-37.94-6.91-36.57-40.25-74.51-18.03-74.51-18.03-15.47-16.67-43.58-12.47-43.58-12.47-16.84-16.67-26.74,2.71-26.74,2.71-19.11,8-19.45,27.38-18.15,37.68-5.7-16.6-26.81-21.01-26.81-21.01-21.1-23.58-45.02-1.42-45.02-1.42-32.3-4.13-43.58,8.34-43.58,8.34-2.48-.79-4.79-1.31-7.04-1.7-.46-.08-.92-.16-1.37-.22-4.38-.64-8.32-.57-11.85.06-.38.07-.76.14-1.13.22-1.69.36-3.31.82-4.82,1.42-.15.06-.28.14-.43.21-1.29.54-2.49,1.18-3.65,1.87-.49.3-.99.6-1.46.92-.18.12-.38.22-.56.35-.7.49-1.34,1.03-1.98,1.56-.66.55-1.29,1.12-1.91,1.71-.6.58-1.18,1.16-1.74,1.77-.47.52-.93,1.04-1.36,1.58-.51.63-.99,1.28-1.46,1.93-.62.86-1.2,1.73-1.75,2.62-.35.57-.71,1.14-1.03,1.72-.35.62-.69,1.24-1.01,1.86-.3.59-.58,1.18-.86,1.76-.45.96-.87,1.91-1.25,2.84-.22.54-.44,1.07-.64,1.59-.22.57-.42,1.14-.62,1.69-.2.58-.38,1.13-.55,1.68-.23.74-.45,1.44-.64,2.11-.14.5-.28.99-.4,1.45-.1.39-.19.76-.28,1.11-.12.51-.23.99-.32,1.41-.07.32-.13.61-.18.87-.07.36-.14.71-.18.96-.02.13-.05.26-.06.35-.02.15-.06.36-.06.36,0,0-26.74-5.56-26.74,23.58s37.94,60.99,37.94,60.99c-12.65,27.72,9.9,58.21,9.9,58.21-21.1-8.34-40.83,5.56-40.83,5.56,0,0-.02-.08-.05-.19,0-.03-.03-.1-.04-.14-.03-.11-.08-.25-.14-.42-.03-.09-.08-.2-.12-.3-.07-.17-.16-.36-.26-.57-.07-.14-.15-.3-.24-.45-.11-.21-.25-.43-.4-.67-.12-.19-.26-.4-.4-.61-.15-.22-.34-.46-.52-.69-.2-.25-.4-.5-.63-.77-.18-.2-.4-.42-.6-.63-.31-.32-.61-.64-.98-.98-.08-.07-.18-.14-.25-.21-1.14-1.02-2.52-2.08-4.29-3.14-1.6-.93-3.51-1.86-5.73-2.75-.4-.16-.85-.32-1.28-.47-.72-.27-1.46-.53-2.24-.79-.69-.23-1.43-.44-2.18-.66-.62-.18-1.25-.36-1.91-.53-.87-.23-1.77-.44-2.71-.66-.66-.15-1.35-.29-2.04-.43-.99-.2-1.99-.39-3.06-.57-.83-.14-1.72-.26-2.6-.39-1.02-.15-2.01-.3-3.1-.43-2.01-.23-4.11-.44-6.35-.6-2.78-.19-5.37-.21-7.83-.12-.63.02-1.21.09-1.82.13-1.77.12-3.47.28-5.07.53-.66.1-1.3.22-1.93.35-1.45.28-2.84.61-4.15.99-.56.16-1.13.32-1.67.5-1.38.46-2.67.97-3.89,1.52-.25.11-.54.19-.78.31-.08.04-.13.09-.21.12-1.71.82-3.25,1.73-4.65,2.69-.29.2-.54.41-.82.61-1.07.78-2.06,1.59-2.96,2.42-.3.28-.61.55-.89.83-1.02,1.01-1.96,2.02-2.75,3.03-.04.05-.07.1-.11.15-.76.98-1.4,1.94-1.98,2.86-.19.3-.36.59-.52.89-.41.72-.78,1.41-1.09,2.06-.1.2-.21.41-.3.6-.36.79-.65,1.51-.87,2.12-.07.18-.11.33-.17.49-.14.43-.27.83-.35,1.11-.03.11-.07.23-.09.32-.05.21-.11.43-.11.43-3.47-.69-6.88-1.26-10.23-1.74-1.37-.2-2.68-.33-4.03-.49-2.06-.25-4.13-.52-6.14-.7-1.1-.1-2.15-.16-3.24-.24-2.22-.17-4.44-.33-6.58-.42-.9-.04-1.76-.05-2.65-.08-2.17-.06-4.31-.11-6.39-.11-.34,0-.7-.02-1.03-.02-.96,0-1.89.04-2.83.07-1.93.04-3.81.11-5.65.21-1.08.05-2.18.1-3.24.17-1.36.09-2.68.21-4,.32-.76.07-1.52.13-2.26.21-1.26.13-2.52.26-3.73.4-.75.09-1.46.19-2.19.28-1.82.24-3.58.49-5.27.76-.95.15-1.92.3-2.82.46-.75.13-1.48.27-2.2.4-1.17.22-2.32.45-3.41.68-.38.08-.77.16-1.13.24-10.12,2.18-16.4,4.5-17.7,5.02,39.04-20.8,22.2-48.39,22.2-48.39,18.28-13.89-1.37-27.72-1.37-27.72,12.65-8.34,11.2-33.27,11.2-33.27,0,0,26.74-12.47,23.92-51.3-2.82-38.83-52.03-62.35-52.03-62.35,0,0,7.08-41.61-36.57-56.86-43.58-15.25-63.24,26.36-63.24,26.36-42.2-12.54-57.67,15.25-57.67,15.25,0,0,2.82-27.78-35.12-31.92-37.94-4.13-37.94,40.19-37.94,40.19-19.73-4.13-32.37,11.11-32.37,11.11,0,0,2.82-22.16-39.32-30.5-42.2-8.34-47.84,40.19-47.84,40.19-2.67.77-5.1,1.68-7.31,2.72-1.1.52-2,1.14-3,1.72-1.01.58-2.1,1.11-3,1.75-1.02.72-1.85,1.53-2.74,2.31-.69.6-1.45,1.16-2.07,1.79-.83.85-1.5,1.78-2.21,2.68-.5.64-1.07,1.25-1.52,1.92-.64.95-1.13,1.94-1.66,2.93-.37.69-.79,1.35-1.1,2.05-.45,1.01-.8,2.04-1.16,3.08-.25.72-.55,1.43-.75,2.16-.29,1.03-.5,2.08-.71,3.12-.15.75-.34,1.5-.46,2.26-.16,1.02-.25,2.04-.34,3.06-.07.77-.17,1.55-.2,2.32-.05.98-.04,1.94-.04,2.91,0,.79-.01,1.59.02,2.37.03.9.1,1.77.17,2.64.06.81.12,1.62.2,2.4.09.78.19,1.52.3,2.26.12.83.23,1.66.37,2.44.11.61.22,1.19.33,1.78.16.84.33,1.68.5,2.44.09.42.19.8.28,1.2.21.86.42,1.71.62,2.45.04.16.09.31.13.46.66,2.33,1.22,3.97,1.38,4.41l.07.14c-25.29-11.11-41.45-.68-41.45-.68-7.01-16.67-26.74-14.64-26.74-14.64-21.79-6.3-31.62,13.96-31.62,13.96-21.51,6.78-34.23,22.43-39.93,31.38,15.05-5.69,36.36-7.66,52.58,14.77,0,0,51.55-11.99,67.5,33.27,0,0,25.29-71.16,87.15-51.71,0,0,53.41-19.45,78.77,22.16,0,0-84.41-2.78-104.06,55.43,0,0,70.31-2.78,87.15,55.43,0,0,33.75,30.5-2.82,63.77,0,0-98.43-22.16-112.45,69.33,0,0-59.04,0-75.95,33.27,0,0-84.27-36.05-123.65,33.21,2.61-1.42,65.5-35.24,106.81.07,0,0,47.77-5.56,67.5,27.72,0,0-28.11,16.6-25.29,44.32,0,0-30.86,0-42.13,33.21,2.27-1.29,56.84-32.53,89.9.07,0,0,8.45-55.43,53.41-47.1,0,0,50.66,0,59.04,47.1,0,0,55.33-36.05,102.21,0,0,0,69.35-38.76,108.74-16.6,0,0-19.73-66.55-81.59-60.99,0,0,25.29-55.43-59.04-77.66,0,0-19.66-41.54-61.86-33.27,0,0,73.13-33.21,106.88-13.82,0,0,61.86-47.17,106.81-24.94,0,0-2.82-47.17,45.02-41.61,45.5,5.29,42.55,33.21,42.2,35.85,1.51-2.58,20.48-34.43,64.2-40.46,4.61-.61,9.42-.95,14.5-.95,0,0,30.93-8.27,64.68,22.23,0,0,30.93-33.27,84.34-11.11,0,0,28.87-10.91,56.57-8.06,16.43,1.69,32.44,8.13,41.86,24.67,0,0-59.04,38.83-47.84,119.2,0,0,61.86-33.21,89.97,2.78,0,0,64.68-5.49,73.13,38.83,0,0-36.57,74.88-132.18,116.42,0,0,90.04,5.56,115.34,69.33,0,0,56.22-30.5,84.34,0,0,0,61.86-27.72,109.63,19.38,0,0-59.04,27.72-64.68,63.77,0,0-75.88,5.56-84.34,74.88,0,0,84.34-38.83,163.11,11.05,0,0,53.41-38.76,87.15,0,0,0,61.86-44.32,101.25,0,0,0,73.06,63.77,25.29,138.65-47.77,74.82-126.54,94.26-126.54,94.26,0,0,259.61,0,323.39-76.71,0,0,86.19,23.11,93.68,76.71,0,0,74.99,9.22,86.26,75.76,0,0,123.72,29.55,146.2,110.87,0,0,52.51,3.73,78.77,62.89,0,0,59.94-107.21,194.93-73.93,0,0,52.51-92.43,131.21-81.32,0,0,63.72-121.98,221.19-55.43,0,0,78.77-59.16,149.98,0,0,0-71.21,40.66-82.48,114.53,0,0-60,7.45-82.48,48.11,0,0-112.45-14.84-142.48,81.32,0,0,78.77-62.89,153.76-37,0,0,52.44-55.43,112.45-25.89,0,0,66.05-92.37,183.73-48.05,0,0-30.04,7.39-41.24,59.16,0,0,77.74-62.82,158.84,14.77v-787.8s-21.1,6.91-33.27-4.13Z"/>
        <path class="cls-2" d="M1848.32,1059.6c-21.54-22.18-65.63,0-65.63,0,40.77-5.54,65.63,24.95,65.63,24.95,19.23-19.41,112.92-13.86,112.92-13.86-35.15-19.41-112.92-11.09-112.92-11.09Z"/>
        <path class="cls-2" d="M2108.87,1049.74c-61.86-9.86-73.11,26.51-73.11,26.51,120.91-33.25,131.63,44.34,131.63,44.34,7.9-30.5,48.33-44.34,48.33-44.34-42.18-55.43-106.85-26.51-106.85-26.51Z"/>
        <path class="cls-2" d="M2589.69,1153.86c-36.55-16.63-87.17,16.63-87.17,16.63,56.24-22.18,102.63,0,102.63,0,26.71-33.27,102.63-21.29,102.63-21.29-81.54-32.38-118.1,4.66-118.1,4.66Z"/>
        <path class="cls-2" d="M1307.49,1228.71c-67.48-30.5-191.2-30.5-191.2-30.5-89.98-30.5-191.21,11.09-191.21,11.09,75.92-19.41,115.29,30.5,115.29,30.5,22.49-24.95,75.92-15.29,75.92-15.29,132.16-20.84,191.2,37.47,191.2,37.47,36.55-30.5,143.4-19.41,143.4-19.41-30.93-22.18-143.4-13.86-143.4-13.86Z"/>
        <path class="cls-2" d="M1464.03,178s-3.78-53.6-48.73-55.43c-30.38-1.22-47.08,20.26-54.71,34.36,0,0,74.37-23.31,103.44,21.08Z"/>
      </g>
      <g>
        <path class="cls-1" d="M1618.21,117.84c.06.81.12,1.62.2,2.4.09.78.19,1.52.3,2.26.12.83.23,1.66.37,2.44.11.61.22,1.19.33,1.78.16.84.33,1.68.5,2.44.09.42.19.8.28,1.2.21.86.42,1.71.62,2.45.04.16.09.31.13.46.66,2.33,1.22,3.97,1.38,4.41l.07.14s29.07-65.26,115.34-15.32c0,0,59.94-5.49,82.48,37,0,0,54.37-1.83,71.21,40.66,0,0,35.6,20.33,39.38,40.66,0,0,14.98-42.49,44.95-38.76,0,0,7.56-25.28,28.11-26.7,0,0,7.49-52.79-39.32-61.13,0,0-15.05-50.83-67.5-34.16,0,0-23.44-10.1-.48-50.35-42.2-12.54-57.67,15.25-57.67,15.25,0,0,2.82-27.78-35.12-31.92-37.94-4.13-37.94,40.19-37.94,40.19-19.73-4.13-32.37,11.11-32.37,11.11,0,0,2.82-22.16-39.32-30.5-42.2-8.34-47.84,40.19-47.84,40.19-2.67.77-5.1,1.68-7.31,2.72-1.1.52-2,1.14-3,1.72-1.01.58-2.1,1.11-3,1.75-1.02.72-1.85,1.53-2.74,2.31-.69.6-1.45,1.16-2.07,1.79-.83.85-1.5,1.78-2.21,2.68-.5.64-1.07,1.25-1.52,1.92-.64.95-1.13,1.94-1.66,2.93-.37.69-.79,1.35-1.1,2.05-.45,1.01-.8,2.04-1.16,3.08-.25.72-.55,1.43-.75,2.16-.29,1.03-.5,2.08-.71,3.12-.15.75-.34,1.5-.46,2.26-.16,1.02-.25,2.04-.34,3.06-.07.77-.17,1.55-.2,2.32-.05.98-.04,1.94-.04,2.91,0,.79-.01,1.59.02,2.37.03.9.1,1.77.17,2.64Z"/>
        <path class="cls-4" d="M2710.6,610.49s30.93-66.53,92.79-58.22c0,0,109.66,0,109.66,102.58,0,0,59.05,8.32,67.48,55.45,0,0,36.55-69.31,104.04-69.31,0,0,2.81-22.18,50.61-36.04,0,0,16.87-38.81,44.99-47.13,0,0,8.44-63.76-50.61-80.4,0,0-30.93-22.18-70.3-15.25,0,0,56.24-43.9,25.31-75.31,0,0,75.92-70.18-11.25-115.95,0,0-75.5-68.01-154.44-9.76,0,0-48.01-11.06-14.27-66.5,0,0-44.99,15.12-67.48,43.6,0,0-11.25-38.05-50.61-24.19,0,0-14.06,41.63-73.11,56.86,0,0,5.62,18-14.06,29.08,0,0,56.24,8.32,56.24,36.04,0,0,70.3,16.63,59.05,66.54,0,0-14.06,77.62-115.29,58.22,0,0-5.62,58.22-42.18,77.62,0,0,59.05,36.04,53.42,72.08Z"/>
        <path class="cls-5" d="M3572.44,561.97s32.3-48.52,74.51-26.36c0,0,19.66-27.72,42.2-24.94,0,0,33.68-55.43,101.18-49.88-46.4-22.16-87.15-1.42-87.15-1.42-40.76-5.49-49.21,26.36-49.21,26.36-40.76-8.34-50.59,16.67-50.59,16.67-28.11-13.89-40.76,12.47-40.76,12.47,0,0-19.73,26.29,9.83,47.1Z"/>
        <path class="cls-3" d="M3658.18,760.19s-42.17,16.63-47.79,44.36c0,0,87.17-27.72,137.78,11.09,0,0,42.18-49.9,106.85-36.04,0,0,44.99-41.58,101.23-41.58,0,0-28.12-67.08-126.53-44.63,0,0-50.61-46.85-88.57-30.22,0,0,1.41-36.04,63.27-41.58,0,0-14.06-49.9-67.48-47.13,0,0-70.3-16.63-98.41,47.13,0,0-14.1-24.91-46.41-5.53,0,0-10.99,0-20.7,6.07-4.59,2.87-8.89,7.08-11.6,13.31,0,0,47.78,11.1,64.65,41.6,0,0-78.73,11.09-98.41,72.08,0,0,78.71-33.27,132.15,11.09Z"/>
        <path class="cls-7" d="M383.36,1048.35c31.75-3.91,59.43,35.12,59.43,35.12,59.43-31.2,104.92,37.12,104.92,37.12,41.62-29.3,13.84-66.32,13.84-66.32,0,0-17.81-37.12-57.4-17.56,0,0-13.84-35.21-71.24-23.48,0,0-11.9-44.85-69.3-37.12,0,0-57.4-29.2-122.73,2,95.05-7.82,142.47,70.24,142.47,70.24Z"/>
        <path class="cls-8" d="M3338.06,1042.15s45.49-68.33,104.92-37.12c0,0,27.68-39.03,59.43-35.12,0,0,47.43-78.06,142.47-70.23-65.33-31.2-122.73-2-122.73-2-57.4-7.73-69.3,37.12-69.3,37.12-57.4-11.74-71.24,23.47-71.24,23.47-39.59-19.56-57.4,17.56-57.4,17.56,0,0-27.78,37.03,13.84,66.32Z"/>
      </g>
      <path class="cls-6" d="M4302.12,1334.99c11.2-51.77,41.24-59.16,41.24-59.16-117.67-44.32-183.73,48.05-183.73,48.05-60-29.55-112.45,25.89-112.45,25.89-74.99-25.89-153.76,37-153.76,37,30.04-96.16,142.49-81.32,142.49-81.32,22.48-40.66,82.48-48.11,82.48-48.11,11.27-73.87,82.48-114.53,82.48-114.53-71.21-59.16-149.98,0-149.98,0-157.47-66.55-221.19,55.43-221.19,55.43-78.7-11.11-131.21,81.32-131.21,81.32-134.99-33.27-194.93,73.93-194.93,73.93-26.26-59.16-78.77-62.89-78.77-62.89-22.48-81.32-146.2-110.87-146.2-110.87-2.08-12.3-6.35-22.63-11.92-31.32,84.82-1.19,150.87,14.81,150.87,14.81,36.43-38.29,109.12-16.73,109.12-16.73,60.6-47.84,208.38-28.65,208.38-28.65-50.92-35.92-128.4-40.65-128.4-40.65-82.46-59.75-196.29-35.83-196.29-35.83-33.94-28.65-94.55,0-94.55,0-96.95-38.29-174.52,0-174.52,0-5.84-2.27-12.2-4.13-18.93-5.67-13.59-5.72-23.7-8.43-23.7-8.43-1.16,1.39-2.4,2.75-3.69,4.1-69.62-6.96-157.26,10-157.26,10,14.57-23.92,50.92-33.47,50.92-33.47-22.75-10.21-53-11.7-80.2-10.06,33.54-69.62-31.92-126.77-31.92-126.77-39.38-44.32-101.24,0-101.24,0-33.75-38.76-87.15,0-87.15,0-78.77-49.88-163.11-11.05-163.11-11.05,8.45-69.33,84.34-74.88,84.34-74.88,5.64-36.05,64.68-63.77,64.68-63.77-47.77-47.1-109.63-19.38-109.63-19.38-28.11-30.5-84.34,0-84.34,0-25.29-63.77-115.34-69.33-115.34-69.33,95.61-41.54,132.18-116.42,132.18-116.42-8.45-44.32-73.13-38.83-73.13-38.83-28.11-35.98-89.97-2.78-89.97-2.78-11.2-80.37,47.84-119.2,47.84-119.2-9.42-16.54-25.43-22.97-41.86-24.67,0,0-5.98-30.77-41.58-32.6,0,0,33.75-20.33,74.99,0,0,0,29.97-11.11,56.22,0,0,0,33.75-42.49,86.26-33.27,0,0-9.42-57.26,56.22-59.16,0,0-7.49-48.05-60-46.22,0,0-13.13-62.82-76.84-53.54,0,0-50.59-3.73-54.37,38.76,0,0,20.62-19.25,54.37-17.96,33.75,1.36,50.59,30.9,50.59,30.9,0,0-99.32-20.33-149.91,29.61,0,0,16.84-38.83,33.75-44.39,0,0-61.86,7.39-88.12,35.1,0,0,12.72-43.64,61.86-51.23,0,0-11.27-52.25-61.86-31.92,0,0-39.38-11.11-67.5,14.77,0,0,1.85-9.92.49-19.93,0-.02,0-.04,0-.06-.69.49-1.34,1.03-1.98,1.56-.66.55-1.29,1.12-1.91,1.71-.6.58-1.18,1.16-1.74,1.77-.47.52-.93,1.04-1.36,1.58-.51.63-.99,1.28-1.46,1.93-.62.86-1.2,1.73-1.75,2.62-.35.57-.71,1.14-1.03,1.72-.35.62-.69,1.24-1.01,1.86-.3.59-.58,1.18-.86,1.76-.45.96-.87,1.91-1.25,2.84-.22.54-.44,1.07-.64,1.59-.22.57-.42,1.14-.62,1.69-.2.58-.38,1.13-.55,1.68-.24.74-.45,1.44-.64,2.11-.14.5-.28.99-.4,1.45-.1.39-.19.76-.28,1.11-.12.51-.23.99-.32,1.41-.07.32-.13.61-.18.87-.07.36-.14.71-.18.96-.02.13-.05.26-.06.35-.02.15-.06.36-.06.36,0,0-26.74-5.56-26.74,23.58s37.94,60.99,37.94,60.99c-12.65,27.72,9.9,58.21,9.9,58.21-21.1-8.34-40.83,5.56-40.83,5.56,0,0-22.48,16.13-33.68,27.24,0,0-11.13-24.04-35.58-41.05,0,0-.02-.01-.03-.02-.08.04-.13.09-.21.12-1.71.82-3.25,1.73-4.65,2.69-.29.2-.54.41-.82.61-1.07.78-2.06,1.59-2.96,2.42-.3.28-.61.55-.89.83-1.02,1.01-1.96,2.02-2.75,3.03-.04.05-.07.1-.11.15-.76.98-1.4,1.94-1.98,2.86-.19.3-.36.59-.52.89-.41.72-.78,1.41-1.09,2.06-.1.2-.21.41-.3.6-.36.79-.65,1.51-.87,2.12-.07.18-.11.33-.17.49-.14.43-.27.83-.35,1.11-.03.11-.07.23-.09.32-.05.21-.11.43-.11.43-3.47-.69-6.88-1.26-10.23-1.74-1.37-.2-2.68-.33-4.03-.49-2.06-.25-4.13-.52-6.14-.7-1.1-.1-2.15-.16-3.24-.24-2.22-.17-4.44-.33-6.58-.42-.9-.04-1.76-.05-2.65-.08-2.17-.06-4.31-.11-6.39-.11-.34,0-.7-.02-1.03-.02,0,0,.08.03.09.03.94.31,57.21,18.91,70.71,54.59-43.71,6.03-62.68,37.88-64.2,40.46.34-2.64,3.3-30.56-42.2-35.85-47.84-5.56-45.02,41.61-45.02,41.61-44.95-22.23-106.81,24.94-106.81,24.94-33.75-19.38-106.88,13.82-106.88,13.82,42.2-8.27,61.86,33.27,61.86,33.27,84.34,22.23,59.04,77.66,59.04,77.66,61.86-5.56,81.59,60.99,81.59,60.99-39.38-22.16-108.74,16.6-108.74,16.6-46.88-36.05-102.21,0-102.21,0-8.39-47.1-59.04-47.1-59.04-47.1-44.95-8.33-53.41,47.1-53.41,47.1-33.06-32.6-87.64-1.36-89.9-.07,11.27-33.21,42.13-33.21,42.13-33.21-2.82-27.72,25.29-44.32,25.29-44.32-19.73-33.27-67.5-27.72-67.5-27.72-41.31-35.31-104.2-1.49-106.81-.07,39.38-69.26,123.65-33.21,123.65-33.21,16.91-33.27,75.95-33.27,75.95-33.27,14.02-91.49,112.45-69.33,112.45-69.33,36.57-33.27,2.82-63.77,2.82-63.77-16.84-58.21-87.15-55.43-87.15-55.43,19.66-58.21,104.06-55.43,104.06-55.43-25.36-41.61-78.77-22.16-78.77-22.16-61.86-19.45-87.15,51.71-87.15,51.71-15.95-45.27-67.5-33.27-67.5-33.27-16.22-22.43-37.53-20.47-52.58-14.77-2.47,3.93-3.64,6.51-3.64,6.51-2.54-1.49-4.81-1.97-6.74-1.69-5.29.47-8.25,5.35-8.25,5.35-29.07-44.39-103.44-21.08-103.44-21.08-3.71,6.78-5.29,11.86-5.29,11.86-73.13,12.94-71.21,94.26-71.21,94.26-120.01,40.66-78.77,173.69-78.77,173.69-16.84,44.39,31.89,55.5,31.89,55.5-11.27,14.77,3.71,23.99,3.71,23.99-26.19,27.72,18.76,44.39,18.76,44.39-26.26-7.39-26.26,14.77-26.26,14.77-11.2-22.16-35.6-16.81-35.6-16.81-20.62-22.36-35.6.14-35.6.14-54.37-3.66-54.37,49.94-54.37,49.94-41.24,7.39-31.89,48.05-31.89,48.05-43.1-18.5-50.59,14.77-50.59,14.77-33.75-18.5-37.46,11.11-37.46,11.11-43.16-7.39-60,38.76-60,38.76-46.19,13.82-43.23,44.12-38.84,58.55-5.77-10.23-16.43-14.71-25.71-16.6l28.94,24.6s46.81-1.83,69.35,20.33c0,0,80.56,1.83,101.18,40.66,0,0,16.91-35.1,52.51-36.93,35.6-1.9,60,20.33,60,20.33,0,0,43.1-31.44,84.34-14.77,0,0,67.5-12.94,84.34,31.38,0,0,176.23-46.22,318.72,0,0,0,43.1-11.05,82.48,16.67,0,0,48.73-22.23,103.1,0,0,0-65.64,0-101.25,22.16,0,0-67.5-22.16-99.32,0,0,0-67.5,0-116.23,11.11,0,0-86.26-22.23-153.76,0,0,0,11.27,12.88,13.13,35.1,0,0,28.11,5.56,43.1,22.16,0,0-73.06-18.5-114.3,0,0,0,28.11,7.39,39.38,25.89,0,0-105.03-20.33-157.47,0,0,0-60-29.61-134.99,0,0,0-46.88-22.16-73.13,0,0,0-88.05-18.5-151.83,27.72,0,0-59.94,3.66-99.32,31.44,0,0,114.3-14.84,161.18,22.16,0,0,56.22-16.67,84.4,12.94,0,0,106.81-25.89,209.91,0,0,0,106.88-20.33,193.07,0,0,0,16.91-18.5,46.88-18.5,0,0-39.52-32.39-116.3-26.36,1.58-.14,4.26-.41,7.77-.75,31.07-2.78,129.91-9.62,172.25,10.5,0,0,60-3.73,97.46,20.33,0,0-59.94,0-88.05,14.77,0,0,86.19-5.56,112.45,25.89,0,0-69.35-5.56-127.5,0,0,0-35.6-29.61-80.56-12.94,0,0,24.33,1.83,48.73,40.66,0,0-54.37,1.83-84.34,14.77,0,0-35.67-35.1-84.4-16.67,0,0-100.28-45.27-178.98,16.67,0,0-202.49-18.5-284.01,45.27,0,0-177.13,16.6-224.97,66.55,0,0,104.06,8.34,140.63,60.99,0,0,47.77-13.89,64.68,24.94,0,0,95.54-13.89,129.29,30.5,0,0,140.63-11.11,191.22,33.27,0,0,54.37-24.94,94.65,0,0,0,20.62-41.61,48.8-44.39,0,0-101.24-60.99-160.29-47.1,0,0-67.5-38.83-123.72-33.27,0,0,174.31-36.05,269.92,33.27,0,0,59.04-27.72,137.81,0,0,0,22.48-24.94,81.52-22.16,59.04,2.78,87.15,44.32,87.15,44.32,0,0-89.97-2.78-134.99,36.05,0,0,56.29,2.78,78.77,33.27,0,0-53.41,13.82-67.5,49.88,0,0-67.5-19.38-92.79,0,0,0,42.2,30.5,50.59,66.55,0,0-101.18-36.05-160.22,0,0,0-53.47-22.16-78.77,11.11,0,0-87.15-16.67-126.54,47.1,0,0-118.08-36.05-193.97,33.27,0,0-98.43-2.78-146.27,52.65,0,0-30.93-22.16-78.7,19.45,0,0-25.29-11.11-45.02,11.05L0,1712.18v95.96h4460.96v-458.38c-81.11-77.59-158.84-14.77-158.84-14.77ZM1307.49,1261.98s-59.05-58.3-191.2-37.47c0,0-53.43-9.66-75.92,15.29,0,0-39.37-49.9-115.29-30.5,0,0,101.23-41.58,191.21-11.09,0,0,123.72,0,191.2,30.5,0,0,112.47-8.32,143.4,13.86,0,0-106.85-11.09-143.4,19.41ZM1848.32,1084.55s-24.86-30.5-65.63-24.95c0,0,44.09-22.18,65.63,0,0,0,77.78-8.32,112.92,11.09,0,0-93.69-5.54-112.92,13.86ZM2167.38,1120.59s-10.72-77.59-131.63-44.34c0,0,11.25-36.37,73.11-26.51,0,0,64.67-28.92,106.85,26.51,0,0-40.43,13.84-48.33,44.34ZM2856.6,1100.26c-13.71,1.08-26.35,1.85-37.39,2.4,12.12-1.23,24.74-1.99,37.39-2.4ZM2605.16,1170.49s-46.4-22.18-102.63,0c0,0,50.61-33.27,87.17-16.63,0,0,36.55-37.04,118.1-4.66,0,0-75.92-11.98-102.63,21.29Z"/>
    </g>
  </g>
</svg>