<svg width="1622" height="658" viewBox="0 0 1622 658" fill="none" xmlns="http://www.w3.org/2000/svg">
<g opacity="0.3" clip-path="url(#clip0_2318_256)">
<path d="M634.56 314.986C620.242 304.898 604.571 308.919 604.571 308.919C552.761 292.099 488.684 308.919 488.684 308.919C482.561 292.791 458.019 297.5 458.019 297.5C443.024 291.433 427.353 302.875 427.353 302.875C427.353 302.875 418.481 294.785 405.537 295.476C392.593 296.142 386.444 308.916 386.444 308.916C378.947 294.785 349.655 294.119 349.655 294.119C341.46 286.055 324.44 286.721 324.44 286.721L313.917 277.769C310.394 277.03 307.394 277.299 307.394 277.299C291.723 261.171 278.081 276.633 278.081 276.633C269.907 267.212 261.737 275.301 261.737 275.301C257.639 271.258 253.541 274.61 253.541 274.61C230.373 265.88 217.429 286.717 217.429 286.717C211.982 282.696 205.157 289.406 205.157 289.406C199.711 283.366 193.562 289.406 193.562 289.406C184.014 293.449 193.562 308.246 193.562 308.246C169.721 300.182 154.024 318.334 154.024 318.334C139.03 316.976 137.681 329.087 137.681 329.087C110.414 320.357 97.6447 332.639 97.6447 332.639C84.2243 330.172 69.8549 340.579 69.055 341.173C73.1018 335.623 65.4299 330.099 65.4299 330.099C72.0765 325.561 67.4806 320.532 67.4806 320.532C55.7109 310.939 37.3164 320.532 37.3164 320.532C29.1427 315.994 23.5215 320.532 23.5215 320.532C20.4491 307.413 0.00390625 301.863 0.00390625 301.863V623.075L208.557 617.624C215.731 609.56 224.926 613.603 224.926 613.603C242.295 598.461 253.541 606.525 253.541 606.525C270.936 586.353 306.725 587.361 306.725 587.361C334.315 562.131 377.252 575.254 377.252 575.254C391.571 552.047 423.262 558.114 423.262 558.114C432.457 546.007 451.903 554.071 451.903 554.071C473.37 540.952 510.159 554.071 510.159 554.071C507.108 540.952 491.764 529.853 491.764 529.853C500.96 522.8 525.502 529.853 525.502 529.853C530.626 516.734 550.045 511.701 550.045 511.701C541.872 500.602 521.405 499.593 521.405 499.593C537.774 485.463 570.487 486.475 570.487 486.475C570.487 486.475 560.266 471.358 538.799 470.346C517.332 469.334 509.159 478.41 509.159 478.41C480.518 468.323 459.051 478.41 459.051 478.41C424.287 453.18 360.909 466.303 360.909 466.303C381.35 464.28 405.893 478.41 405.893 478.41C427.36 473.356 464.174 495.55 464.174 495.55C453.928 496.562 446.431 511.704 446.431 511.704C431.785 502.629 412.016 511.704 412.016 511.704C393.622 495.55 342.489 499.597 342.489 499.597C330.217 483.443 295.479 488.498 295.479 488.498C289.33 474.367 271.961 479.422 271.961 479.422C258.665 460.258 220.828 457.227 220.828 457.227C238.223 439.053 302.627 433.009 302.627 433.009C332.268 409.802 405.893 416.535 405.893 416.535C434.508 393.994 470.97 410.468 470.97 410.468C488.688 403.761 501.658 416.535 501.658 416.535C512.555 411.826 532.324 411.16 532.324 411.16C523.452 397.029 514.605 396.363 514.605 396.363C530.949 390.297 543.897 401.072 543.897 401.072C565.04 399.049 590.256 401.072 590.256 401.072C580.708 389.631 549.369 391.651 549.369 391.651C559.59 386.276 581.384 386.276 581.384 386.276C567.764 377.52 545.948 378.877 545.948 378.877C530.553 371.552 494.615 374.045 483.318 375.056C482.041 375.18 481.067 375.278 480.493 375.329C508.41 373.135 522.779 384.922 522.779 384.922C511.882 384.922 505.734 391.654 505.734 391.654C474.395 384.256 435.534 391.654 435.534 391.654C398.046 382.233 359.211 391.654 359.211 391.654C348.964 380.879 328.523 386.945 328.523 386.945C311.477 373.481 269.918 378.881 269.918 378.881C284.236 368.772 306.031 367.44 306.031 367.44C329.221 350.62 361.236 357.352 361.236 357.352C370.784 349.288 387.826 357.352 387.826 357.352C415.092 346.577 436.908 357.352 436.908 357.352C455.975 349.954 494.164 357.352 494.164 357.352C490.066 350.62 479.845 347.93 479.845 347.93C494.84 341.198 521.405 347.93 521.405 347.93C515.958 341.89 505.734 339.866 505.734 339.866C505.057 331.776 500.96 327.093 500.96 327.093C525.502 319.003 556.867 327.093 556.867 327.093C574.585 323.05 599.128 323.05 599.128 323.05C610.697 314.986 635.24 323.05 635.24 323.05C648.184 314.986 672.051 314.986 672.051 314.986C652.282 306.896 634.564 314.986 634.564 314.986H634.56Z" fill="#F6D78A"/>
<path d="M1609.91 203C1605.48 198.957 1595.41 206.009 1595.41 206.009C1584.16 198.462 1575.49 207.021 1575.49 207.021C1547.38 201.471 1526.41 215.111 1526.41 215.111C1510.56 206.009 1502.79 219.132 1502.79 219.132C1507.27 206.013 1499.82 198.465 1499.82 198.465C1499.82 198.465 1506.47 190.376 1499.82 185.838C1493.2 181.3 1488.57 191.904 1488.57 191.904C1477.33 185.343 1455.86 192.916 1455.86 192.916C1455.86 184.335 1447.41 183.814 1447.41 183.814C1448.14 176.267 1436.44 167.169 1436.44 167.169C1436.44 167.169 1450.76 166.674 1446.67 152.052C1442.59 137.427 1396.58 149.538 1396.58 149.538C1375.12 148.009 1378.16 167.689 1378.16 167.689C1361.29 159.625 1346.48 167.173 1346.48 167.173C1331.66 165.175 1328.58 176.765 1328.58 176.765C1313.76 173.73 1310.19 182.832 1310.19 182.832C1299.97 177.777 1295.37 187.37 1295.37 187.37C1295.37 187.37 1288.19 196.937 1298.94 204.51C1309.67 212.079 1306.09 224.19 1306.09 224.19C1303.32 223.273 1300.66 224.638 1298.56 226.399C1296.03 228.528 1294.35 231.243 1294.35 231.243C1294.84 222.167 1285.15 224.681 1285.15 224.681C1279.53 215.605 1261.11 222.658 1261.11 222.658C1259.68 211.337 1236.22 206.602 1233.29 206.06C1245.52 207.934 1260.61 201.992 1260.61 201.992C1272.88 200.463 1274.91 188.378 1274.91 188.378C1281.56 179.797 1270.84 175.75 1270.84 175.75C1268.79 169.189 1261.64 170.597 1261.64 170.597C1259.07 157.897 1241.7 160.633 1241.7 160.633C1233.52 154.072 1221.26 157.598 1221.26 157.598C1219.21 148.006 1212.56 150.52 1212.56 150.52C1207.44 142.456 1198.24 148.006 1198.24 148.006C1190.57 140.953 1179.32 149.534 1179.32 149.534C1176.77 137.918 1162.45 140.778 1162.45 140.778C1158.38 135.058 1152.86 136.906 1152.86 136.906C1158.58 126.327 1152.76 115.723 1152.76 115.723C1154.28 94.54 1138.96 95.0313 1138.96 95.0313C1132.32 86.4721 1124.12 89.4816 1124.12 89.4816C1122.09 78.9028 1104.2 71.3298 1104.2 71.3298C1086.31 60.2305 1074.03 73.3531 1074.03 73.3531C1074.03 73.3531 1071.98 65.2889 1057.67 63.2656C1043.37 61.2422 1036.2 72.3415 1036.2 72.3415C1028.03 65.7802 1015.26 70.3181 1015.26 70.3181C1014.23 57.7159 1004.01 54.1896 1004.01 54.1896C994.287 42.0824 984.568 52.6612 984.568 52.6612C980.496 46.0999 964.126 44.597 964.126 44.597C962.076 38.5561 956.454 31.478 945.208 29.9714C933.962 28.443 931.911 35.5211 931.911 35.5211C925.29 27.4568 918.116 33.0064 918.116 33.0064C904.82 18.3591 891.025 26.4451 891.025 26.4451C885.4 20.3788 875.179 21.9072 875.179 21.9072C869.056 15.8408 865.456 22.8934 865.456 22.8934C858.508 25.8047 858.384 32.8572 858.857 36.6055C856.785 30.5646 849.109 28.9598 849.109 28.9598C841.437 20.3788 832.74 28.443 832.74 28.443C820.996 26.9401 816.894 31.478 816.894 31.478C815.992 31.1905 815.153 31.0013 814.334 30.8594C814.167 30.8303 814 30.8012 813.836 30.7793C812.244 30.5464 810.811 30.5719 809.528 30.8012C809.389 30.8266 809.251 30.8521 809.117 30.8812C808.502 31.0122 807.913 31.1796 807.364 31.398C807.31 31.4198 807.262 31.4489 807.208 31.4744C806.739 31.6709 806.303 31.9038 805.881 32.1549C805.703 32.2641 805.521 32.3732 805.35 32.4897C805.284 32.5334 805.212 32.5698 805.146 32.6171C804.892 32.7954 804.659 32.9919 804.426 33.1848C804.186 33.3849 803.957 33.5923 803.732 33.807C803.514 34.0181 803.303 34.2292 803.099 34.4512C802.928 34.6404 802.761 34.8296 802.605 35.0261C802.419 35.2554 802.245 35.4919 802.074 35.7285C801.848 36.0415 801.638 36.3581 801.438 36.6819C801.31 36.8894 801.179 37.0968 801.063 37.3079C800.936 37.5335 800.812 37.7591 800.696 37.9847C800.587 38.1994 800.485 38.4141 800.383 38.6252C800.22 38.9746 800.067 39.3203 799.929 39.6587C799.849 39.8552 799.769 40.0481 799.696 40.2373C799.616 40.4448 799.543 40.6522 799.471 40.8523C799.398 41.0634 799.332 41.2636 799.271 41.4637C799.187 41.733 799.107 41.9877 799.038 42.2316C798.987 42.4135 798.936 42.5918 798.892 42.7592C798.856 42.9012 798.823 43.0358 798.791 43.1632C798.747 43.3488 798.707 43.5234 798.674 43.6763C798.649 43.7927 798.627 43.8983 798.609 43.9929C798.583 44.1239 798.558 44.2513 798.543 44.3422C798.536 44.3895 798.525 44.4369 798.522 44.4696C798.514 44.5242 798.5 44.6006 798.5 44.6006C798.5 44.6006 788.777 42.5773 788.777 53.1816C788.777 63.7859 802.572 75.3765 802.572 75.3765C797.973 85.4641 806.172 96.5597 806.172 96.5597C798.5 93.5247 791.326 98.583 791.326 98.583C791.326 98.583 791.319 98.5539 791.308 98.5139C791.308 98.5029 791.297 98.4775 791.293 98.4629C791.282 98.4229 791.264 98.3719 791.242 98.3101C791.231 98.2773 791.213 98.2373 791.199 98.2009C791.173 98.139 791.14 98.0699 791.104 97.9935C791.079 97.9425 791.05 97.8843 791.017 97.8297C790.977 97.7533 790.926 97.6732 790.871 97.5859C790.828 97.5168 790.777 97.4403 790.726 97.3639C790.671 97.2838 790.602 97.1965 790.537 97.1128C790.464 97.0218 790.391 96.9309 790.308 96.8326C790.242 96.7598 790.162 96.6798 790.09 96.6033C789.977 96.4869 789.868 96.3704 789.733 96.2467C789.704 96.2212 789.668 96.1958 789.642 96.1703C789.228 95.7991 788.726 95.4134 788.083 95.0276C787.501 94.6892 786.806 94.3507 785.999 94.0269C785.854 93.9686 785.69 93.9104 785.534 93.8558C785.272 93.7576 785.003 93.6629 784.719 93.5683C784.468 93.4846 784.199 93.4082 783.927 93.3281C783.701 93.2626 783.472 93.1971 783.232 93.1353C782.916 93.0516 782.589 92.9752 782.247 92.8951C782.007 92.8405 781.756 92.7896 781.505 92.7386C781.145 92.6658 780.782 92.5967 780.393 92.5312C780.091 92.4802 779.767 92.4366 779.447 92.3893C779.076 92.3347 778.716 92.2801 778.32 92.2328C777.589 92.1491 776.826 92.0727 776.011 92.0144C775 91.9453 774.059 91.938 773.164 91.9708C772.935 91.978 772.724 92.0035 772.502 92.0181C771.859 92.0617 771.241 92.12 770.659 92.2109C770.419 92.2473 770.186 92.291 769.957 92.3383C769.43 92.4402 768.925 92.5603 768.448 92.6986C768.245 92.7568 768.037 92.815 767.841 92.8805C767.339 93.0479 766.87 93.2335 766.427 93.4337C766.336 93.4737 766.23 93.5028 766.143 93.5465C766.114 93.561 766.096 93.5792 766.067 93.5902C765.445 93.8886 764.885 94.2197 764.376 94.5691C764.271 94.6419 764.18 94.7183 764.078 94.7911C763.689 95.0749 763.329 95.3697 763.002 95.6717C762.892 95.7736 762.78 95.8719 762.678 95.9738C762.307 96.3413 761.965 96.7089 761.678 97.0764C761.664 97.0946 761.653 97.1128 761.638 97.131C761.362 97.4876 761.129 97.837 760.918 98.1718C760.849 98.281 760.787 98.3865 760.729 98.4957C760.58 98.7577 760.445 99.0088 760.333 99.2453C760.296 99.3181 760.256 99.3945 760.224 99.4637C760.093 99.7512 759.987 100.013 759.907 100.235C759.882 100.301 759.867 100.355 759.846 100.413C759.795 100.57 759.747 100.716 759.718 100.817C759.707 100.857 759.693 100.901 759.686 100.934C759.667 101.01 759.646 101.09 759.646 101.09C758.384 100.839 757.144 100.632 755.926 100.457C755.428 100.384 754.951 100.337 754.461 100.279C753.712 100.188 752.959 100.09 752.228 100.024C751.828 99.9877 751.446 99.9659 751.05 99.9367C750.243 99.8749 749.436 99.8167 748.658 99.7839C748.33 99.7694 748.018 99.7657 747.694 99.7548C746.905 99.733 746.127 99.7148 745.371 99.7148C745.247 99.7148 745.116 99.7075 744.996 99.7075C744.647 99.7075 744.309 99.722 743.967 99.733C743.265 99.7475 742.582 99.773 741.913 99.8094C741.52 99.8276 741.12 99.8458 740.735 99.8712C740.24 99.904 739.76 99.9477 739.28 99.9877C739.004 100.013 738.728 100.035 738.459 100.064C738 100.111 737.542 100.159 737.102 100.21C736.83 100.242 736.572 100.279 736.306 100.312C735.644 100.399 735.004 100.49 734.39 100.588C734.045 100.643 733.692 100.697 733.365 100.756C733.092 100.803 732.826 100.854 732.565 100.901C732.139 100.981 731.721 101.065 731.325 101.149C731.187 101.178 731.045 101.207 730.914 101.236C727.234 102.029 724.951 102.874 724.478 103.063C738.673 95.4934 732.55 85.4531 732.55 85.4531C739.197 80.3984 732.052 75.3656 732.052 75.3656C736.652 72.3306 736.124 63.2583 736.124 63.2583C736.124 63.2583 745.847 58.7203 744.822 44.5897C743.796 30.4591 725.904 21.8999 725.904 21.8999C725.904 21.8999 728.478 6.75763 712.607 1.208C696.761 -4.34162 689.613 10.8007 689.613 10.8007C674.269 6.23723 668.644 16.3503 668.644 16.3503C668.644 16.3503 669.669 6.24087 655.874 4.73429C642.079 3.23134 642.08 19.3598 642.08 19.3598C634.906 17.8569 630.31 23.4029 630.31 23.4029C630.31 23.4029 631.335 15.3386 616.013 12.3036C600.669 9.2686 598.619 26.9291 598.619 26.9291C597.648 27.2094 596.764 27.5405 595.961 27.919C595.561 28.1082 595.233 28.3338 594.87 28.5449C594.503 28.756 594.106 28.9489 593.779 29.1818C593.408 29.4438 593.106 29.7385 592.783 30.0224C592.532 30.2407 592.256 30.4445 592.03 30.6738C591.728 30.9831 591.485 31.3215 591.227 31.6491C591.045 31.882 590.838 32.1039 590.674 32.3478C590.441 32.6935 590.263 33.0538 590.07 33.414C589.936 33.6651 589.783 33.9053 589.67 34.16C589.507 34.5276 589.379 34.9024 589.249 35.2809C589.158 35.5429 589.049 35.8013 588.976 36.0669C588.87 36.4418 588.794 36.8239 588.718 37.2023C588.663 37.4753 588.594 37.7482 588.55 38.0248C588.492 38.3959 588.46 38.7671 588.427 39.1383C588.401 39.4185 588.365 39.7024 588.354 39.9826C588.336 40.3392 588.34 40.6886 588.34 41.0416C588.34 41.3291 588.336 41.6202 588.347 41.904C588.358 42.2316 588.383 42.5482 588.409 42.8648C588.43 43.1595 588.452 43.4543 588.481 43.7381C588.514 44.022 588.55 44.2913 588.59 44.5606C588.634 44.8626 588.674 45.1647 588.725 45.4485C588.765 45.6705 588.805 45.8816 588.845 46.0963C588.903 46.402 588.965 46.7077 589.027 46.9842C589.06 47.1371 589.096 47.2754 589.129 47.4209C589.205 47.7339 589.281 48.0432 589.354 48.3125C589.369 48.3707 589.387 48.4253 589.401 48.4799C589.641 49.3278 589.845 49.9246 589.903 50.0847L589.928 50.1357C580.733 46.0926 574.857 49.8882 574.857 49.8882C572.309 43.8218 565.135 44.5606 565.135 44.5606C557.212 42.2679 553.638 49.6408 553.638 49.6408C545.817 52.1081 541.192 57.8033 539.119 61.0603C544.591 58.9896 552.34 58.2727 558.237 66.4352C558.237 66.4352 576.981 62.0719 582.78 78.5425C582.78 78.5425 591.976 52.6467 614.468 59.7247C614.468 59.7247 633.888 52.6467 643.108 67.789C643.108 67.789 612.417 66.7773 605.272 87.9605C605.272 87.9605 630.837 86.9488 636.96 108.132C636.96 108.132 649.231 119.231 635.935 131.339C635.935 131.339 600.146 123.274 595.048 156.568C595.048 156.568 573.581 156.568 567.433 168.676C567.433 168.676 536.792 155.557 522.474 180.761C523.423 180.244 546.289 167.937 561.31 180.787C561.31 180.787 578.679 178.763 585.853 190.874C585.853 190.874 575.632 196.915 576.657 207.003C576.657 207.003 565.436 207.003 561.339 219.088C562.164 218.619 582.006 207.25 594.026 219.114C594.026 219.114 597.099 198.942 613.446 201.973C613.446 201.973 631.866 201.973 634.913 219.114C634.913 219.114 655.031 205.995 672.076 219.114C672.076 219.114 697.292 205.008 711.614 213.073C711.614 213.073 704.44 188.854 681.948 190.878C681.948 190.878 691.144 170.706 660.481 162.617C660.481 162.617 653.333 147.5 637.989 150.509C637.989 150.509 664.579 138.424 676.85 145.48C676.85 145.48 699.343 128.314 715.686 136.404C715.686 136.404 714.661 119.239 732.056 121.262C748.599 123.187 747.527 133.347 747.4 134.308C747.949 133.369 754.846 121.779 770.743 119.584C772.419 119.362 774.168 119.239 776.015 119.239C776.015 119.239 787.261 116.229 799.532 127.328C799.532 127.328 810.778 115.221 830.198 123.285C830.198 123.285 840.695 119.315 850.767 120.352C856.741 120.967 862.562 123.311 865.987 129.33C865.987 129.33 844.52 143.46 848.593 172.708C848.593 172.708 871.085 160.622 881.306 173.719C881.306 173.719 904.823 171.722 907.896 187.85C907.896 187.85 894.599 215.1 859.835 230.216C859.835 230.216 892.574 232.24 901.773 255.446C901.773 255.446 922.214 244.347 932.439 255.446C932.439 255.446 954.931 245.359 972.3 262.499C972.3 262.499 950.833 272.586 948.782 285.705C948.782 285.705 921.193 287.729 918.116 312.955C918.116 312.955 948.782 298.824 977.423 316.976C977.423 316.976 996.843 302.871 1009.11 316.976C1009.11 316.976 1031.6 300.848 1045.93 316.976C1045.93 316.976 1072.49 340.183 1055.12 367.432C1037.75 394.66 1009.11 401.734 1009.11 401.734C1009.11 401.734 1103.5 401.734 1126.69 373.819C1126.69 373.819 1158.03 382.229 1160.76 401.734C1160.76 401.734 1188.02 405.09 1192.12 429.304C1192.12 429.304 1237.11 440.058 1245.28 469.651C1245.28 469.651 1264.37 471.008 1273.92 492.537C1273.92 492.537 1295.71 453.523 1344.8 465.633C1344.8 465.633 1363.89 431.997 1392.5 436.04C1392.5 436.04 1415.67 391.651 1472.93 415.869C1472.93 415.869 1501.57 394.34 1527.46 415.869C1527.46 415.869 1501.57 430.665 1497.47 457.547C1497.47 457.547 1475.66 460.258 1467.48 475.055C1467.48 475.055 1426.59 469.655 1415.68 504.648C1415.68 504.648 1444.32 481.762 1471.58 491.184C1471.58 491.184 1490.65 471.012 1512.47 481.762C1512.47 481.762 1536.49 448.148 1579.27 464.276C1579.27 464.276 1568.35 466.965 1564.28 485.805C1564.28 485.805 1592.55 462.944 1622.03 491.18V204.492C1622.03 204.492 1614.36 207.006 1609.94 202.989L1609.91 203Z" fill="#F6D78A"/>
<path d="M672.048 385.599C664.216 377.527 648.185 385.599 648.185 385.599C663.008 383.583 672.048 394.678 672.048 394.678C679.04 387.615 713.105 389.634 713.105 389.634C700.325 382.571 672.048 385.599 672.048 385.599Z" fill="#F6D78A"/>
<path d="M766.783 382.011C744.291 378.423 740.2 391.658 740.2 391.658C784.163 379.558 788.061 407.794 788.061 407.794C790.933 396.695 805.633 391.658 805.633 391.658C790.297 371.487 766.783 382.011 766.783 382.011Z" fill="#F6D78A"/>
<path d="M941.609 419.901C928.319 413.849 909.914 425.953 909.914 425.953C930.363 417.881 947.23 425.953 947.23 425.953C956.942 413.845 984.546 418.205 984.546 418.205C954.899 406.422 941.605 419.901 941.605 419.901H941.609Z" fill="#F6D78A"/>
<path d="M475.402 447.139C450.867 436.04 405.882 436.04 405.882 436.04C373.166 424.941 336.358 440.076 336.358 440.076C363.963 433.012 378.278 451.175 378.278 451.175C386.455 442.096 405.882 445.611 405.882 445.611C453.935 438.027 475.402 459.247 475.402 459.247C488.692 448.147 527.542 452.183 527.542 452.183C516.296 444.112 475.402 447.139 475.402 447.139Z" fill="#F6D78A"/>
<path d="M532.32 64.7756C532.32 64.7756 530.945 45.27 514.602 44.6041C503.555 44.1601 497.483 51.9769 494.709 57.108C494.709 57.108 521.75 48.6253 532.32 64.7792V64.7756Z" fill="#F6D78A"/>
<path d="M588.379 42.8829C588.401 43.1777 588.423 43.4724 588.452 43.7563C588.485 44.0401 588.521 44.3094 588.561 44.5787C588.605 44.8808 588.645 45.1828 588.696 45.4667C588.736 45.6886 588.776 45.8997 588.816 46.1144C588.874 46.4201 588.936 46.7258 588.998 47.0024C589.03 47.1552 589.067 47.2935 589.099 47.439C589.176 47.752 589.252 48.0613 589.325 48.3306C589.339 48.3888 589.358 48.4434 589.372 48.498C589.612 49.3459 589.816 49.9427 589.874 50.1029L589.899 50.1538C589.899 50.1538 600.469 26.4051 631.837 44.5787C631.837 44.5787 653.631 42.5808 661.826 58.0434C661.826 58.0434 681.595 57.3774 687.718 72.84C687.718 72.84 700.662 80.2382 702.037 87.6365C702.037 87.6365 707.484 72.174 718.381 73.5314C718.381 73.5314 721.129 64.3317 728.601 63.815C728.601 63.815 731.325 44.6042 714.305 41.5692C714.305 41.5692 708.833 23.0716 689.762 29.138C689.762 29.138 681.239 25.4625 689.587 10.8152C674.243 6.25172 668.618 16.3648 668.618 16.3648C668.618 16.3648 669.644 6.25536 655.849 4.74878C642.054 3.24583 642.054 19.3743 642.054 19.3743C634.88 17.8714 630.284 23.4174 630.284 23.4174C630.284 23.4174 631.31 15.3531 615.988 12.3181C600.644 9.28309 598.593 26.9436 598.593 26.9436C597.622 27.2239 596.739 27.555 595.935 27.9335C595.535 28.1227 595.208 28.3483 594.844 28.5594C594.477 28.7705 594.081 28.9633 593.753 29.1962C593.383 29.4583 593.081 29.753 592.757 30.0369C592.506 30.2552 592.23 30.459 592.005 30.6883C591.703 30.9976 591.459 31.336 591.201 31.6636C591.019 31.8965 590.812 32.1184 590.648 32.3623C590.416 32.708 590.237 33.0682 590.045 33.4285C589.91 33.6796 589.758 33.9198 589.645 34.1745C589.481 34.5421 589.354 34.9169 589.223 35.2954C589.132 35.5574 589.023 35.8158 588.95 36.0814C588.845 36.4562 588.769 36.8383 588.692 37.2168C588.638 37.4897 588.569 37.7627 588.525 38.0393C588.467 38.4104 588.434 38.7816 588.401 39.1528C588.376 39.433 588.339 39.7169 588.329 39.9971C588.31 40.3537 588.314 40.7031 588.314 41.0561C588.314 41.3436 588.31 41.6347 588.321 41.9185C588.332 42.2461 588.358 42.5627 588.383 42.8793L588.379 42.8829Z" fill="url(#paint0_linear_2318_256)"/>
<path d="M985.572 222.163C985.572 222.163 996.818 197.952 1019.31 200.976C1019.31 200.976 1059.18 200.976 1059.18 238.306C1059.18 238.306 1080.65 241.334 1083.72 258.485C1083.72 258.485 1097.01 233.262 1121.55 233.262C1121.55 233.262 1122.57 225.191 1139.95 220.147C1139.95 220.147 1146.08 206.024 1156.31 202.996C1156.31 202.996 1159.38 179.793 1137.91 173.738C1137.91 173.738 1126.66 165.666 1112.34 168.188C1112.34 168.188 1132.79 152.212 1121.55 140.782C1121.55 140.782 1149.15 115.243 1117.46 98.5867C1117.46 98.5867 1090 73.8372 1061.3 95.035C1061.3 95.035 1043.85 91.0101 1056.11 70.835C1056.11 70.835 1039.76 76.3373 1031.58 86.7014C1031.58 86.7014 1027.49 72.8547 1013.18 77.8985C1013.18 77.8985 1008.06 93.048 986.593 98.5904C986.593 98.5904 988.637 105.141 981.481 109.173C981.481 109.173 1001.93 112.201 1001.93 122.288C1001.93 122.288 1027.49 128.34 1023.4 146.503C1023.4 146.503 1018.29 174.749 981.481 167.69C981.481 167.69 979.438 188.876 966.145 195.936C966.145 195.936 987.615 209.052 985.568 222.167L985.572 222.163Z" fill="url(#paint1_linear_2318_256)"/>
<path d="M1298.93 204.506C1298.93 204.506 1310.68 186.849 1326.03 194.913C1326.03 194.913 1333.17 184.826 1341.37 185.837C1341.37 185.837 1353.62 165.666 1378.16 167.686C1361.29 159.621 1346.47 167.169 1346.47 167.169C1331.65 165.171 1328.58 176.761 1328.58 176.761C1313.76 173.726 1310.18 182.828 1310.18 182.828C1299.96 177.773 1295.36 187.366 1295.36 187.366C1295.36 187.366 1288.19 196.933 1298.94 204.506H1298.93Z" fill="url(#paint2_linear_2318_256)"/>
<path d="M1330.11 276.641C1330.11 276.641 1314.78 282.692 1312.73 292.784C1312.73 292.784 1344.43 282.696 1362.83 296.819C1362.83 296.819 1378.17 278.66 1401.68 283.704C1401.68 283.704 1418.04 268.573 1438.49 268.573C1438.49 268.573 1428.26 244.162 1392.48 252.331C1392.48 252.331 1374.08 235.282 1360.28 241.334C1360.28 241.334 1360.79 228.219 1383.28 226.203C1383.28 226.203 1378.17 208.044 1358.75 209.052C1358.75 209.052 1333.19 203 1322.97 226.203C1322.97 226.203 1317.84 217.138 1306.09 224.19C1306.09 224.19 1302.1 224.19 1298.57 226.399C1296.9 227.444 1295.33 228.976 1294.35 231.243C1294.35 231.243 1311.72 235.282 1317.85 246.381C1317.85 246.381 1289.23 250.417 1282.07 272.612C1282.07 272.612 1310.69 260.505 1330.12 276.648L1330.11 276.641Z" fill="url(#paint3_linear_2318_256)"/>
<path d="M139.39 381.505C150.934 380.082 160.998 394.285 160.998 394.285C182.607 382.931 199.147 407.794 199.147 407.794C214.28 397.131 204.179 383.659 204.179 383.659C204.179 383.659 197.704 370.151 183.309 377.269C183.309 377.269 178.276 364.456 157.406 368.724C157.406 368.724 153.079 352.403 132.208 355.216C132.208 355.216 111.338 344.59 87.584 355.944C122.144 353.098 139.386 381.505 139.386 381.505H139.39Z" fill="url(#paint4_linear_2318_256)"/>
<path d="M1213.72 379.248C1213.72 379.248 1230.26 354.383 1251.86 365.74C1251.86 365.74 1261.93 351.537 1273.47 352.96C1273.47 352.96 1290.72 324.553 1325.27 327.402C1301.52 316.048 1280.65 326.674 1280.65 326.674C1259.78 323.861 1255.45 340.183 1255.45 340.183C1234.58 335.91 1229.55 348.724 1229.55 348.724C1215.16 341.606 1208.68 355.114 1208.68 355.114C1208.68 355.114 1198.58 368.59 1213.71 379.248H1213.72Z" fill="url(#paint5_linear_2318_256)"/>
<path d="M1564.25 485.816C1568.32 466.976 1579.24 464.287 1579.24 464.287C1536.46 448.159 1512.44 481.773 1512.44 481.773C1490.62 471.019 1471.55 491.195 1471.55 491.195C1444.28 481.773 1415.64 504.659 1415.64 504.659C1426.57 469.666 1467.45 475.066 1467.45 475.066C1475.63 460.269 1497.44 457.558 1497.44 457.558C1501.54 430.676 1527.43 415.88 1527.43 415.88C1501.54 394.351 1472.9 415.88 1472.9 415.88C1415.64 391.662 1392.47 436.051 1392.47 436.051C1363.86 432.008 1344.77 465.644 1344.77 465.644C1295.68 453.537 1273.89 492.548 1273.89 492.548C1264.34 471.019 1245.25 469.662 1245.25 469.662C1237.08 440.069 1192.09 429.315 1192.09 429.315C1191.34 424.839 1189.78 421.08 1187.76 417.918C1218.6 417.485 1242.61 423.307 1242.61 423.307C1255.86 409.373 1282.29 417.219 1282.29 417.219C1304.32 399.809 1358.06 406.793 1358.06 406.793C1339.54 393.721 1311.37 392 1311.37 392C1281.39 370.256 1240 378.961 1240 378.961C1227.66 368.535 1205.62 378.961 1205.62 378.961C1170.37 365.027 1142.17 378.961 1142.17 378.961C1140.04 378.135 1137.73 377.458 1135.28 376.898C1130.34 374.816 1126.67 373.83 1126.67 373.83C1126.24 374.336 1125.79 374.831 1125.32 375.322C1100.01 372.789 1068.14 378.961 1068.14 378.961C1073.44 370.256 1086.66 366.781 1086.66 366.781C1078.39 363.066 1067.39 362.523 1057.5 363.12C1069.69 337.785 1045.89 316.987 1045.89 316.987C1031.57 300.859 1009.08 316.987 1009.08 316.987C996.81 302.882 977.394 316.987 977.394 316.987C948.753 298.835 918.087 312.966 918.087 312.966C921.16 287.736 948.753 285.716 948.753 285.716C950.804 272.598 972.271 262.51 972.271 262.51C954.902 245.37 932.409 255.457 932.409 255.457C922.189 244.358 901.743 255.457 901.743 255.457C892.548 232.251 859.806 230.227 859.806 230.227C894.57 215.111 907.866 187.861 907.866 187.861C904.794 171.733 881.276 173.73 881.276 173.73C871.056 160.637 848.563 172.719 848.563 172.719C844.491 143.471 865.958 129.341 865.958 129.341C862.533 123.322 856.712 120.982 850.738 120.363C850.738 120.363 848.563 109.166 835.619 108.5C835.619 108.5 847.891 101.101 862.886 108.5C862.886 108.5 873.783 104.457 883.327 108.5C883.327 108.5 895.599 93.0371 914.691 96.3923C914.691 96.3923 911.266 75.5549 935.133 74.8634C935.133 74.8634 932.409 57.3776 913.317 58.0435C913.317 58.0435 908.543 35.1827 885.378 38.5598C885.378 38.5598 866.983 37.2024 865.609 52.6649C865.609 52.6649 873.106 45.6597 885.378 46.1291C897.649 46.624 903.772 57.3739 903.772 57.3739C903.772 57.3739 867.66 49.9756 849.265 68.1493C849.265 68.1493 855.388 54.0187 861.537 51.9953C861.537 51.9953 839.044 54.6846 829.496 64.7686C829.496 64.7686 834.121 48.8876 851.989 46.1255C851.989 46.1255 847.891 27.1112 829.496 34.5095C829.496 34.5095 815.178 30.4664 804.953 39.8844C804.953 39.8844 805.626 36.2744 805.132 32.6317C805.132 32.6244 805.132 32.6171 805.132 32.6099C804.881 32.7882 804.644 32.9847 804.412 33.1776C804.172 33.3777 803.943 33.5851 803.717 33.7998C803.499 34.0109 803.288 34.222 803.084 34.444C802.914 34.6332 802.746 34.8224 802.59 35.0189C802.405 35.2482 802.23 35.4848 802.059 35.7213C801.834 36.0343 801.623 36.3509 801.423 36.6747C801.296 36.8822 801.165 37.0896 801.048 37.3007C800.921 37.5263 800.798 37.7519 800.681 37.9775C800.572 38.1922 800.47 38.4069 800.368 38.618C800.205 38.9674 800.052 39.3131 799.914 39.6515C799.834 39.848 799.754 40.0409 799.681 40.2301C799.601 40.4376 799.528 40.645 799.456 40.8451C799.383 41.0562 799.318 41.2564 799.256 41.4565C799.169 41.7258 799.092 41.9805 799.023 42.2244C798.972 42.4063 798.921 42.5846 798.878 42.752C798.841 42.894 798.809 43.0286 798.776 43.156C798.732 43.3416 798.692 43.5162 798.659 43.6691C798.634 43.7855 798.612 43.8911 798.594 43.9857C798.569 44.1167 798.543 44.2441 798.529 44.335C798.521 44.3823 798.51 44.4297 798.507 44.4624C798.5 44.517 798.485 44.5934 798.485 44.5934C798.485 44.5934 788.762 42.5701 788.762 53.1744C788.762 63.7787 802.557 75.3693 802.557 75.3693C797.958 85.4569 806.157 96.5525 806.157 96.5525C798.485 93.5175 791.311 98.5758 791.311 98.5758C791.311 98.5758 783.137 104.446 779.065 108.489C779.065 108.489 775.018 99.7403 766.128 93.5502C766.128 93.5502 766.121 93.5466 766.117 93.5429C766.088 93.5575 766.07 93.5757 766.041 93.5866C765.419 93.885 764.859 94.2162 764.35 94.5655C764.245 94.6383 764.154 94.7147 764.052 94.7875C763.663 95.0714 763.303 95.3661 762.976 95.6682C762.867 95.7701 762.754 95.8683 762.652 95.9702C762.281 96.3378 761.94 96.7053 761.652 97.0729C761.638 97.0911 761.627 97.1092 761.612 97.1274C761.336 97.4841 761.103 97.8334 760.892 98.1682C760.823 98.2774 760.762 98.3829 760.703 98.4921C760.554 98.7541 760.42 99.0052 760.307 99.2418C760.271 99.3145 760.231 99.391 760.198 99.4601C760.067 99.7476 759.962 100.01 759.882 100.232C759.856 100.297 759.842 100.352 759.82 100.41C759.769 100.566 759.722 100.712 759.693 100.814C759.682 100.854 759.667 100.898 759.66 100.93C759.642 101.007 759.62 101.087 759.62 101.087C758.358 100.836 757.118 100.628 755.9 100.454C755.402 100.381 754.926 100.333 754.435 100.275C753.686 100.184 752.933 100.086 752.202 100.021C751.802 99.9841 751.421 99.9623 751.024 99.9332C750.217 99.8713 749.41 99.8131 748.632 99.7803C748.305 99.7658 747.992 99.7621 747.668 99.7512C746.879 99.7294 746.101 99.7112 745.345 99.7112C745.221 99.7112 745.09 99.7039 744.97 99.7039C744.97 99.7039 745 99.7148 745.003 99.7148C745.345 99.8277 765.805 106.596 770.713 119.581C754.82 121.775 747.923 133.366 747.37 134.304C747.494 133.344 748.57 123.183 732.026 121.258C714.632 119.235 715.657 136.401 715.657 136.401C699.313 128.311 676.821 145.477 676.821 145.477C664.55 138.424 637.96 150.506 637.96 150.506C653.304 147.496 660.452 162.613 660.452 162.613C691.118 170.703 681.919 190.874 681.919 190.874C704.411 188.851 711.585 213.069 711.585 213.069C697.266 205.005 672.047 219.11 672.047 219.11C655.002 205.991 634.884 219.11 634.884 219.11C631.833 201.97 613.417 201.97 613.417 201.97C597.073 198.939 593.997 219.11 593.997 219.11C581.976 207.247 562.131 218.615 561.309 219.085C565.407 206.999 576.628 206.999 576.628 206.999C575.602 196.912 585.823 190.871 585.823 190.871C578.649 178.763 561.28 180.783 561.28 180.783C546.26 167.933 523.393 180.241 522.444 180.758C536.763 155.553 567.403 168.672 567.403 168.672C573.552 156.565 595.019 156.565 595.019 156.565C600.116 123.271 635.905 131.335 635.905 131.335C649.202 119.228 636.931 108.128 636.931 108.128C630.808 86.9452 605.243 87.9569 605.243 87.9569C612.391 66.7737 643.079 67.7854 643.079 67.7854C633.858 52.6431 614.438 59.7211 614.438 59.7211C591.946 52.6431 582.751 78.5389 582.751 78.5389C576.951 62.0647 558.208 66.4316 558.208 66.4316C552.31 58.2691 544.562 58.9824 539.09 61.0567C538.192 62.4869 537.766 63.4257 537.766 63.4257C536.843 62.8835 536.017 62.7089 535.316 62.8107C533.392 62.9818 532.316 64.7577 532.316 64.7577C521.746 48.6037 494.705 57.0864 494.705 57.0864C493.356 59.5537 492.782 61.4024 492.782 61.4024C466.192 66.1114 466.89 95.7046 466.89 95.7046C423.255 110.501 438.249 158.912 438.249 158.912C432.126 175.066 449.845 179.109 449.845 179.109C445.747 184.484 451.194 187.839 451.194 187.839C441.671 197.927 458.015 203.993 458.015 203.993C448.467 201.304 448.467 209.368 448.467 209.368C444.394 201.304 435.522 203.251 435.522 203.251C428.025 195.114 422.578 203.302 422.578 203.302C402.809 201.97 402.809 221.475 402.809 221.475C387.815 224.165 391.214 238.961 391.214 238.961C375.543 232.229 372.82 244.336 372.82 244.336C360.548 237.604 359.199 248.379 359.199 248.379C343.506 245.69 337.383 262.484 337.383 262.484C320.589 267.514 321.665 278.54 323.261 283.791C321.163 280.069 317.287 278.438 313.913 277.75L324.436 286.703C324.436 286.703 341.456 286.037 349.651 294.101C349.651 294.101 378.943 294.767 386.44 308.898C386.44 308.898 392.589 296.124 405.533 295.458C418.477 294.767 427.349 302.857 427.349 302.857C427.349 302.857 443.02 291.415 458.015 297.482C458.015 297.482 482.558 292.773 488.681 308.901C488.681 308.901 552.758 292.081 604.567 308.901C604.567 308.901 620.238 304.88 634.556 314.968C634.556 314.968 652.275 306.878 672.043 314.968C672.043 314.968 648.177 314.968 635.229 323.032C635.229 323.032 610.686 314.968 599.116 323.032C599.116 323.032 574.574 323.032 556.855 327.075C556.855 327.075 525.491 318.985 500.948 327.075C500.948 327.075 505.046 331.762 505.722 339.848C505.722 339.848 515.943 341.871 521.393 347.912C521.393 347.912 494.829 341.18 479.834 347.912C479.834 347.912 490.055 350.602 494.153 357.334C494.153 357.334 455.964 349.936 436.897 357.334C436.897 357.334 415.081 346.559 387.815 357.334C387.815 357.334 370.769 349.27 361.225 357.334C361.225 357.334 329.21 350.602 306.019 367.422C306.019 367.422 284.225 368.753 269.907 378.863C269.907 378.863 311.466 373.462 328.512 386.927C328.512 386.927 348.953 380.861 359.199 391.636C359.199 391.636 398.035 382.214 435.522 391.636C435.522 391.636 474.384 384.238 505.722 391.636C505.722 391.636 511.871 384.904 522.768 384.904C522.768 384.904 508.398 373.117 480.481 375.311C481.056 375.26 482.03 375.162 483.307 375.038C494.604 374.026 530.542 371.537 545.936 378.859C545.936 378.859 567.752 377.502 581.373 386.258C581.373 386.258 559.579 386.257 549.358 391.632C549.358 391.632 580.697 389.609 590.245 401.054C590.245 401.054 565.029 399.031 543.886 401.054C543.886 401.054 530.942 390.279 514.594 396.345C514.594 396.345 523.441 397.011 532.312 411.142C532.312 411.142 512.544 411.808 501.646 416.517C501.646 416.517 488.677 403.743 470.959 410.45C470.959 410.45 434.497 393.976 405.882 416.517C405.882 416.517 332.257 409.784 302.616 432.991C302.616 432.991 238.212 439.032 220.817 457.209C220.817 457.209 258.653 460.244 271.95 479.404C271.95 479.404 289.319 474.349 295.468 488.48C295.468 488.48 330.206 483.425 342.477 499.579C342.477 499.579 393.61 495.536 412.005 511.686C412.005 511.686 431.774 502.61 446.419 511.686C446.419 511.686 453.917 496.544 464.163 495.532C464.163 495.532 427.352 473.337 405.882 478.392C405.882 478.392 381.339 464.262 360.897 466.285C360.897 466.285 424.276 453.166 459.04 478.392C459.04 478.392 480.507 468.305 509.148 478.392C509.148 478.392 517.321 469.316 538.788 470.328C560.255 471.34 570.476 486.456 570.476 486.456C570.476 486.456 537.763 485.445 521.393 499.575C521.393 499.575 541.861 500.587 550.034 511.683C550.034 511.683 530.614 516.712 525.491 529.834C525.491 529.834 500.948 522.782 491.753 529.834C491.753 529.834 507.097 540.934 510.147 554.053C510.147 554.053 473.358 540.934 451.892 554.053C451.892 554.053 432.45 545.988 423.251 558.096C423.251 558.096 391.563 552.029 377.241 575.236C377.241 575.236 334.307 562.117 306.714 587.343C306.714 587.343 270.925 586.331 253.53 606.503C253.53 606.503 242.284 598.439 224.915 613.581C224.915 613.581 215.72 609.538 208.546 617.602L0 623.079V658H1622V491.191C1592.51 462.955 1564.25 485.816 1564.25 485.816ZM475.402 459.247C475.402 459.247 453.931 438.031 405.882 445.611C405.882 445.611 386.455 442.096 378.277 451.175C378.277 451.175 363.962 433.016 336.358 440.076C336.358 440.076 373.165 424.945 405.882 436.04C405.882 436.04 450.866 436.04 475.402 447.14C475.402 447.14 516.296 444.112 527.542 452.183C527.542 452.183 488.691 448.148 475.402 459.247ZM672.047 394.678C672.047 394.678 663.008 383.579 648.184 385.599C648.184 385.599 664.215 377.527 672.047 385.599C672.047 385.599 700.328 382.571 713.105 389.635C713.105 389.635 679.039 387.619 672.047 394.678ZM788.057 407.794C788.057 407.794 784.159 379.558 740.196 391.658C740.196 391.658 744.287 378.422 766.779 382.011C766.779 382.011 790.293 371.486 805.63 391.658C805.63 391.658 790.929 396.694 788.057 407.794ZM1038.66 400.395C1033.67 400.788 1029.08 401.069 1025.06 401.269C1029.47 400.821 1034.06 400.545 1038.66 400.395ZM947.233 425.953C947.233 425.953 930.362 417.881 909.917 425.953C909.917 425.953 928.319 413.845 941.612 419.901C941.612 419.901 954.902 406.422 984.553 418.205C984.553 418.205 956.949 413.845 947.237 425.953H947.233Z" fill="url(#paint6_linear_2318_256)"/>
</g>
<defs>
<linearGradient id="paint0_linear_2318_256" x1="658.54" y1="283.293" x2="658.54" y2="793.269" gradientUnits="userSpaceOnUse">
<stop stop-color="#DCAD32"/>
<stop offset="1" stop-color="white"/>
</linearGradient>
<linearGradient id="paint1_linear_2318_256" x1="1061.31" y1="283.293" x2="1061.31" y2="793.269" gradientUnits="userSpaceOnUse">
<stop stop-color="#E1A302"/>
<stop offset="1" stop-color="white"/>
</linearGradient>
<linearGradient id="paint2_linear_2318_256" x1="1335.59" y1="283.292" x2="1335.59" y2="793.268" gradientUnits="userSpaceOnUse">
<stop stop-color="#E1A302"/>
<stop offset="1" stop-color="white"/>
</linearGradient>
<linearGradient id="paint3_linear_2318_256" x1="1360.28" y1="283.293" x2="1360.28" y2="793.269" gradientUnits="userSpaceOnUse">
<stop stop-color="#E1A302"/>
<stop offset="1" stop-color="white"/>
</linearGradient>
<linearGradient id="paint4_linear_2318_256" x1="147.534" y1="283.293" x2="147.534" y2="793.269" gradientUnits="userSpaceOnUse">
<stop stop-color="#E1A302"/>
<stop offset="1" stop-color="white"/>
</linearGradient>
<linearGradient id="paint5_linear_2318_256" x1="1265.33" y1="283.293" x2="1265.33" y2="793.269" gradientUnits="userSpaceOnUse">
<stop stop-color="#E1A302"/>
<stop offset="1" stop-color="#E1A302"/>
</linearGradient>
<linearGradient id="paint6_linear_2318_256" x1="811" y1="128.416" x2="811" y2="940.827" gradientUnits="userSpaceOnUse">
<stop stop-color="#E1A302"/>
<stop offset="1" stop-color="white"/>
</linearGradient>
<clipPath id="clip0_2318_256">
<rect width="1622" height="658" fill="white"/>
</clipPath>
</defs>
</svg>
