<svg width="880" height="120" viewBox="0 0 880 120" fill="none" xmlns="http://www.w3.org/2000/svg">
<path fill-rule="evenodd" clip-rule="evenodd" d="M215.367 61.0191C209.457 59.3767 204.252 62.4523 204.575 64.0652C205.153 66.952 207.673 70.3438 209.602 73.929C211.64 77.7212 210.585 78.0579 217.109 75.5965C219.784 73.2739 222.018 70.7328 222.855 67.4593C220.94 64.4769 219.475 62.1588 215.371 61.0191H215.367ZM172.377 84.646C180.162 87.2825 189.133 87.99 197.964 87.2188C209.256 86.2293 209.884 83.0604 206.841 78.381C206.504 73.9063 204.548 70.9717 202.136 67.5321C200.23 64.8136 197.295 62.268 186.299 60.8008C169.511 55.4434 160.371 65.2072 154.065 73.7402C146.827 83.5358 150.844 81.2746 172.377 84.646ZM74.7244 41.6577C80.5707 40.6067 86.2304 39.4625 91.4352 38.0884C104.543 38.8073 106.208 38.5684 119.11 37.2172C126.363 38.2249 135.02 38.2045 142.778 38.0361C152.345 37.8291 157.536 34.981 160.025 32.0077C166.276 29.7283 173.383 25.588 177.1 23.2563C187.4 23.229 193.246 21.8436 201.449 19C204.943 19.157 210.18 19.8736 220.785 21.8777C224.179 21.0451 229.438 20.3103 232.851 19.4959C239.957 20.7698 242.755 21.4205 250.585 21.1793C255.43 21.9414 254.935 21.8049 259.748 21.0929C264.339 21.4023 266.254 21.193 270.835 20.9063C269.584 21.3454 266.331 21.6934 264.079 22.087C261.827 22.062 258.397 22.3805 255.08 23.7499C243.278 21.5319 231.941 19.9441 220.585 23.5179C211.572 20.5219 200.758 21.6889 190.68 23.8432C180.03 26.1203 170.221 29.5873 164.957 33.6547C160.921 35.5269 157.318 36.6689 155.703 38.9938C160.234 40.1859 164.725 41.3142 169.238 42.3493C170.658 53.1322 174.87 57.2679 191.895 59.8339C197.118 60.621 205.767 60.5255 214.666 56.7947C215.535 54.968 216.408 53.139 217.277 51.3123C219.821 48.6529 221.463 47.0469 222.828 44.888C225.867 44.2852 228.62 43.4958 230.69 42.2492C237.651 42.6655 243.174 42.6405 246.645 40.4816C250.767 37.9156 249.47 35.9546 248.538 33.0746C252.955 31.6756 255.203 31.5027 258.456 27.7082C263.388 27.5057 268.156 27.0803 273.251 26.3729C284.985 29.8466 298.047 28.2701 304.58 25.7632C307.769 25.5585 310.963 25.0648 314.152 24.1094C322.71 24.4597 328.056 24.2231 336.605 23.8477C331.964 24.5734 327.323 25.2991 322.683 26.0225C311.122 24.6872 308.643 26.6049 298.315 29.5895C292.646 29.5167 290.153 29.6236 284.566 30.1127C274.493 28.3497 267.846 27.2191 258.806 31.0705C250.976 32.6651 251.927 34.3645 252.887 38.2932C250.153 41.5781 255.176 41.0708 258.183 40.7773C271.823 42.5768 288.142 41.2755 300.826 38.4274C315.995 39.4738 318.656 38.2318 332.328 35.5542C354.039 38.6208 366.068 41.5349 388.37 40.079C398.083 39.9698 398.989 39.3373 407.865 37.381C410.868 37.2968 413.693 36.9988 416.045 36.1616C424.498 39.558 424.212 39.8628 434.671 41.296C436.309 43.762 438.757 45.8685 442.328 47.4746C442.974 50.0611 444.039 51.6194 447.26 53.7987C453.179 57.8025 457.874 58.9217 466 61.5742C462.911 61.3626 456.964 59.379 451.901 58.7033C448.17 56.3079 444.558 53.9511 440.59 51.6535C433.056 39.9584 416.851 36.4869 394.466 42.3425C386.109 42.3902 377.756 42.4425 369.403 42.5176C356.896 40.6568 346.541 39.2122 333.72 37.9929C326.368 38.8119 321.768 39.6695 314.748 41.039C310.572 40.8934 306.395 40.7478 302.219 40.6044C295.34 41.3324 288.665 42.6541 282.027 44.1737C271.613 43.2387 266.149 42.9544 255.571 42.9544C252.728 42.984 249.884 43.0113 247.041 43.0408C236.199 43.7688 227.496 43.4344 223.201 48.8577C219.011 54.1513 217.955 58.6555 225.23 64.3063C229.971 63.4214 234.129 63.1029 237.368 60.6074C242.91 61.4718 245.458 61.8426 258.187 60.4277C274.634 63.0119 276.654 61.8313 291.604 58.5122C305.422 63.0961 308.065 63.0119 323.629 60.364C333.151 62.2134 337.678 62.1952 346.605 59.5951L363.661 61.5469C349.921 61.258 350.372 60.5323 338.948 63.2167C324.839 62.7844 324.084 61.6516 309.53 64.5361C304.084 63.6625 302.369 63.3691 296.65 63.2053C287.614 60.3594 284.179 62.0542 274.721 63.7808C262.364 63.2576 256.841 60.8281 243.911 64.1698C234.507 63.1666 233.802 64.3928 226.486 67.4843C223.278 70.7761 221.499 73.5651 220.23 77.0706C213.528 79.7527 210.394 80.6354 211.322 85.6446C211.663 87.5009 213.501 88.9773 215.53 91.8641C212.013 90.0692 209.024 88.3676 207.71 88.3654C200.271 88.3585 190.389 88.9068 182.286 88.991C154.57 83.4698 153.292 80.1804 128.333 89.4255C125.43 91.3978 122.532 93.3701 119.629 95.3424C118.819 95.5153 118.005 95.6904 117.195 95.8633C114.875 95.9225 112.554 95.9794 110.23 96.0385C107.272 97.1418 104.315 98.2429 101.353 99.3462C94.9702 98.8229 88.5917 98.302 82.2086 97.7788C75.7663 98.07 69.3286 98.3589 62.8864 98.6501C54.5924 99.4326 46.2939 100.217 38 101C41.3076 100.39 44.6151 99.7807 47.9227 99.1733C56.6261 98.1291 65.3295 97.0849 74.0329 96.0408C80.1248 96.3888 86.2168 96.7369 92.3087 97.0849C95.1522 96.9689 97.9957 96.8529 100.839 96.7369C103.796 95.9816 106.758 95.2287 109.716 94.4734C112.154 94.2414 114.588 94.0093 117.027 93.7773C119.115 92.558 121.203 91.3409 123.292 90.1216C124.279 89.107 125.266 88.0901 126.249 87.0755C144.461 81.4543 148.983 79.9756 148.178 67.9302C154.77 65.8077 157.659 64.9046 164.065 60.207C166.272 58.5896 168.751 57.3202 168.624 55.4412C168.51 53.8055 168.292 52.3428 165.234 50.4387C168.487 44.1055 162.082 40.1449 148.524 40.3428C140.161 39.21 137.85 39.0917 129.042 39.4261C125.348 39.5671 121.704 39.7923 117.195 40.1699C111.294 39.9425 107.6 39.8446 101.704 40.0812C98.1185 39.8651 94.3651 39.856 90.5662 39.9083C85.83 40.7864 78.901 41.3756 74.7154 41.6532L74.7244 41.6577Z" fill="url(#paint0_radial_2466_1265)"/>
<path style="mix-blend-mode:screen" fill-rule="evenodd" clip-rule="evenodd" d="M172.751 27.7175C176.732 27.0396 180.117 25.6065 183.288 24.2734C184.503 23.7638 179.789 23.9981 178.274 24.4667C175.968 25.1811 169.976 28.1884 172.746 27.7153L172.751 27.7175Z" fill="url(#paint1_radial_2466_1265)"/>
<path style="mix-blend-mode:screen" fill-rule="evenodd" clip-rule="evenodd" d="M288.842 60.4734C291.244 60.8374 293.965 61.0694 297.414 62.0158C297.773 62.1136 298.974 62.1636 298.629 62.059C296.586 61.4379 294.461 60.4939 291.381 59.9001C290.476 59.725 287.996 60.3437 288.842 60.4711V60.4734Z" fill="url(#paint2_radial_2466_1265)"/>
<path style="mix-blend-mode:screen" fill-rule="evenodd" clip-rule="evenodd" d="M147.463 38.9465C147.018 39.0215 148.36 39.1171 148.828 39.1285C150.271 39.1649 151.667 39.34 152.968 39.224C153.401 39.1853 153.255 38.8077 153.401 38.6007C153.692 38.1798 155.189 37.279 154.429 37.4337C152.118 37.9046 149.957 38.5188 147.463 38.9465Z" fill="url(#paint3_radial_2466_1265)"/>
<path style="mix-blend-mode:screen" fill-rule="evenodd" clip-rule="evenodd" d="M204.999 60.8688C203.734 60.4525 201.832 61.0099 200.021 61.0554C198.11 61.1032 195.959 60.6368 195.822 61.4353C195.717 62.0609 200.463 63.3826 202.296 64.7748C202.514 64.9409 202.196 64.3812 202.16 64.1856C201.918 62.9936 207.05 61.5445 204.999 60.8688Z" fill="url(#paint4_radial_2466_1265)"/>
<path style="mix-blend-mode:screen" fill-rule="evenodd" clip-rule="evenodd" d="M219.115 60.9146C218.601 59.2335 217.65 57.7367 217.478 56.142C217.441 55.8212 217.177 56.7698 217.027 57.0838C216.968 57.2157 216.982 57.3613 216.841 57.475C216.7 57.5888 216.427 57.6479 216.222 57.7344C214.825 58.3213 211.681 58.4146 211.745 59.3359C211.804 60.1412 214.989 59.5224 216.549 59.9569C217.519 60.2254 219.27 61.4356 219.115 60.9169V60.9146Z" fill="url(#paint5_radial_2466_1265)"/>
<path style="mix-blend-mode:screen" fill-rule="evenodd" clip-rule="evenodd" d="M210.357 80.2784C210.462 80.4194 210.648 80.0122 210.812 79.8826C211.572 79.2752 213.342 78.9408 213.669 78.206C213.892 77.7101 211.767 78.4471 210.889 78.2697C210.107 78.1127 209.834 77.7146 209.188 77.5167C208.824 77.403 209.151 77.9558 209.256 78.1673C209.638 78.9158 209.875 79.6392 210.357 80.2784Z" fill="url(#paint6_radial_2466_1265)"/>
<path style="mix-blend-mode:screen" fill-rule="evenodd" clip-rule="evenodd" d="M148.688 78.1892C148.065 79.065 147.287 79.9021 146.277 80.6688C144.293 82.1816 134.22 85.1821 138.115 84.6998C143.588 84.0219 147.036 82.8663 150.662 82.4454C151.286 82.3727 149.743 82.0018 149.393 81.7289C148.055 80.6961 148.187 79.4563 148.638 78.3006C148.651 78.262 148.711 78.1505 148.683 78.1869L148.688 78.1892Z" fill="url(#paint7_radial_2466_1265)"/>
<path style="mix-blend-mode:screen" fill-rule="evenodd" clip-rule="evenodd" d="M158.397 65.6738C158.788 65.1575 156.768 66.4246 155.885 66.7726C154.225 67.4278 151.226 67.5665 150.662 68.588C149.384 70.9015 150.43 73.604 149.816 76.0996C149.57 77.0891 151.131 74.2046 151.786 73.3174C152.55 72.2846 153.337 71.2541 154.175 70.235C155.312 68.8473 157.136 67.3459 158.397 65.6738Z" fill="url(#paint8_radial_2466_1265)"/>
<path style="mix-blend-mode:screen" fill-rule="evenodd" clip-rule="evenodd" d="M167.741 59.7336C167.409 60.7346 171.116 58.644 173.018 58.3596C174.938 58.0707 177.904 58.9374 178.696 58.0934C179.456 57.2813 175.916 56.9492 174.715 56.2462C171.276 54.2262 169.702 51.5737 168.314 48.8939C168.105 48.4889 167.459 49.7742 167.877 50.1678C169.802 51.99 170.921 53.2866 171.066 55.4091C171.189 57.1926 168.259 58.1731 167.745 59.7359L167.741 59.7336Z" fill="url(#paint9_radial_2466_1265)"/>
<path fill-rule="evenodd" clip-rule="evenodd" d="M373 84.9965C375.124 84.3847 378.294 83.8148 381.055 83.5368C384.854 82.6296 387.313 81.5562 389.65 79.8693C395.116 80.1927 400.109 80.0878 405.646 79.9619C409.202 80.7591 412.817 81.4094 416.461 81.9565C429.371 81.1157 437.559 81.0772 450.62 80.8884C456.702 79.906 464.363 78.7068 470.449 77.7244C473.984 78.2907 476.535 78.7837 480.02 78.955C485.515 77.5373 489.067 75.9098 491.827 74.0691C503.895 72.3891 503.56 67.1605 497.893 63.7989C501.533 61.5735 503.899 60.0037 503.61 58.649C508 55.0601 509.265 52.6145 511.145 48.5274C515.669 46.9191 519.175 45.1518 521.998 43.2813C540.7 42.1992 542.74 42.3723 558.816 38.2397C564.718 36.7241 573.539 30.0586 562.624 28.3402C560.215 27.9608 558.511 27.793 555.03 27.6025C552.085 26.0414 550.401 25.739 547.955 25.3596C546.246 24.4751 545.015 24.1325 540.956 23.9104C537.902 23.0434 535.892 22.6938 531.611 22.4315C523.607 19.5349 520.138 20.0698 512.327 23.1448C507.526 22.7515 504.075 24.073 499.752 25.1097C492.921 23.7426 487.463 23.8458 484.506 24.6499C482.416 25.9977 480.33 27.3455 478.244 28.6933C476.141 29.931 474.038 31.1704 471.94 32.408C466.277 32.8608 462.746 33.116 457.414 34.0285C454.611 34.5075 452.044 35.1893 449.355 35.7696C450.28 35.3239 455.181 33.8957 458.821 33.095C462.871 32.5496 466.758 32.0444 470.867 31.5794C472.807 30.3977 474.75 29.216 476.69 28.036C478.826 26.627 480.815 25.253 482.055 23.8003C482.876 23.5993 484.464 22.9822 484.958 22.5399C488.786 22.741 491.886 22.7462 494.998 22.734C496.732 23.1028 498.504 23.3755 500.335 23.5171C504.883 22.7322 505.939 22.5224 509.83 21.2638C514.295 21.0086 515.284 20.6974 517.939 19.8513C519.393 19.6573 520.541 19.3654 521.797 19C524.344 19.5384 527.125 19.8985 530.216 20.0279C535.297 22.0505 540.164 22.442 546.828 22.7305C552.718 24.8999 555.164 26.0309 562.837 26.5571C568.651 27.7301 569.493 28.078 575.927 28.3489C584.786 31.277 594.88 32.394 605.536 34.8204C610.115 37.502 615.045 40.9056 626.555 41.4056C631.787 42.0454 632.419 42.0401 637.868 41.9685C639.226 42.3146 640.708 42.7481 642.522 42.8862C644.495 42.7132 646.17 42.5418 648.022 42.2639C661.585 43.2481 661.798 43.7917 674.854 41.972C681.652 44.727 687.504 47.7005 695.902 49.6724C697.565 49.8857 699.391 50.0028 701.402 49.9871C704.133 50.529 707.969 51.1618 713.787 50.5569C718.676 51.3576 721.273 51.5778 726.982 50.7912C732.519 50.4468 734.961 50.2912 737.47 49.3245C741.608 49.2336 742.978 49.0885 746.949 48.5973C750.078 49.1987 750.099 49.3612 753.542 49.328C755.552 49.9311 757.735 49.9905 760.172 50.2283C762.92 50.4363 765.66 50.6443 768.403 50.8524C766.682 50.994 763.029 50.7894 760.512 50.7859C759.259 50.6391 755.85 50.1986 752.478 50.2545C750.329 49.8682 748.947 49.5972 746.425 49.5133C740.419 50.0045 729.985 51.1356 719.208 52.6564C714.977 51.882 712.12 51.7474 710.026 52.4239C698.444 51.0289 695.186 52.1512 694.386 55.4534C694.155 56.4184 694.092 57.3886 694.025 58.3693C693.925 59.8447 695.324 61.3952 703.584 60.724C707.844 61.1575 712.083 61.7379 716.477 61.806C719.434 64.0209 721.729 64.5209 726.01 66.3092C728.636 68.7618 730.408 70.6427 735.024 71.8892C741.005 73.5009 755.858 74.1512 763.473 74.5323C765.45 75.3696 767.549 76.0689 769.79 76.6126C771.725 76.6615 773.656 76.7105 775.582 76.7594C780.035 78.1614 786.226 78.7487 795.721 76.8223C799.366 76.0164 802.402 74.5917 805.46 73.3156C804.492 74.326 800.945 76.1843 799.114 77.5373C794.871 78.1614 789.97 78.8379 786.058 79.7749C779.176 78.8257 773.953 78.2383 766.933 77.6457C765.576 76.9045 763.917 76.179 761.655 75.9762C752.993 75.1948 747.024 74.6267 738.153 74.6267C734.706 73.2282 731.04 71.9486 726.437 70.919C725.918 69.4121 724.837 68.0783 723.287 66.8895C721.352 66.1833 719.287 65.5697 717.025 65.0925C716.514 64.3723 715.622 63.6608 714.52 62.9546C701.523 61.341 691.768 62.4074 678.972 63.0961C673.141 61.7711 666.623 60.9372 659.788 60.3359C655.477 60.3306 651.063 60.5701 646.522 61.1068C641.399 59.8971 639.159 59.5807 630.718 60.5684C627.967 60.1925 624.193 59.7118 620.812 59.6594C613.181 59.5387 605.386 60.3796 597.536 61.1348C592.69 60.3271 587.844 59.5195 582.997 58.7119C588.191 59.1209 593.385 59.5283 598.579 59.9373C606.253 59.5685 613.909 59.0318 621.52 58.128C627.116 59.322 630.848 59.0737 638.421 57.9619C640.75 58.4689 643.322 58.7189 646.087 58.7626C653.086 60.0894 654.493 59.3167 662.104 58.6157C668.894 60.0597 675.147 61.5508 681.64 61.4739C691.931 61.3498 692.761 57.92 691.236 55.359C692.987 52.8907 693.531 51.4065 692.895 50.1811C690.838 49.1619 689.284 48.5309 684.882 48.1865C677.757 43.7725 673.899 43.2201 661.756 44.9874C655.427 44.1186 650.468 43.346 641.538 44.7357C635.979 43.8599 632.105 44.0033 629.558 44.1501C623.129 43.2918 619.933 42.8023 612.397 42.5523C608.556 39.8532 601.377 36.7713 592.711 34.5005C587.337 33.0915 581.749 32.4954 576.559 33.2069C573.652 33.6055 565.057 37.6559 562.155 39.7693C552.931 41.2377 548.768 42.0594 541.031 44.6186C525.81 45.5905 520.004 45.5783 514.044 52.0253C511.602 54.658 510.513 56.9865 508.98 60.6051C506.454 62.4424 505.403 63.7342 505.399 65.0523C505.382 69.6848 510.01 70.7686 519.778 71.4766C521.919 72.3734 525.839 73.6041 527.984 74.5008C534.367 75.2508 537.53 75.2857 543.955 75.5986C554.703 77.2594 559.491 78.1649 571.093 78.2768C576.392 77.1213 577.711 76.3049 579.814 74.8277C605.268 75.9535 604.301 75.5602 629.311 71.2406C632.009 71.9399 635.041 72.2283 638.153 72.4223C647.113 74.5043 652.286 75.1861 662.477 76.3626C658.405 76.3084 654.2 76.6388 650.024 76.4377C646.145 75.4308 641.768 74.7316 637.642 73.8768C624.146 73.1565 616.423 74.9291 604.682 77.0321C599.475 76.8206 598.181 76.7996 593.017 77.158C589.494 76.7926 586.009 76.7734 582.545 76.9027C578.608 77.8362 576.3 78.6543 572.798 79.8483C569.384 79.5931 565.945 79.5861 562.486 79.9252C556.353 78.983 550.527 78.1142 544.29 77.3101C538.744 77.0915 533.375 76.936 527.812 76.8083C523.569 75.263 521.014 73.7177 517.793 73.1181C512.645 72.1601 504.284 71.2581 504.196 74.5043C491.17 75.5112 487.036 77.8292 480.564 81.058C467.571 78.9708 462.603 80.8937 450.582 82.724C436.797 82.6593 429.81 82.7851 416.223 83.8235C402.333 80.6769 395.166 79.3641 383.25 84.077C380.154 84.2378 375.827 84.5962 373 85L373 84.9965Z" fill="url(#paint10_radial_2466_1265)"/>
<path style="mix-blend-mode:screen" fill-rule="evenodd" clip-rule="evenodd" d="M692.455 60.0737C690.825 60.1349 688.589 61.4408 689.074 61.5596C690.046 61.7974 694.222 61.4583 694.93 61.2834C695.303 61.1908 693.209 60.0458 692.455 60.0737Z" fill="url(#paint11_radial_2466_1265)"/>
<path style="mix-blend-mode:screen" fill-rule="evenodd" clip-rule="evenodd" d="M695.307 50.5708C694.315 50.6984 694.268 52.013 695.311 51.8994C697.259 51.6861 698.834 51.3732 700.685 50.9187C701.205 50.7911 697.05 50.3471 695.303 50.5708H695.307Z" fill="url(#paint12_radial_2466_1265)"/>
<path style="mix-blend-mode:screen" fill-rule="evenodd" clip-rule="evenodd" d="M593.381 33.5669C593.461 33.6456 593.733 33.656 593.905 33.7015C601.294 35.6384 607.443 39.0332 613.717 41.6537C615.874 42.5539 619.69 41.9613 622.668 42.2865C625.06 42.5469 627.297 43.1343 629.768 43.1885C633.387 43.2689 636.52 43.1885 639.917 43.5171C640.889 43.6115 638.292 42.9857 637.266 42.9088C635.507 42.776 633.626 42.9613 631.867 42.8791C629.927 42.7882 628.042 42.4491 626.116 42.3232C620.662 41.9648 615.987 41.1799 611.92 39.6154C608.766 38.4022 607.455 36.5649 604.008 35.5353C600.649 34.5336 597.164 33.6997 593.381 33.1823C593.088 33.1421 593.26 33.4498 593.381 33.5686V33.5669Z" fill="url(#paint13_radial_2466_1265)"/>
<path style="mix-blend-mode:screen" fill-rule="evenodd" clip-rule="evenodd" d="M567.57 35.2625C567.896 35.8971 573.781 32.5949 575.863 32.3099C578.598 31.9358 581.329 32.0145 584.043 32.06C584.362 32.0652 584.328 31.7226 584.043 31.6631C581.12 31.0495 577.987 30.6038 575.059 29.894C571.98 29.1493 569.643 28.5795 567.243 28.4588C566.166 28.4046 568.659 29.1546 569.132 29.5934C570.862 31.1876 567.209 34.5667 567.57 35.2607V35.2625Z" fill="url(#paint14_radial_2466_1265)"/>
<path style="mix-blend-mode:screen" fill-rule="evenodd" clip-rule="evenodd" d="M511.749 51.9067C511.708 51.9854 511.888 51.7564 511.955 51.6812C518.208 44.9213 524.772 44.9965 540.106 43.7238C541.644 43.5962 542.737 43.0071 543.851 42.5526C544.262 42.383 542.754 42.7099 542.205 42.7798C539.461 43.1295 536.655 43.3515 533.824 43.5368C530.334 43.7658 526.133 43.2588 523.314 44.1504C519.176 45.4632 516.307 47.283 513.19 49.0241C511.703 49.8562 512.227 50.9925 511.749 51.9067Z" fill="url(#paint15_radial_2466_1265)"/>
<path style="mix-blend-mode:screen" fill-rule="evenodd" clip-rule="evenodd" d="M503.329 66.5188C503.723 66.9453 503.158 65.5731 503.158 65.0451C503.162 63.3093 505.411 61.8706 506.844 60.2763C508.075 58.9058 508.988 57.4548 508.838 56.0231C508.737 55.0459 506.349 57.7747 505.868 58.8568C505.131 60.4931 501.369 62.1258 500.586 63.8127C500.121 64.8091 502.504 65.6325 503.334 66.5223L503.329 66.5188Z" fill="url(#paint16_radial_2466_1265)"/>
<path style="mix-blend-mode:screen" fill-rule="evenodd" clip-rule="evenodd" d="M624.955 73.0115C627.112 73.2527 629.504 72.9853 631.912 72.7737C632.884 72.6881 630.165 72.2563 629.152 72.2755C627.635 72.3052 623.48 72.8472 624.951 73.0115H624.955Z" fill="url(#paint17_radial_2466_1265)"/>
<path style="mix-blend-mode:screen" fill-rule="evenodd" clip-rule="evenodd" d="M492.992 75.0376C495.866 74.466 499.372 74.5202 502.128 73.7213C503.627 73.2895 503.284 72.2966 504.876 71.835C506.471 71.3735 511.896 71.9592 510.53 71.3054C509.63 70.8736 507.699 70.3754 506.714 69.6149C504.922 68.2357 504.18 66.6589 503.854 67.7899C502.995 70.7442 501.227 73.5482 493.294 74.8436C493.122 74.8715 492.816 75.0708 492.988 75.0376H492.992Z" fill="url(#paint18_radial_2466_1265)"/>
<path style="mix-blend-mode:screen" fill-rule="evenodd" clip-rule="evenodd" d="M466.599 79.3432C469.037 79.4079 471.475 79.3205 474.39 79.3485C475.772 79.3624 471.885 78.7331 470.444 78.7261C469.075 78.7191 465.23 79.3048 466.604 79.3415L466.599 79.3432Z" fill="url(#paint19_radial_2466_1265)"/>
<defs>
<radialGradient id="paint0_radial_2466_1265" cx="0" cy="0" r="1" gradientUnits="userSpaceOnUse" gradientTransform="translate(252.005 60.0045) scale(162.048 81.0264)">
<stop stop-color="#FFA000"/>
<stop offset="0.64" stop-color="#FF6633"/>
<stop offset="1" stop-color="#A82B00"/>
</radialGradient>
<radialGradient id="paint1_radial_2466_1265" cx="0" cy="0" r="1" gradientUnits="userSpaceOnUse" gradientTransform="translate(192.219 30.1835) scale(39.9274 19.9643)">
<stop stop-color="#FFD014"/>
<stop offset="1"/>
</radialGradient>
<radialGradient id="paint2_radial_2466_1265" cx="0" cy="0" r="1" gradientUnits="userSpaceOnUse" gradientTransform="translate(302.6 55.612) scale(37.7254 18.8632)">
<stop stop-color="#FFD014"/>
<stop offset="1"/>
</radialGradient>
<radialGradient id="paint3_radial_2466_1265" cx="0" cy="0" r="1" gradientUnits="userSpaceOnUse" gradientTransform="translate(151.008 44.0308) scale(27.8482 13.9245)">
<stop stop-color="#FFD014"/>
<stop offset="1"/>
</radialGradient>
<radialGradient id="paint4_radial_2466_1265" cx="0" cy="0" r="1" gradientUnits="userSpaceOnUse" gradientTransform="translate(196.036 56.4533) scale(35.5689 17.785)">
<stop stop-color="#FFD014"/>
<stop offset="1"/>
</radialGradient>
<radialGradient id="paint5_radial_2466_1265" cx="0" cy="0" r="1" gradientUnits="userSpaceOnUse" gradientTransform="translate(231.436 55.9441) scale(37.2295 18.6153)">
<stop stop-color="#FFD014"/>
<stop offset="1"/>
</radialGradient>
<radialGradient id="paint6_radial_2466_1265" cx="0" cy="0" r="1" gradientUnits="userSpaceOnUse" gradientTransform="translate(223.965 83.5178) scale(35.0548 17.5279)">
<stop stop-color="#FFD014"/>
<stop offset="1"/>
</radialGradient>
<radialGradient id="paint7_radial_2466_1265" cx="0" cy="0" r="1" gradientUnits="userSpaceOnUse" gradientTransform="translate(159.093 89.7728) scale(47.4115 23.7064)">
<stop stop-color="#FFD014"/>
<stop offset="1"/>
</radialGradient>
<radialGradient id="paint8_radial_2466_1265" cx="0" cy="0" r="1" gradientUnits="userSpaceOnUse" gradientTransform="translate(140.276 66.3154) scale(41.9792 20.9902)">
<stop stop-color="#FFD014"/>
<stop offset="1"/>
</radialGradient>
<radialGradient id="paint9_radial_2466_1265" cx="0" cy="0" r="1" gradientUnits="userSpaceOnUse" gradientTransform="translate(175.106 62.7137) scale(41.5562 20.7787)">
<stop stop-color="#FFD014"/>
<stop offset="1"/>
</radialGradient>
<radialGradient id="paint10_radial_2466_1265" cx="0" cy="0" r="1" gradientUnits="userSpaceOnUse" gradientTransform="translate(589.23 51.9974) scale(162.8 67.9439)">
<stop stop-color="#FFA000"/>
<stop offset="0.64" stop-color="#FF6633"/>
<stop offset="1" stop-color="#A82B00"/>
</radialGradient>
<radialGradient id="paint11_radial_2466_1265" cx="0" cy="0" r="1" gradientUnits="userSpaceOnUse" gradientTransform="translate(694.256 64.9929) scale(26.8702 11.2141)">
<stop stop-color="#FFD014"/>
<stop offset="1"/>
</radialGradient>
<radialGradient id="paint12_radial_2466_1265" cx="0" cy="0" r="1" gradientUnits="userSpaceOnUse" gradientTransform="translate(700.753 46.2442) scale(49.0658 20.4774)">
<stop stop-color="#FFD014"/>
<stop offset="1"/>
</radialGradient>
<radialGradient id="paint13_radial_2466_1265" cx="0" cy="0" r="1" gradientUnits="userSpaceOnUse" gradientTransform="translate(625.739 33.5075) scale(51.0008 21.285)">
<stop stop-color="#FFD014"/>
<stop offset="1"/>
</radialGradient>
<radialGradient id="paint14_radial_2466_1265" cx="0" cy="0" r="1" gradientUnits="userSpaceOnUse" gradientTransform="translate(578.171 28.0008) scale(41.367 17.2644)">
<stop stop-color="#FFD014"/>
<stop offset="1"/>
</radialGradient>
<radialGradient id="paint15_radial_2466_1265" cx="0" cy="0" r="1" gradientUnits="userSpaceOnUse" gradientTransform="translate(531.796 47.8039) scale(41.3377 17.2521)">
<stop stop-color="#FFD014"/>
<stop offset="1"/>
</radialGradient>
<radialGradient id="paint16_radial_2466_1265" cx="0" cy="0" r="1" gradientUnits="userSpaceOnUse" gradientTransform="translate(493.645 59.5526) scale(33.0022 13.7734)">
<stop stop-color="#FFD014"/>
<stop offset="1"/>
</radialGradient>
<radialGradient id="paint17_radial_2466_1265" cx="0" cy="0" r="1" gradientUnits="userSpaceOnUse" gradientTransform="translate(629.516 76.8276) scale(33.7646 14.0916)">
<stop stop-color="#FFD014"/>
<stop offset="1"/>
</radialGradient>
<radialGradient id="paint18_radial_2466_1265" cx="0" cy="0" r="1" gradientUnits="userSpaceOnUse" gradientTransform="translate(513.743 74.6513) scale(36.4076 15.1946)">
<stop stop-color="#FFD014"/>
<stop offset="1"/>
</radialGradient>
<radialGradient id="paint19_radial_2466_1265" cx="0" cy="0" r="1" gradientUnits="userSpaceOnUse" gradientTransform="translate(471.341 75.8575) scale(21.0311 8.77727)">
<stop stop-color="#FFD014"/>
<stop offset="1"/>
</radialGradient>
</defs>
</svg>
