<svg width="1440" height="157" viewBox="0 0 1440 157" fill="none" xmlns="http://www.w3.org/2000/svg">
<g clip-path="url(#clip0_2467_1348)">
<g clip-path="url(#clip1_2467_1348)">
<path fill-rule="evenodd" clip-rule="evenodd" d="M519.205 60.8C521.439 57.4541 518.495 56.0344 515.221 53.3803C511.996 50.7639 518.229 49.9164 523.717 52.7328C529.393 55.6443 537.347 57.9672 542.598 59.5754C539.117 62.2492 523.505 62.977 519.205 60.7984V60.8ZM492.376 77.6443C491.212 76.6787 490.69 75.718 492.746 73.7082C495.162 71.3459 500.127 69.5574 504.945 67.5902C506.972 66.7607 507.983 65.7443 509.265 64.7361C514.674 63.8738 526.676 62.5459 531.853 63.9295C528.032 66.7803 527.218 66.9836 520.083 69.0016C519.851 70.8066 520.157 71.3246 518.155 73.0098C515.187 73.4607 512.213 73.9098 509.24 74.3607C503.934 76.0115 498.998 76.7295 492.381 77.6443H492.376ZM262 34.0967C265.378 34.6672 270.185 35.0262 274.002 35.2885C279.776 37.3656 285.028 39.3541 290.649 41.3361C295.279 42.9672 295.531 43.4164 301.921 44.0918C307.375 42.0639 311.828 41.2902 322.045 43.477C329.772 43.0115 330.901 43.5525 335.482 44.7623C339.175 44.2689 342.829 43.841 346.285 43.8115C364.308 39.023 377.937 36.7951 398.579 33.7705C418.608 36.3393 427.874 38.3836 440.285 41.9639C444.58 43.2033 450.398 45.1279 445.374 49.041C444.185 49.9656 443.041 50.8836 441.868 51.7033C437.346 54.8459 420.117 52.023 413.229 50.9787C402.553 51.0115 404.688 51.1459 395.502 49.4393C390.901 49.6377 390.901 49.6836 386.281 49.3689C378.815 50.3213 376.473 50.0262 368.011 51.4164C364.146 52.0508 359.52 52.1639 354.791 52.1869C351.049 53.6344 349.826 53.8131 344.678 54.8541C353.869 54.2033 352.439 53.518 356.739 53.1541C359.047 52.959 361.858 53.0443 364.387 53.0852C372.903 51.9311 376.641 50.3131 385.797 51.1492C393.687 49.7541 403.455 53.0082 411.02 53.8623C415.073 53.659 419.047 53.8377 424.545 54.418C436.547 54.3508 441.493 56.1148 441.177 58.6311C440.887 60.9541 439.496 63.2361 437.573 65.0066C436.454 66.0393 429.59 69.6639 429.19 70.0705C427.05 72.2508 425.384 75.5229 423.692 78.4066C426.966 75.8475 431.606 72.6836 435.482 70.0033C436.049 67.0344 443.204 66.0361 443.446 65.4672C443.564 65.1852 443.337 59.7229 447.529 55.818C448.179 50.6869 447.775 45.2246 465.418 47.0967C471.912 47.7869 475.832 48.641 486.04 50.7377C493.125 50.9951 500.216 51.2508 507.302 51.5082C519.96 58.218 519.536 60.7951 499.043 65.6082C494.989 69.3934 493.204 71.6295 486.079 74.859C481.927 78.8902 482.805 77.9721 471.059 79.8705C452.632 85.5852 450.472 86.5361 425.245 84.0869C414.713 86.1475 404.027 88.5721 393.362 88.3656C386.266 88.2279 378.593 87.1082 373.095 83.2967C362.612 83.1508 355.95 82.7836 359.496 77.7016C357.957 76.9459 356.897 76.082 356.059 75.1721C356.547 74.7459 357.173 74.2967 357.932 73.8197C355.536 71.923 350.058 68.7295 353.11 62.9279C350.299 62.018 349.067 61.2721 348.475 60.5918C339.939 59.0656 338.243 57.5295 337.947 55.8885C333.026 53.4787 329.668 52.2098 323.618 50.1016C329.505 53.459 335.847 55.5459 338.721 59.3049C352.242 61.9164 351.66 65.377 346.478 67.777C350.22 69.6639 352.612 73.0885 350.679 75.6492C348.209 75.7984 345.733 75.8459 343.263 75.7738C329.224 80.7492 322.326 79.0705 306.261 74.9262C302.488 75.4164 298.558 75.6049 294.554 75.6328C284.727 76.7213 278.198 77.3033 268.011 77.918C281.842 77.959 286.665 77.7361 298.238 76.7934C308.844 75.9311 316.162 78.5279 325.23 80.4557C329.012 79.8131 332.666 79.4672 336.211 79.3656C340.457 77.9836 342.878 76.7082 349.668 77.3197C355.043 77.8049 354.086 79.9197 354.441 83.0574C369.875 84.8705 371.093 85.1705 381.098 89.4328C392.415 89.4229 397.129 89.118 407.316 90.0049C410.531 88.4459 413.875 87.6049 418.204 87.0934C427.627 85.982 434.555 86.8131 443.835 87.5049C460.709 85.1311 463.939 84.2787 482.267 83.9033C488.313 80.1164 513.392 74.459 524.704 75.1311C527.741 75.3115 530.044 76.2098 535.241 77.7148C543.353 77.9672 551.469 78.2197 559.58 78.4705C562.993 78.0098 566.41 77.5508 569.827 77.0902C583.984 75.182 586.893 76.0246 599.911 78.3475C609.408 77.1131 612.692 76.3426 619.822 75.6934C624.793 75.3426 629.941 75.3098 634.995 75.2049C630.158 74.8082 625.173 74.5803 619.985 74.5705C603.397 77.218 602.288 78.1033 586.947 74.8525C580.966 75.1607 573.575 76.2213 565.113 76.7574C552.292 77.5689 538.136 77.5557 531.612 74.8803C527.805 73.318 523.727 70.4033 532.997 66.9852C535.951 62.8803 540.862 62.2803 552.209 60.6934C552.342 60.3148 552.48 59.9361 552.618 59.5574C539.99 56.582 521.794 51.759 516.592 46.7574C515.118 45.341 515.823 44.0689 520.67 42.823C533.668 39.482 544.945 41.3475 553.984 42.8344C562.253 40.6951 564.472 39.641 575.808 39.3377C582.988 38.0672 581.237 38.3836 589.161 38.4934C594.842 38.5721 599.166 38.4344 606.563 38.1672C596.075 37.9656 592.381 38.3508 582.337 37.3131C577.248 38.2344 571.193 38.6754 564.866 38.7902C559.65 40.9705 553.451 42.1295 542.84 40.2131C536.139 40.1377 531.168 40.041 524.546 39.6918C521.277 40.6361 518.047 42.1492 514.541 42.4738C509.639 47.3279 510.31 49.0033 491.903 48.2639C468.791 47.3344 450.591 43.1475 434.619 36.8607C424.289 35.9508 425.344 35.9131 417.371 33.5393C408.145 33.4082 406.162 33.0443 397.489 32C383.588 34.5082 374.747 35.7541 359.851 37.5213C342.02 43.6492 333.277 43.3049 309.959 40.1918C302.099 42.6475 296.004 42.0492 289.332 39.423C284.978 37.7082 281.359 36.2738 275.003 34.5115C270.871 34.4885 266.132 34.2639 262.005 34.0967H262Z" fill="url(#paint0_radial_2467_1348)"/>
<path style="mix-blend-mode:screen" fill-rule="evenodd" clip-rule="evenodd" d="M446.158 86.2116C440.99 86.1936 434.984 85.5723 425.62 85.0346C424.047 84.9444 419.743 85.9444 421.404 85.8772C429.279 85.5559 435.463 86.1329 443.594 86.5821C444.506 86.6329 447.095 86.2149 446.158 86.2116Z" fill="url(#paint1_radial_2467_1348)"/>
<path style="mix-blend-mode:screen" fill-rule="evenodd" clip-rule="evenodd" d="M425.359 53.5394C420.581 53.0574 416.143 52.1525 412.677 51.8574C410.339 51.6591 405.65 51.0279 404.689 51.8083C403.747 52.5722 408.969 52.9328 411.316 52.9623C416.059 53.0214 420.423 53.0837 424.945 53.5378C425.078 53.5509 425.492 53.5509 425.359 53.5378V53.5394Z" fill="url(#paint2_radial_2467_1348)"/>
<path style="mix-blend-mode:screen" fill-rule="evenodd" clip-rule="evenodd" d="M445.837 50.918C445.921 50.4918 444.802 51.6984 444.25 52.0836C442.252 53.4705 434.097 53.5672 434.432 54.0213C434.92 54.6951 441.478 55.6902 443.505 57.2672C444.171 57.7836 444.708 56.2066 444.92 55.6508C445.418 54.3557 445.517 52.5984 445.837 50.918Z" fill="url(#paint3_radial_2467_1348)"/>
<path style="mix-blend-mode:screen" fill-rule="evenodd" clip-rule="evenodd" d="M407.646 34.049C414.86 35.3785 422.474 36.3735 429.357 37.9686C433.781 38.9932 437.947 40.1276 442.015 41.3014C444.87 42.1244 447.336 42.985 448.771 44.1719C450.023 45.2047 449.629 46.2621 449.663 47.326C449.673 47.6326 450.842 46.8604 451.537 46.6719C454.673 45.8244 465.645 46.4113 462.873 45.5309C456.616 43.5408 456.212 45.3096 453.884 44.6932C446.246 42.6686 440.028 39.9867 431.65 38.0424C423.554 36.1621 421.665 35.8998 416.3 34.3998C414.057 33.7735 405.082 33.5752 407.641 34.049H407.646Z" fill="url(#paint4_radial_2467_1348)"/>
<path style="mix-blend-mode:screen" fill-rule="evenodd" clip-rule="evenodd" d="M333.968 43.2461C333.135 43.2608 335.132 43.8067 335.95 43.7592C339.111 43.5772 342.558 43.4903 345.309 42.951C354.16 41.2166 361.655 38.9363 370.655 37.274C371.601 37.0985 374.545 36.633 373.519 36.7543C369.427 37.2395 364.649 37.351 361.315 38.2789C349.826 41.4756 343.051 43.0871 333.973 43.2461H333.968Z" fill="url(#paint5_radial_2467_1348)"/>
<path style="mix-blend-mode:screen" fill-rule="evenodd" clip-rule="evenodd" d="M510.098 75.2854C515.305 74.5444 520.764 74.0001 525.177 74.2624C525.394 74.2755 525.611 74.2903 525.823 74.3083C526.434 74.3592 528.012 74.7526 527.677 74.5477C524.008 72.3133 524.521 70.1936 527.563 67.9624C528.461 67.3034 523.288 68.7378 522.672 69.4215C521.341 70.887 522.509 71.7264 520.606 73.3313C520.478 73.4411 520.458 73.5756 520.216 73.6608C519.97 73.746 519.57 73.7592 519.25 73.8067C516.41 74.2378 513.535 74.6444 510.724 75.0985C510.468 75.1395 509.846 75.3215 510.103 75.2854H510.098Z" fill="url(#paint6_radial_2467_1348)"/>
<path style="mix-blend-mode:screen" fill-rule="evenodd" clip-rule="evenodd" d="M488.958 75.0363C488.993 74.9428 488.554 75.1772 488.455 75.2674C485.122 78.4281 484.269 79.6346 479.269 80.474C477.632 80.7494 475.24 80.0527 472.578 80.6018C466.655 81.8248 463.362 83.3445 459.949 84.31C459.412 84.4625 461.281 84.1576 461.946 84.0871C468.081 83.4412 474.693 83.3051 480.166 82.2117C485.605 81.1248 490.211 79.5215 495.438 78.1658C496.015 78.0166 494.082 78.3559 493.381 78.4526C492.558 78.5658 491.735 78.9084 490.911 78.7936C490.093 78.6789 490.25 78.2445 489.915 77.969C488.648 76.9215 488.603 76.0035 488.949 75.0346L488.958 75.0363Z" fill="url(#paint7_radial_2467_1348)"/>
<path style="mix-blend-mode:screen" fill-rule="evenodd" clip-rule="evenodd" d="M506.154 64.9492C504.763 64.423 502.312 65.6246 501.267 66.1623C499.59 67.0246 497.431 68.7607 498.368 68.8754C499.157 68.9705 501.38 67.6558 502.894 67.0361C504.339 66.4459 507.707 65.5377 506.149 64.9492H506.154Z" fill="url(#paint8_radial_2467_1348)"/>
<path style="mix-blend-mode:screen" fill-rule="evenodd" clip-rule="evenodd" d="M516.558 61.0572C514.995 61.9162 508.885 62.7293 510.981 63.5277C513.19 64.3703 518.584 63.267 521.696 62.5441C523.372 62.1539 518.165 61.8687 517.007 61.2818C516.859 61.2064 516.701 60.9818 516.563 61.0588L516.558 61.0572Z" fill="url(#paint9_radial_2467_1348)"/>
<path style="mix-blend-mode:screen" fill-rule="evenodd" clip-rule="evenodd" d="M511.73 52.218C512.938 51.6082 512.238 50.777 514.255 50.359C515.714 50.0574 519.235 50.7393 518.929 50.2082C518.239 48.9918 515.216 48.1164 514.097 47.0426C513.826 46.7803 513.919 46.0705 513.481 46.2754C512.095 46.9279 511.414 47.7246 509.59 48.2623C504.98 49.6164 497.213 49.3606 491.582 49.1344C487.287 48.9623 483.17 47.918 479.225 48.3016C476.335 48.5836 483.998 49.6443 486.937 49.8869C493.663 50.441 500.719 50.3869 507.608 50.6361C508.032 50.6508 508.52 50.6065 508.88 50.682C509.24 50.7574 509.334 50.9229 509.555 51.0426C510.256 51.4147 510.941 52.618 511.73 52.218Z" fill="url(#paint10_radial_2467_1348)"/>
</g>
<path fill-rule="evenodd" clip-rule="evenodd" d="M107.727 65.9197C103.005 64.4375 98.8461 67.2131 99.1042 68.6686C99.5659 71.2738 101.58 74.3347 103.121 77.5701C104.75 80.9923 103.907 81.2962 109.12 79.0749C111.257 76.9789 113.042 74.6857 113.711 71.7316C112.181 69.0402 111.01 66.9482 107.731 65.9197H107.727ZM73.3762 87.2415C79.5965 89.6208 86.7655 90.2593 93.8219 89.5633C102.845 88.6703 103.347 85.8106 100.915 81.5877C100.646 77.5496 99.0824 74.9013 97.1556 71.7973C95.6324 69.344 93.2875 67.0468 84.5007 65.7226C71.0859 60.888 63.7823 69.6992 58.7436 77.3997C52.9596 86.2396 56.1697 84.199 73.3762 87.2415ZM-4.65476 48.4472C0.0167724 47.4988 4.53926 46.4661 8.69819 45.2262C19.1719 45.8749 20.5025 45.6593 30.8126 44.4399C36.6074 45.3493 43.5257 45.3309 49.7241 45.1789C57.3694 44.9921 61.5174 42.4218 63.506 39.7387C68.5011 37.6816 74.1797 33.9453 77.1498 31.841C85.3804 31.8164 90.052 30.5662 96.6067 28C99.3987 28.1417 103.583 28.7883 112.057 30.597C114.769 29.8456 118.972 29.1825 121.698 28.4475C127.377 29.5972 129.613 30.1843 135.869 29.9667C139.741 30.6544 139.345 30.5313 143.191 29.8887C146.859 30.1679 148.39 29.979 152.051 29.7204C151.051 30.1166 148.452 30.4307 146.652 30.7858C144.853 30.7632 142.111 31.0507 139.461 32.2865C130.031 30.2849 120.971 28.852 111.897 32.0771C104.696 29.3734 96.0541 30.4266 88.0016 32.3707C79.491 34.4257 71.653 37.5543 67.4468 41.225C64.2222 42.9146 61.3429 43.9451 60.0524 46.0432C63.6733 47.119 67.2614 48.1372 70.8678 49.0713C72.002 58.8022 75.3684 62.5344 88.9723 64.8501C93.1457 65.5604 100.057 65.4742 107.168 62.1074C107.862 60.4589 108.56 58.8084 109.254 57.1598C111.287 54.76 112.599 53.3106 113.69 51.3624C116.118 50.8183 118.317 50.106 119.972 48.981C125.534 49.3567 129.947 49.3341 132.721 47.3858C136.015 45.0701 134.979 43.3005 134.233 40.7015C137.763 39.4389 139.559 39.2829 142.159 35.8586C146.099 35.6759 149.909 35.292 153.981 34.6536C163.357 37.7884 173.794 36.3657 179.015 34.1034C181.563 33.9186 184.115 33.4731 186.664 32.6109C193.502 32.927 197.774 32.7135 204.605 32.3748C200.896 33.0297 197.188 33.6846 193.48 34.3374C184.243 33.1323 182.261 34.863 174.009 37.5564C169.479 37.4907 167.487 37.5872 163.022 38.0286C154.974 36.4376 149.662 35.4172 142.439 38.8929C136.182 40.332 136.942 41.8655 137.709 45.4109C135.524 48.3754 139.538 47.9175 141.941 47.6527C152.84 49.2766 165.88 48.1023 176.016 45.532C188.136 46.4764 190.263 45.3555 201.187 42.9392C218.536 45.7065 228.148 48.3363 245.969 47.0225C253.73 46.9239 254.454 46.3532 261.546 44.5877C263.946 44.5117 266.203 44.2428 268.083 43.4873C274.838 46.5523 274.609 46.8274 282.966 48.1208C284.275 50.3462 286.231 52.2472 289.085 53.6966C289.601 56.0307 290.452 57.437 293.026 59.4037C297.755 63.0169 301.507 64.0269 308 66.4206C305.532 66.2297 300.78 64.4395 296.734 63.8298C293.753 61.6681 290.866 59.5412 287.696 57.4678C281.676 46.9137 268.726 43.7809 250.84 49.0651C244.162 49.1082 237.487 49.1555 230.812 49.2232C220.819 47.5439 212.544 46.2403 202.3 45.1399C196.425 45.879 192.749 46.6529 187.14 47.8888C183.803 47.7574 180.465 47.626 177.128 47.4967C171.631 48.1536 166.298 49.3464 160.994 50.7177C152.672 49.874 148.306 49.6174 139.854 49.6174C137.582 49.6441 135.31 49.6687 133.037 49.6954C124.374 50.3523 117.42 50.0505 113.988 54.9447C110.639 59.7219 109.796 63.7867 115.609 68.8862C119.397 68.0876 122.72 67.8002 125.308 65.5481C129.736 66.3282 131.772 66.6629 141.944 65.3859C155.086 67.7181 156.7 66.6526 168.646 63.6574C179.687 67.794 181.799 67.7181 194.236 65.3285C201.845 66.9975 205.463 66.9811 212.595 64.6346L226.225 66.396C215.246 66.1353 215.605 65.4804 206.477 67.9028C195.203 67.5128 194.6 66.4904 182.97 69.0935C178.618 68.3052 177.248 68.0404 172.678 67.8926C165.458 65.3244 162.713 66.8538 155.155 68.412C145.282 67.9398 140.868 65.7473 130.536 68.763C123.022 67.8577 122.458 68.9642 116.612 71.7541C114.049 74.7247 112.628 77.2416 111.614 80.4052C106.259 82.8256 103.754 83.6222 104.496 88.1427C104.768 89.8179 106.237 91.1503 107.858 93.7554C105.048 92.1357 102.66 90.6001 101.609 90.598C95.6651 90.5919 87.7689 91.0866 81.2942 91.1626C59.1471 86.1801 58.1256 83.2116 38.1816 91.5547C35.8622 93.3346 33.5464 95.1145 31.227 96.8944C30.5799 97.0504 29.9291 97.2085 29.282 97.3645C27.428 97.4179 25.5739 97.4692 23.7162 97.5226C21.3532 98.5182 18.9901 99.5118 16.6234 100.508C11.5229 100.035 6.42605 99.5652 1.32553 99.093C-3.82225 99.3558 -8.96639 99.6165 -14.1142 99.8793C-20.7416 100.586 -27.3726 101.294 -34 102C-31.357 101.45 -28.7141 100.9 -26.0711 100.351C-19.1165 99.4092 -12.1619 98.4669 -5.20735 97.5246C-0.339499 97.8387 4.52835 98.1528 9.3962 98.4669C11.6683 98.3622 13.9405 98.2575 16.2126 98.1528C18.5757 97.4712 20.9423 96.7917 23.3054 96.1101C25.254 95.9007 27.1989 95.6913 29.1475 95.4819C30.8162 94.3816 32.4849 93.2832 34.1535 92.1829C34.9424 91.2673 35.7313 90.3496 36.5166 89.434C51.0692 84.3612 54.6828 83.0268 54.0394 72.1565C59.3071 70.2411 61.6156 69.4261 66.7343 65.1868C68.4975 63.7272 70.4788 62.5816 70.377 60.8859C70.2861 59.4099 70.1116 58.0898 67.6686 56.3715C70.2679 50.6562 65.1492 47.082 54.3156 47.2606C47.6337 46.2382 45.7869 46.1315 38.7487 46.4333C35.7967 46.5606 32.8848 46.7638 29.282 47.1046C24.5669 46.8993 21.6149 46.811 16.9034 47.0245C14.0387 46.8295 11.0394 46.8213 8.00383 46.8685C4.21934 47.6609 -1.31743 48.1926 -4.66203 48.4431L-4.65476 48.4472Z" fill="url(#paint11_radial_2467_1348)"/>
<path style="mix-blend-mode:screen" fill-rule="evenodd" clip-rule="evenodd" d="M73.6743 35.8667C76.8553 35.2549 79.5601 33.9616 82.094 32.7586C83.0646 32.2987 79.2983 32.5102 78.0877 32.9331C76.2446 33.5777 71.4567 36.2917 73.6707 35.8646L73.6743 35.8667Z" fill="url(#paint12_radial_2467_1348)"/>
<path style="mix-blend-mode:screen" fill-rule="evenodd" clip-rule="evenodd" d="M166.44 65.4271C168.36 65.7556 170.534 65.965 173.289 66.819C173.577 66.9073 174.536 66.9525 174.26 66.858C172.628 66.2976 170.93 65.4456 168.469 64.9098C167.745 64.7517 165.764 65.3101 166.44 65.4251V65.4271Z" fill="url(#paint13_radial_2467_1348)"/>
<path style="mix-blend-mode:screen" fill-rule="evenodd" clip-rule="evenodd" d="M53.4684 46.0003C53.1122 46.068 54.1846 46.1542 54.5591 46.1645C55.7115 46.1974 56.8276 46.3554 57.8673 46.2507C58.2127 46.2158 58.0963 45.8751 58.2127 45.6882C58.4453 45.3084 59.6414 44.4955 59.0343 44.6351C57.1875 45.06 55.4607 45.6143 53.4684 46.0003Z" fill="url(#paint14_radial_2467_1348)"/>
<path style="mix-blend-mode:screen" fill-rule="evenodd" clip-rule="evenodd" d="M99.4429 65.784C98.4323 65.4084 96.9127 65.9113 95.4658 65.9524C93.9389 65.9955 92.2193 65.5746 92.1102 66.2952C92.0266 66.8598 95.8184 68.0525 97.2835 69.3089C97.458 69.4588 97.2035 68.9538 97.1744 68.7772C96.9817 67.7015 101.083 66.3938 99.4429 65.784Z" fill="url(#paint15_radial_2467_1348)"/>
<path style="mix-blend-mode:screen" fill-rule="evenodd" clip-rule="evenodd" d="M110.722 65.825C110.311 64.3079 109.552 62.957 109.413 61.5179C109.384 61.2285 109.174 62.0845 109.054 62.3678C109.006 62.4869 109.017 62.6183 108.904 62.7209C108.792 62.8236 108.574 62.877 108.41 62.955C107.294 63.4846 104.782 63.5688 104.833 64.4002C104.88 65.127 107.425 64.5686 108.672 64.9607C109.446 65.2029 110.846 66.2951 110.722 65.827V65.825Z" fill="url(#paint16_radial_2467_1348)"/>
<path style="mix-blend-mode:screen" fill-rule="evenodd" clip-rule="evenodd" d="M103.725 83.3C103.808 83.4272 103.957 83.0598 104.088 82.9428C104.695 82.3946 106.11 82.0928 106.371 81.4297C106.55 80.9822 104.852 81.6474 104.15 81.4872C103.525 81.3456 103.307 80.9863 102.79 80.8077C102.5 80.7051 102.761 81.2039 102.845 81.3948C103.15 82.0703 103.339 82.7231 103.725 83.3Z" fill="url(#paint17_radial_2467_1348)"/>
<path style="mix-blend-mode:screen" fill-rule="evenodd" clip-rule="evenodd" d="M54.4466 81.4153C53.9485 82.2057 53.3269 82.9611 52.5198 83.653C50.9348 85.0182 42.8859 87.726 45.9978 87.2908C50.3713 86.679 53.1269 85.6361 56.0244 85.2563C56.5224 85.1906 55.29 84.856 55.0101 84.6096C53.9413 83.6776 54.0467 82.5588 54.4066 81.5159C54.4175 81.481 54.4648 81.3804 54.443 81.4132L54.4466 81.4153Z" fill="url(#paint18_radial_2467_1348)"/>
<path style="mix-blend-mode:screen" fill-rule="evenodd" clip-rule="evenodd" d="M62.2048 70.1199C62.5175 69.6539 60.9033 70.7974 60.1981 71.1115C58.8711 71.7028 56.4754 71.828 56.0246 72.7497C55.003 74.8376 55.8392 77.2765 55.3484 79.5285C55.1521 80.4216 56.399 77.8184 56.9225 77.0178C57.5333 76.0858 58.1622 75.1558 58.8312 74.2361C59.74 72.9838 61.1978 71.6288 62.2048 70.1199Z" fill="url(#paint19_radial_2467_1348)"/>
<path style="mix-blend-mode:screen" fill-rule="evenodd" clip-rule="evenodd" d="M69.6715 64.7598C69.4061 65.6631 72.369 63.7764 73.8886 63.5198C75.4227 63.2591 77.7931 64.0413 78.4256 63.2796C79.0327 62.5467 76.2044 62.247 75.2446 61.6126C72.4962 59.7896 71.2384 57.3959 70.1296 54.9776C69.9623 54.6121 69.4461 55.7721 69.7806 56.1272C71.3183 57.7716 72.2127 58.9418 72.329 60.8572C72.4271 62.4667 70.0859 63.3515 69.6751 64.7618L69.6715 64.7598Z" fill="url(#paint20_radial_2467_1348)"/>
<path fill-rule="evenodd" clip-rule="evenodd" d="M832 42.002C830.689 42.3264 828.731 42.6287 827.027 42.7761C824.681 43.2572 823.163 43.8264 821.72 44.721C818.346 44.5495 815.263 44.6051 811.844 44.6718C809.649 44.2491 807.417 43.9042 805.167 43.6141C797.197 44.06 792.141 44.0804 784.078 44.1805C780.323 44.7015 775.593 45.3374 771.835 45.8584C769.653 45.5581 768.078 45.2966 765.926 45.2058C762.533 45.9576 760.34 46.8207 758.636 47.7968C751.186 48.6877 751.393 51.4604 754.892 53.2431C752.644 54.4232 751.183 55.2557 751.362 55.9741C748.651 57.8773 747.87 59.1742 746.709 61.3416C743.916 62.1945 741.752 63.1317 740.009 64.1236C728.462 64.6974 727.203 64.6057 717.277 66.7971C713.634 67.6009 708.187 71.1356 714.927 72.0469C716.414 72.2481 717.466 72.3371 719.615 72.4381C721.433 73.2659 722.473 73.4263 723.983 73.6275C725.038 74.0966 725.798 74.2782 728.304 74.396C730.19 74.8558 731.431 75.0412 734.074 75.1802C739.016 76.7163 741.157 76.4327 745.98 74.802C748.944 75.0106 751.075 74.3098 753.743 73.76C757.961 74.485 761.331 74.4303 763.157 74.0039C764.447 73.2891 765.735 72.5744 767.023 71.8596C768.321 71.2033 769.619 70.546 770.915 69.8897C774.411 69.6496 776.591 69.5143 779.883 69.0304C781.613 68.7764 783.199 68.4148 784.859 68.107C784.287 68.3434 781.262 69.1008 779.014 69.5254C776.514 69.8146 774.114 70.0825 771.577 70.3291C770.379 70.9558 769.18 71.5825 767.982 72.2082C766.663 72.9554 765.435 73.684 764.669 74.4544C764.163 74.561 763.182 74.8882 762.877 75.1228C760.514 75.0162 758.6 75.0134 756.679 75.0199C755.608 74.8243 754.514 74.6797 753.384 74.6046C750.575 75.0208 749.924 75.132 747.521 75.7995C744.765 75.9348 744.154 76.0999 742.515 76.5485C741.617 76.6514 740.909 76.8062 740.133 77C738.561 76.7145 736.843 76.5235 734.935 76.4549C731.798 75.3823 728.793 75.1747 724.679 75.0217C721.043 73.8713 719.532 73.2715 714.795 72.9925C711.205 72.3704 710.686 72.186 706.713 72.0423C701.244 70.4895 695.011 69.8971 688.432 68.6104C685.606 67.1884 682.562 65.3834 675.456 65.1183C672.226 64.779 671.835 64.7818 668.471 64.8198C667.633 64.6363 666.717 64.4063 665.598 64.3331C664.38 64.4249 663.345 64.5157 662.202 64.6631C653.828 64.1412 653.697 63.8529 645.636 64.8179C641.439 63.357 637.826 61.7801 632.641 60.7344C631.614 60.6213 630.487 60.5592 629.245 60.5675C627.559 60.2802 625.19 59.9446 621.598 60.2653C618.581 59.8407 616.977 59.7239 613.452 60.1411C610.034 60.3237 608.526 60.4062 606.977 60.9189C604.422 60.9671 603.576 61.044 601.125 61.3045C599.193 60.9856 599.18 60.8994 597.054 60.917C595.813 60.5972 594.466 60.5657 592.96 60.4396C591.264 60.3293 589.573 60.219 587.879 60.1087C588.942 60.0336 591.197 60.142 592.751 60.1439C593.524 60.2218 595.629 60.4554 597.711 60.4257C599.038 60.6306 599.891 60.7743 601.448 60.8188C605.156 60.5583 611.598 59.9585 618.252 59.152C620.864 59.5626 622.628 59.634 623.921 59.2753C631.071 60.015 633.083 59.4199 633.577 57.6687C633.719 57.157 633.758 56.6425 633.799 56.1224C633.862 55.34 632.998 54.5178 627.898 54.8737C625.268 54.6438 622.651 54.3361 619.938 54.2999C618.112 53.1254 616.695 52.8602 614.052 51.9119C612.431 50.6113 611.337 49.6138 608.487 48.9528C604.794 48.0981 595.624 47.7533 590.923 47.5512C589.702 47.1071 588.406 46.7363 587.023 46.448C585.828 46.422 584.636 46.3961 583.446 46.3701C580.697 45.6267 576.875 45.3152 571.013 46.3368C568.763 46.7641 566.888 47.5196 565 48.1964C565.597 47.6605 567.788 46.6751 568.918 45.9576C571.538 45.6267 574.563 45.2679 576.979 44.771C581.228 45.2744 584.452 45.5859 588.787 45.9001C589.624 46.2932 590.649 46.6779 592.045 46.7854C597.393 47.1998 601.078 47.5011 606.555 47.5011C608.684 48.2427 610.946 48.9213 613.789 49.4673C614.109 50.2664 614.776 50.9737 615.733 51.6041C616.928 51.9786 618.203 52.304 619.599 52.5571C619.915 52.939 620.466 53.3163 621.146 53.6909C629.17 54.5465 635.193 53.981 643.094 53.6158C646.694 54.3185 650.717 54.7606 654.938 55.0795C657.599 55.0823 660.325 54.9553 663.128 54.6707C666.291 55.3122 667.674 55.48 672.885 54.9562C674.584 55.1556 676.914 55.4105 679.001 55.4383C683.713 55.5023 688.526 55.0564 693.372 54.6559C696.364 55.0842 699.356 55.5125 702.348 55.9407C699.141 55.7238 695.935 55.5078 692.728 55.2909C687.99 55.4865 683.263 55.7711 678.564 56.2504C675.109 55.6172 672.805 55.7489 668.129 56.3384C666.692 56.0696 665.104 55.937 663.397 55.9139C659.076 55.2102 658.207 55.62 653.508 55.9917C649.316 55.226 645.455 54.4353 641.446 54.476C635.092 54.5419 634.58 56.3607 635.522 57.7188C634.441 59.0277 634.105 59.8148 634.498 60.4646C635.767 61.0051 636.727 61.3397 639.445 61.5224C643.844 63.8631 646.225 64.1561 653.722 63.2188C657.63 63.6796 660.692 64.0893 666.205 63.3523C669.637 63.8168 672.029 63.7407 673.601 63.6629C677.571 64.118 679.544 64.3776 684.197 64.5102C686.568 65.9415 691 67.5759 696.351 68.7801C699.669 69.5272 703.119 69.8434 706.323 69.4661C708.118 69.2547 713.424 67.1068 715.216 65.986C720.911 65.2073 723.481 64.7716 728.258 63.4144C737.655 62.899 741.24 62.9055 744.92 59.4866C746.427 58.0905 747.1 56.8557 748.046 54.9368C749.606 53.9625 750.255 53.2774 750.257 52.5784C750.268 50.1218 747.41 49.547 741.379 49.1716C740.058 48.696 737.637 48.0434 736.313 47.5678C732.372 47.1702 730.42 47.1516 726.453 46.9857C719.817 46.105 716.861 45.6248 709.698 45.5655C706.426 46.1782 705.612 46.6112 704.313 47.3945C688.598 46.7975 689.195 47.0061 673.754 49.2968C672.089 48.9259 670.216 48.773 668.295 48.6701C662.763 47.566 659.57 47.2045 653.278 46.5806C655.791 46.6093 658.388 46.4341 660.966 46.5407C663.361 47.0747 666.063 47.4455 668.61 47.8988C676.943 48.2807 681.711 47.3407 688.96 46.2255C692.175 46.3377 692.974 46.3488 696.162 46.1588C698.337 46.3525 700.489 46.3627 702.627 46.2941C705.058 45.7991 706.483 45.3652 708.645 44.7321C710.753 44.8674 712.876 44.8711 715.012 44.6913C718.798 45.191 722.395 45.6517 726.246 46.0781C729.67 46.194 732.985 46.2765 736.419 46.3442C739.039 47.1637 740.617 47.9832 742.605 48.3011C745.783 48.8091 750.945 49.2875 751 47.566C759.042 47.032 761.595 45.8028 765.59 44.0906C773.612 45.1974 776.679 44.1777 784.101 43.2071C792.612 43.2414 796.925 43.1747 805.314 42.624C813.89 44.2927 818.315 44.9889 825.672 42.4896C827.583 42.4043 830.254 42.2143 832 42.0001L832 42.002Z" fill="url(#paint21_radial_2467_1348)"/>
<path style="mix-blend-mode:screen" fill-rule="evenodd" clip-rule="evenodd" d="M634.77 55.2185C635.776 55.186 637.157 54.4935 636.857 54.4305C636.257 54.3044 633.678 54.4843 633.241 54.577C633.011 54.6261 634.304 55.2333 634.77 55.2185Z" fill="url(#paint22_radial_2467_1348)"/>
<path style="mix-blend-mode:screen" fill-rule="evenodd" clip-rule="evenodd" d="M633.008 60.2581C633.621 60.1905 633.65 59.4933 633.006 59.5536C631.803 59.6667 630.831 59.8326 629.688 60.0736C629.367 60.1413 631.933 60.3768 633.011 60.2581L633.008 60.2581Z" fill="url(#paint23_radial_2467_1348)"/>
<path style="mix-blend-mode:screen" fill-rule="evenodd" clip-rule="evenodd" d="M695.937 69.2751C695.888 69.2334 695.72 69.2278 695.614 69.2037C691.052 68.1766 687.256 66.3763 683.382 64.9867C682.05 64.5093 679.694 64.8235 677.856 64.6511C676.379 64.513 674.998 64.2015 673.472 64.1728C671.238 64.1301 669.303 64.1728 667.206 63.9985C666.606 63.9484 668.21 64.2803 668.843 64.3211C669.929 64.3915 671.09 64.2933 672.177 64.3368C673.374 64.385 674.538 64.5649 675.727 64.6316C679.094 64.8217 681.98 65.2379 684.491 66.0676C686.439 66.7109 687.248 67.6853 689.376 68.2313C691.45 68.7625 693.602 69.2047 695.937 69.479C696.118 69.5004 696.012 69.3372 695.937 69.2742L695.937 69.2751Z" fill="url(#paint24_radial_2467_1348)"/>
<path style="mix-blend-mode:screen" fill-rule="evenodd" clip-rule="evenodd" d="M711.873 68.3759C711.671 68.0394 708.037 69.7905 706.752 69.9416C705.063 70.14 703.377 70.0983 701.702 70.0742C701.505 70.0714 701.526 70.2531 701.702 70.2846C703.507 70.61 705.441 70.8464 707.249 71.2228C709.149 71.6177 710.592 71.9199 712.074 71.9839C712.739 72.0126 711.2 71.6149 710.908 71.3822C709.84 70.5368 712.095 68.7448 711.873 68.3768L711.873 68.3759Z" fill="url(#paint25_radial_2467_1348)"/>
<path style="mix-blend-mode:screen" fill-rule="evenodd" clip-rule="evenodd" d="M746.337 59.5496C746.363 59.5079 746.252 59.6293 746.21 59.6692C742.349 63.254 738.297 63.2141 728.829 63.889C727.88 63.9567 727.205 64.2691 726.517 64.5101C726.264 64.6 727.195 64.4267 727.534 64.3896C729.228 64.2042 730.96 64.0864 732.708 63.9882C734.863 63.8667 737.456 64.1356 739.197 63.6628C741.752 62.9666 743.523 62.0016 745.447 61.0782C746.365 60.637 746.042 60.0344 746.337 59.5496Z" fill="url(#paint26_radial_2467_1348)"/>
<path style="mix-blend-mode:screen" fill-rule="evenodd" clip-rule="evenodd" d="M751.535 51.8006C751.292 51.5744 751.641 52.3021 751.641 52.582C751.638 53.5026 750.25 54.2655 749.365 55.111C748.605 55.8378 748.041 56.6072 748.134 57.3664C748.196 57.8846 749.67 56.4375 749.968 55.8637C750.423 54.996 752.745 54.1302 753.229 53.2356C753.516 52.7072 752.044 52.2706 751.532 51.7987L751.535 51.8006Z" fill="url(#paint27_radial_2467_1348)"/>
<path style="mix-blend-mode:screen" fill-rule="evenodd" clip-rule="evenodd" d="M676.444 48.3574C675.112 48.2295 673.635 48.3713 672.148 48.4835C671.548 48.5289 673.227 48.7579 673.853 48.7477C674.789 48.732 677.354 48.4446 676.446 48.3574L676.444 48.3574Z" fill="url(#paint28_radial_2467_1348)"/>
<path style="mix-blend-mode:screen" fill-rule="evenodd" clip-rule="evenodd" d="M757.917 47.2831C756.143 47.5862 753.979 47.5575 752.277 47.9811C751.351 48.2101 751.563 48.7367 750.581 48.9814C749.595 49.2261 746.246 48.9156 747.089 49.2623C747.645 49.4913 748.838 49.7555 749.445 50.1587C750.552 50.8901 751.01 51.7263 751.212 51.1265C751.742 49.5599 752.833 48.0729 757.731 47.386C757.837 47.3711 758.026 47.2655 757.92 47.2831L757.917 47.2831Z" fill="url(#paint29_radial_2467_1348)"/>
<path style="mix-blend-mode:screen" fill-rule="evenodd" clip-rule="evenodd" d="M774.213 44.9999C772.708 44.9656 771.203 45.0119 769.403 44.9971C768.549 44.9897 770.949 45.3234 771.839 45.3271C772.685 45.3308 775.059 45.0203 774.21 45.0008L774.213 44.9999Z" fill="url(#paint30_radial_2467_1348)"/>
<path fill-rule="evenodd" clip-rule="evenodd" d="M717 94.997C718.999 94.4779 721.983 93.9944 724.581 93.7585C728.156 92.9887 730.47 92.078 732.67 90.6467C737.814 90.9211 742.513 90.8321 747.724 90.7253C751.071 91.4016 754.473 91.9534 757.903 92.4177C770.052 91.7042 777.759 91.6716 790.05 91.5114C795.774 90.6778 802.984 89.6603 808.712 88.8267C812.039 89.3073 814.439 89.7256 817.719 89.8709C822.891 88.668 826.234 87.2871 828.832 85.7253C840.189 84.2999 839.873 79.8635 834.54 77.0112C837.965 75.123 840.193 73.7911 839.921 72.6415C844.052 69.5964 845.242 67.5214 847.012 64.0535C851.27 62.6889 854.569 61.1894 857.226 59.6023C874.828 58.6842 876.747 58.831 891.877 55.3246C897.431 54.0386 905.733 48.383 895.46 46.925C893.193 46.6031 891.589 46.4607 888.313 46.2991C885.542 44.9745 883.957 44.7179 881.655 44.3961C880.047 43.6455 878.888 43.3548 875.068 43.1664C872.194 42.4308 870.302 42.1341 866.273 41.9116C858.74 39.4539 855.476 39.9077 848.124 42.5168C843.607 42.183 840.358 43.3044 836.29 44.1839C829.861 43.024 824.724 43.1116 821.941 43.7939C819.974 44.9374 818.011 46.081 816.048 47.2246C814.069 48.2747 812.09 49.3264 810.115 50.3765C804.785 50.7607 801.462 50.9772 796.444 51.7515C793.807 52.1579 791.39 52.7364 788.859 53.2288C789.731 52.8506 794.343 51.6387 797.768 50.9594C801.58 50.4966 805.239 50.068 809.106 49.6734C810.931 48.6708 812.76 47.6681 814.585 46.6669C816.596 45.4714 818.468 44.3056 819.635 43.073C820.408 42.9024 821.902 42.3788 822.367 42.0036C825.97 42.1741 828.887 42.1786 831.816 42.1682C833.448 42.4812 835.115 42.7126 836.838 42.8327C841.119 42.1667 842.113 41.9887 845.775 40.9208C849.977 40.7043 850.907 40.4402 853.406 39.7223C854.774 39.5577 855.854 39.31 857.037 39C859.434 39.4568 862.051 39.7624 864.961 39.8721C869.742 41.5883 874.323 41.9205 880.595 42.1652C886.137 44.006 888.439 44.9656 895.661 45.4121C901.133 46.4073 901.925 46.7025 907.98 46.9324C916.317 49.4168 925.818 50.3646 935.846 52.4234C940.155 54.6987 944.795 57.5866 955.628 58.0108C960.551 58.5536 961.146 58.5492 966.275 58.4884C967.552 58.7821 968.948 59.1499 970.655 59.2671C972.511 59.1202 974.088 58.9749 975.831 58.7391C988.595 59.5741 988.796 60.0354 1001.08 58.4914C1007.48 60.829 1012.99 63.352 1020.89 65.0251C1022.46 65.206 1024.18 65.3054 1026.07 65.292C1028.64 65.7518 1032.25 66.2888 1037.72 65.7756C1042.32 66.4549 1044.77 66.6418 1050.14 65.9743C1055.35 65.6821 1057.65 65.5501 1060.01 64.7299C1063.91 64.6528 1065.2 64.5297 1068.93 64.1129C1071.88 64.6231 1071.9 64.761 1075.14 64.7329C1077.03 65.2446 1079.08 65.295 1081.38 65.4967C1083.96 65.6732 1086.54 65.8497 1089.12 66.0262C1087.5 66.1464 1084.07 65.9729 1081.7 65.9699C1080.52 65.8453 1077.31 65.4715 1074.14 65.519C1072.11 65.1912 1070.81 64.9613 1068.44 64.8901C1062.79 65.3069 1052.97 66.2665 1042.83 67.557C1038.84 66.8999 1036.16 66.7857 1034.18 67.3597C1023.28 66.1761 1020.22 67.1283 1019.46 69.9302C1019.25 70.7489 1019.19 71.5721 1019.13 72.4042C1019.03 73.6561 1020.35 74.9717 1028.12 74.4021C1032.13 74.77 1036.12 75.2624 1040.26 75.3203C1043.04 77.1996 1045.2 77.6238 1049.23 79.1411C1051.7 81.2221 1053.37 82.8181 1057.71 83.8756C1063.34 85.2432 1077.32 85.795 1084.48 86.1183C1086.35 86.8288 1088.32 87.4221 1090.43 87.8834C1092.25 87.9249 1094.07 87.9664 1095.88 88.008C1100.07 89.1975 1105.9 89.6959 1114.83 88.0614C1118.26 87.3776 1121.12 86.1687 1124 85.086C1123.09 85.9433 1119.75 87.52 1118.03 88.668C1114.03 89.1975 1109.42 89.7716 1105.74 90.5666C1099.26 89.7612 1094.35 89.2628 1087.74 88.76C1086.46 88.1311 1084.9 87.5155 1082.77 87.3435C1074.62 86.6805 1069 86.1984 1060.66 86.1984C1057.41 85.0118 1053.96 83.9261 1049.63 83.0524C1049.14 81.7739 1048.12 80.6422 1046.67 79.6336C1044.84 79.0343 1042.9 78.5137 1040.77 78.1088C1040.29 77.4977 1039.45 76.894 1038.41 76.2948C1026.18 74.9257 1017 75.8305 1004.96 76.4149C999.471 75.2906 993.337 74.5831 986.904 74.0729C982.847 74.0684 978.692 74.2716 974.419 74.727C969.598 73.7006 967.489 73.4321 959.546 74.2701C956.956 73.9512 953.404 73.5433 950.223 73.4989C943.041 73.3965 935.704 74.1099 928.317 74.7507C923.756 74.0654 919.195 73.3802 914.634 72.6949C919.522 73.042 924.411 73.3876 929.299 73.7347C936.52 73.4217 943.727 72.9664 950.889 72.1995C956.156 73.2126 959.668 73.002 966.795 72.0586C968.987 72.4888 971.408 72.7009 974.009 72.7379C980.596 73.8637 981.921 73.2081 989.084 72.6134C995.474 73.8385 1001.36 75.1037 1007.47 75.0385C1017.15 74.9331 1017.94 72.023 1016.5 69.8501C1018.15 67.7557 1018.66 66.4964 1018.06 65.4567C1016.13 64.592 1014.66 64.0565 1010.52 63.7643C1003.82 60.0191 1000.18 59.5504 988.756 61.05C982.8 60.3128 978.133 59.6572 969.728 60.8364C964.497 60.0933 960.851 60.2149 958.454 60.3395C952.403 59.6112 949.395 59.1959 942.303 58.9838C938.689 56.6937 931.932 54.0787 923.776 52.152C918.718 50.9565 913.46 50.4507 908.575 51.0544C905.84 51.3925 897.75 54.8292 895.019 56.6225C886.338 57.8684 882.42 58.5655 875.139 60.737C860.814 61.5617 855.35 61.5513 849.74 67.0215C847.442 69.2553 846.417 71.231 844.974 74.3013C842.597 75.8602 841.608 76.9563 841.604 78.0747C841.588 82.0053 845.944 82.9249 855.137 83.5256C857.151 84.2865 860.841 85.3307 862.859 86.0916C868.867 86.7279 871.843 86.7576 877.89 87.0231C888.006 88.4322 892.512 89.2005 903.431 89.2954C908.418 88.315 909.659 87.6223 911.638 86.369C935.594 87.3242 934.683 86.9905 958.221 83.3254C960.76 83.9187 963.614 84.1634 966.543 84.328C974.975 86.0946 979.843 86.673 989.434 87.6713C985.603 87.6253 981.645 87.9056 977.715 87.7351C974.064 86.8807 969.945 86.2874 966.062 85.5621C953.361 84.951 946.092 86.455 935.042 88.2394C930.142 88.0599 928.924 88.0421 924.064 88.3462C920.748 88.0362 917.469 88.0198 914.209 88.1296C910.503 88.9217 908.331 89.6158 905.035 90.6289C901.823 90.4123 898.586 90.4064 895.33 90.6941C889.559 89.8947 884.076 89.1575 878.206 88.4752C872.987 88.2898 867.933 88.1578 862.698 88.0495C858.705 86.7383 856.3 85.4271 853.268 84.9184C848.424 84.1055 840.555 83.3402 840.473 86.0946C828.213 86.9489 824.322 88.9157 818.232 91.6553C806.003 89.8843 801.328 91.5159 790.014 93.0688C777.041 93.0139 770.466 93.1207 757.678 94.0018C744.606 91.3319 737.861 90.218 726.646 94.2168C723.733 94.3533 719.661 94.6574 717 95V94.997Z" fill="url(#paint31_radial_2467_1348)"/>
<path style="mix-blend-mode:screen" fill-rule="evenodd" clip-rule="evenodd" d="M1017.65 73.8505C1016.11 73.9024 1014.01 75.0104 1014.47 75.1113C1015.38 75.313 1019.31 75.0253 1019.98 74.8769C1020.33 74.7983 1018.36 73.8268 1017.65 73.8505Z" fill="url(#paint32_radial_2467_1348)"/>
<path style="mix-blend-mode:screen" fill-rule="evenodd" clip-rule="evenodd" d="M1020.33 65.7875C1019.4 65.8958 1019.35 67.0112 1020.34 66.9148C1022.17 66.7338 1023.65 66.4683 1025.39 66.0827C1025.88 65.9744 1021.97 65.5976 1020.33 65.7875H1020.33Z" fill="url(#paint33_radial_2467_1348)"/>
<path style="mix-blend-mode:screen" fill-rule="evenodd" clip-rule="evenodd" d="M924.406 51.3596C924.481 51.4264 924.737 51.4353 924.899 51.4738C931.853 53.1173 937.64 55.9978 943.545 58.2211C945.575 58.985 949.166 58.4822 951.969 58.7581C954.22 58.9791 956.325 59.4775 958.651 59.5234C962.057 59.5917 965.005 59.5234 968.202 59.8023C969.117 59.8824 966.673 59.3514 965.707 59.2861C964.051 59.1734 962.281 59.3306 960.626 59.2609C958.8 59.1838 957.026 58.896 955.213 58.7892C950.081 58.4852 945.681 57.8192 941.854 56.4917C938.885 55.4623 937.651 53.9034 934.407 53.0298C931.246 52.1799 927.966 51.4724 924.406 51.0333C924.13 50.9992 924.292 51.2603 924.406 51.3611V51.3596Z" fill="url(#paint34_radial_2467_1348)"/>
<path style="mix-blend-mode:screen" fill-rule="evenodd" clip-rule="evenodd" d="M900.115 52.7981C900.422 53.3365 905.961 50.5347 907.92 50.2929C910.494 49.9755 913.064 50.0422 915.619 50.0808C915.918 50.0853 915.887 49.7945 915.619 49.7441C912.867 49.2235 909.918 48.8453 907.163 48.2431C904.266 47.6112 902.066 47.1277 899.807 47.0253C898.794 46.9793 901.14 47.6156 901.585 47.9879C903.213 49.3407 899.776 52.2078 900.115 52.7966V52.7981Z" fill="url(#paint35_radial_2467_1348)"/>
<path style="mix-blend-mode:screen" fill-rule="evenodd" clip-rule="evenodd" d="M847.58 66.9211C847.541 66.9879 847.71 66.7935 847.773 66.7298C853.659 60.9941 859.836 61.0578 874.268 59.978C875.714 59.8698 876.743 59.3699 877.792 58.9843C878.178 58.8404 876.759 59.1177 876.243 59.1771C873.661 59.4737 871.019 59.6621 868.355 59.8193C865.071 60.0136 861.117 59.5835 858.464 60.3399C854.569 61.4539 851.869 62.9979 848.936 64.4752C847.537 65.1813 848.029 66.1454 847.58 66.9211Z" fill="url(#paint36_radial_2467_1348)"/>
<path style="mix-blend-mode:screen" fill-rule="evenodd" clip-rule="evenodd" d="M839.657 79.3194C840.027 79.6814 839.495 78.517 839.495 78.0691C839.499 76.5962 841.616 75.3755 842.964 74.0228C844.123 72.8599 844.982 71.6288 844.84 70.414C844.746 69.5849 842.499 71.9002 842.046 72.8184C841.352 74.2067 837.812 75.592 837.075 77.0234C836.637 77.8688 838.88 78.5674 839.661 79.3224L839.657 79.3194Z" fill="url(#paint37_radial_2467_1348)"/>
<path style="mix-blend-mode:screen" fill-rule="evenodd" clip-rule="evenodd" d="M954.122 84.8276C956.152 85.0323 958.403 84.8054 960.67 84.6259C961.584 84.5532 959.026 84.1868 958.072 84.2032C956.645 84.2284 952.734 84.6882 954.118 84.8276H954.122Z" fill="url(#paint38_radial_2467_1348)"/>
<path style="mix-blend-mode:screen" fill-rule="evenodd" clip-rule="evenodd" d="M829.928 86.5474C832.632 86.0624 835.931 86.1083 838.525 85.4305C839.936 85.0641 839.613 84.2217 841.111 83.8301C842.613 83.4385 847.718 83.9354 846.433 83.3807C845.585 83.0143 843.768 82.5916 842.842 81.9464C841.155 80.7761 840.457 79.4382 840.149 80.3978C839.341 82.9045 837.678 85.2837 830.211 86.3827C830.05 86.4065 829.762 86.5756 829.924 86.5474H829.928Z" fill="url(#paint39_radial_2467_1348)"/>
<path style="mix-blend-mode:screen" fill-rule="evenodd" clip-rule="evenodd" d="M805.089 90.2004C807.383 90.2553 809.678 90.1811 812.421 90.2048C813.722 90.2167 810.064 89.6827 808.708 89.6768C807.419 89.6709 803.8 90.1678 805.093 90.1989L805.089 90.2004Z" fill="url(#paint40_radial_2467_1348)"/>
<path fill-rule="evenodd" clip-rule="evenodd" d="M1036 87.3574C1043.13 87.0088 1047.06 86.6843 1052.53 86.0581C1060.8 85.1135 1064.69 86.0264 1073.26 86.7538C1086.16 86.9032 1092.78 87.9232 1102.05 90.7858C1112.03 89.4775 1117.19 89.4473 1123.28 92.1681C1127.2 92.5016 1130.5 93.1127 1133.19 94C1160.35 88.5555 1171.53 88.0696 1199.5 92.4231C1211.29 90.0464 1220.31 87.7799 1234.52 88.4665C1255.12 85.3549 1276.76 86.0219 1298.43 87.0782C1312.69 86.7885 1312.46 86.4097 1325.68 88.2175C1356.39 86.206 1396.84 85.1497 1424.06 88.3397C1437 87.5732 1438.73 87.7829 1451.63 88.6958C1457.09 88.391 1463.98 88.1466 1468 87.7829C1462.75 87.7693 1457.47 87.9036 1452.24 87.7422C1443.53 87.4751 1434.93 86.9198 1426.27 86.5168C1415.76 86.6149 1412.18 86.298 1401.93 85.5284C1388.49 85.1844 1376.96 84.7332 1363.66 84.0225C1337.31 86.7055 1312.4 85.1799 1285.11 84.5853C1278.01 84.4254 1270.92 84.2654 1263.84 84.1055C1252.84 85.0788 1247.32 85.2282 1236.95 84.9912L1220.66 86.2105C1220.01 83.7916 1219.89 83.5637 1221.63 81.2052C1224.54 79.1152 1227.45 77.0252 1230.38 74.9383C1230.87 74.1279 1230.91 73.2738 1231.84 72.5072C1236.58 68.5703 1238.03 68.6578 1251.28 68.4163C1257.4 67.0628 1262.01 65.5402 1269.17 66.2222C1279.31 65.759 1282.88 65.602 1290.4 68.1809C1298.57 69.0033 1303.21 69.4817 1310.18 71.1024C1315.53 71.8116 1319.59 72.4212 1322.82 74.0208C1328.23 75.0514 1332.68 75.9704 1337.78 77.158C1342.92 76.9845 1345.72 76.9739 1350.87 77.0916C1354.76 77.8808 1359.95 79.1454 1362.6 79.3264C1358.82 78.335 1354.67 77.4417 1351.64 76.2677C1342.15 76.5453 1339.79 76.5574 1331.41 74.9458C1326.42 73.9846 1323.15 73.141 1318.55 71.1205C1313.03 70.6421 1310.36 70.2121 1308.39 69.1256C1296.51 68.1538 1291.48 67.2936 1282.93 64.2153C1276.42 64.4024 1273.58 64.6695 1267.2 64.1474C1259.04 66.0442 1253.18 67.7644 1246.57 67.2785C1238.6 66.6931 1238.58 65.5538 1238.68 63.42C1240.23 61.5323 1241.78 59.646 1243.33 57.7597C1243.7 55.7573 1244.06 53.7548 1244.43 51.7524C1245.54 50.7263 1246.65 49.7002 1247.76 48.674C1252.2 44.559 1253.09 44.9755 1264.7 46.7606C1278.44 46.4784 1285.02 48.0538 1296.67 50.2645C1313 51.6 1331.73 54.6874 1341.09 59.4408C1349.55 60.6721 1350.07 60.7913 1356.82 62.8904C1363.62 63.6841 1368.82 64.5608 1372.87 65.922C1381.83 66.2434 1390.33 66.4984 1399.1 67.0703C1406.2 65.4361 1405.6 65.593 1414.14 65.1418C1417.44 64.3466 1419.38 63.7339 1421.46 63.4759C1424.18 63.1393 1427.07 63.1665 1432.22 62.907C1429.59 62.7545 1426.45 62.6444 1420.37 62.7681C1414.28 64.4884 1410.94 64.1323 1406.61 63.8591C1403.93 64.9426 1400.8 65.7273 1397.17 65.9114C1393.53 66.0955 1379.82 66.0563 1371.2 64.5352C1359.6 62.489 1349.53 58.9081 1344.18 56.5888C1331.58 55.1537 1320.58 52.3862 1309.27 50.0744C1296.21 49.006 1291.71 48.3375 1281 45.6002C1267.53 45.6636 1251.56 45.0071 1248.26 39.4012C1247.07 37.3821 1246.99 35.9305 1246.91 33C1245.93 33.7711 1245.06 35.7811 1244.12 37.3821C1246.71 39.4072 1246.84 41.0068 1246.86 43.471L1244.04 46.0559C1241.03 47.0171 1237.9 47.3325 1229.49 47.4397C1228.51 48.1489 1227.01 48.591 1225.31 48.9351C1220.36 49.3833 1215.24 49.5915 1210.02 49.6443C1208.63 50.097 1207.03 50.4894 1204.92 50.7534C1205.62 51.603 1205.41 52.4133 1204.95 53.2131C1203.56 54.0959 1200.29 55.8871 1194.19 56.2266C1192.49 58.5731 1191.09 59.4544 1187.73 61.5896C1190.44 60.6917 1193.86 58.8794 1195.36 57.1516C1197.72 56.1843 1199.5 56.0606 1202.22 55.958C1204.63 54.5803 1204.22 54.4777 1208.26 53.6311C1208.47 51.8324 1208.13 51.0251 1209.83 50.5497C1212.9 49.6911 1222.13 49.8646 1226.17 49.8541C1230.7 48.4552 1232.73 48.0689 1239.02 48.1504C1240.71 47.6887 1242.19 47.7022 1243.59 47.8909L1243.48 48.7374C1242.82 50.1619 1242.16 51.5864 1241.5 53.0109C1241.35 54.1246 1241.2 55.2397 1241.04 56.3549C1240.27 56.8091 1239.49 57.2618 1238.71 57.716C1237.93 59.4227 1237.25 62.0483 1235.25 63.5332C1232.64 65.4783 1229.46 67.5834 1222.34 66.3279C1213.15 66.9481 1205.46 67.2016 1196.82 65.4013C1194.32 64.8822 1192.09 64.0629 1186.96 62.2475C1172.88 62.7515 1158.58 63.6962 1153.21 60.7325C1148.31 61.0207 1147.15 60.565 1143.43 60.7506C1138.08 61.0177 1133 60.9649 1125.78 60.9513C1128.92 61.2893 1133.34 61.3617 1137.09 61.6273C1148.92 60.6661 1148.44 60.8577 1158.62 63.1046C1168.85 63.4095 1174.82 63.3114 1185.05 63.0413C1191.1 64.9049 1196.64 66.4576 1185.05 67.191C1175.74 67.7826 1164.44 67.5728 1158.07 65.507C1148.64 64.9652 1148.59 65.012 1140.42 63.3476C1132.82 63.8757 1129.94 63.924 1122.18 63.8803C1110.93 64.6212 1110.03 64.4326 1098.7 63.8275C1094.2 66.6055 1090.82 67.3631 1084.01 69.536C1088.02 68.9098 1094.97 67.0688 1100.85 64.8898C1109.3 65.2157 1113.39 64.6529 1121.95 65.4496C1132.7 64.333 1137.06 63.9934 1145.96 66.352C1153 66.6523 1154.21 66.6659 1160.66 67.6573C1167.71 67.8369 1169.06 67.9425 1174.79 68.7453C1183.8 68.3756 1190.98 67.8037 1200.76 68.7362C1210.05 68.024 1215.93 67.8791 1223.17 68.5476C1234.45 69.5873 1230.18 71.1129 1225.68 74.1113C1223.96 76.6827 1224.13 76.5725 1219.48 78.7032C1216.94 81.0663 1214.82 82.3369 1211.09 84.5159C1193.18 88.6204 1192.05 89.0972 1170.81 87.4373C1167.07 87.8991 1163.09 88.0651 1158.98 88.0575C1154.41 89.3885 1148.78 89.5409 1145.27 89.3779C1132.78 92.0142 1129.95 91.2581 1118.69 88.5963C1113.02 89.0309 1108.95 89.2044 1102.9 89.3447C1096.72 88.1511 1088.22 86.6481 1082.04 85.4545C1072.21 85.2236 1068.93 84.7619 1063.71 83.5426C1061.44 84.0089 1058.93 84.2594 1056.27 84.365C1048.51 85.8589 1044.49 86.3871 1036 87.3589L1036 87.3574Z" fill="url(#paint41_radial_2467_1348)"/>
<path style="mix-blend-mode:screen" fill-rule="evenodd" clip-rule="evenodd" d="M1206.93 67.5048C1203.47 66.9752 1199.44 66.9012 1195.53 66.0894C1195.09 65.9989 1194.77 65.7891 1194.22 65.7876C1193.9 65.7876 1194.22 66.0064 1194.16 66.1166C1193.84 66.7337 1189.44 67.0491 1190.88 67.4294C1191.68 67.6376 1197.12 67.7976 1200.81 67.9032C1202.98 67.9651 1208.74 67.7825 1206.92 67.5048H1206.93Z" fill="url(#paint42_radial_2467_1348)"/>
<path style="mix-blend-mode:screen" fill-rule="evenodd" clip-rule="evenodd" d="M1246.02 47.8971C1247.43 46.7578 1249.1 45.1749 1252.41 44.778C1253.62 44.6347 1256.96 45.0074 1256.08 44.7192C1253.81 43.9813 1251.58 43.2947 1249.25 42.4813C1248.59 42.2489 1249.27 43.1317 1249.27 43.4712C1249.27 43.5195 1249.32 43.5693 1249.27 43.6146C1248.27 44.5849 1247.24 45.5552 1246.12 46.5104C1246.05 46.5692 1245.84 46.5979 1245.71 46.6401C1245.18 46.8092 1244.55 46.9253 1244.08 47.0928C1243.98 47.1291 1244.36 47.126 1244.5 47.1442C1245.03 47.2151 1245.76 47.2 1246.08 47.3584C1246.38 47.5078 1245.8 48.0616 1246.01 47.8956L1246.02 47.8971Z" fill="url(#paint43_radial_2467_1348)"/>
<path style="mix-blend-mode:screen" fill-rule="evenodd" clip-rule="evenodd" d="M1232.65 70.014C1235.41 68.4884 1238.56 68.5775 1243.15 67.8003C1245.31 67.4352 1238.78 67.1032 1237.55 66.3683C1236.71 65.8688 1237.65 64.3372 1236.28 64.7069C1233.63 65.4312 1232.74 66.8316 1229.55 67.2933C1227.02 67.66 1224.58 67.3703 1222 67.1741C1220.72 67.076 1217.2 67.156 1218.22 67.3959C1219.7 67.746 1221.87 67.5891 1223.81 67.7671C1227.19 68.078 1231.5 68.6092 1232.55 69.8646C1232.59 69.9129 1232.58 70.0548 1232.65 70.0125L1232.65 70.014Z" fill="url(#paint44_radial_2467_1348)"/>
<path style="mix-blend-mode:screen" fill-rule="evenodd" clip-rule="evenodd" d="M1315.39 86.1912C1311.72 86.1626 1322.34 87.4679 1325.93 87.3803C1339.41 87.0514 1352.75 85.9241 1366.24 85.6555C1369.93 85.5816 1380.51 86.3799 1377.63 85.5122C1374.18 84.4755 1368.4 84.5479 1363.82 84.8497C1347.09 85.9573 1331.55 86.315 1315.38 86.1912H1315.39Z" fill="url(#paint45_radial_2467_1348)"/>
<path style="mix-blend-mode:screen" fill-rule="evenodd" clip-rule="evenodd" d="M1158.76 89.1288C1168.26 88.3849 1177.8 89.3582 1189.69 90.2711C1193.09 90.5322 1198.54 91.5885 1199.35 91.5085C1201.52 91.2942 1207.62 89.9588 1211.79 89.3567C1218.29 88.4181 1225.67 88.2325 1234.16 87.6349C1242.37 87.0585 1250.16 86.0112 1258.03 85.7049C1271.42 85.1858 1284.74 85.7049 1298.53 86.2662C1301.27 86.3779 1304.04 86.1304 1306.8 86.0701C1307.5 86.055 1309.59 86.0535 1308.89 86.0338C1301 85.7984 1293.04 85.5676 1284.95 85.3895C1277.98 85.2371 1270.98 84.6229 1264.06 84.9187C1253.71 85.3608 1247.52 85.6551 1237.14 85.8045C1225.41 85.9735 1216.78 89.9844 1217.83 83.633C1217.97 82.7638 1220.9 80.369 1219.25 81.0406C1211.76 84.0948 1218.06 83.9439 1208.34 86.1108C1194.01 89.3099 1190.87 89.2707 1170.95 88.2747C1167.21 88.0876 1163.61 88.7621 1159.85 88.8617C1159.4 88.8738 1158.32 89.1605 1158.76 89.1258V89.1288Z" fill="url(#paint46_radial_2467_1348)"/>
</g>
<defs>
<radialGradient id="paint0_radial_2467_1348" cx="0" cy="0" r="1" gradientUnits="userSpaceOnUse" gradientTransform="translate(448.5 61) scale(145.588 48.4016)">
<stop stop-color="#FFA000"/>
<stop offset="0.64" stop-color="#FF6633"/>
<stop offset="1" stop-color="#A82B00"/>
</radialGradient>
<radialGradient id="paint1_radial_2467_1348" cx="0" cy="0" r="1" gradientUnits="userSpaceOnUse" gradientTransform="translate(426.695 83.1477) scale(34.6008 11.5033)">
<stop stop-color="#FFD014"/>
<stop offset="1"/>
</radialGradient>
<radialGradient id="paint2_radial_2467_1348" cx="0" cy="0" r="1" gradientUnits="userSpaceOnUse" gradientTransform="translate(404.644 54.4853) scale(40.6018 13.4984)">
<stop stop-color="#FFD014"/>
<stop offset="1"/>
</radialGradient>
<radialGradient id="paint3_radial_2467_1348" cx="0" cy="0" r="1" gradientUnits="userSpaceOnUse" gradientTransform="translate(456.133 57.0902) scale(37.1107 12.3377)">
<stop stop-color="#FFD014"/>
<stop offset="1"/>
</radialGradient>
<radialGradient id="paint4_radial_2467_1348" cx="0" cy="0" r="1" gradientUnits="userSpaceOnUse" gradientTransform="translate(462.262 42.8096) scale(121.574 40.418)">
<stop stop-color="#FFD014"/>
<stop offset="1"/>
</radialGradient>
<radialGradient id="paint5_radial_2467_1348" cx="0" cy="0" r="1" gradientUnits="userSpaceOnUse" gradientTransform="translate(362.084 30.051) scale(94.4137 31.3885)">
<stop stop-color="#FFD014"/>
<stop offset="1"/>
</radialGradient>
<radialGradient id="paint6_radial_2467_1348" cx="0" cy="0" r="1" gradientUnits="userSpaceOnUse" gradientTransform="translate(545.557 75.0903) scale(50.0643 16.6443)">
<stop stop-color="#FFD014"/>
<stop offset="1"/>
</radialGradient>
<radialGradient id="paint7_radial_2467_1348" cx="0" cy="0" r="1" gradientUnits="userSpaceOnUse" gradientTransform="translate(508.046 80.3477) scale(56.6127 18.8213)">
<stop stop-color="#FFD014"/>
<stop offset="1"/>
</radialGradient>
<radialGradient id="paint8_radial_2467_1348" cx="0" cy="0" r="1" gradientUnits="userSpaceOnUse" gradientTransform="translate(504.679 62.5263) scale(37.2487 12.3836)">
<stop stop-color="#FFD014"/>
<stop offset="1"/>
</radialGradient>
<radialGradient id="paint9_radial_2467_1348" cx="0" cy="0" r="1" gradientUnits="userSpaceOnUse" gradientTransform="translate(524.95 59.5539) scale(38.3138 12.7377)">
<stop stop-color="#FFD014"/>
<stop offset="1"/>
</radialGradient>
<radialGradient id="paint10_radial_2467_1348" cx="0" cy="0" r="1" gradientUnits="userSpaceOnUse" gradientTransform="translate(523.101 53.8131) scale(53.945 17.9344)">
<stop stop-color="#FFD014"/>
<stop offset="1"/>
</radialGradient>
<radialGradient id="paint11_radial_2467_1348" cx="0" cy="0" r="1" gradientUnits="userSpaceOnUse" gradientTransform="translate(137.004 65.0041) scale(129.487 73.1213)">
<stop stop-color="#FFA000"/>
<stop offset="0.64" stop-color="#FF6633"/>
<stop offset="1" stop-color="#A82B00"/>
</radialGradient>
<radialGradient id="paint12_radial_2467_1348" cx="0" cy="0" r="1" gradientUnits="userSpaceOnUse" gradientTransform="translate(89.2303 38.0921) scale(31.9046 18.0165)">
<stop stop-color="#FFD014"/>
<stop offset="1"/>
</radialGradient>
<radialGradient id="paint13_radial_2467_1348" cx="0" cy="0" r="1" gradientUnits="userSpaceOnUse" gradientTransform="translate(177.434 61.04) scale(30.145 17.0229)">
<stop stop-color="#FFD014"/>
<stop offset="1"/>
</radialGradient>
<radialGradient id="paint14_radial_2467_1348" cx="0" cy="0" r="1" gradientUnits="userSpaceOnUse" gradientTransform="translate(56.3004 50.5886) scale(22.2525 12.566)">
<stop stop-color="#FFD014"/>
<stop offset="1"/>
</radialGradient>
<radialGradient id="paint15_radial_2467_1348" cx="0" cy="0" r="1" gradientUnits="userSpaceOnUse" gradientTransform="translate(92.2811 61.7993) scale(28.4219 16.0498)">
<stop stop-color="#FFD014"/>
<stop offset="1"/>
</radialGradient>
<radialGradient id="paint16_radial_2467_1348" cx="0" cy="0" r="1" gradientUnits="userSpaceOnUse" gradientTransform="translate(120.567 61.3393) scale(29.7488 16.7991)">
<stop stop-color="#FFD014"/>
<stop offset="1"/>
</radialGradient>
<radialGradient id="paint17_radial_2467_1348" cx="0" cy="0" r="1" gradientUnits="userSpaceOnUse" gradientTransform="translate(114.598 86.2233) scale(28.0111 15.8178)">
<stop stop-color="#FFD014"/>
<stop offset="1"/>
</radialGradient>
<radialGradient id="paint18_radial_2467_1348" cx="0" cy="0" r="1" gradientUnits="userSpaceOnUse" gradientTransform="translate(62.7608 91.8688) scale(37.8849 21.3936)">
<stop stop-color="#FFD014"/>
<stop offset="1"/>
</radialGradient>
<radialGradient id="paint19_radial_2467_1348" cx="0" cy="0" r="1" gradientUnits="userSpaceOnUse" gradientTransform="translate(47.7249 70.6989) scale(33.5441 18.9424)">
<stop stop-color="#FFD014"/>
<stop offset="1"/>
</radialGradient>
<radialGradient id="paint20_radial_2467_1348" cx="0" cy="0" r="1" gradientUnits="userSpaceOnUse" gradientTransform="translate(75.5573 67.4491) scale(33.2061 18.7515)">
<stop stop-color="#FFD014"/>
<stop offset="1"/>
</radialGradient>
<radialGradient id="paint21_radial_2467_1348" cx="0" cy="0" r="1" gradientUnits="userSpaceOnUse" gradientTransform="translate(698.5 59.5015) rotate(-180) scale(100.512 36.0307)">
<stop stop-color="#FFA000"/>
<stop offset="0.64" stop-color="#FF6633"/>
<stop offset="1" stop-color="#A82B00"/>
</radialGradient>
<radialGradient id="paint22_radial_2467_1348" cx="0" cy="0" r="1" gradientUnits="userSpaceOnUse" gradientTransform="translate(633.658 52.6098) rotate(-180) scale(16.5896 5.94687)">
<stop stop-color="#FFD014"/>
<stop offset="1"/>
</radialGradient>
<radialGradient id="paint23_radial_2467_1348" cx="0" cy="0" r="1" gradientUnits="userSpaceOnUse" gradientTransform="translate(629.647 62.5525) rotate(-180) scale(30.2931 10.8592)">
<stop stop-color="#FFD014"/>
<stop offset="1"/>
</radialGradient>
<radialGradient id="paint24_radial_2467_1348" cx="0" cy="0" r="1" gradientUnits="userSpaceOnUse" gradientTransform="translate(675.96 69.3066) rotate(-180) scale(31.4878 11.2875)">
<stop stop-color="#FFD014"/>
<stop offset="1"/>
</radialGradient>
<radialGradient id="paint25_radial_2467_1348" cx="0" cy="0" r="1" gradientUnits="userSpaceOnUse" gradientTransform="translate(705.327 72.2268) rotate(-180) scale(25.5399 9.15531)">
<stop stop-color="#FFD014"/>
<stop offset="1"/>
</radialGradient>
<radialGradient id="paint26_radial_2467_1348" cx="0" cy="0" r="1" gradientUnits="userSpaceOnUse" gradientTransform="translate(733.96 61.7253) rotate(-180) scale(25.5218 9.14882)">
<stop stop-color="#FFD014"/>
<stop offset="1"/>
</radialGradient>
<radialGradient id="paint27_radial_2467_1348" cx="0" cy="0" r="1" gradientUnits="userSpaceOnUse" gradientTransform="translate(757.514 55.4948) rotate(-180) scale(20.3755 7.30404)">
<stop stop-color="#FFD014"/>
<stop offset="1"/>
</radialGradient>
<radialGradient id="paint28_radial_2467_1348" cx="0" cy="0" r="1" gradientUnits="userSpaceOnUse" gradientTransform="translate(673.628 46.3337) rotate(-180) scale(20.8462 7.47279)">
<stop stop-color="#FFD014"/>
<stop offset="1"/>
</radialGradient>
<radialGradient id="paint29_radial_2467_1348" cx="0" cy="0" r="1" gradientUnits="userSpaceOnUse" gradientTransform="translate(745.106 47.488) rotate(-180) scale(22.478 8.05771)">
<stop stop-color="#FFD014"/>
<stop offset="1"/>
</radialGradient>
<radialGradient id="paint30_radial_2467_1348" cx="0" cy="0" r="1" gradientUnits="userSpaceOnUse" gradientTransform="translate(771.286 46.8484) rotate(-180) scale(12.9846 4.6546)">
<stop stop-color="#FFD014"/>
<stop offset="1"/>
</radialGradient>
<radialGradient id="paint31_radial_2467_1348" cx="0" cy="0" r="1" gradientUnits="userSpaceOnUse" gradientTransform="translate(920.5 66.9978) scale(153.215 57.6494)">
<stop stop-color="#FFA000"/>
<stop offset="0.64" stop-color="#FF6633"/>
<stop offset="1" stop-color="#A82B00"/>
</radialGradient>
<radialGradient id="paint32_radial_2467_1348" cx="0" cy="0" r="1" gradientUnits="userSpaceOnUse" gradientTransform="translate(1019.34 78.0244) scale(25.2883 9.51503)">
<stop stop-color="#FFD014"/>
<stop offset="1"/>
</radialGradient>
<radialGradient id="paint33_radial_2467_1348" cx="0" cy="0" r="1" gradientUnits="userSpaceOnUse" gradientTransform="translate(1025.46 62.1164) scale(46.1771 17.3748)">
<stop stop-color="#FFD014"/>
<stop offset="1"/>
</radialGradient>
<radialGradient id="paint34_radial_2467_1348" cx="0" cy="0" r="1" gradientUnits="userSpaceOnUse" gradientTransform="translate(954.858 51.3092) scale(47.9983 18.06)">
<stop stop-color="#FFD014"/>
<stop offset="1"/>
</radialGradient>
<radialGradient id="paint35_radial_2467_1348" cx="0" cy="0" r="1" gradientUnits="userSpaceOnUse" gradientTransform="translate(910.092 46.6367) scale(38.9316 14.6485)">
<stop stop-color="#FFD014"/>
<stop offset="1"/>
</radialGradient>
<radialGradient id="paint36_radial_2467_1348" cx="0" cy="0" r="1" gradientUnits="userSpaceOnUse" gradientTransform="translate(866.447 63.4399) scale(38.904 14.6382)">
<stop stop-color="#FFD014"/>
<stop offset="1"/>
</radialGradient>
<radialGradient id="paint37_radial_2467_1348" cx="0" cy="0" r="1" gradientUnits="userSpaceOnUse" gradientTransform="translate(830.543 73.4087) scale(31.0593 11.6865)">
<stop stop-color="#FFD014"/>
<stop offset="1"/>
</radialGradient>
<radialGradient id="paint38_radial_2467_1348" cx="0" cy="0" r="1" gradientUnits="userSpaceOnUse" gradientTransform="translate(958.415 88.0656) scale(31.7768 11.9565)">
<stop stop-color="#FFD014"/>
<stop offset="1"/>
</radialGradient>
<radialGradient id="paint39_radial_2467_1348" cx="0" cy="0" r="1" gradientUnits="userSpaceOnUse" gradientTransform="translate(849.456 86.2196) scale(34.2642 12.8924)">
<stop stop-color="#FFD014"/>
<stop offset="1"/>
</radialGradient>
<radialGradient id="paint40_radial_2467_1348" cx="0" cy="0" r="1" gradientUnits="userSpaceOnUse" gradientTransform="translate(809.552 87.2428) scale(19.793 7.44738)">
<stop stop-color="#FFD014"/>
<stop offset="1"/>
</radialGradient>
<radialGradient id="paint41_radial_2467_1348" cx="0" cy="0" r="1" gradientUnits="userSpaceOnUse" gradientTransform="translate(1252 63.5015) scale(165.84 55.3473)">
<stop stop-color="#FFA000"/>
<stop offset="0.64" stop-color="#FF6633"/>
<stop offset="1" stop-color="#A82B00"/>
</radialGradient>
<radialGradient id="paint42_radial_2467_1348" cx="0" cy="0" r="1" gradientUnits="userSpaceOnUse" gradientTransform="translate(1209.03 63.4849) scale(37.2754 12.4402)">
<stop stop-color="#FFD014"/>
<stop offset="1"/>
</radialGradient>
<radialGradient id="paint43_radial_2467_1348" cx="0" cy="0" r="1" gradientUnits="userSpaceOnUse" gradientTransform="translate(1262.38 41.8189) scale(42.3983 14.1499)">
<stop stop-color="#FFD014"/>
<stop offset="1"/>
</radialGradient>
<radialGradient id="paint44_radial_2467_1348" cx="0" cy="0" r="1" gradientUnits="userSpaceOnUse" gradientTransform="translate(1248.24 72.5386) scale(54.8597 18.3088)">
<stop stop-color="#FFD014"/>
<stop offset="1"/>
</radialGradient>
<radialGradient id="paint45_radial_2467_1348" cx="0" cy="0" r="1" gradientUnits="userSpaceOnUse" gradientTransform="translate(1383.06 80.2035) scale(96.8284 32.3153)">
<stop stop-color="#FFD014"/>
<stop offset="1"/>
</radialGradient>
<radialGradient id="paint46_radial_2467_1348" cx="0" cy="0" r="1" gradientUnits="userSpaceOnUse" gradientTransform="translate(1231.71 108.156) scale(141.23 47.1338)">
<stop stop-color="#FFD014"/>
<stop offset="1"/>
</radialGradient>
<clipPath id="clip0_2467_1348">
<rect width="1440" height="157" fill="white"/>
</clipPath>
<clipPath id="clip1_2467_1348">
<rect width="373" height="58" fill="white" transform="translate(262 32)"/>
</clipPath>
</defs>
</svg>
