<svg width="767" height="741" viewBox="0 0 767 741" fill="none" xmlns="http://www.w3.org/2000/svg">
<g clip-path="url(#clip0_2458_1107)">
<rect width="767" height="741" fill="#331600"/>
<path fill-rule="evenodd" clip-rule="evenodd" d="M153.861 106.113C147.735 102.708 142.339 109.084 142.674 112.428C143.273 118.413 145.886 125.445 147.885 132.877C149.998 140.739 148.904 141.437 155.667 136.334C158.44 131.519 160.756 126.251 161.624 119.464C159.638 113.281 158.12 108.476 153.866 106.113H153.861ZM109.298 155.095C117.367 160.561 126.667 162.028 135.821 160.429C147.527 158.378 148.178 151.808 145.023 142.107C144.674 132.83 142.646 126.746 140.146 119.615C138.17 113.979 135.128 108.702 123.729 105.66C106.326 94.5535 96.8515 114.795 90.3149 132.486C82.8114 152.794 86.9758 148.106 109.298 155.095ZM8.06913 65.9733C14.1294 63.7944 19.9964 61.4222 25.3917 58.5736C38.9791 60.0639 40.7052 59.5687 54.0803 56.7673C61.598 58.8566 70.5729 58.8141 78.614 58.4651C88.5321 58.036 93.9133 52.1313 96.4931 45.9672C102.973 41.2416 110.34 32.6581 114.193 27.824C124.87 27.7674 130.931 24.8952 139.434 19C143.056 19.3254 148.484 20.811 159.478 24.966C162.996 23.2399 168.448 21.7165 171.985 20.0281C179.352 22.6692 182.252 24.018 190.369 23.5181C195.392 25.098 194.878 24.8151 199.867 23.3389C204.626 23.9803 206.612 23.5464 211.361 22.9522C210.064 23.8624 206.692 24.584 204.357 25.3999C202.023 25.348 198.467 26.0083 195.029 28.8474C182.795 24.2491 171.042 20.9572 159.27 28.3664C149.928 22.1551 138.717 24.5745 128.271 29.0408C117.23 33.7617 107.062 40.9492 101.605 49.3817C97.4222 53.2632 93.6869 55.6307 92.0127 60.4506C96.71 62.9219 101.365 65.2612 106.043 67.407C107.515 89.7618 111.882 98.3358 129.53 103.656C134.944 105.288 143.91 105.089 153.135 97.3549C154.035 93.5678 154.941 89.7759 155.842 85.9888C158.478 80.4756 160.181 77.146 161.595 72.6703C164.746 71.4205 167.599 69.784 169.745 67.1995C176.961 68.0626 182.686 68.0107 186.285 63.535C190.558 58.2152 189.213 54.1498 188.247 48.1791C192.826 45.2786 195.156 44.9202 198.528 37.0536C203.64 36.6339 208.583 35.7519 213.865 34.2852C226.028 41.4868 239.568 38.2185 246.341 33.0212C249.647 32.5968 252.958 31.5734 256.264 29.5926C265.135 30.3189 270.676 29.8284 279.538 29.0502C274.728 30.5547 269.917 32.0591 265.107 33.5589C253.123 30.7905 250.552 34.7662 239.847 40.9539C233.97 40.803 231.386 41.0246 225.594 42.0386C215.153 38.3836 208.262 36.0396 198.891 44.0241C190.775 47.3302 191.76 50.8532 192.755 58.9981C189.921 65.8082 195.128 64.7565 198.245 64.1481C212.384 67.8787 229.301 65.181 242.45 59.2763C258.174 61.4458 260.933 58.8707 275.105 53.3198C297.611 59.6772 310.08 65.7186 333.199 62.7003C343.268 62.4739 344.207 61.1628 353.408 57.1069C356.521 56.9324 359.449 56.3145 361.888 54.579C370.65 61.6203 370.353 62.2522 381.196 65.2234C382.894 70.3358 385.431 74.703 389.133 78.0326C389.803 83.3949 390.906 86.6255 394.245 91.1436C400.381 99.4442 405.248 101.765 413.671 107.264C410.469 106.825 404.305 102.712 399.056 101.312C395.189 96.3456 391.444 91.4596 387.331 86.6963C379.521 62.4503 362.722 55.2534 339.519 67.3929C330.855 67.4919 322.196 67.6004 313.537 67.756C300.572 63.8982 289.838 60.9034 276.548 58.3755C268.927 60.0734 264.159 61.8514 256.881 64.6905C252.552 64.3887 248.223 64.0868 243.893 63.7897C236.762 65.2989 229.844 68.039 222.963 71.1894C212.167 69.2511 206.503 68.6615 195.538 68.6615C192.59 68.7229 189.643 68.7794 186.695 68.8408C175.456 70.3499 166.434 69.6567 161.982 80.9001C157.639 91.8747 156.544 101.213 164.086 112.928C169 111.093 173.31 110.433 176.668 105.259C182.413 107.051 185.054 107.82 198.25 104.887C215.299 110.244 217.393 107.797 232.89 100.916C247.213 110.419 249.953 110.244 266.087 104.755C275.958 108.589 280.651 108.551 289.904 103.161L307.585 107.207C293.342 106.608 293.809 105.104 281.967 110.669C267.342 109.773 266.559 107.424 251.472 113.404C245.827 111.593 244.049 110.985 238.12 110.645C228.754 104.745 225.193 108.259 215.388 111.838C202.579 110.754 196.854 105.717 183.45 112.645C173.702 110.565 172.971 113.107 165.387 119.516C162.062 126.341 160.218 132.123 158.902 139.39C151.956 144.951 148.706 146.781 149.668 157.166C150.022 161.014 151.927 164.075 154.031 170.06C150.385 166.339 147.287 162.811 145.924 162.806C138.213 162.792 127.969 163.929 119.569 164.103C90.8384 152.657 89.5131 145.837 63.6401 165.004C60.6311 169.093 57.6269 173.182 54.618 177.271C53.7785 177.629 52.9343 177.992 52.0948 178.351C49.6896 178.473 47.2843 178.591 44.8743 178.714C41.8088 181.001 38.7433 183.284 35.673 185.571C29.0562 184.487 22.4441 183.407 15.8273 182.322C9.14914 182.926 2.47572 183.524 -4.20241 184.128C-12.8 185.751 -21.4024 187.378 -30 189C-26.5713 187.736 -23.1427 186.472 -19.714 185.213C-10.6919 183.048 -1.66981 180.883 7.35227 178.719C13.6673 179.44 19.9822 180.162 26.2972 180.883C29.2448 180.643 32.1925 180.402 35.1401 180.162C38.2056 178.596 41.2759 177.035 44.3414 175.469C46.8693 174.988 49.3924 174.507 51.9203 174.026C54.0851 171.498 56.2498 168.975 58.4145 166.447C59.4379 164.344 60.4614 162.236 61.48 160.132C80.359 148.478 85.0469 145.413 84.2121 120.441C91.0459 116.04 94.0407 114.168 100.681 104.429C102.968 101.076 105.539 98.4443 105.407 94.5487C105.289 91.1578 105.062 88.1253 101.893 84.1778C105.265 71.0479 98.6248 62.837 84.5705 63.2473C75.9022 60.8987 73.5063 60.6534 64.3758 61.3467C60.5462 61.6391 56.7686 62.106 52.0948 62.8889C45.9779 62.4173 42.1484 62.2145 36.0362 62.705C32.3198 62.257 28.4289 62.2381 24.4909 62.3466C19.5814 64.167 12.3986 65.3885 8.0597 65.9639L8.06913 65.9733Z" fill="url(#paint0_radial_2458_1107)"/>
<path style="mix-blend-mode:screen" fill-rule="evenodd" clip-rule="evenodd" d="M109.685 37.0724C113.811 35.6669 117.32 32.6957 120.607 29.932C121.867 28.8756 116.981 29.3614 115.41 30.3329C113.019 31.8138 106.808 38.0486 109.68 37.0676L109.685 37.0724Z" fill="url(#paint1_radial_2458_1107)"/>
<path style="mix-blend-mode:screen" fill-rule="evenodd" clip-rule="evenodd" d="M230.027 104.981C232.517 105.736 235.338 106.217 238.913 108.179C239.285 108.381 240.53 108.485 240.172 108.268C238.054 106.981 235.852 105.023 232.659 103.793C231.72 103.429 229.15 104.712 230.027 104.976V104.981Z" fill="url(#paint2_radial_2458_1107)"/>
<path style="mix-blend-mode:screen" fill-rule="evenodd" clip-rule="evenodd" d="M83.4716 60.3516C83.0094 60.5072 84.4007 60.7053 84.8865 60.7289C86.3815 60.8044 87.8294 61.1675 89.1782 60.927C89.6262 60.8468 89.4753 60.0639 89.6263 59.6347C89.9281 58.7622 91.4797 56.8946 90.6921 57.2153C88.2963 58.1916 86.0561 59.465 83.4716 60.3516Z" fill="url(#paint3_radial_2458_1107)"/>
<path style="mix-blend-mode:screen" fill-rule="evenodd" clip-rule="evenodd" d="M143.113 105.801C141.802 104.938 139.83 106.094 137.953 106.188C135.973 106.287 133.742 105.32 133.6 106.976C133.492 108.273 138.411 111.013 140.312 113.899C140.538 114.243 140.208 113.083 140.17 112.678C139.92 110.206 145.24 107.202 143.113 105.801Z" fill="url(#paint4_radial_2458_1107)"/>
<path style="mix-blend-mode:screen" fill-rule="evenodd" clip-rule="evenodd" d="M157.747 105.896C157.214 102.41 156.228 99.3072 156.049 96.0011C156.011 95.3361 155.738 97.3028 155.582 97.9536C155.521 98.2272 155.535 98.529 155.389 98.7648C155.242 99.0006 154.959 99.1232 154.747 99.3025C153.299 100.519 150.04 100.713 150.106 102.623C150.168 104.292 153.469 103.009 155.087 103.91C156.091 104.467 157.907 106.976 157.747 105.9V105.896Z" fill="url(#paint5_radial_2458_1107)"/>
<path style="mix-blend-mode:screen" fill-rule="evenodd" clip-rule="evenodd" d="M148.668 146.04C148.776 146.332 148.97 145.488 149.139 145.219C149.927 143.96 151.762 143.267 152.101 141.744C152.332 140.715 150.13 142.244 149.22 141.876C148.408 141.55 148.125 140.725 147.456 140.315C147.078 140.079 147.418 141.225 147.526 141.663C147.923 143.215 148.168 144.715 148.668 146.04Z" fill="url(#paint6_radial_2458_1107)"/>
<path style="mix-blend-mode:screen" fill-rule="evenodd" clip-rule="evenodd" d="M84.7403 141.711C84.0942 143.527 83.2877 145.262 82.2407 146.851C80.1844 149.988 69.7428 156.208 73.7798 155.209C79.4534 153.803 83.0283 151.407 86.7871 150.535C87.4332 150.384 85.8344 149.615 85.4713 149.049C84.0847 146.908 84.2215 144.338 84.6884 141.942C84.7025 141.862 84.7639 141.631 84.7356 141.706L84.7403 141.711Z" fill="url(#paint7_radial_2458_1107)"/>
<path style="mix-blend-mode:screen" fill-rule="evenodd" clip-rule="evenodd" d="M94.8045 115.762C95.2101 114.692 93.1161 117.318 92.2012 118.04C90.4797 119.398 87.3718 119.686 86.787 121.804C85.4617 126.6 86.5464 132.203 85.9098 137.376C85.6551 139.428 87.2727 133.448 87.9519 131.609C88.7442 129.467 89.5601 127.331 90.4279 125.218C91.6069 122.341 93.4981 119.229 94.8045 115.762Z" fill="url(#paint8_radial_2458_1107)"/>
<path style="mix-blend-mode:screen" fill-rule="evenodd" clip-rule="evenodd" d="M104.491 103.448C104.147 105.523 107.991 101.189 109.962 100.599C111.952 100 115.027 101.797 115.848 100.048C116.636 98.3639 112.966 97.6754 111.721 96.2181C108.156 92.0301 106.524 86.531 105.086 80.9753C104.869 80.1358 104.199 82.8005 104.633 83.6164C106.628 87.3941 107.788 90.0823 107.939 94.4825C108.066 98.18 105.029 100.213 104.496 103.453L104.491 103.448Z" fill="url(#paint9_radial_2458_1107)"/>
<path fill-rule="evenodd" clip-rule="evenodd" d="M815.042 584.169C808.171 585.174 804.395 586.111 799.122 587.918C791.162 590.644 787.413 588.009 779.161 585.91C766.733 585.479 760.363 582.536 751.427 574.275C741.817 578.05 736.853 578.138 730.983 570.286C727.207 569.324 724.029 567.56 721.442 565C695.285 580.711 684.52 582.113 657.583 569.55C646.227 576.409 637.544 582.949 623.853 580.968C604.019 589.947 583.174 588.022 562.307 584.974C548.568 585.81 548.79 586.903 536.067 581.686C506.491 587.491 467.536 590.539 441.321 581.334C428.85 583.546 427.187 582.941 414.768 580.306C409.512 581.186 402.876 581.891 399 582.941C404.06 582.98 409.142 582.592 414.18 583.058C422.562 583.829 430.849 585.431 439.192 586.594C449.312 586.311 452.761 587.225 462.632 589.446C475.57 590.439 486.678 591.741 499.484 593.792C524.862 586.05 548.851 590.452 575.135 592.168C581.967 592.629 588.795 593.091 595.623 593.552C606.213 590.744 611.53 590.313 621.511 590.996L637.2 587.478C637.827 594.458 637.94 595.116 636.272 601.922C633.468 607.953 630.659 613.984 627.838 620.006C627.372 622.344 627.328 624.809 626.44 627.021C621.868 638.382 620.474 638.13 607.711 638.826C601.82 642.732 597.378 647.126 590.485 645.158C580.722 646.495 577.282 646.947 570.036 639.506C562.172 637.132 557.7 635.752 550.989 631.075C545.838 629.029 541.932 627.269 538.819 622.654C533.606 619.679 529.326 617.028 524.405 613.601C519.459 614.101 516.759 614.132 511.803 613.792C508.058 611.515 503.055 607.866 500.508 607.343C504.148 610.204 508.146 612.782 511.059 616.17C520.203 615.369 522.476 615.334 530.541 619.984C535.348 622.758 538.501 625.192 542.925 631.023C548.246 632.403 550.82 633.644 552.71 636.78C564.153 639.584 569.004 642.066 577.23 650.949C583.5 650.409 586.239 649.638 592.379 651.145C600.243 645.672 605.887 640.707 612.253 642.11C619.926 643.799 619.943 647.087 619.852 653.244C618.358 658.691 616.86 664.135 615.366 669.578C615.014 675.356 614.665 681.135 614.313 686.913C613.241 689.874 612.175 692.835 611.108 695.796C606.827 707.671 605.969 706.469 594.787 701.318C581.558 702.132 575.218 697.586 563.996 691.207C548.272 687.353 530.232 678.443 521.222 664.727C513.07 661.174 512.578 660.83 506.068 654.772C499.528 652.482 494.516 649.952 490.619 646.024C481.988 645.097 473.802 644.361 465.358 642.71C458.517 647.426 459.092 646.973 450.875 648.275C447.688 650.57 445.824 652.338 443.817 653.083C441.204 654.054 438.417 653.976 433.457 654.725C435.987 655.164 439.014 655.482 444.875 655.125C450.731 650.161 453.954 651.189 458.125 651.977C460.703 648.85 463.721 646.586 467.218 646.055C470.719 645.523 483.921 645.637 492.225 650.026C503.399 655.931 513.097 666.264 518.244 672.957C530.38 677.098 540.974 685.084 551.865 691.755C564.445 694.838 568.778 696.767 579.089 704.666C592.061 704.483 607.441 706.378 610.62 722.555C611.765 728.381 611.844 732.57 611.922 741.026C612.871 738.801 613.707 733.001 614.609 728.381C612.118 722.537 611.992 717.921 611.974 710.81L614.691 703.351C617.583 700.577 620.605 699.667 628.696 699.358C629.645 697.312 631.091 696.036 632.723 695.043C637.492 693.75 642.421 693.149 647.455 692.996C648.787 691.69 650.333 690.558 652.362 689.796C651.683 687.344 651.888 685.006 652.332 682.698C653.673 680.15 656.821 674.982 662.7 674.002C664.333 667.231 665.683 664.688 668.914 658.526C666.305 661.117 663.009 666.347 661.568 671.333C659.299 674.124 657.579 674.481 654.958 674.777C652.641 678.753 653.033 679.049 649.144 681.492C648.94 686.682 649.266 689.012 647.633 690.384C644.681 692.861 635.785 692.36 631.9 692.391C627.537 696.428 625.582 697.542 619.525 697.307C617.892 698.64 616.468 698.6 615.123 698.056L615.227 695.613C615.858 691.503 616.494 687.392 617.13 683.281C617.278 680.068 617.426 676.85 617.574 673.632C618.319 672.321 619.068 671.015 619.817 669.704C620.57 664.779 621.228 657.202 623.148 652.917C625.665 647.304 628.73 641.23 635.589 644.853C644.433 643.063 651.84 642.332 660.165 647.527C662.569 649.024 664.72 651.389 669.663 656.627C683.214 655.173 696.992 652.447 702.16 660.999C706.881 660.168 708 661.483 711.583 660.947C716.735 660.176 721.621 660.329 728.579 660.368C725.553 659.393 721.294 659.184 717.684 658.417C706.297 661.191 706.759 660.638 696.948 654.154C687.102 653.274 681.354 653.558 671.5 654.337C665.674 648.959 660.34 644.478 671.496 642.362C680.466 640.655 691.344 641.26 697.484 647.222C706.567 648.785 706.615 648.65 714.479 653.453C721.799 651.929 724.569 651.79 732.045 651.916C742.884 649.778 743.75 650.322 754.654 652.068C758.991 644.052 762.244 641.866 768.802 635.595C764.939 637.402 758.255 642.715 752.59 649.003C744.447 648.062 740.51 649.686 732.272 647.387C721.917 650.61 717.719 651.589 709.145 644.783C702.361 643.917 701.198 643.877 694.984 641.017C688.195 640.498 686.898 640.194 681.376 637.877C672.706 638.944 665.783 640.594 656.368 637.903C647.42 639.958 641.759 640.376 634.787 638.447C623.923 635.447 628.034 631.045 632.371 622.392C634.03 614.972 633.864 615.29 638.341 609.142C640.784 602.322 642.826 598.656 646.418 592.368C663.671 580.524 664.76 579.148 685.213 583.938C688.814 582.605 692.646 582.126 696.604 582.148C701.011 578.307 706.428 577.868 709.807 578.338C721.834 570.731 724.564 572.912 735.411 580.594C740.867 579.339 744.791 578.839 750.608 578.434C756.561 581.878 764.752 586.215 770.704 589.66C780.167 590.326 783.333 591.658 788.353 595.177C790.544 593.831 792.956 593.108 795.521 592.804C802.997 588.493 806.869 586.969 815.038 584.164L815.042 584.169Z" fill="url(#paint10_radial_2458_1107)"/>
<path style="mix-blend-mode:screen" fill-rule="evenodd" clip-rule="evenodd" d="M650.429 641.456C653.76 642.985 657.644 643.198 661.407 645.541C661.825 645.802 662.134 646.408 662.665 646.412C662.979 646.412 662.665 645.78 662.722 645.463C663.035 643.682 667.272 642.772 665.879 641.674C665.117 641.073 659.878 640.612 656.321 640.307C654.235 640.128 648.683 640.655 650.433 641.456L650.429 641.456Z" fill="url(#paint11_radial_2458_1107)"/>
<path style="mix-blend-mode:screen" fill-rule="evenodd" clip-rule="evenodd" d="M612.784 698.039C611.421 701.327 609.815 705.895 606.623 707.04C605.464 707.453 602.242 706.378 603.096 707.21C605.282 709.339 607.428 711.32 609.667 713.667C610.307 714.338 609.649 711.791 609.649 710.811C609.649 710.671 609.606 710.528 609.649 710.397C610.616 707.597 611.604 704.797 612.689 702.041C612.754 701.871 612.95 701.788 613.081 701.666C613.586 701.179 614.195 700.843 614.648 700.36C614.744 700.255 614.382 700.264 614.248 700.212C613.738 700.007 613.028 700.051 612.723 699.594C612.436 699.163 612.989 697.564 612.789 698.043L612.784 698.039Z" fill="url(#paint12_radial_2458_1107)"/>
<path style="mix-blend-mode:screen" fill-rule="evenodd" clip-rule="evenodd" d="M625.656 634.215C623 638.617 619.965 638.36 615.545 640.603C613.463 641.657 619.751 642.615 620.936 644.735C621.741 646.176 620.844 650.596 622.155 649.529C624.715 647.439 625.569 643.398 628.643 642.066C631.082 641.008 633.424 641.844 635.911 642.41C637.143 642.693 640.531 642.462 639.551 641.77C638.123 640.759 636.033 641.212 634.169 640.699C630.912 639.801 626.766 638.269 625.756 634.646C625.717 634.506 625.726 634.097 625.652 634.219L625.656 634.215Z" fill="url(#paint13_radial_2458_1107)"/>
<path style="mix-blend-mode:screen" fill-rule="evenodd" clip-rule="evenodd" d="M545.978 587.534C549.505 587.617 539.276 583.851 535.827 584.103C522.842 585.052 509.996 588.305 497.007 589.08C493.449 589.294 483.256 586.99 486.034 589.494C489.352 592.486 494.926 592.277 499.332 591.406C515.448 588.209 530.41 587.177 545.982 587.534L545.978 587.534Z" fill="url(#paint14_radial_2458_1107)"/>
<path style="mix-blend-mode:screen" fill-rule="evenodd" clip-rule="evenodd" d="M696.818 579.056C687.669 581.203 678.481 578.395 667.033 575.76C663.754 575.007 658.507 571.959 657.732 572.189C655.633 572.808 649.763 576.662 645.748 578.399C639.491 581.107 632.384 581.643 624.202 583.367C616.299 585.031 608.796 588.053 601.219 588.937C588.321 590.435 575.493 588.937 562.211 587.317C559.568 586.995 556.903 587.709 554.247 587.883C553.577 587.927 551.56 587.931 552.231 587.988C559.83 588.667 567.502 589.333 575.292 589.847C581.998 590.287 588.739 592.059 595.406 591.206C605.373 589.93 611.339 589.081 621.337 588.649C632.628 588.162 640.936 576.587 639.931 594.916C639.791 597.424 636.978 604.334 638.559 602.397C645.779 593.583 639.713 594.019 649.066 587.765C662.874 578.534 665.896 578.647 685.082 581.521C688.684 582.061 692.145 580.115 695.773 579.827C696.204 579.792 697.24 578.965 696.818 579.065L696.818 579.056Z" fill="url(#paint15_radial_2458_1107)"/>
<path fill-rule="evenodd" clip-rule="evenodd" d="M-115 723.762C-112.049 721.725 -107.642 719.827 -103.806 718.901C-98.5264 715.88 -95.1095 712.306 -91.8613 706.689C-84.2649 707.766 -77.3262 707.417 -69.6307 706.997C-64.6887 709.652 -59.6651 711.817 -54.6008 713.639C-36.6603 710.839 -25.2802 710.711 -7.13014 710.083C1.32203 706.811 11.9687 702.818 20.4267 699.547C25.3397 701.433 28.8847 703.074 33.7278 703.645C41.365 698.924 46.3013 693.504 50.1373 687.375C66.9078 681.781 66.4421 664.37 58.5662 653.176C63.6247 645.766 66.9136 640.539 66.512 636.027C72.6124 624.077 74.3704 615.933 76.984 602.323C83.2708 596.968 88.143 591.083 92.0664 584.854C118.057 581.251 120.892 581.827 143.233 568.066C151.435 563.02 163.694 540.824 148.525 535.102C145.178 533.839 142.808 533.28 137.971 532.645C133.879 527.447 131.539 526.44 128.139 525.177C125.764 522.232 124.053 521.091 118.412 520.351C114.169 517.464 111.375 516.3 105.426 515.427C94.3017 505.781 89.4818 507.562 78.6256 517.802C71.9546 516.492 67.1581 520.893 61.1508 524.345C51.6566 519.793 44.0718 520.136 39.9621 522.814C37.0574 527.302 34.1586 531.79 31.2597 536.278C28.3375 540.399 25.4154 544.526 22.499 548.647C14.6289 550.155 9.7218 551.005 2.3116 554.044C-1.58268 555.639 -5.15098 557.909 -8.8881 559.841C-7.60165 558.357 -0.791015 553.601 4.26748 550.935C9.89643 549.119 15.2984 547.437 21.0088 545.888C23.704 541.953 26.4049 538.018 29.1001 534.089C32.0688 529.397 34.8338 524.822 36.5568 519.985C37.6978 519.315 39.9039 517.26 40.5908 515.788C45.9113 516.457 50.2188 516.475 54.5439 516.434C56.9538 517.662 59.4161 518.57 61.9599 519.042C68.2816 516.428 69.7485 515.729 75.1562 511.538C81.3615 510.688 82.7352 509.652 86.4258 506.835C88.4457 506.189 90.0406 505.217 91.7869 504C95.3261 505.793 99.1913 506.992 103.487 507.423C110.548 514.158 117.312 515.462 126.574 516.422C134.758 523.646 138.157 527.412 148.822 529.164C156.901 533.07 158.071 534.229 167.012 535.131C179.324 544.881 193.353 548.601 208.161 556.68C214.524 565.61 221.375 576.944 237.371 578.608C244.642 580.739 245.521 580.721 253.094 580.483C254.98 581.635 257.041 583.079 259.561 583.539C262.303 582.963 264.631 582.392 267.204 581.467C286.053 584.744 286.35 586.554 304.494 580.494C313.941 589.668 322.073 599.57 333.745 606.136C336.056 606.846 338.594 607.236 341.388 607.184C345.183 608.988 350.515 611.096 358.601 609.082C365.394 611.748 369.003 612.481 376.937 609.862C384.632 608.715 388.026 608.197 391.513 604.978C397.264 604.675 399.167 604.192 404.686 602.556C409.034 604.559 409.063 605.1 413.848 604.989C416.642 606.998 419.675 607.196 423.063 607.987C426.881 608.68 430.688 609.373 434.501 610.065C432.109 610.537 427.033 609.856 423.534 609.844C421.794 609.355 417.056 607.888 412.37 608.075C409.383 606.788 407.462 605.886 403.958 605.606C395.611 607.242 381.111 611.008 366.133 616.073C360.254 613.494 356.284 613.046 353.373 615.298C337.278 610.653 332.749 614.39 331.637 625.386C331.317 628.6 331.23 631.83 331.137 635.096C330.997 640.009 332.941 645.172 344.42 642.937C350.34 644.38 356.231 646.313 362.338 646.54C366.447 653.915 369.637 655.58 375.586 661.535C379.236 669.702 381.698 675.965 388.113 680.116C396.426 685.483 417.067 687.648 427.65 688.917C430.397 691.706 433.314 694.034 436.428 695.844C439.117 696.007 441.801 696.17 444.479 696.333C450.666 701.002 459.27 702.958 472.466 696.543C477.53 693.859 481.751 689.115 486 684.866C484.655 688.23 479.725 694.418 477.181 698.924C471.284 701.002 464.474 703.255 459.037 706.375C449.473 703.214 442.214 701.258 432.458 699.285C430.572 696.816 428.267 694.401 425.124 693.725C413.086 691.123 404.791 689.232 392.462 689.232C387.671 684.575 382.577 680.314 376.18 676.885C375.458 671.867 373.957 667.426 371.803 663.468C369.113 661.116 366.244 659.073 363.1 657.484C362.39 655.085 361.15 652.716 359.619 650.364C341.557 644.992 327.999 648.542 310.216 650.836C302.113 646.424 293.056 643.647 283.556 641.645C277.566 641.627 271.43 642.425 265.12 644.212C258.001 640.183 254.887 639.13 243.158 642.419C239.333 641.167 234.088 639.566 229.391 639.392C218.785 638.99 207.952 641.79 197.043 644.305C190.308 641.615 183.573 638.926 176.838 636.237C184.056 637.599 191.274 638.955 198.493 640.317C209.157 639.089 219.798 637.302 230.374 634.293C238.151 638.268 243.338 637.442 253.862 633.74C257.099 635.428 260.673 636.26 264.515 636.406C274.242 640.824 276.198 638.251 286.775 635.917C296.211 640.725 304.901 645.69 313.924 645.434C328.226 645.021 329.379 633.6 327.26 625.072C329.693 616.853 330.45 611.911 329.565 607.83C326.707 604.436 324.547 602.335 318.43 601.188C308.528 586.49 303.167 584.651 286.291 590.536C277.496 587.643 270.604 585.07 258.193 589.697C250.469 586.781 245.084 587.258 241.545 587.747C232.61 584.889 228.168 583.259 217.696 582.427C212.358 573.439 202.381 563.177 190.337 555.615C182.869 550.923 175.104 548.938 167.891 551.308C163.852 552.635 151.907 566.122 147.873 573.16C135.055 578.05 129.269 580.785 118.517 589.307C97.3635 592.544 89.2955 592.503 81.0122 613.971C77.6185 622.738 76.1051 630.491 73.9746 642.541C70.4645 648.659 69.0034 652.961 68.9975 657.35C68.9743 672.776 75.4065 676.385 88.9812 678.742C91.9558 681.728 97.4043 685.826 100.385 688.812C109.256 691.31 113.651 691.426 122.58 692.468C137.517 697.998 144.171 701.013 160.295 701.386C167.659 697.538 169.492 694.82 172.414 689.901C207.789 693.65 206.444 692.34 241.202 677.956C244.95 680.285 249.165 681.245 253.49 681.891C265.941 688.824 273.13 691.094 287.293 695.012C281.635 694.831 275.79 695.932 269.987 695.262C264.596 691.909 258.513 689.581 252.78 686.734C234.024 684.336 223.29 690.239 206.974 697.241C199.738 696.537 197.94 696.467 190.762 697.66C185.867 696.444 181.024 696.38 176.21 696.811C170.738 699.919 167.53 702.643 162.664 706.619C157.92 705.769 153.141 705.746 148.333 706.875C139.811 703.738 131.714 700.845 123.046 698.167C115.339 697.439 107.876 696.921 100.146 696.496C94.2493 691.35 90.6984 686.205 86.222 684.208C79.068 681.018 67.4491 678.014 67.3269 688.824C49.2234 692.177 43.4781 699.896 34.4845 710.647C16.4276 703.697 9.52389 710.1 -7.18253 716.195C-26.3396 715.979 -36.0491 716.398 -54.9326 719.856C-74.2352 709.378 -84.195 705.007 -100.756 720.7C-105.058 721.236 -111.071 722.429 -115 723.774L-115 723.762Z" fill="url(#paint16_radial_2458_1107)"/>
<path style="mix-blend-mode:screen" fill-rule="evenodd" clip-rule="evenodd" d="M328.954 640.771C326.689 640.975 323.581 645.323 324.256 645.719C325.607 646.511 331.41 645.381 332.394 644.799C332.912 644.491 330.001 640.678 328.954 640.771Z" fill="url(#paint17_radial_2458_1107)"/>
<path style="mix-blend-mode:screen" fill-rule="evenodd" clip-rule="evenodd" d="M332.917 609.128C331.538 609.553 331.474 613.93 332.923 613.552C335.63 612.842 337.819 611.8 340.392 610.286C341.114 609.861 335.339 608.383 332.912 609.128H332.917Z" fill="url(#paint18_radial_2458_1107)"/>
<path style="mix-blend-mode:screen" fill-rule="evenodd" clip-rule="evenodd" d="M191.269 552.507C191.379 552.769 191.758 552.804 191.996 552.955C202.265 559.405 210.81 570.709 219.53 579.435C222.528 582.433 227.831 580.459 231.969 581.542C235.293 582.409 238.402 584.365 241.836 584.546C246.865 584.814 251.22 584.546 255.94 585.64C257.291 585.954 253.682 583.871 252.256 583.614C249.811 583.172 247.197 583.789 244.752 583.515C242.057 583.213 239.438 582.083 236.76 581.664C229.181 580.471 222.685 577.857 217.033 572.648C212.649 568.608 210.827 562.49 206.037 559.061C201.368 555.726 196.525 552.949 191.269 551.226C190.861 551.092 191.1 552.117 191.269 552.513V552.507Z" fill="url(#paint19_radial_2458_1107)"/>
<path style="mix-blend-mode:screen" fill-rule="evenodd" clip-rule="evenodd" d="M155.399 558.153C155.853 560.266 164.031 549.27 166.924 548.321C170.725 547.076 174.521 547.338 178.293 547.489C178.735 547.506 178.689 546.365 178.293 546.168C174.23 544.124 169.876 542.64 165.807 540.277C161.528 537.797 158.28 535.899 154.945 535.498C153.449 535.317 156.912 537.814 157.57 539.275C159.974 544.584 154.898 555.836 155.399 558.147V558.153Z" fill="url(#paint20_radial_2458_1107)"/>
<path style="mix-blend-mode:screen" fill-rule="evenodd" clip-rule="evenodd" d="M77.8222 613.575C77.7639 613.837 78.0142 613.075 78.1074 612.824C86.7982 590.314 95.9198 590.565 117.231 586.327C119.367 585.902 120.886 583.94 122.435 582.427C123.005 581.862 120.91 582.951 120.147 583.184C116.334 584.348 112.434 585.087 108.499 585.704C103.65 586.467 97.8116 584.779 93.8941 587.747C88.1429 592.119 84.1555 598.179 79.8246 603.976C77.7581 606.747 78.4858 610.531 77.8222 613.575Z" fill="url(#paint21_radial_2458_1107)"/>
<path style="mix-blend-mode:screen" fill-rule="evenodd" clip-rule="evenodd" d="M66.1221 662.233C66.6693 663.654 65.8835 659.084 65.8835 657.326C65.8893 651.546 69.0152 646.755 71.006 641.447C72.7174 636.883 73.9864 632.051 73.7768 627.284C73.6371 624.03 70.3191 633.117 69.6497 636.72C68.6252 642.168 63.3979 647.605 62.3094 653.222C61.6632 656.54 64.9754 659.282 66.128 662.245L66.1221 662.233Z" fill="url(#paint22_radial_2458_1107)"/>
<path style="mix-blend-mode:screen" fill-rule="evenodd" clip-rule="evenodd" d="M235.148 683.853C238.145 684.656 241.469 683.766 244.816 683.061C246.167 682.776 242.389 681.338 240.98 681.402C238.873 681.501 233.098 683.306 235.142 683.853H235.148Z" fill="url(#paint23_radial_2458_1107)"/>
<path style="mix-blend-mode:screen" fill-rule="evenodd" clip-rule="evenodd" d="M51.756 690.599C55.7492 688.696 60.6214 688.876 64.4517 686.216C66.5356 684.778 66.0583 681.472 68.2703 679.935C70.4881 678.398 78.0263 680.349 76.1287 678.171C74.8772 676.734 72.1937 675.075 70.8257 672.542C68.3343 667.95 67.304 662.699 66.8499 666.465C65.6566 676.303 63.2001 685.64 52.1751 689.953C51.9364 690.046 51.5115 690.71 51.7501 690.599H51.756Z" fill="url(#paint24_radial_2458_1107)"/>
<path style="mix-blend-mode:screen" fill-rule="evenodd" clip-rule="evenodd" d="M15.0767 704.937C18.4646 705.152 21.8524 704.861 25.9039 704.954C27.8248 705.001 22.4229 702.905 20.4204 702.882C18.517 702.859 13.1732 704.809 15.0825 704.931L15.0767 704.937Z" fill="url(#paint25_radial_2458_1107)"/>
<path fill-rule="evenodd" clip-rule="evenodd" d="M348 136.994C350.124 135.956 353.294 134.989 356.055 134.517C359.854 132.977 362.313 131.156 364.65 128.293C370.116 128.842 375.109 128.664 380.646 128.451C384.202 129.803 387.817 130.907 391.461 131.835C404.371 130.408 412.559 130.343 425.62 130.023C431.702 128.356 439.363 126.321 445.449 124.653C448.984 125.615 451.535 126.451 455.02 126.742C460.515 124.336 464.067 121.574 466.827 118.451C478.895 115.6 478.56 106.727 472.893 101.022C476.533 97.246 478.899 94.5821 478.61 92.2831C483 86.1929 484.265 82.0427 486.145 75.1071C490.669 72.3779 494.175 69.3788 496.998 66.2046C515.7 64.3684 517.74 64.662 533.816 57.6492C539.718 55.0773 548.539 43.766 537.624 40.85C535.215 40.2063 533.511 39.9215 530.03 39.5981C527.085 36.949 525.401 36.4358 522.955 35.7921C521.246 34.2911 520.015 33.7096 515.956 33.3329C512.902 31.8615 510.892 31.2682 506.611 30.8232C498.607 25.9077 495.138 26.8155 487.327 32.0336C482.526 31.3661 479.075 33.6088 474.752 35.3679C467.921 33.0481 462.463 33.2231 459.506 34.5877C457.416 36.8749 455.33 39.162 453.244 41.4492C451.141 43.5495 449.038 45.6527 446.94 47.753C441.277 48.5213 437.746 48.9544 432.414 50.503C429.611 51.3158 427.044 52.4727 424.355 53.4576C425.28 52.7011 430.181 50.2775 433.821 48.9188C437.871 47.9933 441.758 47.136 445.867 46.3469C447.807 44.3415 449.75 42.3362 451.69 40.3338C453.826 37.9428 455.815 35.6112 457.055 33.146C457.876 32.8048 459.464 31.7577 459.958 31.0072C463.786 31.3483 466.886 31.3572 469.998 31.3364C471.732 31.9624 473.504 32.4251 475.335 32.6654C479.883 31.3335 480.939 30.9775 484.83 28.8416C489.295 28.4085 490.284 27.8805 492.939 26.4447C494.393 26.1154 495.541 25.62 496.797 25C499.344 25.9137 502.125 26.5248 505.216 26.7443C510.297 30.1765 515.164 30.841 521.828 31.3305C527.718 35.0119 530.164 36.9312 537.837 37.8242C543.651 39.8147 544.493 40.405 550.927 40.8648C559.786 45.8337 569.88 47.7293 580.536 51.8468C585.115 56.3974 590.045 62.1731 601.555 63.0216C606.787 64.1073 607.419 64.0984 612.868 63.9768C614.226 64.5641 615.708 65.2998 617.522 65.5342C619.495 65.2405 621.17 64.9498 623.022 64.4781C636.585 66.1482 636.798 67.0708 649.854 63.9827C656.652 68.6579 662.504 73.7039 670.902 77.0501C672.565 77.412 674.391 77.6108 676.402 77.5841C679.133 78.5037 682.969 79.5776 688.787 78.5512C693.676 79.9098 696.273 80.2836 701.982 78.9487C707.519 78.3643 709.961 78.1003 712.47 76.4598C716.608 76.3055 717.978 76.0593 721.949 75.2257C725.078 76.2462 725.099 76.5221 728.542 76.4657C730.552 77.4892 732.735 77.59 735.172 77.9935C737.92 78.3465 740.66 78.6995 743.403 79.0525C741.682 79.2928 738.029 78.9457 735.512 78.9398C734.259 78.6906 730.85 77.943 727.478 78.038C725.329 77.3824 723.947 76.9226 721.425 76.7802C715.419 77.6137 704.985 79.5331 694.208 82.1139C689.977 80.7998 687.12 80.5713 685.026 81.7194C673.444 79.3521 670.186 81.2566 669.386 86.8603C669.155 88.4978 669.092 90.1442 669.025 91.8084C668.925 94.3121 670.324 96.9434 678.584 95.8043C682.844 96.54 687.083 97.5249 691.477 97.6406C694.434 101.399 696.729 102.248 701.01 105.282C703.636 109.444 705.408 112.636 710.024 114.751C716.005 117.486 730.858 118.59 738.473 119.237C740.45 120.658 742.549 121.844 744.79 122.767C746.725 122.85 748.656 122.933 750.582 123.016C755.035 125.395 761.226 126.392 770.721 123.123C774.366 121.755 777.402 119.337 780.46 117.172C779.492 118.887 775.945 122.04 774.114 124.336C769.871 125.395 764.97 126.543 761.058 128.133C754.176 126.522 748.953 125.526 741.933 124.52C740.576 123.262 738.917 122.031 736.655 121.687C727.993 120.361 722.024 119.397 713.153 119.397C709.706 117.024 706.04 114.852 701.437 113.105C700.918 110.548 699.837 108.284 698.287 106.267C696.352 105.069 694.287 104.027 692.025 103.218C691.514 101.995 690.622 100.788 689.52 99.5895C676.523 96.8515 666.768 98.661 653.972 99.8298C648.141 97.5812 641.623 96.1662 634.788 95.1457C630.477 95.1368 626.063 95.5432 621.522 96.454C616.399 94.4011 614.159 93.8642 605.718 95.5403C602.967 94.9025 599.193 94.0867 595.812 93.9977C588.181 93.793 580.386 95.2199 572.536 96.5014C567.69 95.1309 562.844 93.7604 557.997 92.3899C563.191 93.084 568.385 93.7752 573.579 94.4694C581.253 93.8434 588.909 92.9327 596.52 91.399C602.116 93.4252 605.848 93.0039 613.421 91.1172C615.75 91.9775 618.322 92.4017 621.087 92.4759C628.086 94.7275 629.493 93.4163 637.104 92.2267C643.894 94.677 650.147 97.2074 656.64 97.0769C666.931 96.8663 667.761 91.046 666.236 86.7001C667.987 82.5114 668.531 79.9929 667.895 77.9134C665.838 76.1839 664.284 75.113 659.882 74.5286C652.757 67.0382 648.899 66.1008 636.756 69.0999C630.427 67.6256 625.468 66.3144 616.538 68.6727C610.979 67.1865 607.105 67.4298 604.558 67.679C598.129 66.2224 594.933 65.3918 587.397 64.9676C583.556 60.3873 576.377 55.1574 567.711 51.3039C562.337 48.9129 556.749 47.9013 551.559 49.1087C548.652 49.7851 540.057 56.6584 537.155 60.2449C527.931 62.7368 523.768 64.131 516.031 68.474C500.81 70.1233 495.004 70.1026 489.044 81.043C486.602 85.5106 485.513 89.4619 483.98 95.6026C481.454 98.7204 480.403 100.913 480.399 103.149C480.382 111.011 485.01 112.85 494.778 114.051C496.919 115.573 500.839 117.661 502.984 119.183C509.367 120.456 512.53 120.515 518.955 121.046C529.703 123.864 534.491 125.401 546.093 125.591C551.392 123.63 552.711 122.245 554.814 119.738C580.268 121.648 579.301 120.981 604.311 113.651C607.009 114.837 610.041 115.327 613.153 115.656C622.113 119.189 627.286 120.346 637.477 122.343C633.405 122.251 629.2 122.811 625.024 122.47C621.145 120.761 616.768 119.575 612.642 118.124C599.146 116.902 591.423 119.91 579.682 123.479C574.475 123.12 573.181 123.084 568.017 123.692C564.494 123.072 561.009 123.04 557.545 123.259C553.608 124.843 551.3 126.232 547.798 128.258C544.384 127.825 540.945 127.813 537.486 128.388C531.353 126.789 525.527 125.315 519.29 123.95C513.744 123.58 508.375 123.316 502.812 123.099C498.569 120.477 496.014 117.854 492.793 116.837C487.645 115.211 479.284 113.68 479.196 119.189C466.17 120.898 462.036 124.831 455.564 130.311C442.571 126.769 437.603 130.032 425.582 133.138C411.797 133.028 404.81 133.241 391.223 135.004C377.333 129.664 370.166 127.436 358.25 135.434C355.154 135.707 350.827 136.315 348 137L348 136.994Z" fill="url(#paint26_radial_2458_1107)"/>
<path style="mix-blend-mode:screen" fill-rule="evenodd" clip-rule="evenodd" d="M667.455 94.7006C665.825 94.8044 663.589 97.0204 664.074 97.2221C665.046 97.6255 669.222 97.05 669.93 96.7534C670.303 96.5962 668.209 94.6531 667.455 94.7006Z" fill="url(#paint27_radial_2458_1107)"/>
<path style="mix-blend-mode:screen" fill-rule="evenodd" clip-rule="evenodd" d="M670.307 78.5747C669.315 78.7913 669.268 81.0221 670.311 80.8293C672.259 80.4674 673.834 79.9364 675.685 79.1651C676.205 78.9485 672.05 78.195 670.303 78.5747H670.307Z" fill="url(#paint28_radial_2458_1107)"/>
<path style="mix-blend-mode:screen" fill-rule="evenodd" clip-rule="evenodd" d="M568.381 49.7198C568.461 49.8533 568.733 49.8711 568.905 49.9482C576.294 53.2351 582.443 58.996 588.717 63.4428C590.874 64.9705 594.69 63.9649 597.668 64.5166C600.06 64.9586 602.297 65.9554 604.768 66.0474C608.387 66.1838 611.52 66.0474 614.917 66.6051C615.889 66.7652 613.292 65.7032 612.266 65.5727C610.507 65.3473 608.626 65.6617 606.867 65.5223C604.927 65.368 603.042 64.7925 601.116 64.5789C595.662 63.9708 590.987 62.6389 586.92 59.9838C583.766 57.9251 582.455 54.8073 579.008 53.06C575.649 51.3602 572.164 49.9452 568.381 49.0671C568.088 48.9989 568.26 49.521 568.381 49.7227V49.7198Z" fill="url(#paint29_radial_2458_1107)"/>
<path style="mix-blend-mode:screen" fill-rule="evenodd" clip-rule="evenodd" d="M542.57 52.5972C542.896 53.674 548.781 48.0703 550.863 47.5868C553.598 46.952 556.329 47.0854 559.043 47.1626C559.362 47.1715 559.328 46.59 559.043 46.4892C556.12 45.4479 552.987 44.6915 550.059 43.4871C546.98 42.2234 544.643 41.2563 542.243 41.0516C541.166 40.9596 543.659 42.2323 544.132 42.9769C545.862 45.6823 542.209 51.4165 542.57 52.5942V52.5972Z" fill="url(#paint30_radial_2458_1107)"/>
<path style="mix-blend-mode:screen" fill-rule="evenodd" clip-rule="evenodd" d="M486.749 80.8412C486.708 80.9747 486.888 80.5861 486.955 80.4586C493.208 68.9871 499.772 69.1147 515.106 66.9551C516.644 66.7385 517.737 65.7388 518.851 64.9675C519.262 64.6798 517.754 65.2345 517.205 65.3532C514.461 65.9465 511.655 66.3232 508.824 66.6377C505.334 67.0263 501.133 66.166 498.314 67.6789C494.176 69.9067 491.307 72.9949 488.19 75.9495C486.703 77.3615 487.227 79.2898 486.749 80.8412Z" fill="url(#paint31_radial_2458_1107)"/>
<path style="mix-blend-mode:screen" fill-rule="evenodd" clip-rule="evenodd" d="M478.329 105.638C478.723 106.362 478.158 104.033 478.158 103.137C478.162 100.192 480.411 97.7502 481.844 95.0448C483.075 92.7191 483.988 90.2569 483.838 87.8273C483.737 86.169 481.349 90.7997 480.868 92.636C480.131 95.4126 476.369 98.1833 475.586 101.046C475.121 102.737 477.504 104.134 478.334 105.644L478.329 105.638Z" fill="url(#paint32_radial_2458_1107)"/>
<path style="mix-blend-mode:screen" fill-rule="evenodd" clip-rule="evenodd" d="M599.955 116.656C602.112 117.065 604.504 116.611 606.912 116.252C607.884 116.107 605.165 115.374 604.152 115.407C602.635 115.457 598.48 116.377 599.951 116.656H599.955Z" fill="url(#paint33_radial_2458_1107)"/>
<path style="mix-blend-mode:screen" fill-rule="evenodd" clip-rule="evenodd" d="M467.992 120.094C470.866 119.124 474.372 119.216 477.128 117.86C478.627 117.127 478.284 115.442 479.876 114.659C481.471 113.876 486.896 114.87 485.53 113.76C484.63 113.028 482.699 112.182 481.714 110.892C479.922 108.551 479.18 105.875 478.854 107.795C477.995 112.808 476.227 117.566 468.294 119.765C468.122 119.812 467.816 120.15 467.988 120.094H467.992Z" fill="url(#paint34_radial_2458_1107)"/>
<path style="mix-blend-mode:screen" fill-rule="evenodd" clip-rule="evenodd" d="M441.599 127.401C444.037 127.51 446.475 127.362 449.39 127.409C450.772 127.433 446.885 126.365 445.444 126.353C444.075 126.342 440.23 127.335 441.604 127.398L441.599 127.401Z" fill="url(#paint35_radial_2458_1107)"/>
</g>
<defs>
<radialGradient id="paint0_radial_2458_1107" cx="0" cy="0" r="1" gradientUnits="userSpaceOnUse" gradientTransform="translate(191.84 104.009) scale(167.981 167.981)">
<stop stop-color="#FFA000"/>
<stop offset="0.64" stop-color="#FF6633"/>
<stop offset="1" stop-color="#A82B00"/>
</radialGradient>
<radialGradient id="paint1_radial_2458_1107" cx="0" cy="0" r="1" gradientUnits="userSpaceOnUse" gradientTransform="translate(129.865 42.1847) scale(41.3894 41.3893)">
<stop stop-color="#FFD014"/>
<stop offset="1"/>
</radialGradient>
<radialGradient id="paint2_radial_2458_1107" cx="0" cy="0" r="1" gradientUnits="userSpaceOnUse" gradientTransform="translate(244.289 94.9025) scale(39.1067 39.1067)">
<stop stop-color="#FFD014"/>
<stop offset="1"/>
</radialGradient>
<radialGradient id="paint3_radial_2458_1107" cx="0" cy="0" r="1" gradientUnits="userSpaceOnUse" gradientTransform="translate(87.1455 70.8923) scale(28.8678 28.8678)">
<stop stop-color="#FFD014"/>
<stop offset="1"/>
</radialGradient>
<radialGradient id="paint4_radial_2458_1107" cx="0" cy="0" r="1" gradientUnits="userSpaceOnUse" gradientTransform="translate(133.822 96.6473) scale(36.8712 36.8712)">
<stop stop-color="#FFD014"/>
<stop offset="1"/>
</radialGradient>
<radialGradient id="paint5_radial_2458_1107" cx="0" cy="0" r="1" gradientUnits="userSpaceOnUse" gradientTransform="translate(170.518 95.5908) scale(38.5927 38.5926)">
<stop stop-color="#FFD014"/>
<stop offset="1"/>
</radialGradient>
<radialGradient id="paint6_radial_2458_1107" cx="0" cy="0" r="1" gradientUnits="userSpaceOnUse" gradientTransform="translate(162.774 152.756) scale(36.3383 36.3382)">
<stop stop-color="#FFD014"/>
<stop offset="1"/>
</radialGradient>
<radialGradient id="paint7_radial_2458_1107" cx="0" cy="0" r="1" gradientUnits="userSpaceOnUse" gradientTransform="translate(95.5262 165.726) scale(49.1475 49.1474)">
<stop stop-color="#FFD014"/>
<stop offset="1"/>
</radialGradient>
<radialGradient id="paint8_radial_2458_1107" cx="0" cy="0" r="1" gradientUnits="userSpaceOnUse" gradientTransform="translate(76.0199 117.092) scale(43.5163 43.5163)">
<stop stop-color="#FFD014"/>
<stop offset="1"/>
</radialGradient>
<radialGradient id="paint9_radial_2458_1107" cx="0" cy="0" r="1" gradientUnits="userSpaceOnUse" gradientTransform="translate(112.127 109.626) scale(43.0778 43.0777)">
<stop stop-color="#FFD014"/>
<stop offset="1"/>
</radialGradient>
<radialGradient id="paint10_radial_2458_1107" cx="0" cy="0" r="1" gradientUnits="userSpaceOnUse" gradientTransform="translate(607.023 653.009) rotate(-180) scale(159.714 159.714)">
<stop stop-color="#FFA000"/>
<stop offset="0.64" stop-color="#FF6633"/>
<stop offset="1" stop-color="#A82B00"/>
</radialGradient>
<radialGradient id="paint11_radial_2458_1107" cx="0" cy="0" r="1" gradientUnits="userSpaceOnUse" gradientTransform="translate(648.409 653.057) rotate(-180) scale(35.8985 35.8985)">
<stop stop-color="#FFD014"/>
<stop offset="1"/>
</radialGradient>
<radialGradient id="paint12_radial_2458_1107" cx="0" cy="0" r="1" gradientUnits="userSpaceOnUse" gradientTransform="translate(597.03 715.579) rotate(-180) scale(40.8321 40.8321)">
<stop stop-color="#FFD014"/>
<stop offset="1"/>
</radialGradient>
<radialGradient id="paint13_radial_2458_1107" cx="0" cy="0" r="1" gradientUnits="userSpaceOnUse" gradientTransform="translate(610.642 626.93) rotate(-180) scale(52.8332 52.8332)">
<stop stop-color="#FFD014"/>
<stop offset="1"/>
</radialGradient>
<radialGradient id="paint14_radial_2458_1107" cx="0" cy="0" r="1" gradientUnits="userSpaceOnUse" gradientTransform="translate(480.8 604.813) rotate(-180) scale(93.2516 93.2515)">
<stop stop-color="#FFD014"/>
<stop offset="1"/>
</radialGradient>
<radialGradient id="paint15_radial_2458_1107" cx="0" cy="0" r="1" gradientUnits="userSpaceOnUse" gradientTransform="translate(626.567 524.151) rotate(-180) scale(136.013)">
<stop stop-color="#FFD014"/>
<stop offset="1"/>
</radialGradient>
<radialGradient id="paint16_radial_2458_1107" cx="0" cy="0" r="1" gradientUnits="userSpaceOnUse" gradientTransform="translate(185.5 613.878) scale(226.247 226.247)">
<stop stop-color="#FFA000"/>
<stop offset="0.64" stop-color="#FF6633"/>
<stop offset="1" stop-color="#A82B00"/>
</radialGradient>
<radialGradient id="paint17_radial_2458_1107" cx="0" cy="0" r="1" gradientUnits="userSpaceOnUse" gradientTransform="translate(331.457 657.152) scale(37.3421 37.342)">
<stop stop-color="#FFD014"/>
<stop offset="1"/>
</radialGradient>
<radialGradient id="paint18_radial_2458_1107" cx="0" cy="0" r="1" gradientUnits="userSpaceOnUse" gradientTransform="translate(340.485 594.721) scale(68.1879 68.1878)">
<stop stop-color="#FFD014"/>
<stop offset="1"/>
</radialGradient>
<radialGradient id="paint19_radial_2458_1107" cx="0" cy="0" r="1" gradientUnits="userSpaceOnUse" gradientTransform="translate(236.236 552.309) scale(70.8771 70.8771)">
<stop stop-color="#FFD014"/>
<stop offset="1"/>
</radialGradient>
<radialGradient id="paint20_radial_2458_1107" cx="0" cy="0" r="1" gradientUnits="userSpaceOnUse" gradientTransform="translate(170.132 533.972) scale(57.4887 57.4887)">
<stop stop-color="#FFD014"/>
<stop offset="1"/>
</radialGradient>
<radialGradient id="paint21_radial_2458_1107" cx="0" cy="0" r="1" gradientUnits="userSpaceOnUse" gradientTransform="translate(105.682 599.913) scale(57.4479 57.4479)">
<stop stop-color="#FFD014"/>
<stop offset="1"/>
</radialGradient>
<radialGradient id="paint22_radial_2458_1107" cx="0" cy="0" r="1" gradientUnits="userSpaceOnUse" gradientTransform="translate(52.6639 639.037) scale(45.864 45.864)">
<stop stop-color="#FFD014"/>
<stop offset="1"/>
</radialGradient>
<radialGradient id="paint23_radial_2458_1107" cx="0" cy="0" r="1" gradientUnits="userSpaceOnUse" gradientTransform="translate(241.487 696.56) scale(46.9235 46.9237)">
<stop stop-color="#FFD014"/>
<stop offset="1"/>
</radialGradient>
<radialGradient id="paint24_radial_2458_1107" cx="0" cy="0" r="1" gradientUnits="userSpaceOnUse" gradientTransform="translate(80.5934 689.313) scale(50.5966 50.5966)">
<stop stop-color="#FFD014"/>
<stop offset="1"/>
</radialGradient>
<radialGradient id="paint25_radial_2458_1107" cx="0" cy="0" r="1" gradientUnits="userSpaceOnUse" gradientTransform="translate(21.6661 693.329) scale(29.2275 29.2275)">
<stop stop-color="#FFD014"/>
<stop offset="1"/>
</radialGradient>
<radialGradient id="paint26_radial_2458_1107" cx="0" cy="0" r="1" gradientUnits="userSpaceOnUse" gradientTransform="translate(564.23 80.9956) scale(162.8 115.299)">
<stop stop-color="#FFA000"/>
<stop offset="0.64" stop-color="#FF6633"/>
<stop offset="1" stop-color="#A82B00"/>
</radialGradient>
<radialGradient id="paint27_radial_2458_1107" cx="0" cy="0" r="1" gradientUnits="userSpaceOnUse" gradientTransform="translate(669.256 103.048) scale(26.8702 19.0301)">
<stop stop-color="#FFD014"/>
<stop offset="1"/>
</radialGradient>
<radialGradient id="paint28_radial_2458_1107" cx="0" cy="0" r="1" gradientUnits="userSpaceOnUse" gradientTransform="translate(675.753 71.2326) scale(49.0658 34.7495)">
<stop stop-color="#FFD014"/>
<stop offset="1"/>
</radialGradient>
<radialGradient id="paint29_radial_2458_1107" cx="0" cy="0" r="1" gradientUnits="userSpaceOnUse" gradientTransform="translate(600.739 49.6189) scale(51.0008 36.12)">
<stop stop-color="#FFD014"/>
<stop offset="1"/>
</radialGradient>
<radialGradient id="paint30_radial_2458_1107" cx="0" cy="0" r="1" gradientUnits="userSpaceOnUse" gradientTransform="translate(553.171 40.2744) scale(41.367 29.2971)">
<stop stop-color="#FFD014"/>
<stop offset="1"/>
</radialGradient>
<radialGradient id="paint31_radial_2458_1107" cx="0" cy="0" r="1" gradientUnits="userSpaceOnUse" gradientTransform="translate(506.796 73.8789) scale(41.3377 29.2763)">
<stop stop-color="#FFD014"/>
<stop offset="1"/>
</radialGradient>
<radialGradient id="paint32_radial_2458_1107" cx="0" cy="0" r="1" gradientUnits="userSpaceOnUse" gradientTransform="translate(468.645 93.8167) scale(33.0022 23.373)">
<stop stop-color="#FFD014"/>
<stop offset="1"/>
</radialGradient>
<radialGradient id="paint33_radial_2458_1107" cx="0" cy="0" r="1" gradientUnits="userSpaceOnUse" gradientTransform="translate(604.516 123.132) scale(33.7646 23.913)">
<stop stop-color="#FFD014"/>
<stop offset="1"/>
</radialGradient>
<radialGradient id="paint34_radial_2458_1107" cx="0" cy="0" r="1" gradientUnits="userSpaceOnUse" gradientTransform="translate(488.743 119.438) scale(36.4076 25.7848)">
<stop stop-color="#FFD014"/>
<stop offset="1"/>
</radialGradient>
<radialGradient id="paint35_radial_2458_1107" cx="0" cy="0" r="1" gradientUnits="userSpaceOnUse" gradientTransform="translate(446.341 121.485) scale(21.0311 14.8948)">
<stop stop-color="#FFD014"/>
<stop offset="1"/>
</radialGradient>
<clipPath id="clip0_2458_1107">
<rect width="767" height="741" fill="white"/>
</clipPath>
</defs>
</svg>
