<svg width="791" height="1149" viewBox="0 0 791 1149" fill="none" xmlns="http://www.w3.org/2000/svg">
<path fill-rule="evenodd" clip-rule="evenodd" d="M767 372V43.4186C762.273 41.9719 755.659 44.4259 749.828 48.4561C742.078 53.8123 735.814 62.535 735.59 72.3061C735.489 76.7038 736.586 80.9651 737.686 85.2369C738.264 87.4851 738.844 89.7361 739.25 92.0114C740.426 98.6101 739.644 106.489 734.453 110.373C731.985 112.22 728.95 112.836 725.92 113.451C722.763 114.091 719.611 114.731 717.112 116.76C712.999 120.1 712.153 125.719 711.305 131.346C710.977 133.526 710.648 135.707 710.13 137.757C706.682 151.38 691.938 160.56 678.969 157.156C677.554 157.945 676.094 158.723 674.619 159.51C665.506 164.37 655.802 169.545 652.502 179.491C651.658 182.034 651.292 184.775 650.928 187.499C650.342 191.893 649.761 196.241 647.188 199.637C644.02 203.814 638.99 205.112 633.901 206.425C629.558 207.546 625.171 208.677 621.862 211.62C617.596 215.415 616.105 221.228 614.603 227.082C613.25 232.359 611.888 237.669 608.478 241.568C607.005 243.496 605.659 244.918 604.418 245.952C601.093 248.727 598.527 248.726 596.318 248.253C595.623 248.104 594.925 247.924 594.227 247.743C591.874 247.134 589.508 246.522 587.185 247.1C584.65 247.731 582.571 249.678 580.529 251.59C577.995 253.962 575.519 256.281 572.301 255.966C570.57 255.796 569.052 254.849 567.533 253.901C566.942 253.532 566.35 253.163 565.745 252.84C562.114 250.896 558.168 250.64 554.178 251.321C549.154 252.177 544.061 254.522 539.439 256.861C536.541 263.702 532.324 264.716 529.032 263.815C527.127 263.293 525.38 262.329 523.63 261.363C522.354 260.659 521.077 259.954 519.736 259.419C516.554 258.147 512.442 258.109 510.299 260.896C507.984 256.743 505.669 252.589 503.354 248.435C505.877 240.281 507.32 235.09 506.962 229.83C506.606 224.569 504.056 219.14 499.483 217.009C498.517 216.558 497.461 216.243 496.409 215.93C494.166 215.261 491.945 214.599 490.664 212.644C488.545 209.404 490.504 205.36 492.292 201.669C492.583 201.069 492.869 200.477 493.133 199.901C497.095 191.235 495.281 180.016 488.819 173.227C485.042 177.78 478.232 178.067 470.643 178.386C463.536 178.685 455.746 179.012 449.123 182.9C448.292 183.387 447.479 183.931 446.666 184.475C444.516 185.914 442.365 187.353 439.879 187.754C436.453 188.307 432.248 185.497 432.986 181.923C425.421 186.042 418.54 191.559 412.752 198.146C410.802 201.782 407.897 203.81 404.999 205.833C403.878 206.617 402.757 207.399 401.693 208.273C397.882 211.407 394.832 215.933 394.46 221.016C394.197 224.632 395.276 228.124 396.353 231.608C396.711 232.767 397.069 233.925 397.377 235.087C398.611 239.741 398.84 245.347 395.615 248.778C393.938 250.563 391.571 251.491 389.242 252.403C386.238 253.58 383.298 254.732 381.992 257.666C381.293 259.236 381.246 261.027 381.211 262.76C381.112 267.652 381.013 272.545 380.914 277.437C380.813 282.458 380.712 287.478 380.61 292.499C380.587 293.633 380.564 294.768 380.541 295.902C380.519 297.005 380.497 298.109 380.474 299.213C380.133 307.343 377.208 310.526 374.169 311.168C372.171 311.59 370.138 311.326 368.1 311.061C367.038 310.924 365.975 310.786 364.914 310.744C361.816 310.623 358.215 311.758 357.126 314.819C356.181 317.473 357.483 320.024 358.82 322.646C359.653 324.279 360.5 325.939 360.829 327.669C361.805 332.808 357.866 337.743 353.323 339.856C350.166 341.324 346.735 341.844 343.302 342.365C341.793 342.593 340.284 342.822 338.797 343.131C333.925 344.145 328.802 346.436 326.578 351.121C315.88 338.414 301.54 333.563 288.446 336.385C287.124 336.67 285.779 337.023 284.425 337.379C279.012 338.802 273.465 340.26 268.741 337.51C266.825 336.393 265.337 334.719 263.926 332.936C263.604 332.529 263.287 332.117 262.969 331.705C262.022 330.476 261.073 329.244 260.011 328.149C254.255 322.205 244.778 320.744 237.651 324.702C227.757 316.018 218.3 308.863 207.734 309.665C207.228 309.703 206.713 309.758 206.194 309.813C203.763 310.073 201.261 310.339 199.274 308.954C198.125 308.152 197.359 306.924 196.592 305.695C196.298 305.223 196.003 304.751 195.686 304.302C192.591 299.917 186.894 297.781 181.871 299.123C168.849 287.486 163.4 267.723 170.05 252.746C168.814 252.484 167.579 252.221 166.345 251.958C167.81 246.973 162.89 241.285 158.052 242.37C157.582 233.435 155.257 224.612 151.289 216.702C149.443 212.118 145.835 211.052 143.171 211.88C141.746 212.324 140.452 213.104 139.157 213.885C138.03 214.565 136.902 215.245 135.686 215.705C133.071 216.694 129.468 216.131 128.531 213.372C128.309 212.718 128.265 212.01 128.222 211.305C128.167 210.425 128.113 209.549 127.71 208.79C126.877 207.218 124.83 206.797 123.18 207.266C121.921 207.625 120.811 208.37 119.704 209.113C119.361 209.344 119.018 209.574 118.671 209.792C112.053 213.961 103.167 213.718 96.7612 209.195C95.0093 209.934 93.0232 210.242 90.9699 210.56C89.383 210.806 87.756 211.058 86.166 211.521C82.5198 212.58 79.0293 214.916 77.3679 218.503C74.5807 224.515 77.6263 231.586 80.6259 237.483C79.0865 239.46 77.5472 241.436 76.0079 243.412C74.4686 245.388 72.9293 247.365 71.39 249.341C58.6731 249.22 53.1094 248.751 47.5469 248.282L47.4888 248.208C45.1505 245.263 42.8123 242.318 40.474 239.375C33.345 232.443 30.881 224.475 28.4173 216.509L28.4168 216.507C27.8468 214.664 27.2167 212.726 25.8184 211.469C24.4189 210.214 21.9928 210.025 20.919 211.598C20.3772 204.783 19.8343 197.97 19.2914 191.156L19.1644 189.562C18.121 185.476 17.4382 181.976 16.8317 178.867C15.9635 174.417 15.2516 170.767 13.8615 167.344C12.6567 164.377 10.9728 161.659 9.2984 158.959C6.19972 153.961 3.09986 148.963 0 143.966V372V372.826V1149H767V372.826V372Z" fill="#602A02"/>
</svg>
