<?xml version="1.0" encoding="UTF-8"?>
<svg id="Layer_1" data-name="Layer 1" xmlns="http://www.w3.org/2000/svg" version="1.1" viewBox="0 0 767 1149">
  <defs>
    <style>
      .cls-1 {
        fill: #602a02;
        fill-rule: evenodd;
        stroke-width: 0px;
      }
    </style>
  </defs>
  <path class="cls-1" d="M767,372V43.4c-4.7-1.4-11.3,1-17.2,5-7.8,5.4-14,14.1-14.2,23.8-.1,4.4,1,8.7,2.1,12.9.6,2.2,1.2,4.5,1.6,6.8,1.2,6.6.4,14.5-4.8,18.4-2.5,1.8-5.5,2.5-8.5,3.1-3.2.6-6.3,1.3-8.8,3.3-4.1,3.3-5,9-5.8,14.6-.3,2.2-.7,4.4-1.2,6.4-3.4,13.6-18.2,22.8-31.2,19.4-1.4.8-2.9,1.6-4.3,2.4-9.1,4.9-18.8,10-22.1,20-.8,2.5-1.2,5.3-1.6,8-.6,4.4-1.2,8.7-3.7,12.1-3.2,4.2-8.2,5.5-13.3,6.8-4.3,1.1-8.7,2.3-12,5.2-4.3,3.8-5.8,9.6-7.3,15.5-1.4,5.3-2.7,10.6-6.1,14.5-1.5,1.9-2.8,3.4-4.1,4.4-3.3,2.8-5.9,2.8-8.1,2.3-.7-.1-1.4-.3-2.1-.5-2.4-.6-4.7-1.2-7-.6-2.5.6-4.6,2.6-6.7,4.5-2.5,2.4-5,4.7-8.2,4.4-1.7-.2-3.2-1.1-4.8-2.1-.6-.4-1.2-.7-1.8-1.1-3.6-1.9-7.6-2.2-11.6-1.5-5,.9-10.1,3.2-14.7,5.5-2.9,6.8-7.1,7.9-10.4,7-1.9-.5-3.7-1.5-5.4-2.5-1.3-.7-2.6-1.4-3.9-1.9-3.2-1.3-7.3-1.3-9.4,1.5-2.3-4.2-4.6-8.3-6.9-12.5,2.5-8.2,4-13.3,3.6-18.6-.4-5.3-2.9-10.7-7.5-12.8-1-.5-2-.8-3.1-1.1-2.2-.7-4.5-1.3-5.7-3.3-2.1-3.2-.2-7.3,1.6-11,.3-.6.6-1.2.8-1.8,4-8.7,2.1-19.9-4.3-26.7-3.8,4.6-10.6,4.8-18.2,5.2-7.1.3-14.9.6-21.5,4.5-.8.5-1.6,1-2.5,1.6-2.1,1.4-4.3,2.9-6.8,3.3-3.4.6-7.6-2.3-6.9-5.8-7.6,4.1-14.4,9.6-20.2,16.2-2,3.6-4.9,5.7-7.8,7.7-1.1.8-2.2,1.6-3.3,2.4-3.8,3.1-6.9,7.7-7.2,12.7-.3,3.6.8,7.1,1.9,10.6.4,1.2.7,2.3,1,3.5,1.2,4.7,1.5,10.3-1.8,13.7-1.7,1.8-4,2.7-6.4,3.6-3,1.2-5.9,2.3-7.2,5.3-.7,1.6-.7,3.4-.8,5.1,0,4.9-.2,9.8-.3,14.7-.1,5-.2,10-.3,15.1,0,1.1,0,2.3,0,3.4,0,1.1,0,2.2,0,3.3-.3,8.1-3.3,11.3-6.3,12-2,.4-4,.2-6.1-.1-1.1-.1-2.1-.3-3.2-.3-3.1-.1-6.7,1-7.8,4.1-.9,2.7.4,5.2,1.7,7.8.8,1.6,1.7,3.3,2,5,1,5.1-3,10.1-7.5,12.2-3.2,1.5-6.6,2-10,2.5-1.5.2-3,.5-4.5.8-4.9,1-10,3.3-12.2,8-10.7-12.7-25-17.6-38.1-14.7-1.3.3-2.7.6-4,1-5.4,1.4-11,2.9-15.7.1-1.9-1.1-3.4-2.8-4.8-4.6-.3-.4-.6-.8-1-1.2-.9-1.2-1.9-2.5-3-3.6-5.8-5.9-15.2-7.4-22.4-3.4-9.9-8.7-19.4-15.8-29.9-15-.5,0-1,0-1.5.1-2.4.3-4.9.5-6.9-.9-1.1-.8-1.9-2-2.7-3.3-.3-.5-.6-.9-.9-1.4-3.1-4.4-8.8-6.5-13.8-5.2-13-11.6-18.5-31.4-11.8-46.4-1.2-.3-2.5-.5-3.7-.8,1.5-5-3.5-10.7-8.3-9.6-.5-8.9-2.8-17.8-6.8-25.7-1.8-4.6-5.5-5.6-8.1-4.8-1.4.4-2.7,1.2-4,2-1.1.7-2.3,1.4-3.5,1.8-2.6,1-6.2.4-7.2-2.3-.2-.7-.3-1.4-.3-2.1,0-.9-.1-1.8-.5-2.5-.8-1.6-2.9-2-4.5-1.5-1.3.4-2.4,1.1-3.5,1.8-.3.2-.7.5-1,.7-6.6,4.2-15.5,3.9-21.9-.6-1.8.7-3.7,1-5.8,1.4-1.6.2-3.2.5-4.8,1-3.6,1.1-7.1,3.4-8.8,7-2.8,6,.3,13.1,3.3,19-1.5,2-3.1,4-4.6,5.9-1.5,2-3.1,4-4.6,5.9-12.7-.1-18.3-.6-23.8-1.1h0c-2.3-3-4.7-6-7-8.9-7.1-6.9-9.6-14.9-12.1-22.9h0c-.6-1.8-1.2-3.8-2.6-5-1.4-1.3-3.8-1.4-4.9.1-.5-6.8-1.1-13.6-1.6-20.4v-1.6c-1.2-4.1-1.9-7.6-2.5-10.7-.9-4.4-1.6-8.1-3-11.5-1.2-3-2.9-5.7-4.6-8.4-3.1-5-6.2-10-9.3-15v1005h767V372Z"/>
</svg>