<svg width="767" height="1388" viewBox="0 0 767 1388" fill="none" xmlns="http://www.w3.org/2000/svg">
<path fill-rule="evenodd" clip-rule="evenodd" d="M767 375V184.336C761.553 182.832 755.894 182.656 750.068 184.21C750.292 180.764 750.516 177.317 750.739 173.871C750.963 170.422 751.187 166.972 751.411 163.523C744.232 161.048 737.053 158.573 729.875 156.098C719.88 152.653 709.886 149.207 699.892 145.762C678.414 134.323 653.055 133.522 631.091 143.591C629.867 137.851 628.644 132.111 627.419 126.372C618.931 126.139 610.442 125.904 601.953 125.67C590.983 125.682 582.798 137.946 578.916 148.67C575.034 159.393 569.355 172.531 559.505 171.987C565.878 184.449 563.53 202.164 554.239 211.72C556.49 225.319 552.901 240.092 544.89 250.201C536.879 260.311 524.649 265.498 513.034 263.715C516.893 289.292 498.939 316.398 477.027 318.079C472.229 326.78 463.351 324.64 455.92 320.709C453.158 319.249 450.479 317.555 447.803 315.862C443.278 313.001 438.76 310.144 433.858 308.423C430.657 307.3 427.357 306.685 424.055 306.069C421.476 305.588 418.895 305.107 416.359 304.383C410.58 302.733 404.729 299.48 401.635 293.471C400.452 291.173 399.673 288.506 398.901 285.865C397.533 281.181 396.189 276.58 392.658 274.272C388.096 271.293 382.498 273.978 377.706 276.399C372.914 278.82 366.883 280.771 362.9 276.798C352.347 276.163 342.486 270.857 332.624 265.552C331.154 264.76 329.655 263.959 328.052 263.73C321.93 262.853 317.424 270.092 314.352 276.42C309.907 267.791 305.462 259.165 301.017 250.538C294.638 233.746 284.248 217.59 270.718 206.879C270.303 206.55 269.882 206.222 269.458 205.892C265.514 202.817 261.357 199.577 259.906 194.351C258.551 189.469 259.965 184.538 261.401 179.528C262.362 176.178 263.333 172.792 263.493 169.362C263.975 159.044 257.245 150.483 251.11 143.127C244.974 135.772 238.51 126.722 239.698 116.484C232.097 109.515 229.92 104.34 228.123 100.068C227.574 98.7638 227.061 97.5438 226.44 96.3827C223.783 91.4208 218.545 87.8718 213.823 89.6854C212.429 90.2202 211.194 91.1631 209.957 92.1084C209.22 92.671 208.483 93.2345 207.71 93.7133C205.637 94.995 202.916 95.5744 201.087 93.8515C198.595 91.5064 199.507 87.3619 200.412 83.2474C201.327 79.0876 202.236 74.9584 199.612 72.7502C197.815 71.2368 195.356 71.8344 193.223 72.4947C184.885 75.0732 176.549 77.6516 168.213 80.23L167.886 80.3313C157.962 78.1924 150.609 80.3285 145.967 85.208C141.437 89.9726 138.86 96.7287 136.362 103.277C136.301 103.436 136.24 103.596 136.179 103.756C133.624 110.452 130.799 117.357 125.885 121.847C123.544 123.986 120.782 125.531 118.041 127.064C113.637 129.527 109.289 131.959 106.834 136.775C106.026 138.359 105.381 140.217 104.739 142.066C103.19 146.524 101.658 150.935 97.9034 151.359C96.8719 151.475 95.8467 151.213 94.8231 150.952C93.7286 150.673 92.636 150.394 91.5397 150.578C88.2476 151.132 86.7469 155.109 85.3107 158.915C84.957 159.853 84.6072 160.78 84.2355 161.643C79.9167 171.668 67.6706 175.4 59.7965 169.09C56.4878 158.37 50.8238 146.986 45.5504 136.816C40.9177 127.88 36.4089 118.854 32.0276 109.741C27.4751 100.272 22.3091 89.9409 13.5889 86.4464C10.5702 72.1391 9.53823 61.2977 8.50646 50.4588L8.50426 50.4357C7.2452 37.1932 5.97552 23.8866 2.98776 11.0379C2.12046 7.30741 1.11274 3.63276 0 0V375V390V1388H767V390V375Z" fill="#7A3401"/>
</svg>
