<svg width="767" height="709" viewBox="0 0 767 709" fill="none" xmlns="http://www.w3.org/2000/svg">
<path d="M767 132.5V275.402C766.785 275.935 766.569 276.467 766.353 277H0V44.2502C1.68976 49.8207 3.6698 55.2196 5.92478 60.3844C8.42402 66.1115 11.2891 71.6456 12.7735 78.0257C14.2591 84.4042 14.1104 92.0211 10.9823 97.1101C15.7436 107.524 20.5037 117.936 25.265 128.349C26.9595 132.055 28.6893 135.887 29.2357 140.217C29.8894 145.397 28.7767 150.775 29.4292 155.956C30.0817 161.135 33.9675 166.29 37.2915 163.823C36.1823 180.164 44.0494 196.844 58.9516 200.536C57.8448 206.223 58.1032 212.706 60.5635 217.495C63.0238 222.283 67.994 224.689 71.7145 221.909C74.3152 219.965 75.8174 216.108 77.7337 212.975C79.65 209.841 82.7357 207.193 85.432 208.862C88.9283 211.025 88.8658 218.327 91.7202 221.881C94.4519 225.283 98.6492 224.071 102.248 223.156C116.355 219.574 131.44 224.226 150.848 235.817C152.909 231.879 157.469 234.249 159.924 237.717C162.38 241.185 164.802 245.815 168.293 245.734C169.827 245.7 171.252 244.702 172.726 244.107C178.683 241.696 185.673 246.895 194.44 255.637C198.49 248.788 202.707 241.749 208.386 237.751C214.063 233.754 221.642 233.607 226.189 239.816C236.107 237.303 246.026 234.79 260.109 232.126C261.381 229.473 262.654 226.82 263.926 224.167C267.557 216.596 271.189 209.025 274.82 201.454C276.124 198.735 277.485 195.935 279.466 194.187C284.179 190.027 291.447 192.564 294.9 186.448C297.838 181.244 295.838 173.363 297.604 167.211C299.456 160.763 304.775 157.986 309.521 155.92C319.981 151.363 331.001 146.761 346.526 151.246C352.861 154.269 358.849 158.708 364.193 164.343C363.959 167.41 363.724 170.477 363.491 173.544C368.505 169.823 374.414 168.782 380.61 170.609C385.678 172.103 390.938 175.513 396.054 180.944C401.781 187.189 405.898 196.257 407.502 206.156C411.813 206.772 416.123 207.389 420.434 208.006C418.832 212.081 417.23 216.157 415.629 220.234C421.333 215.544 429.865 221.759 430.379 230.982C430.587 234.71 429.71 238.584 430.541 242.141C431.37 245.698 435.368 247.855 439.941 244.822C449.312 246.155 459.006 242.39 466.541 234.491C464.933 238.013 467.53 242.807 470.466 243.594C473.402 244.38 476.346 242.703 479.25 241.714C486.731 239.164 494.972 241.354 504.2 243.205C509.435 241.539 514.802 239.796 519.27 235.631C523.736 231.465 527.173 224.282 526.575 216.825C526.311 213.525 525.29 210.4 525.109 207.089C524.763 200.737 527.629 194.715 531.348 191.032C535.067 187.35 539.555 185.571 543.945 183.854C537.127 170.56 541.71 148.99 554.955 137.663C554.696 130.465 554.437 123.267 554.178 116.069C554.096 113.797 554.014 111.526 553.932 109.254C558.859 105.212 564.573 103.071 570.286 103.129C572.556 94.0363 581.46 91.8117 587.926 95.146C593.952 98.2528 598.824 104.546 604.418 108.958C604.826 109.28 605.237 109.592 605.653 109.892C622.765 122.222 644.977 112.898 664.747 131.779C673.938 117.621 686.579 107.918 700.061 104.677C700.64 114.959 709.142 122.741 713.968 121.117C713.154 131.481 712.341 141.847 711.527 152.211C711.308 155.004 711.308 158.451 713.046 159.867C715.842 162.146 719.426 156.352 722.339 158.326C725.54 160.492 723.169 167.295 723.749 172.197C724.439 178.031 730.237 180.503 733.84 177.4C737.442 174.296 738.8 167.685 738.325 161.808C737.973 157.48 736.812 153.342 736.449 149.017C736.085 144.69 736.729 139.776 739.223 137.16C740.881 135.42 743.044 135.01 745.102 134.657C752.507 133.386 759.912 132.112 767 132.5Z" fill="#331600"/>
<path d="M695.612 115.034C693.448 110.139 691.251 105.187 688.272 101.218C685.292 97.2488 681.391 94.3086 677.275 94.3465C675.443 94.363 673.505 94.9369 671.847 93.8469C670.192 92.7585 669.211 89.9716 669.602 87.475C669.757 86.4839 670.235 85.4302 670.961 85.3823C671.688 85.3362 672.212 86.2877 672.69 87.0578C674.025 89.2097 676.001 90.5603 678.248 90.905C675.138 87.5343 672.423 82.9319 671.929 77.4769C671.82 76.2747 671.83 75.0017 672.219 73.9199C672.348 73.5621 672.548 73.2026 672.831 73.1399C673.284 73.0393 673.614 73.7154 673.8 74.3008C674.502 76.504 674.972 78.8373 675.64 81.0619C676.308 83.2864 677.208 85.4483 678.678 87.503C678.686 84.4919 679.726 81.639 679.815 78.6296C679.894 75.94 679.21 73.3262 678.438 70.8609C677.99 69.4312 677.499 67.858 677.824 66.3657C677.871 66.148 677.943 65.9254 678.08 65.8034C678.35 65.5626 678.703 65.8314 678.946 66.1233C680.851 68.4006 681.386 72.2148 681.359 75.7173C681.332 79.2199 680.866 82.7455 681.162 85.7567C682.192 87.8477 683.242 89.97 684.656 91.5629C685.897 92.963 687.398 93.9112 688.97 94.2888C688.213 94.0447 687.624 93.2202 687.138 92.3726C685.424 89.3895 684.419 85.6264 684.314 81.8039C684.301 81.3538 684.305 80.8805 684.457 80.4814C684.608 80.0824 684.954 79.7938 685.258 79.9471C685.454 80.0461 685.586 80.2967 685.703 80.5375C687.774 84.8036 688.735 90.1151 691.426 93.6984C690.695 88.8519 692.209 83.9543 693.688 79.4524C692.716 79.0583 692.038 77.8611 691.429 76.7315C689.344 72.8662 687.147 68.4566 687.577 63.653C687.629 63.0725 687.882 62.3371 688.291 62.469C688.444 62.5185 688.562 62.6883 688.658 62.8631C689.207 63.869 689.305 65.1998 689.527 66.4267C689.965 68.859 690.969 71.0869 692.149 73.1317C693.175 70.1964 693.745 66.9511 693.808 63.6843C693.813 63.4551 693.827 63.1897 693.96 63.0561C694.212 62.8038 694.513 63.2721 694.628 63.6745C695.627 67.1589 695.444 71.0555 695.258 75.2325C695.02 75.6877 694.782 76.1445 694.543 76.5996C695.011 77.0844 695.453 77.6137 695.806 78.8225C695.882 77.2345 696.65 75.8789 697.493 74.8087C698.337 73.7385 699.299 72.8217 699.974 71.5404C700.915 69.7545 701.197 67.4474 701.226 65.2278C701.254 63.0099 701.057 60.7886 701.166 58.574C701.812 59.1066 702.336 59.9278 702.665 60.9008C703.258 64.3687 703.816 68.2225 702.57 71.3326C701.908 72.9833 700.816 74.1936 699.892 75.5755C698.967 76.9574 698.159 78.7219 698.031 80.9003C698.123 81.5187 698.216 82.1354 698.308 82.7538C697.994 80.6348 699.451 78.8769 700.786 77.777C702.119 76.6787 703.681 75.3232 703.759 73.1613C704.693 74.4212 704.683 76.588 704.132 78.2305C703.581 79.8729 702.605 81.1427 701.722 82.4718C700.411 84.4424 699.265 86.6241 698.309 88.9591C697.378 91.2348 696.621 93.6935 696.381 96.294C696.14 98.8945 696.45 101.655 697.498 103.881C699.259 99.2936 701.426 95.0111 703.934 91.1639C704.196 90.7615 704.472 90.3361 704.549 89.8034C704.602 89.434 704.551 89.0548 704.499 88.6854C704.254 86.9704 703.941 85.2471 703.998 83.4992C704.053 81.7512 704.544 79.929 705.582 78.9528C705.384 80.8541 705.527 82.8214 706.067 85.76C706.858 82.1453 708.76 79.2578 710.434 76.2879C712.109 73.318 713.664 69.8567 713.545 66.0804C713.527 65.5065 713.471 64.9211 713.581 64.3687C713.692 63.8163 714.031 63.2985 714.442 63.3199C714.969 63.3479 715.267 64.1725 715.397 64.8881C716.163 69.0866 715.124 73.5604 713.518 77.2675C711.912 80.9745 709.761 84.1555 708.149 88.3572C708.913 86.3421 710.503 85.2108 712.071 84.5809C713.64 83.951 715.291 83.6921 716.792 82.7967C719.647 81.0932 721.688 76.9986 721.841 72.665C721.891 71.2781 721.762 69.8781 721.905 68.5028C722.049 67.1292 722.539 65.711 723.445 65.1404C724.179 68.3346 724.383 71.763 724.004 75.4651C724.796 75.1518 725.481 74.3487 725.838 73.3131C726.019 72.792 726.228 72.106 726.642 72.1323C726.779 72.1406 726.905 72.2362 727.015 72.35C727.765 73.1399 727.75 74.8203 727.22 75.9037C726.69 76.9871 725.8 77.6022 724.934 78.1084C724.068 78.6147 723.157 79.0847 722.485 80.0016C721.931 80.7552 721.584 81.7528 721.084 82.5757C719.434 85.2949 716.576 85.5901 714.18 86.8104C711.021 88.4182 708.516 91.7971 706.113 95.0853C704.224 97.671 702.213 100.606 702.147 104.711C704.8 101.897 708.289 101.32 711.578 100.586C714.866 99.8526 718.379 98.6653 720.532 95.1133C721.724 93.146 722.429 90.5471 723.949 89.0861C724.886 89.9254 724.997 91.8185 724.672 93.306C724.223 95.3706 723.16 97.0905 721.919 98.3784C720.68 99.6663 719.262 100.57 717.182 102.069C718.132 102.323 719.097 102.47 720.063 102.506C720.361 102.517 720.665 102.517 720.948 102.386C721.336 102.204 721.643 101.794 721.936 101.396C722.39 100.779 722.85 100.154 723.182 99.3991C723.352 99.0149 723.537 98.5499 723.859 98.5054C724.18 98.4609 724.447 98.9077 724.481 99.3546C724.515 99.8015 724.382 100.237 724.251 100.649C724.029 101.348 723.809 102.048 723.587 102.747C723.371 103.428 723.127 104.153 722.664 104.519C721.955 105.08 721.08 104.575 720.272 104.427C719.65 104.313 719.02 104.422 718.394 104.404C716.926 104.361 715.473 103.591 714.449 102.181C709.291 102.837 704.689 106.787 700.301 110.632C699.433 111.393 698.538 112.189 697.978 113.388C697.49 114.435 697.118 115.911 695.612 115.029V115.034Z" fill="#331600"/>
<path d="M147.29 236.834C144.115 237.125 140.932 234.125 139.936 229.902C139.429 227.75 139.445 225.398 138.877 223.278C138.836 223.129 138.789 222.973 138.694 222.887C138.552 222.757 138.363 222.829 138.203 222.912C136.976 223.543 135.816 224.547 134.513 224.702C133.21 224.856 131.68 223.697 131.675 221.869C131.674 221.352 131.919 220.722 132.285 220.806C132.4 220.832 132.5 220.928 132.597 221.02C133.269 221.668 133.941 222.318 135.155 222.88C134.887 222.115 134.721 221.281 134.666 220.433C134.649 220.163 134.655 219.849 134.801 219.67C135.03 219.389 135.4 219.668 135.556 220.032C135.713 220.397 135.773 220.849 135.989 221.149C136.501 221.863 137.357 221.215 137.911 220.565C137.365 219.853 136.961 218.931 136.757 217.927C136.642 217.358 136.584 216.749 136.354 216.253C136.176 215.869 135.906 215.583 135.626 215.351C133.401 213.514 130.194 214.518 128.385 211.939C127.702 210.964 127.344 209.563 127.433 208.206C127.442 208.06 127.46 207.905 127.531 207.798C127.724 207.506 128.061 207.808 128.253 208.103C128.842 209.007 129.432 209.911 130.253 210.832C130.03 210.219 129.801 209.569 129.831 208.883C129.859 208.197 130.252 207.49 130.743 207.541C131.53 207.622 131.643 209.231 132.253 209.93C132.496 210.209 132.813 210.328 133.117 210.438C133.934 210.735 134.75 211.034 135.568 211.33C134.468 209.863 134.16 207.607 133.398 205.768C132.658 203.984 131.457 202.582 130.068 201.883C129.143 201.418 127.938 201.37 127.353 202.473C127.041 203.061 126.959 203.892 126.535 204.319C126.151 204.705 125.629 204.619 125.161 204.517C124.576 204.388 123.823 203.969 123.901 203.148C123.96 202.53 124.468 202.239 125.062 202.003C124.063 202.094 123.015 202.173 122.102 201.596C121.534 201.238 121.022 200.572 120.912 199.715C120.801 198.857 121.231 197.863 121.853 197.813C122.267 197.78 122.637 198.136 123.027 198.338C123.665 198.669 124.368 198.585 125.049 198.628C125.729 198.671 126.469 198.898 127.318 199.84C126.466 197.967 124.937 196.967 123.681 195.609C122.425 194.25 121.343 191.967 121.946 189.914C123.065 190.925 123.952 192.428 124.451 194.154C124.24 193.615 124.024 193.053 123.993 192.439C123.963 191.826 124.174 191.143 124.589 190.935C125.14 190.66 125.717 191.341 125.95 192.091C126.183 192.841 126.223 193.696 126.501 194.416C127.431 196.83 130.319 196.389 131.362 198.712C131.013 198.188 130.648 197.625 130.554 196.921C130.46 196.217 130.768 195.36 131.279 195.315C131.974 195.256 132.264 196.501 132.423 197.447C133.102 201.469 135.342 204.634 136.325 208.53C137.24 212.157 137.144 216.573 138.772 218.992C138.281 217.353 138.514 215.338 139.351 214C139.816 215.344 140.003 216.873 139.889 218.357C139.73 217.023 140.465 215.608 141.422 215.407C141.98 216.413 141.639 217.847 141.417 219.083C140.905 221.937 141.204 225.059 142.234 227.625C143.264 230.19 145.015 232.174 147.026 233.05C146.456 232.844 146.496 231.701 146.666 230.914C147.035 229.203 147.404 227.491 147.986 225.987C147.016 225.463 146.025 224.918 145.245 223.957C144.465 222.996 143.928 221.515 144.146 220.095C144.873 220.746 145.561 221.484 146.198 222.297C146.02 221.576 145.552 221.071 145.299 220.395C145.047 219.719 145.182 218.621 145.728 218.56C146.197 218.507 146.479 219.246 146.68 219.843C147.193 221.37 147.991 222.709 148.971 223.692C148.417 221.784 149.108 219.379 148.293 217.664C147.989 217.025 147.514 216.586 147.135 216.029C146.051 214.439 145.841 212.086 145.593 209.916C145.345 207.747 144.903 205.372 143.585 204.175C143.149 203.779 142.647 203.545 142.208 203.156C141.259 202.313 140.678 200.721 140.749 199.154C140.763 198.834 140.831 198.466 141.041 198.341C141.423 198.113 141.698 198.851 141.873 199.377C142.224 200.434 143.014 201.179 144.203 201.614C141.856 198.725 141.148 193.966 141.35 189.604C141.377 189.012 141.416 188.399 141.266 187.843C141.082 187.167 140.65 186.695 140.336 186.122C139.909 185.34 139.7 184.332 139.763 183.353C139.804 182.703 140.113 181.928 140.573 182.04C140.884 182.114 141.063 182.558 141.2 182.954C141.75 184.542 142.3 186.132 143.128 188.122C143.269 186.829 143.672 185.596 144.28 184.601C144.838 185.168 144.982 186.272 144.862 187.223C144.741 188.173 144.41 189.042 144.188 189.956C143.507 192.762 143.941 196.044 145.579 199.137C145.089 197.726 144.615 196.107 145.003 194.636C145.119 194.197 145.335 193.772 145.656 193.641C146.136 193.448 146.63 194.029 146.781 194.695C146.932 195.361 146.843 196.08 146.79 196.776C146.609 199.149 146.877 201.54 147.145 203.898C147.262 204.935 147.38 205.971 147.263 207.714C148.023 206.357 148.538 204.736 148.751 203.039C148.909 201.774 148.968 200.3 149.709 199.541C149.963 200.434 150.143 201.365 150.247 202.315C150.583 200.226 151.172 198.216 151.98 196.397C152.096 196.138 152.226 195.869 152.425 195.744C152.884 195.457 153.374 196.087 153.592 196.72C154.082 198.138 154.019 199.855 153.571 201.299C153.123 202.744 152.319 203.933 151.4 204.843C150.916 205.323 150.392 205.74 149.98 206.337C148.767 208.1 148.845 210.941 149.388 213.266C149.224 212.566 149.793 211.832 150.312 211.959C150.831 212.086 151.186 212.833 151.218 213.568C151.25 214.304 151.025 215.014 150.749 215.641C150.472 216.268 150.138 216.85 150.041 218.148C150.767 218.524 151.34 219.439 151.508 220.497C151.914 223.035 150.14 225.293 150.011 227.887C150.05 227.268 150.793 227.224 151.006 227.77C151.219 228.315 151.016 229.01 150.713 229.463C150.41 229.917 150.012 230.238 149.725 230.713C149.189 231.602 149.126 232.887 149.271 234.033C150.428 231.223 151.934 228.695 153.703 226.599C154.457 225.705 155.328 224.707 155.372 223.329C155.41 222.133 154.801 221.116 154.457 220.019C154.117 218.936 154.034 217.701 154.22 216.548C154.255 216.327 154.317 216.081 154.466 215.989C154.63 215.885 154.818 216.02 154.967 216.162C155.526 216.695 155.998 217.404 157.063 218.614C156.089 216.606 155.943 213.868 156.693 211.682C156.969 210.875 157.371 210.026 157.203 209.162C156.94 207.805 155.404 207.224 155.529 205.828C155.622 204.784 156.923 204.617 157.15 205.62C156.84 205.125 156.515 204.592 156.441 203.943C156.367 203.293 156.659 202.515 157.13 202.482C157.66 202.445 157.978 203.267 158.166 203.961C158.538 205.338 158.909 206.716 159.281 208.093C159.287 204.879 159.292 201.665 159.298 198.453C159.298 197.911 159.298 197.35 159.142 196.854C158.963 196.278 158.601 195.861 158.302 195.396C157.263 193.783 156.926 191.351 157.459 189.313C158.121 190.48 158.784 191.648 159.446 192.815C158.966 191.61 159.177 189.949 159.927 189.05C160.277 188.63 160.715 188.376 161.075 187.97C162.251 186.648 162.276 184.219 162.377 182.113C162.39 181.831 162.41 181.539 162.514 181.298C162.782 180.68 163.496 180.744 163.858 181.259C164.221 181.773 164.309 182.548 164.328 183.27C164.415 186.631 163.396 189.824 162.557 192.975C161.718 196.126 161.04 199.619 161.807 202.807C161.363 201.224 161.78 199.253 162.769 198.262C163.537 198.801 163.829 200.19 163.679 201.374C163.529 202.556 163.039 203.592 162.585 204.611C160.093 210.202 158.342 216.436 157.447 222.903C158.016 222.694 158.133 221.559 158.651 221.17C159.182 220.771 159.883 221.46 159.958 222.297C160.034 223.131 159.643 223.932 159.15 224.416C158.657 224.899 158.067 225.139 157.508 225.451C155.19 226.744 153.282 229.406 152.2 233.063C153.085 231.107 154.716 230.072 156.316 229.475C157.916 228.876 159.59 228.597 161.101 227.648C162.61 226.696 163.983 224.853 164.112 222.546C164.156 221.772 164.057 220.99 164.124 220.22C164.19 219.45 164.483 218.636 165.011 218.405C165.88 218.024 166.64 219.427 166.749 220.69C166.859 221.952 166.65 223.304 167.033 224.457C167.69 222.036 168.151 219.513 168.407 216.95C168.558 215.433 168.623 213.802 168.099 212.457C167.872 211.871 167.532 211.329 167.502 210.666C167.443 209.345 168.559 208.618 169.473 208.263C169.873 209.394 170.272 210.526 170.672 211.657C171.652 209.109 172.632 206.561 173.612 204.012C173.969 203.085 174.238 201.687 173.574 201.191C173.246 200.943 172.826 201.08 172.489 200.859C171.79 200.404 171.948 198.958 172.276 197.983C172.622 198.427 172.967 198.87 173.312 199.312C172.075 197.693 171.439 195.221 171.655 192.871C171.704 192.33 171.959 191.649 172.334 191.798C172.514 191.869 172.625 192.114 172.713 192.345C173.226 193.681 173.569 195.143 173.721 196.644C174.648 193.603 172.946 190.173 173.233 186.892C173.295 186.188 173.643 185.332 174.134 185.507C174.502 185.638 174.635 186.26 174.703 186.783C175.134 190.135 175.468 193.513 175.453 197.932C175.945 196.581 176.437 195.231 176.929 193.88C177.426 195.219 177.145 196.875 176.652 198.216C176.159 199.556 175.465 200.76 175.093 202.175C174.539 204.286 174.756 206.636 174.429 208.837C174.042 211.443 172.92 213.698 171.825 215.875C172.61 215.057 173.41 214.262 174.221 213.494C174.614 215.717 173.565 217.925 172.406 219.543C171.247 221.16 169.869 222.646 169.324 224.803C169.18 225.374 169.096 225.985 168.867 226.5C168.238 227.905 166.845 228.033 165.664 228.172C165.273 228.218 164.75 228.538 164.868 229.061C165.194 229.44 165.655 229.582 166.065 229.427L166.472 230.312C167.081 229.432 167.77 228.497 168.643 228.398C169.516 228.299 170.453 229.62 170.023 230.687C169.725 231.424 169.021 231.559 168.417 231.61C167.296 231.706 166.169 231.8 165.051 231.632C164.18 231.501 163.325 231.211 162.453 231.106C157.977 230.57 154.045 234.826 149.961 237.441C149.566 237.694 148.995 237.862 147.297 236.843L147.29 236.834Z" fill="#331600"/>
<path d="M453.548 221.593C452.753 220.634 451.959 219.676 451.164 218.718C451.088 218.628 451.01 218.534 450.919 218.477C450.466 218.2 450.041 218.896 449.748 219.454C448.255 222.285 445.357 223.481 443.003 222.237C442.576 220.789 443.059 219.117 443.743 217.876C444.426 216.634 445.312 215.603 445.864 214.241C442.876 214.83 439.952 216.052 437.224 217.853C436.736 218.174 436.24 218.52 435.702 218.588C435.164 218.654 434.566 218.372 434.31 217.707C434.054 217.043 434.333 216.03 434.87 215.964C434.141 215.283 433.2 215.287 432.359 214.937C431.518 214.587 430.659 213.517 430.89 212.335C431.117 211.172 432.169 210.852 433.028 210.752C436.01 210.405 438.998 210.163 442.731 210.331C442.579 209.131 442.427 207.932 442.275 206.731C441.347 207.157 440.809 208.926 439.837 208.809C438.851 208.689 438.608 206.718 439.031 205.468C439.454 204.218 440.249 203.191 440.411 201.827C440.686 199.523 439.086 197.698 437.643 196.517C436.201 195.337 434.526 193.801 434.521 191.465C434.521 191.087 434.599 190.648 434.848 190.498C435.02 190.394 435.218 190.467 435.398 190.549C437.198 191.377 438.778 193.107 439.785 195.351C439.165 191.534 439.024 187.565 439.37 183.68C439.639 180.647 440.532 177.169 442.642 176.368C442.905 180.601 443.108 184.839 443.252 189.083C443.064 187.312 443.934 185.442 445.168 184.964C445.606 186.943 445.28 189.07 445.161 191.135C444.808 197.228 446.386 203.491 449.391 207.932C448.179 205.079 449.435 200.823 451.732 199.992C451.928 203.171 452.123 206.352 452.319 209.531C452.37 210.351 452.432 211.22 452.79 211.873C453.147 212.526 453.911 212.816 454.327 212.236C454.861 211.494 454.412 210.269 454.131 209.292C453.766 208.019 453.749 206.557 454.086 205.269C454.304 204.439 454.66 203.686 454.836 202.838C455.29 200.648 454.477 198.377 454.03 197.047C452.919 192.833 451.802 188.599 450.221 184.689C449.515 182.944 448.716 181.26 448.195 179.395C447.661 177.492 447.43 175.426 447.52 173.386C447.547 172.776 447.679 172.036 448.103 171.879C448.564 171.711 448.948 172.374 449.171 172.962C450.077 175.365 450.617 177.997 451.152 180.609C450.823 178.731 450.513 176.637 451.197 174.954C451.404 174.445 451.834 173.96 452.207 174.229C452.35 174.333 452.446 174.527 452.523 174.724C453.193 176.45 452.712 178.563 452.7 180.527C452.682 183.238 453.586 185.774 454.469 188.19C453.901 186.651 453.842 184.765 454.312 183.163C454.469 182.627 454.909 182.049 455.23 182.413C455.328 182.525 455.377 182.698 455.422 182.863C455.694 183.858 455.965 184.85 456.238 185.845C456.463 184.06 456.69 182.278 456.915 180.494C456.999 179.836 457.081 179.164 457.014 178.503C456.809 176.51 455.274 174.88 455.604 172.92C455.675 172.497 455.879 172.06 456.188 172.009C456.594 171.942 456.88 172.535 457.061 173.048C457.436 174.1 457.811 175.152 458.66 176.595C458.67 174.193 458.893 171.792 459.617 169.399C460.344 169.028 461.155 169.877 461.398 170.903C461.641 171.93 461.478 173.048 461.314 174.105C460.91 176.699 460.507 179.291 460.103 181.885C459.584 185.223 459.065 188.712 459.69 192.014C460.099 194.174 460.971 196.097 461.831 197.98C460.464 195.343 462.842 191.461 461.867 188.505C461.486 187.349 460.627 186.513 460.473 185.258C460.339 184.184 460.92 182.977 461.7 182.934C462.479 182.891 463.131 184.283 463.187 185.901C463.218 182.916 463.051 179.928 462.646 176.727C462.763 175.167 463.106 173.64 463.909 172.46C464.21 174.546 464.512 176.632 464.813 178.718C464.804 177.55 464.8 176.346 465.111 175.263C465.423 174.179 466.132 173.233 466.967 173.218C466.35 184.018 465.507 194.791 464.437 205.519C464.658 205.043 465.032 204.711 465.435 204.635C465.431 207.018 465.427 209.401 465.424 211.784C466.963 202.223 467.686 192.406 467.576 182.608C467.56 181.132 467.543 179.557 468.108 178.31C468.278 177.936 468.544 177.575 468.86 177.6C469.352 177.639 469.549 178.492 469.621 179.174C469.812 181.003 470.003 182.832 470.195 184.661C469.812 179.28 470.334 173.777 471.972 167.951C472.479 167.303 473.1 166.83 473.765 166.584C474.233 169.135 474.183 171.866 473.625 174.381C473.106 176.721 472.149 179.169 472.928 182.304C474.109 178.973 475.606 175.276 478.201 174.452C478.946 176.153 477.99 178.262 477.145 179.872C472.827 188.091 470.51 198.326 470.572 208.389C470.834 209.498 471.096 210.61 471.357 211.72C471.159 210.527 471.667 209.33 472.253 208.418C472.837 207.506 473.539 206.68 473.863 205.544C474.332 203.903 473.903 202.068 473.711 200.322C473.488 198.303 473.593 196.217 474.014 194.261C474.138 193.686 474.342 193.049 474.754 192.881C475.422 192.606 475.929 193.725 476.121 194.66C476.518 196.601 476.686 198.633 476.615 200.65C477.184 198.44 478.179 196.446 479.466 194.934C479.644 194.725 479.839 194.517 480.068 194.463C480.485 194.362 480.893 194.819 481.048 195.37C481.204 195.92 481.163 196.54 481.099 197.126C480.392 203.529 477.054 209.322 478.071 215.616C477.914 211.586 479.5 207.892 480.79 204.281C482.078 200.67 483.111 196.342 481.871 192.698C481.567 191.806 481.133 190.985 480.98 190.02C480.826 189.057 481.075 187.853 481.746 187.542C482.337 187.266 482.994 187.827 483.299 188.587C483.603 189.347 483.641 190.253 483.671 191.123C483.309 186.811 485.069 182.306 487.86 180.4C487.691 185.188 487.088 189.948 486.068 194.525C486.619 190.683 487.897 186.798 490.279 184.73C490.744 185.505 490.485 186.673 490.205 187.604C489.13 191.183 488.055 194.761 486.979 198.339C487.476 197.777 487.742 196.918 488.139 196.217C488.535 195.516 489.204 194.941 489.793 195.289C490.42 195.658 490.559 196.892 490.271 197.754C489.983 198.616 489.41 199.209 488.892 199.825C486.263 202.952 484.639 207.473 483.763 212.14C482.888 216.807 482.701 221.663 482.304 227.117C484.114 223.078 485.493 218.662 486.381 214.061C486.562 213.121 486.836 212.008 487.515 211.786C487.739 214.383 487.745 217.016 487.531 219.615C487.633 215.148 489.042 210.767 491.363 207.694C491.597 208.441 491.832 209.188 492.067 209.934C491.658 206.957 492.746 203.697 494.64 202.221C495.043 203.545 495.194 205.02 495.053 206.601C495.873 203.029 496.84 199.177 499.094 197.139C499.322 196.933 499.575 196.743 499.847 196.755C500.324 196.776 500.682 197.436 500.742 198.097C500.801 198.758 500.637 199.413 500.475 200.04C500.017 201.809 499.559 203.58 499.101 205.35C499.416 204.081 499.835 202.836 500.492 201.859C501.15 200.881 502.075 200.193 503.034 200.238C503.217 201.422 503.374 202.723 502.964 203.791C502.692 204.502 502.208 204.998 501.747 205.481C498.155 209.254 495.009 213.854 492.474 219.04C493.094 217.538 494.074 216.332 495.22 215.666C495.599 215.447 496.034 215.285 496.412 215.511C496.789 215.735 497.003 216.502 496.445 217.503C501.439 213.476 503.008 203.432 508.344 200.383C508.587 200.244 508.864 200.122 509.108 200.262C509.26 200.35 509.374 200.531 509.46 200.726C510.087 202.14 509.338 203.928 508.614 205.249C506.836 208.498 505.058 211.748 503.279 214.996C504.903 212.945 506.786 211.296 508.816 210.147C509.164 209.949 509.533 209.764 509.908 209.827C510.784 209.973 511.265 211.507 511.005 212.686C510.745 213.865 509.983 214.69 509.2 215.257C507.675 216.36 505.95 216.781 504.324 217.552C502.044 218.634 499.967 220.4 497.913 222.153C496.799 223.103 495.598 224.206 495.071 226.831C497.444 225.422 500.312 226.698 502.667 225.234C503.727 224.574 504.581 223.418 505.409 222.283C506.226 221.167 507.043 220.051 507.859 218.934C508.477 220.179 508.446 221.985 507.624 223.771C509.454 222.293 511.285 220.816 513.115 219.338C513.338 219.159 513.57 218.974 513.826 218.944C514.591 218.853 515.089 220.242 514.841 221.258C514.593 222.274 513.899 222.927 513.236 223.464C506.522 228.911 498.55 230.258 490.819 231.249C497.212 231.752 503.661 230.845 509.853 228.576C507.699 232.661 503.964 234.326 500.479 235.756C503.205 236.205 505.918 236.805 508.61 237.554C509.8 237.885 511.293 238.794 511.16 240.481C511.136 240.784 511.039 241.101 510.844 241.242C510.702 241.346 510.533 241.338 510.374 241.325C502.189 240.716 494.075 236.731 485.961 238.332C484.535 238.612 483.076 239.099 481.943 240.339C481.239 241.107 480.703 242.123 480.122 243.071C477.397 247.522 473.555 250.609 469.434 251.663C467.336 252.199 464.729 251.887 463.712 249.267C463.488 248.689 463.357 248.028 463.039 247.545C462.503 246.732 461.615 246.664 460.824 246.679C458.727 246.719 456.566 246.925 454.597 245.917C452.628 244.91 450.896 242.266 451.146 239.358C451.253 238.109 451.702 236.803 451.325 235.662C451.007 234.694 450.203 234.244 449.454 234.049C448.054 233.687 446.609 233.901 445.195 233.652C443.783 233.403 442.29 232.534 441.668 230.745C441.046 228.955 441.877 226.276 443.301 226.319C444.006 226.34 444.612 226.968 445.245 227.4C448.094 229.35 452.014 226.642 453.548 221.591V221.593Z" fill="#331600"/>
<path d="M80.7025 222.966C79.7526 216.446 82.4277 209.954 82.515 203.3C82.5681 199.243 81.656 195.147 82.2448 191.174C82.5032 189.435 83.046 187.761 83.0696 185.985C83.1133 182.703 81.3834 179.559 81.9415 176.371C82.1185 175.357 82.5268 174.364 82.3982 173.335C82.2094 171.825 80.9775 171.015 80.5291 169.615C79.7692 167.239 81.5274 164.79 81.7693 162.209C81.9899 159.856 80.9173 157.616 80.8807 155.245C80.8146 151.01 83.9346 147.923 84.4939 143.761C84.6697 142.449 84.6178 140.953 85.2632 139.969C86.0845 138.715 87.6197 138.953 88.5212 137.815C89.4157 136.685 89.3354 134.723 89.772 133.151C90.7361 129.679 94.1309 128.414 94.9841 124.885C95.2779 123.669 95.2201 122.337 95.4632 121.099C96.1712 117.479 99.2026 115.503 99.9625 111.905C101.209 113.253 101.488 115.756 101.258 117.932C101.027 120.109 100.391 122.174 100.177 124.355C100.052 125.633 100.07 126.954 99.7713 128.175C98.9076 131.712 95.7876 133.168 94.4566 136.408C93.5409 138.638 93.5622 141.509 92.4329 143.537C91.3261 145.524 89.3154 146.311 88.3855 148.468C86.9825 151.721 88.7879 155.905 88.3702 159.658C88.133 161.79 87.1737 163.731 87.1973 165.888C87.2185 167.806 88.0185 169.565 88.1058 171.478C88.2309 174.239 86.8669 176.768 86.8421 179.534C86.8161 182.355 88.1885 185.03 87.8522 187.812C87.6988 189.082 87.2032 190.21 86.8291 191.385C86.2757 193.124 85.9819 194.995 85.6904 196.854C85.5087 198.013 85.327 199.172 85.1464 200.331C84.0172 207.544 82.8879 214.765 80.7049 222.963L80.7025 222.966Z" fill="#331600"/>
<path d="M79.0281 226.594C77.7502 218.985 76.464 211.342 74.3801 204.088C73.5895 201.334 72.6762 198.605 72.354 195.673C72.1345 193.674 72.1935 191.608 71.7805 189.669C71.0466 186.216 68.866 183.368 68.8778 179.766C68.8837 178.246 69.2683 176.567 68.6642 175.302C67.9113 173.724 65.9525 173.624 65.5844 171.798C65.464 171.201 65.5572 170.528 65.3566 169.974C64.6982 168.145 62.1647 169.915 61.4107 168.159C61.2148 167.704 61.2207 167.14 61.1263 166.625C60.4738 163.065 55.8977 163.705 55.113 160.197C54.7402 158.532 55.4163 156.421 54.5785 155.126C54.1018 154.391 53.29 154.234 52.8062 153.509C51.9495 152.227 52.5938 150.133 53.3926 148.781C54.1915 147.43 55.1921 145.913 54.9349 144.196C54.8475 143.618 54.6198 143.102 54.4676 142.549C53.6522 139.584 55.0965 136.433 56.4052 133.837C57.7138 131.242 58.9941 127.848 57.8931 125.069C58.7817 124.825 59.6112 124.172 60.8243 123.841C59.2914 127.207 60.3841 131.698 59.6737 135.562C59.3504 137.318 58.6578 138.911 58.3699 140.679C58.0819 142.447 58.3427 144.617 59.4732 145.509C60.1458 146.04 61.0048 146.019 61.629 146.657C62.6745 147.727 62.5105 149.917 62.3925 151.723C62.2745 153.527 62.6285 155.888 63.9111 156.149C64.3914 156.246 64.9236 156 65.3448 156.338C66.4293 157.207 65.1206 159.989 66.0222 161.2C66.4977 161.838 67.2623 161.584 67.9196 161.51C70.3941 161.234 72.6656 164.872 72.1369 168.261C72.0638 168.731 71.9469 169.212 72.0272 169.679C72.1877 170.601 72.9747 170.927 73.606 171.275C75.2509 172.181 76.5171 174.316 76.8475 176.742C77.1259 178.787 76.7779 180.925 77.0776 182.965C77.3395 184.75 78.077 186.319 78.5349 188.026C79.6264 192.091 79.0753 196.598 78.8145 200.925C78.2882 209.663 79.0281 218.548 79.0293 226.591L79.0281 226.594Z" fill="#331600"/>
<path d="M83.937 227.288C81.0483 217.354 79.7173 206.543 80.0619 195.831C80.2105 191.206 80.6554 186.438 79.6135 182.044C79.2099 180.343 78.5892 178.727 78.404 176.955C78.0452 173.523 79.3433 169.785 78.2376 166.68C77.2228 163.827 74.471 162.545 73.8928 159.463C73.625 158.039 73.8822 156.421 73.363 155.14C72.8096 153.776 71.5824 153.288 70.7658 152.213C69.3486 150.347 69.6248 146.609 71.285 145.188C69.718 141.665 69.6507 136.942 71.1163 133.338C71.8337 131.573 72.8839 130.066 73.4031 128.17C74.0698 125.737 73.7984 122.888 74.7047 120.612C75.9083 117.591 78.8358 116.461 79.8943 113.337C76.785 110.66 72.1334 112.672 70.649 117.335C70.4177 118.063 70.2879 119.024 70.7045 119.565C70.9629 119.9 71.3558 119.956 71.6272 120.271C72.2609 121.006 71.8373 122.416 71.4372 123.422C70.4 126.036 69.8077 128.992 69.7227 131.979C69.9622 129.883 70.1451 127.487 69.161 125.871C68.6548 125.038 67.876 124.5 67.5704 123.496C66.9037 121.306 68.9156 119.255 69.03 116.88C69.1008 115.406 68.4188 113.927 68.7197 112.51C69.161 110.436 71.1776 110.226 72.7187 110.433C72.4096 108.398 74.1465 106.843 75.6357 106.823C77.1248 106.803 78.6058 107.619 80.0737 107.273C81.0259 107.049 82.18 106.429 82.8266 107.433C83.183 107.985 83.2231 108.878 83.6514 109.321C84.088 109.775 84.6981 109.542 85.2421 109.587C86.3229 109.677 87.2186 111.025 87.4015 112.517C87.5844 114.009 87.1513 115.554 86.4492 116.707C86.0386 117.38 85.5135 118.012 85.4167 118.886C85.3447 119.535 85.53 120.18 85.6067 120.83C85.9312 123.575 84.3464 125.965 82.9104 127.893C80.9952 130.463 78.9538 134.055 79.9616 137.488C80.1964 138.288 80.5882 139.004 80.7073 139.851C81.0566 142.346 78.9633 144.34 78.8901 146.88C78.8087 149.686 81.2088 151.969 80.7474 154.703C80.6011 155.572 80.1669 156.35 80.1763 157.244C80.1822 157.839 80.3864 158.39 80.5645 158.931C81.6195 162.14 81.8767 165.847 81.2832 169.28C81.1463 170.068 80.9657 170.878 81.0708 171.676C81.1994 172.651 81.728 173.414 82.0395 174.305C82.9599 176.943 81.8625 180.244 82.6248 182.98C82.9234 184.05 83.4862 184.944 83.7907 186.01C84.2568 187.637 84.075 189.466 83.9122 191.204C82.8372 202.685 82.8891 214.37 83.9358 227.29L83.937 227.288Z" fill="#331600"/>
<path d="M80.8618 227.032C80.509 222.959 82.115 219.082 83.8508 215.773C85.5865 212.463 87.5749 209.188 88.1826 205.174C88.559 202.689 88.3773 200.049 88.9814 197.653C89.5655 195.331 90.8376 193.448 91.4358 191.133C92.2453 187.995 91.7225 184.479 92.2583 181.229C93.2813 175.024 97.8338 171.152 99.5684 165.263C99.9153 164.084 100.15 162.822 100.658 161.762C101.732 159.514 103.794 158.617 105.121 156.65C106.458 154.668 106.903 151.602 106.226 149.05C105.84 147.595 105.123 146.297 104.965 144.762C104.705 142.247 105.983 139.998 107.054 137.947C108.126 135.894 109.082 133.143 108.193 130.927C107.728 129.769 106.821 128.981 106.542 127.711C106.049 125.457 107.732 123.58 108.719 121.667C110.411 118.389 109.991 113.341 107.188 110.672C107.992 111.353 109.118 111.275 109.731 112.273C110.514 113.551 109.885 115.54 110.158 117.18C110.472 119.075 111.942 120.233 112.585 122.573C111.06 125.01 111.018 129.002 112.492 131.502C113.119 132.567 114.009 133.455 114.218 134.804C114.557 136.994 112.952 138.746 112.373 140.836C111.104 145.41 114.926 150.662 113.427 155.098C112.716 157.206 110.939 158.469 110.549 160.736C110.259 162.422 110.835 164.201 110.623 165.908C110.275 168.714 108.031 170.225 107.1 172.758C106.218 175.159 106.638 178.094 106.095 180.685C104.944 186.174 99.9424 188.572 98.5583 193.956C97.8196 196.829 97.9683 200.72 96.0001 202.045C95.4537 202.412 94.8307 202.487 94.2572 202.765C91.5951 204.063 91.0358 208.849 89.5738 212.218C87.6633 216.619 83.7198 219.289 80.8642 227.037L80.8618 227.032Z" fill="#331600"/>
<rect y="277" width="767" height="432" fill="#331600"/>
</svg>
