<svg width="1440" height="284" viewBox="0 0 1440 284" fill="none" xmlns="http://www.w3.org/2000/svg">
<path d="M27.137 80.3671C22.9621 81.4804 12.8727 85.2379 8.34984 86.9774L0 98.1107V283.199H1440V33.7473C1436.52 36.5306 1428.52 42.5842 1424.34 44.5325C1420.17 46.4808 1414.49 45.3443 1412.17 44.5325C1409.38 48.4291 1397.56 47.5477 1391.99 46.62C1389.32 50.6789 1381.55 59.5622 1371.81 62.6238C1362.07 65.6854 1349.66 62.7398 1344.67 60.8843C1342.59 63.2037 1336.88 68.0512 1330.76 68.8862C1324.63 69.7212 1320.09 67.6105 1318.58 66.4508C1317.42 68.6543 1314.33 73.2699 1311.27 74.1049C1308.21 74.9398 1303.5 72.8292 1301.53 71.6695C1294.57 79.7874 1278.08 96.6494 1267.78 99.1544C1254.91 102.286 1246.91 92.892 1241.69 91.8483C1236.47 90.8045 1217.69 90.1087 1205.51 88.3692C1193.33 86.6296 1168.98 91.8483 1159.58 91.8483C1150.19 91.8483 1145.67 83.4984 1133.49 79.6714C1121.31 75.8444 1092.79 80.3672 1088.26 79.6714C1083.74 78.9756 1058.69 70.2778 1052.08 62.6238C1046.79 56.5006 1034.1 50.5629 1028.42 48.3595C1023.78 41.7492 1013.6 27.5545 1009.98 23.6579C1005.46 18.7871 998.85 17.3955 992.588 15.656C987.578 14.2643 978.439 4.6388 974.496 0C965.219 10.6692 945.411 32.5644 940.401 34.791C935.391 37.0176 929.732 33.8633 927.528 32.0077L883.692 49.4032C878.682 59.423 860.73 62.6238 852.38 62.9717L845.422 58.101C838.579 60.0725 822.529 65.4071 813.066 70.9737C801.237 77.9319 794.975 95.6753 785.581 103.677C778.066 110.079 762.967 111.215 756.357 110.983C746.847 116.202 724.558 126.639 711.476 126.639C698.395 126.639 674.25 117.594 663.813 113.071H623.107C614.525 116.782 593.883 124.065 579.966 123.508C562.571 122.812 545.871 116.202 533.694 113.071C523.953 110.566 517.11 103.677 514.907 100.546H490.901C484.523 104.605 470.305 112.792 464.46 113.071C458.615 113.349 446.949 107.62 441.846 104.721C438.251 106.113 429.947 108.757 425.494 108.2C421.041 107.643 407.403 100.082 401.14 96.3711C397.545 97.7627 388.685 100.546 382.005 100.546C375.325 100.546 371.336 97.7627 370.176 96.3711C367.161 97.4148 359.878 99.224 354.868 98.1107C349.858 96.9973 344.895 91.3844 343.039 88.7171C340.952 89.7608 335.664 91.8483 331.21 91.8483C325.644 91.8483 324.252 86.6296 319.729 86.2817C315.207 85.9338 308.944 89.4129 303.726 88.7171C299.551 88.1604 274.385 74.5687 262.324 67.8425C257.801 69.1181 247.642 71.6695 243.189 71.6695C238.736 71.6695 228.809 68.4223 224.402 66.7987H209.79L198.309 74.8007H189.611C186.828 76.749 177.782 77.0041 173.607 76.8881C172.216 79.3931 165.605 83.9623 162.474 85.9338H153.428C150.993 87.3254 145.218 90.1087 141.599 90.1087C137.981 90.1087 130.35 87.7893 126.987 86.6296C123.624 88.1372 116.341 91.2916 114.115 91.8483C111.331 92.5441 91.8483 91.8483 87.6734 91.1525C84.3334 90.5958 72.8292 84.8901 67.4946 82.1068C64.4793 83.0346 57.9618 84.8901 56.0135 84.8901C53.5782 84.8901 47.6637 83.1504 43.8367 80.3671C40.0097 77.5838 32.3556 78.9755 27.137 80.3671Z" fill="#E3C485"/>
</svg>
