<svg width="767" height="368" viewBox="0 0 767 368" fill="none" xmlns="http://www.w3.org/2000/svg">
<g clip-path="url(#clip0_2482_1550)">
<path d="M-494.206 104.432C-498.79 105.879 -509.867 110.762 -514.833 113.022L-524 127.489V368H1057V43.8526C1053.18 47.4693 1044.39 55.3356 1039.81 57.8673C1035.23 60.399 1028.99 58.9222 1026.44 57.8673C1023.39 62.9307 1010.4 61.7854 1004.29 60.5799C1001.36 65.8542 992.828 77.3975 982.133 81.3759C971.437 85.3543 957.813 81.5266 952.339 79.1155C950.047 82.1294 943.782 88.4285 937.059 89.5135C930.337 90.5985 925.346 87.8559 923.69 86.3489C922.417 89.2121 919.03 95.2098 915.669 96.2948C912.307 97.3799 907.138 94.6372 904.974 93.1302C897.334 103.679 879.228 125.59 867.922 128.845C853.789 132.914 845.003 120.708 839.274 119.351C833.544 117.995 812.917 117.091 799.548 114.83C786.179 112.57 759.44 119.351 749.127 119.351C738.814 119.351 733.848 108.501 720.479 103.528C707.11 98.5553 675.788 104.432 670.822 103.528C665.856 102.624 638.354 91.3219 631.096 81.3759C625.29 73.4192 611.361 65.7035 605.122 62.8403C600.029 54.2506 588.85 35.8054 584.877 30.742C579.912 24.4128 572.654 22.6044 565.778 20.344C560.278 18.5356 550.245 6.02785 545.916 0C535.73 13.864 513.983 42.3155 508.482 45.2088C502.982 48.1022 496.768 44.0033 494.349 41.5921L446.22 64.1966C440.719 77.2167 421.009 81.3759 411.842 81.828L404.203 75.4988C396.69 78.0606 379.068 84.9926 368.679 92.226C355.692 101.268 348.816 124.324 338.503 134.722C330.252 143.041 313.674 144.518 306.417 144.216C295.976 150.998 271.504 164.56 257.142 164.56C242.779 164.56 216.27 152.806 204.811 146.929H160.12C150.698 151.751 128.034 161.215 112.755 160.491C93.6558 159.587 75.3209 150.998 61.9517 146.929C51.2563 143.674 43.7441 134.722 41.325 130.654H14.9686C7.9657 135.928 -7.64441 146.567 -14.0616 146.929C-20.4788 147.29 -33.2877 139.846 -38.89 136.079C-42.8371 137.887 -51.9536 141.323 -56.8429 140.6C-61.7322 139.876 -76.7057 130.051 -83.5813 125.229C-87.5284 127.037 -97.256 130.654 -104.59 130.654C-111.924 130.654 -116.304 127.037 -117.577 125.229C-120.888 126.585 -128.884 128.936 -134.384 127.489C-139.885 126.042 -145.334 118.749 -147.371 115.283C-149.663 116.639 -155.469 119.351 -160.359 119.351C-166.47 119.351 -167.998 112.57 -172.964 112.118C-177.929 111.666 -184.805 116.187 -190.535 115.283C-195.118 114.559 -222.748 96.8976 -235.99 88.1572C-240.956 89.8149 -252.109 93.1302 -256.999 93.1302C-261.888 93.1302 -272.787 88.9107 -277.625 86.801H-293.668L-306.273 97.199H-315.823C-318.879 99.7307 -328.81 100.062 -333.394 99.9115C-334.922 103.167 -342.179 109.104 -345.617 111.666H-355.548C-358.222 113.474 -364.563 117.091 -368.536 117.091C-372.508 117.091 -380.886 114.077 -384.579 112.57C-388.271 114.529 -396.267 118.628 -398.712 119.351C-401.768 120.256 -423.158 119.351 -427.742 118.447C-431.409 117.724 -444.04 110.31 -449.897 106.693C-453.207 107.898 -460.363 110.31 -462.502 110.31C-465.176 110.31 -471.669 108.049 -475.871 104.432C-480.073 100.816 -488.476 102.624 -494.206 104.432Z" fill="#E3C485"/>
</g>
<defs>
<clipPath id="clip0_2482_1550">
<rect width="767" height="368" fill="white"/>
</clipPath>
</defs>
</svg>
