<?xml version="1.0" encoding="UTF-8"?>
<svg id="Layer_1" data-name="Layer 1" xmlns="http://www.w3.org/2000/svg" version="1.1" viewBox="0 0 2070 573.9">
  <defs>
    <style>
      .cls-1 {
        fill: #e3c485;
        stroke-width: 0px;
      }
    </style>
  </defs>
  <path class="cls-1" d="M39,115.5c-6,1.6-20.5,7-27,9.5L0,141v432h2069.5V48.5c-5,4-16.5,12.7-22.5,15.5-6,2.8-14.2,1.2-17.5,0-4,5.6-21,4.3-29,3-3.8,5.8-15,18.6-29,23s-31.8.2-39-2.5c-3,3.3-11.2,10.3-20,11.5s-15.3-1.8-17.5-3.5c-1.7,3.2-6.1,9.8-10.5,11s-11.2-1.8-14-3.5c-10,11.7-33.7,35.9-48.5,39.5-18.5,4.5-30-9-37.5-10.5s-34.5-2.5-52-5-52.5,5-66,5-20-12-37.5-17.5-58.5,1-65,0-42.5-13.5-52-24.5c-7.6-8.8-25.8-17.3-34-20.5-6.7-9.5-21.3-29.9-26.5-35.5-6.5-7-16-9-25-11.5-7.2-2-20.3-15.8-26-22.5-13.3,15.3-41.8,46.8-49,50s-15.3-1.3-18.5-4l-63,25c-7.2,14.4-33,19-45,19.5l-10-7c-9.8,2.8-32.9,10.5-46.5,18.5-17,10-26,35.5-39.5,47-10.8,9.2-32.5,10.8-42,10.5-13.7,7.5-45.7,22.5-64.5,22.5s-53.5-13-68.5-19.5h-58.5c-12.3,5.3-42,15.8-62,15-25-1-49-10.5-66.5-15-14-3.6-23.8-13.5-27-18h-34.5c-9.2,5.8-29.6,17.6-38,18s-25.2-7.8-32.5-12c-5.2,2-17.1,5.8-23.5,5s-26-11.7-35-17c-5.2,2-17.9,6-27.5,6s-15.3-4-17-6c-4.3,1.5-14.8,4.1-22,2.5s-14.3-9.7-17-13.5c-3,1.5-10.6,4.5-17,4.5s-10-7.5-16.5-8-15.5,4.5-23,3.5c-6-.8-42.2-20.3-59.5-30-6.5,1.8-21.1,5.5-27.5,5.5s-20.7-4.7-27-7h-21l-16.5,11.5h-12.5c-4,2.8-17,3.2-23,3-2,3.6-11.5,10.2-16,13h-13c-3.5,2-11.8,6-17,6s-16.2-3.3-21-5c-4.8,2.2-15.3,6.7-18.5,7.5-4,1-32,0-38-1-4.8-.8-21.3-9-29-13-4.3,1.3-13.7,4-16.5,4s-12-2.5-17.5-6.5-16.5-2-24,0Z"/>
</svg>