<svg width="767" height="1838" viewBox="0 0 767 1838" fill="none" xmlns="http://www.w3.org/2000/svg">
<g clip-path="url(#clip0_2413_523)">
<path d="M767 580.336V786H0V396C1.11274 399.633 2.12046 403.307 2.98776 407.038C5.97552 419.887 7.2452 433.193 8.50426 446.436C9.53676 457.282 10.5681 468.129 13.5889 482.446C22.3091 485.941 27.4751 496.272 32.0276 505.741C36.4089 514.854 40.9177 523.88 45.5504 532.816C50.8238 542.986 56.4878 554.37 59.7965 565.09C67.6706 571.4 79.9167 567.668 84.2355 557.643C86.1164 553.276 87.4368 547.268 91.5397 546.578C93.6613 546.222 95.7688 547.599 97.9034 547.359C103.215 546.76 104.078 538.18 106.834 532.775C110.816 524.962 119.782 523.423 125.885 517.847C130.799 513.357 133.624 506.452 136.179 499.756C138.735 493.06 141.326 486.089 145.967 481.208C150.609 476.328 157.962 474.192 167.886 476.331C176.331 473.719 184.776 471.107 193.223 468.495C195.356 467.834 197.815 467.237 199.612 468.75C204.83 473.142 196.075 485.135 201.087 489.852C202.916 491.574 205.637 490.995 207.71 489.713C209.782 488.43 211.599 486.538 213.823 485.685C218.545 483.872 223.783 487.421 226.44 492.383C229.096 497.346 229.775 503.387 239.698 512.484C238.51 522.722 244.974 531.772 251.11 539.127C257.245 546.483 263.975 555.044 263.493 565.362C263.093 573.923 257.645 582.205 259.906 590.351C261.513 596.138 266.438 599.491 270.718 602.879C284.248 613.59 294.638 629.746 301.017 646.538C305.462 655.165 309.907 663.791 314.352 672.42C317.424 666.092 321.93 658.853 328.052 659.73C329.655 659.959 331.154 660.76 332.624 661.552C342.486 666.857 352.347 672.163 362.9 672.798C366.883 676.771 372.914 674.82 377.706 672.399C382.498 669.978 388.096 667.293 392.658 670.272C398.179 673.881 398.354 683.099 401.635 689.471C404.729 695.48 410.58 698.733 416.359 700.383C422.14 702.033 428.157 702.423 433.858 704.423C441.661 707.163 448.49 712.779 455.92 716.709C463.351 720.64 472.229 722.78 477.027 714.079C498.939 712.398 516.893 685.292 513.035 659.715C524.649 661.498 536.879 656.311 544.89 646.201C552.901 636.092 556.49 621.319 554.239 607.72C563.53 598.164 565.878 580.449 559.505 567.987C569.355 568.531 575.034 555.393 578.916 544.67C582.798 533.946 590.983 521.682 601.953 521.67C610.442 521.904 618.931 522.139 627.419 522.372C628.644 528.111 629.867 533.851 631.091 539.591C653.054 529.522 678.414 530.323 699.892 541.762C717.065 547.683 734.237 553.602 751.411 559.523C750.964 566.419 750.515 573.314 750.068 580.21C755.894 578.656 761.553 578.832 767 580.336Z" fill="#7A3401"/>
<rect y="771" width="767" height="268" fill="#7A3401"/>
<path fill-rule="evenodd" clip-rule="evenodd" d="M767 1045.88V717.419C762.273 715.972 755.659 718.426 749.828 722.456C742.078 727.812 735.814 736.535 735.59 746.306C735.489 750.704 736.586 754.965 737.686 759.237C738.264 761.485 738.844 763.736 739.25 766.011C740.426 772.61 739.644 780.489 734.453 784.373C731.985 786.22 728.95 786.836 725.92 787.451C722.763 788.091 719.611 788.731 717.112 790.76C712.999 794.1 712.153 799.719 711.305 805.346C710.977 807.526 710.648 809.707 710.13 811.757C706.682 825.38 691.938 834.56 678.969 831.156C677.554 831.945 676.094 832.723 674.619 833.51C665.506 838.37 655.802 843.545 652.502 853.491C651.658 856.034 651.292 858.775 650.928 861.499C650.342 865.893 649.761 870.241 647.188 873.637C644.02 877.814 638.99 879.112 633.901 880.425C629.558 881.546 625.171 882.677 621.862 885.62C617.596 889.415 616.105 895.228 614.603 901.082C613.25 906.359 611.888 911.669 608.478 915.568C607.005 917.496 605.659 918.918 604.418 919.952C601.093 922.727 598.527 922.726 596.318 922.253C595.623 922.104 594.925 921.924 594.227 921.743C591.874 921.134 589.508 920.522 587.185 921.1C584.65 921.731 582.571 923.678 580.529 925.59C577.995 927.962 575.519 930.281 572.301 929.966C570.57 929.796 569.052 928.849 567.533 927.901C566.942 927.532 566.35 927.163 565.745 926.84C562.114 924.896 558.168 924.64 554.178 925.321C549.154 926.177 544.061 928.522 539.439 930.861C536.541 937.702 532.324 938.716 529.032 937.815C527.127 937.293 525.38 936.329 523.63 935.363C522.354 934.659 521.077 933.954 519.736 933.419C516.554 932.147 512.442 932.109 510.299 934.896C507.984 930.743 505.669 926.589 503.354 922.435C505.877 914.281 507.32 909.09 506.962 903.83C506.606 898.569 504.056 893.14 499.483 891.009C498.517 890.558 497.461 890.243 496.409 889.93C494.166 889.261 491.945 888.599 490.664 886.644C488.545 883.404 490.504 879.36 492.292 875.669C492.583 875.069 492.869 874.477 493.133 873.901C497.095 865.235 495.281 854.016 488.819 847.227C485.042 851.78 478.232 852.067 470.643 852.386C463.536 852.685 455.746 853.012 449.123 856.9C448.292 857.387 447.479 857.931 446.666 858.475C444.516 859.914 442.365 861.353 439.879 861.754C436.453 862.307 432.248 859.497 432.986 855.923C425.421 860.042 418.54 865.559 412.752 872.146C410.802 875.782 407.897 877.81 404.999 879.833C403.878 880.617 402.757 881.399 401.693 882.273C397.882 885.407 394.832 889.933 394.46 895.016C394.197 898.632 395.276 902.124 396.353 905.608C396.711 906.767 397.069 907.925 397.377 909.087C398.611 913.741 398.84 919.347 395.615 922.778C393.938 924.563 391.571 925.491 389.242 926.403C386.238 927.58 383.298 928.732 381.992 931.666C381.293 933.236 381.246 935.027 381.211 936.76C381.112 941.652 381.013 946.545 380.914 951.437C380.813 956.458 380.712 961.478 380.61 966.499C380.587 967.633 380.564 968.768 380.541 969.902C380.519 971.005 380.497 972.109 380.474 973.213C380.133 981.343 377.208 984.526 374.169 985.168C372.171 985.59 370.138 985.326 368.1 985.061C367.038 984.924 365.975 984.786 364.914 984.744C361.816 984.623 358.215 985.758 357.126 988.819C356.181 991.473 357.483 994.024 358.82 996.646C359.653 998.279 360.5 999.939 360.829 1001.67C361.805 1006.81 357.866 1011.74 353.323 1013.86C350.166 1015.32 346.735 1015.84 343.302 1016.36C341.793 1016.59 340.284 1016.82 338.797 1017.13C333.925 1018.14 328.802 1020.44 326.578 1025.12C315.88 1012.41 301.54 1007.56 288.446 1010.38C287.124 1010.67 285.779 1011.02 284.425 1011.38C279.012 1012.8 273.465 1014.26 268.741 1011.51C266.825 1010.39 265.337 1008.72 263.926 1006.94C263.604 1006.53 263.287 1006.12 262.969 1005.7C262.022 1004.48 261.073 1003.24 260.011 1002.15C254.255 996.205 244.778 994.744 237.651 998.702C227.757 990.018 218.3 982.863 207.734 983.665C207.228 983.703 206.713 983.758 206.194 983.813C203.763 984.073 201.261 984.339 199.274 982.954C198.125 982.152 197.359 980.924 196.592 979.695C196.298 979.223 196.003 978.751 195.686 978.302C192.591 973.917 186.894 971.781 181.871 973.123C168.849 961.486 163.4 941.723 170.05 926.746C168.814 926.484 167.579 926.221 166.345 925.958C167.81 920.973 162.89 915.285 158.052 916.37C157.582 907.435 155.257 898.612 151.289 890.702C149.443 886.118 145.835 885.052 143.171 885.88C141.746 886.324 140.452 887.104 139.157 887.885C138.03 888.565 136.902 889.245 135.686 889.705C133.071 890.694 129.468 890.131 128.531 887.372C128.309 886.718 128.265 886.01 128.222 885.305C128.167 884.425 128.113 883.549 127.71 882.79C126.877 881.218 124.83 880.797 123.18 881.266C121.921 881.625 120.811 882.37 119.704 883.113C119.361 883.344 119.018 883.574 118.671 883.792C112.053 887.961 103.167 887.718 96.7612 883.195C95.0093 883.934 93.0232 884.242 90.9699 884.56C89.383 884.806 87.756 885.058 86.166 885.521C82.5198 886.58 79.0293 888.916 77.3679 892.503C74.5807 898.515 77.6263 905.586 80.6259 911.483C79.0865 913.46 77.5472 915.436 76.0079 917.412C74.4686 919.388 72.9293 921.365 71.39 923.341C58.6731 923.22 53.1094 922.751 47.5469 922.282L47.4888 922.208C45.1505 919.263 42.8123 916.318 40.474 913.375C33.345 906.443 30.881 898.475 28.4173 890.509L28.4168 890.507C27.8468 888.664 27.2167 886.726 25.8184 885.469C24.4189 884.214 21.9928 884.025 20.919 885.598C20.3772 878.783 19.8343 871.97 19.2914 865.156L19.1644 863.562C18.121 859.476 17.4382 855.976 16.8317 852.867C15.9635 848.417 15.2516 844.767 13.8615 841.344C12.6567 838.377 10.9728 835.659 9.2984 832.959C6.19972 827.961 3.09986 822.963 0 817.966V1045.88V1046.83V1420H767V1046.83V1045.88Z" fill="#602A02"/>
<path d="M767 1248.5V1391.4C766.785 1391.93 766.569 1392.47 766.353 1393H0V1160.25C1.68976 1165.82 3.6698 1171.22 5.92478 1176.38C8.42402 1182.11 11.2891 1187.65 12.7735 1194.03C14.2591 1200.4 14.1104 1208.02 10.9823 1213.11C15.7436 1223.52 20.5037 1233.94 25.265 1244.35C26.9595 1248.05 28.6893 1251.89 29.2357 1256.22C29.8894 1261.4 28.7767 1266.77 29.4292 1271.96C30.0817 1277.14 33.9675 1282.29 37.2915 1279.82C36.1823 1296.16 44.0494 1312.84 58.9516 1316.54C57.8448 1322.22 58.1032 1328.71 60.5635 1333.49C63.0238 1338.28 67.994 1340.69 71.7145 1337.91C74.3152 1335.96 75.8174 1332.11 77.7337 1328.97C79.65 1325.84 82.7357 1323.19 85.432 1324.86C88.9283 1327.03 88.8658 1334.33 91.7202 1337.88C94.4519 1341.28 98.6492 1340.07 102.248 1339.16C116.355 1335.57 131.44 1340.23 150.848 1351.82C152.909 1347.88 157.469 1350.25 159.924 1353.72C162.38 1357.18 164.802 1361.82 168.293 1361.73C169.827 1361.7 171.252 1360.7 172.726 1360.11C178.683 1357.7 185.673 1362.9 194.44 1371.64C198.49 1364.79 202.707 1357.75 208.386 1353.75C214.063 1349.75 221.642 1349.61 226.189 1355.82C236.107 1353.3 246.026 1350.79 260.109 1348.13C261.381 1345.47 262.654 1342.82 263.926 1340.17C267.557 1332.6 271.189 1325.03 274.82 1317.45C276.124 1314.74 277.485 1311.94 279.466 1310.19C284.179 1306.03 291.447 1308.56 294.9 1302.45C297.838 1297.24 295.838 1289.36 297.604 1283.21C299.456 1276.76 304.775 1273.99 309.521 1271.92C319.981 1267.36 331.001 1262.76 346.526 1267.25C352.861 1270.27 358.849 1274.71 364.193 1280.34C363.959 1283.41 363.724 1286.48 363.491 1289.54C368.505 1285.82 374.414 1284.78 380.61 1286.61C385.678 1288.1 390.938 1291.51 396.054 1296.94C401.781 1303.19 405.898 1312.26 407.502 1322.16C411.813 1322.77 416.123 1323.39 420.434 1324.01C418.832 1328.08 417.23 1332.16 415.629 1336.23C421.333 1331.54 429.865 1337.76 430.379 1346.98C430.587 1350.71 429.71 1354.58 430.541 1358.14C431.37 1361.7 435.368 1363.85 439.941 1360.82C449.312 1362.15 459.006 1358.39 466.541 1350.49C464.933 1354.01 467.53 1358.81 470.466 1359.59C473.402 1360.38 476.346 1358.7 479.25 1357.71C486.731 1355.16 494.972 1357.35 504.2 1359.2C509.435 1357.54 514.802 1355.8 519.27 1351.63C523.736 1347.47 527.173 1340.28 526.575 1332.83C526.311 1329.53 525.29 1326.4 525.109 1323.09C524.763 1316.74 527.629 1310.71 531.348 1307.03C535.067 1303.35 539.555 1301.57 543.945 1299.85C537.127 1286.56 541.71 1264.99 554.955 1253.66C554.696 1246.47 554.437 1239.27 554.178 1232.07C554.096 1229.8 554.014 1227.53 553.932 1225.25C558.859 1221.21 564.573 1219.07 570.286 1219.13C572.556 1210.04 581.46 1207.81 587.926 1211.15C593.952 1214.25 598.824 1220.55 604.418 1224.96C604.826 1225.28 605.237 1225.59 605.653 1225.89C622.765 1238.22 644.977 1228.9 664.747 1247.78C673.938 1233.62 686.579 1223.92 700.061 1220.68C700.64 1230.96 709.142 1238.74 713.968 1237.12C713.154 1247.48 712.341 1257.85 711.527 1268.21C711.308 1271 711.308 1274.45 713.046 1275.87C715.842 1278.15 719.426 1272.35 722.339 1274.33C725.54 1276.49 723.169 1283.29 723.749 1288.2C724.439 1294.03 730.237 1296.5 733.84 1293.4C737.442 1290.3 738.8 1283.69 738.325 1277.81C737.973 1273.48 736.812 1269.34 736.449 1265.02C736.085 1260.69 736.729 1255.78 739.223 1253.16C740.881 1251.42 743.044 1251.01 745.102 1250.66C752.507 1249.39 759.912 1248.11 767 1248.5Z" fill="#4A2002"/>
<path d="M695.612 1231.03C693.448 1226.14 691.251 1221.19 688.272 1217.22C685.292 1213.25 681.391 1210.31 677.275 1210.35C675.443 1210.36 673.505 1210.94 671.847 1209.85C670.192 1208.76 669.211 1205.97 669.602 1203.47C669.757 1202.48 670.235 1201.43 670.961 1201.38C671.688 1201.34 672.212 1202.29 672.69 1203.06C674.025 1205.21 676.001 1206.56 678.248 1206.9C675.138 1203.53 672.423 1198.93 671.929 1193.48C671.82 1192.27 671.83 1191 672.219 1189.92C672.348 1189.56 672.548 1189.2 672.831 1189.14C673.284 1189.04 673.614 1189.72 673.8 1190.3C674.502 1192.5 674.972 1194.84 675.64 1197.06C676.308 1199.29 677.208 1201.45 678.678 1203.5C678.686 1200.49 679.726 1197.64 679.815 1194.63C679.894 1191.94 679.21 1189.33 678.438 1186.86C677.99 1185.43 677.499 1183.86 677.824 1182.37C677.871 1182.15 677.943 1181.93 678.08 1181.8C678.35 1181.56 678.703 1181.83 678.946 1182.12C680.851 1184.4 681.386 1188.21 681.359 1191.72C681.332 1195.22 680.866 1198.75 681.162 1201.76C682.192 1203.85 683.242 1205.97 684.656 1207.56C685.897 1208.96 687.398 1209.91 688.97 1210.29C688.213 1210.04 687.624 1209.22 687.138 1208.37C685.424 1205.39 684.419 1201.63 684.314 1197.8C684.301 1197.35 684.305 1196.88 684.457 1196.48C684.608 1196.08 684.954 1195.79 685.258 1195.95C685.454 1196.05 685.586 1196.3 685.703 1196.54C687.774 1200.8 688.735 1206.12 691.426 1209.7C690.695 1204.85 692.209 1199.95 693.688 1195.45C692.716 1195.06 692.038 1193.86 691.429 1192.73C689.344 1188.87 687.147 1184.46 687.577 1179.65C687.629 1179.07 687.882 1178.34 688.291 1178.47C688.444 1178.52 688.562 1178.69 688.658 1178.86C689.207 1179.87 689.305 1181.2 689.527 1182.43C689.965 1184.86 690.969 1187.09 692.149 1189.13C693.175 1186.2 693.745 1182.95 693.808 1179.68C693.813 1179.46 693.827 1179.19 693.96 1179.06C694.212 1178.8 694.513 1179.27 694.628 1179.67C695.627 1183.16 695.444 1187.06 695.258 1191.23C695.02 1191.69 694.782 1192.14 694.543 1192.6C695.011 1193.08 695.453 1193.61 695.806 1194.82C695.882 1193.23 696.65 1191.88 697.493 1190.81C698.337 1189.74 699.299 1188.82 699.974 1187.54C700.915 1185.75 701.197 1183.45 701.226 1181.23C701.254 1179.01 701.057 1176.79 701.166 1174.57C701.812 1175.11 702.336 1175.93 702.665 1176.9C703.258 1180.37 703.816 1184.22 702.57 1187.33C701.908 1188.98 700.816 1190.19 699.892 1191.58C698.967 1192.96 698.159 1194.72 698.031 1196.9C698.123 1197.52 698.216 1198.14 698.308 1198.75C697.994 1196.63 699.451 1194.88 700.786 1193.78C702.119 1192.68 703.681 1191.32 703.759 1189.16C704.693 1190.42 704.683 1192.59 704.132 1194.23C703.581 1195.87 702.605 1197.14 701.722 1198.47C700.411 1200.44 699.265 1202.62 698.309 1204.96C697.378 1207.23 696.621 1209.69 696.381 1212.29C696.14 1214.89 696.45 1217.66 697.498 1219.88C699.259 1215.29 701.426 1211.01 703.934 1207.16C704.196 1206.76 704.472 1206.34 704.549 1205.8C704.602 1205.43 704.551 1205.05 704.499 1204.69C704.254 1202.97 703.941 1201.25 703.998 1199.5C704.053 1197.75 704.544 1195.93 705.582 1194.95C705.384 1196.85 705.527 1198.82 706.067 1201.76C706.858 1198.15 708.76 1195.26 710.434 1192.29C712.109 1189.32 713.664 1185.86 713.545 1182.08C713.527 1181.51 713.471 1180.92 713.581 1180.37C713.692 1179.82 714.031 1179.3 714.442 1179.32C714.969 1179.35 715.267 1180.17 715.397 1180.89C716.163 1185.09 715.124 1189.56 713.518 1193.27C711.912 1196.97 709.761 1200.16 708.149 1204.36C708.913 1202.34 710.503 1201.21 712.071 1200.58C713.64 1199.95 715.291 1199.69 716.792 1198.8C719.647 1197.09 721.688 1193 721.841 1188.66C721.891 1187.28 721.762 1185.88 721.905 1184.5C722.049 1183.13 722.539 1181.71 723.445 1181.14C724.179 1184.33 724.383 1187.76 724.004 1191.47C724.796 1191.15 725.481 1190.35 725.838 1189.31C726.019 1188.79 726.228 1188.11 726.642 1188.13C726.779 1188.14 726.905 1188.24 727.015 1188.35C727.765 1189.14 727.75 1190.82 727.22 1191.9C726.69 1192.99 725.8 1193.6 724.934 1194.11C724.068 1194.61 723.157 1195.08 722.485 1196C721.931 1196.76 721.584 1197.75 721.084 1198.58C719.434 1201.29 716.576 1201.59 714.18 1202.81C711.021 1204.42 708.516 1207.8 706.113 1211.09C704.224 1213.67 702.213 1216.61 702.147 1220.71C704.8 1217.9 708.289 1217.32 711.578 1216.59C714.866 1215.85 718.379 1214.67 720.532 1211.11C721.724 1209.15 722.429 1206.55 723.949 1205.09C724.886 1205.93 724.997 1207.82 724.672 1209.31C724.223 1211.37 723.16 1213.09 721.919 1214.38C720.68 1215.67 719.262 1216.57 717.182 1218.07C718.132 1218.32 719.097 1218.47 720.063 1218.51C720.361 1218.52 720.665 1218.52 720.948 1218.39C721.336 1218.2 721.643 1217.79 721.936 1217.4C722.39 1216.78 722.85 1216.15 723.182 1215.4C723.352 1215.01 723.537 1214.55 723.859 1214.51C724.18 1214.46 724.447 1214.91 724.481 1215.35C724.515 1215.8 724.382 1216.24 724.251 1216.65C724.029 1217.35 723.809 1218.05 723.587 1218.75C723.371 1219.43 723.127 1220.15 722.664 1220.52C721.955 1221.08 721.08 1220.58 720.272 1220.43C719.65 1220.31 719.02 1220.42 718.394 1220.4C716.926 1220.36 715.473 1219.59 714.449 1218.18C709.291 1218.84 704.689 1222.79 700.301 1226.63C699.433 1227.39 698.538 1228.19 697.978 1229.39C697.49 1230.44 697.118 1231.91 695.612 1231.03V1231.03Z" fill="#4A2002"/>
<path d="M147.29 1352.83C144.115 1353.12 140.932 1350.13 139.936 1345.9C139.429 1343.75 139.445 1341.4 138.877 1339.28C138.836 1339.13 138.789 1338.97 138.694 1338.89C138.552 1338.76 138.363 1338.83 138.203 1338.91C136.976 1339.54 135.816 1340.55 134.513 1340.7C133.21 1340.86 131.68 1339.7 131.675 1337.87C131.674 1337.35 131.919 1336.72 132.285 1336.81C132.4 1336.83 132.5 1336.93 132.597 1337.02C133.269 1337.67 133.941 1338.32 135.155 1338.88C134.887 1338.12 134.721 1337.28 134.666 1336.43C134.649 1336.16 134.655 1335.85 134.801 1335.67C135.03 1335.39 135.4 1335.67 135.556 1336.03C135.713 1336.4 135.773 1336.85 135.989 1337.15C136.501 1337.86 137.357 1337.21 137.911 1336.57C137.365 1335.85 136.961 1334.93 136.757 1333.93C136.642 1333.36 136.584 1332.75 136.354 1332.25C136.176 1331.87 135.906 1331.58 135.626 1331.35C133.401 1329.51 130.194 1330.52 128.385 1327.94C127.702 1326.96 127.344 1325.56 127.433 1324.21C127.442 1324.06 127.46 1323.91 127.531 1323.8C127.724 1323.51 128.061 1323.81 128.253 1324.1C128.842 1325.01 129.432 1325.91 130.253 1326.83C130.03 1326.22 129.801 1325.57 129.831 1324.88C129.859 1324.2 130.252 1323.49 130.743 1323.54C131.53 1323.62 131.643 1325.23 132.253 1325.93C132.496 1326.21 132.813 1326.33 133.117 1326.44C133.934 1326.74 134.75 1327.03 135.568 1327.33C134.468 1325.86 134.16 1323.61 133.398 1321.77C132.658 1319.98 131.457 1318.58 130.068 1317.88C129.143 1317.42 127.938 1317.37 127.353 1318.47C127.041 1319.06 126.959 1319.89 126.535 1320.32C126.151 1320.7 125.629 1320.62 125.161 1320.52C124.576 1320.39 123.823 1319.97 123.901 1319.15C123.96 1318.53 124.468 1318.24 125.062 1318C124.063 1318.09 123.015 1318.17 122.102 1317.6C121.534 1317.24 121.022 1316.57 120.912 1315.71C120.801 1314.86 121.231 1313.86 121.853 1313.81C122.267 1313.78 122.637 1314.14 123.027 1314.34C123.665 1314.67 124.368 1314.59 125.049 1314.63C125.729 1314.67 126.469 1314.9 127.318 1315.84C126.466 1313.97 124.937 1312.97 123.681 1311.61C122.425 1310.25 121.343 1307.97 121.946 1305.91C123.065 1306.93 123.952 1308.43 124.451 1310.15C124.24 1309.61 124.024 1309.05 123.993 1308.44C123.963 1307.83 124.174 1307.14 124.589 1306.94C125.14 1306.66 125.717 1307.34 125.95 1308.09C126.183 1308.84 126.223 1309.7 126.501 1310.42C127.431 1312.83 130.319 1312.39 131.362 1314.71C131.013 1314.19 130.648 1313.63 130.554 1312.92C130.46 1312.22 130.768 1311.36 131.279 1311.31C131.974 1311.26 132.264 1312.5 132.423 1313.45C133.102 1317.47 135.342 1320.63 136.325 1324.53C137.24 1328.16 137.144 1332.57 138.772 1334.99C138.281 1333.35 138.514 1331.34 139.351 1330C139.816 1331.34 140.003 1332.87 139.889 1334.36C139.73 1333.02 140.465 1331.61 141.422 1331.41C141.98 1332.41 141.639 1333.85 141.417 1335.08C140.905 1337.94 141.204 1341.06 142.234 1343.62C143.264 1346.19 145.015 1348.17 147.026 1349.05C146.456 1348.84 146.496 1347.7 146.666 1346.91C147.035 1345.2 147.404 1343.49 147.986 1341.99C147.016 1341.46 146.025 1340.92 145.245 1339.96C144.465 1339 143.928 1337.51 144.146 1336.1C144.873 1336.75 145.561 1337.48 146.198 1338.3C146.02 1337.58 145.552 1337.07 145.299 1336.4C145.047 1335.72 145.182 1334.62 145.728 1334.56C146.197 1334.51 146.479 1335.25 146.68 1335.84C147.193 1337.37 147.991 1338.71 148.971 1339.69C148.417 1337.78 149.108 1335.38 148.293 1333.66C147.989 1333.02 147.514 1332.59 147.135 1332.03C146.051 1330.44 145.841 1328.09 145.593 1325.92C145.345 1323.75 144.903 1321.37 143.585 1320.18C143.149 1319.78 142.647 1319.55 142.208 1319.16C141.259 1318.31 140.678 1316.72 140.749 1315.15C140.763 1314.83 140.831 1314.47 141.041 1314.34C141.423 1314.11 141.698 1314.85 141.873 1315.38C142.224 1316.43 143.014 1317.18 144.203 1317.61C141.856 1314.73 141.148 1309.97 141.35 1305.6C141.377 1305.01 141.416 1304.4 141.266 1303.84C141.082 1303.17 140.65 1302.7 140.336 1302.12C139.909 1301.34 139.7 1300.33 139.763 1299.35C139.804 1298.7 140.113 1297.93 140.573 1298.04C140.884 1298.11 141.063 1298.56 141.2 1298.95C141.75 1300.54 142.3 1302.13 143.128 1304.12C143.269 1302.83 143.672 1301.6 144.28 1300.6C144.838 1301.17 144.982 1302.27 144.862 1303.22C144.741 1304.17 144.41 1305.04 144.188 1305.96C143.507 1308.76 143.941 1312.04 145.579 1315.14C145.089 1313.73 144.615 1312.11 145.003 1310.64C145.119 1310.2 145.335 1309.77 145.656 1309.64C146.136 1309.45 146.63 1310.03 146.781 1310.69C146.932 1311.36 146.843 1312.08 146.79 1312.78C146.609 1315.15 146.877 1317.54 147.145 1319.9C147.262 1320.94 147.38 1321.97 147.263 1323.71C148.023 1322.36 148.538 1320.74 148.751 1319.04C148.909 1317.77 148.968 1316.3 149.709 1315.54C149.963 1316.43 150.143 1317.37 150.247 1318.32C150.583 1316.23 151.172 1314.22 151.98 1312.4C152.096 1312.14 152.226 1311.87 152.425 1311.74C152.884 1311.46 153.374 1312.09 153.592 1312.72C154.082 1314.14 154.019 1315.85 153.571 1317.3C153.123 1318.74 152.319 1319.93 151.4 1320.84C150.916 1321.32 150.392 1321.74 149.98 1322.34C148.767 1324.1 148.845 1326.94 149.388 1329.27C149.224 1328.57 149.793 1327.83 150.312 1327.96C150.831 1328.09 151.186 1328.83 151.218 1329.57C151.25 1330.3 151.025 1331.01 150.749 1331.64C150.472 1332.27 150.138 1332.85 150.041 1334.15C150.767 1334.52 151.34 1335.44 151.508 1336.5C151.914 1339.04 150.14 1341.29 150.011 1343.89C150.05 1343.27 150.793 1343.22 151.006 1343.77C151.219 1344.32 151.016 1345.01 150.713 1345.46C150.41 1345.92 150.012 1346.24 149.725 1346.71C149.189 1347.6 149.126 1348.89 149.271 1350.03C150.428 1347.22 151.934 1344.69 153.703 1342.6C154.457 1341.71 155.328 1340.71 155.372 1339.33C155.41 1338.13 154.801 1337.12 154.457 1336.02C154.117 1334.94 154.034 1333.7 154.22 1332.55C154.255 1332.33 154.317 1332.08 154.466 1331.99C154.63 1331.89 154.818 1332.02 154.967 1332.16C155.526 1332.69 155.998 1333.4 157.063 1334.61C156.089 1332.61 155.943 1329.87 156.693 1327.68C156.969 1326.88 157.371 1326.03 157.203 1325.16C156.94 1323.8 155.404 1323.22 155.529 1321.83C155.622 1320.78 156.923 1320.62 157.15 1321.62C156.84 1321.13 156.515 1320.59 156.441 1319.94C156.367 1319.29 156.659 1318.51 157.13 1318.48C157.66 1318.45 157.978 1319.27 158.166 1319.96C158.538 1321.34 158.909 1322.72 159.281 1324.09C159.287 1320.88 159.292 1317.67 159.298 1314.45C159.298 1313.91 159.298 1313.35 159.142 1312.85C158.963 1312.28 158.601 1311.86 158.302 1311.4C157.263 1309.78 156.926 1307.35 157.459 1305.31C158.121 1306.48 158.784 1307.65 159.446 1308.82C158.966 1307.61 159.177 1305.95 159.927 1305.05C160.277 1304.63 160.715 1304.38 161.075 1303.97C162.251 1302.65 162.276 1300.22 162.377 1298.11C162.39 1297.83 162.41 1297.54 162.514 1297.3C162.782 1296.68 163.496 1296.74 163.858 1297.26C164.221 1297.77 164.309 1298.55 164.328 1299.27C164.415 1302.63 163.396 1305.82 162.557 1308.98C161.718 1312.13 161.04 1315.62 161.807 1318.81C161.363 1317.22 161.78 1315.25 162.769 1314.26C163.537 1314.8 163.829 1316.19 163.679 1317.37C163.529 1318.56 163.039 1319.59 162.585 1320.61C160.093 1326.2 158.342 1332.44 157.447 1338.9C158.016 1338.69 158.133 1337.56 158.651 1337.17C159.182 1336.77 159.883 1337.46 159.958 1338.3C160.034 1339.13 159.643 1339.93 159.15 1340.42C158.657 1340.9 158.067 1341.14 157.508 1341.45C155.19 1342.74 153.282 1345.41 152.2 1349.06C153.085 1347.11 154.716 1346.07 156.316 1345.47C157.916 1344.88 159.59 1344.6 161.101 1343.65C162.61 1342.7 163.983 1340.85 164.112 1338.55C164.156 1337.77 164.057 1336.99 164.124 1336.22C164.19 1335.45 164.483 1334.64 165.011 1334.4C165.88 1334.02 166.64 1335.43 166.749 1336.69C166.859 1337.95 166.65 1339.3 167.033 1340.46C167.69 1338.04 168.151 1335.51 168.407 1332.95C168.558 1331.43 168.623 1329.8 168.099 1328.46C167.872 1327.87 167.532 1327.33 167.502 1326.67C167.443 1325.34 168.559 1324.62 169.473 1324.26C169.873 1325.39 170.272 1326.53 170.672 1327.66C171.652 1325.11 172.632 1322.56 173.612 1320.01C173.969 1319.09 174.238 1317.69 173.574 1317.19C173.246 1316.94 172.826 1317.08 172.489 1316.86C171.79 1316.4 171.948 1314.96 172.276 1313.98C172.622 1314.43 172.967 1314.87 173.312 1315.31C172.075 1313.69 171.439 1311.22 171.655 1308.87C171.704 1308.33 171.959 1307.65 172.334 1307.8C172.514 1307.87 172.625 1308.11 172.713 1308.35C173.226 1309.68 173.569 1311.14 173.721 1312.64C174.648 1309.6 172.946 1306.17 173.233 1302.89C173.295 1302.19 173.643 1301.33 174.134 1301.51C174.502 1301.64 174.635 1302.26 174.703 1302.78C175.134 1306.14 175.468 1309.51 175.453 1313.93C175.945 1312.58 176.437 1311.23 176.929 1309.88C177.426 1311.22 177.145 1312.87 176.652 1314.22C176.159 1315.56 175.465 1316.76 175.093 1318.17C174.539 1320.29 174.756 1322.64 174.429 1324.84C174.042 1327.44 172.92 1329.7 171.825 1331.88C172.61 1331.06 173.41 1330.26 174.221 1329.49C174.614 1331.72 173.565 1333.92 172.406 1335.54C171.247 1337.16 169.869 1338.65 169.324 1340.8C169.18 1341.37 169.096 1341.99 168.867 1342.5C168.238 1343.9 166.845 1344.03 165.664 1344.17C165.273 1344.22 164.75 1344.54 164.868 1345.06C165.194 1345.44 165.655 1345.58 166.065 1345.43L166.472 1346.31C167.081 1345.43 167.77 1344.5 168.643 1344.4C169.516 1344.3 170.453 1345.62 170.023 1346.69C169.725 1347.42 169.021 1347.56 168.417 1347.61C167.296 1347.71 166.169 1347.8 165.051 1347.63C164.18 1347.5 163.325 1347.21 162.453 1347.11C157.977 1346.57 154.045 1350.83 149.961 1353.44C149.566 1353.69 148.995 1353.86 147.297 1352.84L147.29 1352.83Z" fill="#4A2002"/>
<path d="M453.548 1337.59C452.753 1336.63 451.959 1335.68 451.164 1334.72C451.088 1334.63 451.01 1334.53 450.919 1334.48C450.466 1334.2 450.041 1334.9 449.748 1335.45C448.255 1338.29 445.357 1339.48 443.003 1338.24C442.576 1336.79 443.059 1335.12 443.743 1333.88C444.426 1332.63 445.312 1331.6 445.864 1330.24C442.876 1330.83 439.952 1332.05 437.224 1333.85C436.736 1334.17 436.24 1334.52 435.702 1334.59C435.164 1334.65 434.566 1334.37 434.31 1333.71C434.054 1333.04 434.333 1332.03 434.87 1331.96C434.141 1331.28 433.2 1331.29 432.359 1330.94C431.518 1330.59 430.659 1329.52 430.89 1328.33C431.117 1327.17 432.169 1326.85 433.028 1326.75C436.01 1326.41 438.998 1326.16 442.731 1326.33C442.579 1325.13 442.427 1323.93 442.275 1322.73C441.347 1323.16 440.809 1324.93 439.837 1324.81C438.851 1324.69 438.608 1322.72 439.031 1321.47C439.454 1320.22 440.249 1319.19 440.411 1317.83C440.686 1315.52 439.086 1313.7 437.643 1312.52C436.201 1311.34 434.526 1309.8 434.521 1307.46C434.521 1307.09 434.599 1306.65 434.848 1306.5C435.02 1306.39 435.218 1306.47 435.398 1306.55C437.198 1307.38 438.778 1309.11 439.785 1311.35C439.165 1307.53 439.024 1303.56 439.37 1299.68C439.639 1296.65 440.532 1293.17 442.642 1292.37C442.905 1296.6 443.108 1300.84 443.252 1305.08C443.064 1303.31 443.934 1301.44 445.168 1300.96C445.606 1302.94 445.28 1305.07 445.161 1307.13C444.808 1313.23 446.386 1319.49 449.391 1323.93C448.179 1321.08 449.435 1316.82 451.732 1315.99C451.928 1319.17 452.123 1322.35 452.319 1325.53C452.37 1326.35 452.432 1327.22 452.79 1327.87C453.147 1328.53 453.911 1328.82 454.327 1328.24C454.861 1327.49 454.412 1326.27 454.131 1325.29C453.766 1324.02 453.749 1322.56 454.086 1321.27C454.304 1320.44 454.66 1319.69 454.836 1318.84C455.29 1316.65 454.477 1314.38 454.03 1313.05C452.919 1308.83 451.802 1304.6 450.221 1300.69C449.515 1298.94 448.716 1297.26 448.195 1295.4C447.661 1293.49 447.43 1291.43 447.52 1289.39C447.547 1288.78 447.679 1288.04 448.103 1287.88C448.564 1287.71 448.948 1288.37 449.171 1288.96C450.077 1291.37 450.617 1294 451.152 1296.61C450.823 1294.73 450.513 1292.64 451.197 1290.95C451.404 1290.44 451.834 1289.96 452.207 1290.23C452.35 1290.33 452.446 1290.53 452.523 1290.72C453.193 1292.45 452.712 1294.56 452.7 1296.53C452.682 1299.24 453.586 1301.77 454.469 1304.19C453.901 1302.65 453.842 1300.76 454.312 1299.16C454.469 1298.63 454.909 1298.05 455.23 1298.41C455.328 1298.53 455.377 1298.7 455.422 1298.86C455.694 1299.86 455.965 1300.85 456.238 1301.84C456.463 1300.06 456.69 1298.28 456.915 1296.49C456.999 1295.84 457.081 1295.16 457.014 1294.5C456.809 1292.51 455.274 1290.88 455.604 1288.92C455.675 1288.5 455.879 1288.06 456.188 1288.01C456.594 1287.94 456.88 1288.54 457.061 1289.05C457.436 1290.1 457.811 1291.15 458.66 1292.6C458.67 1290.19 458.893 1287.79 459.617 1285.4C460.344 1285.03 461.155 1285.88 461.398 1286.9C461.641 1287.93 461.478 1289.05 461.314 1290.11C460.91 1292.7 460.507 1295.29 460.103 1297.89C459.584 1301.22 459.065 1304.71 459.69 1308.01C460.099 1310.17 460.971 1312.1 461.831 1313.98C460.464 1311.34 462.842 1307.46 461.867 1304.5C461.486 1303.35 460.627 1302.51 460.473 1301.26C460.339 1300.18 460.92 1298.98 461.7 1298.93C462.479 1298.89 463.131 1300.28 463.187 1301.9C463.218 1298.92 463.051 1295.93 462.646 1292.73C462.763 1291.17 463.106 1289.64 463.909 1288.46C464.21 1290.55 464.512 1292.63 464.813 1294.72C464.804 1293.55 464.8 1292.35 465.111 1291.26C465.423 1290.18 466.132 1289.23 466.967 1289.22C466.35 1300.02 465.507 1310.79 464.437 1321.52C464.658 1321.04 465.032 1320.71 465.435 1320.64C465.431 1323.02 465.427 1325.4 465.424 1327.78C466.963 1318.22 467.686 1308.41 467.576 1298.61C467.56 1297.13 467.543 1295.56 468.108 1294.31C468.278 1293.94 468.544 1293.57 468.86 1293.6C469.352 1293.64 469.549 1294.49 469.621 1295.17C469.812 1297 470.003 1298.83 470.195 1300.66C469.812 1295.28 470.334 1289.78 471.972 1283.95C472.479 1283.3 473.1 1282.83 473.765 1282.58C474.233 1285.14 474.183 1287.87 473.625 1290.38C473.106 1292.72 472.149 1295.17 472.928 1298.3C474.109 1294.97 475.606 1291.28 478.201 1290.45C478.946 1292.15 477.99 1294.26 477.145 1295.87C472.827 1304.09 470.51 1314.33 470.572 1324.39C470.834 1325.5 471.096 1326.61 471.357 1327.72C471.159 1326.53 471.667 1325.33 472.253 1324.42C472.837 1323.51 473.539 1322.68 473.863 1321.54C474.332 1319.9 473.903 1318.07 473.711 1316.32C473.488 1314.3 473.593 1312.22 474.014 1310.26C474.138 1309.69 474.342 1309.05 474.754 1308.88C475.422 1308.61 475.929 1309.73 476.121 1310.66C476.518 1312.6 476.686 1314.63 476.615 1316.65C477.184 1314.44 478.179 1312.45 479.466 1310.93C479.644 1310.72 479.839 1310.52 480.068 1310.46C480.485 1310.36 480.893 1310.82 481.048 1311.37C481.204 1311.92 481.163 1312.54 481.099 1313.13C480.392 1319.53 477.054 1325.32 478.071 1331.62C477.914 1327.59 479.5 1323.89 480.79 1320.28C482.078 1316.67 483.111 1312.34 481.871 1308.7C481.567 1307.81 481.133 1306.98 480.98 1306.02C480.826 1305.06 481.075 1303.85 481.746 1303.54C482.337 1303.27 482.994 1303.83 483.299 1304.59C483.603 1305.35 483.641 1306.25 483.671 1307.12C483.309 1302.81 485.069 1298.31 487.86 1296.4C487.691 1301.19 487.088 1305.95 486.068 1310.53C486.619 1306.68 487.897 1302.8 490.279 1300.73C490.744 1301.51 490.485 1302.67 490.205 1303.6C489.13 1307.18 488.055 1310.76 486.979 1314.34C487.476 1313.78 487.742 1312.92 488.139 1312.22C488.535 1311.52 489.204 1310.94 489.793 1311.29C490.42 1311.66 490.559 1312.89 490.271 1313.75C489.983 1314.62 489.41 1315.21 488.892 1315.83C486.263 1318.95 484.639 1323.47 483.763 1328.14C482.888 1332.81 482.701 1337.66 482.304 1343.12C484.114 1339.08 485.493 1334.66 486.381 1330.06C486.562 1329.12 486.836 1328.01 487.515 1327.79C487.739 1330.38 487.745 1333.02 487.531 1335.62C487.633 1331.15 489.042 1326.77 491.363 1323.69C491.597 1324.44 491.832 1325.19 492.067 1325.93C491.658 1322.96 492.746 1319.7 494.64 1318.22C495.043 1319.55 495.194 1321.02 495.053 1322.6C495.873 1319.03 496.84 1315.18 499.094 1313.14C499.322 1312.93 499.575 1312.74 499.847 1312.75C500.324 1312.78 500.682 1313.44 500.742 1314.1C500.801 1314.76 500.637 1315.41 500.475 1316.04C500.017 1317.81 499.559 1319.58 499.101 1321.35C499.416 1320.08 499.835 1318.84 500.492 1317.86C501.15 1316.88 502.075 1316.19 503.034 1316.24C503.217 1317.42 503.374 1318.72 502.964 1319.79C502.692 1320.5 502.208 1321 501.747 1321.48C498.155 1325.25 495.009 1329.85 492.474 1335.04C493.094 1333.54 494.074 1332.33 495.22 1331.67C495.599 1331.45 496.034 1331.28 496.412 1331.51C496.789 1331.74 497.003 1332.5 496.445 1333.5C501.439 1329.48 503.008 1319.43 508.344 1316.38C508.587 1316.24 508.864 1316.12 509.108 1316.26C509.26 1316.35 509.374 1316.53 509.46 1316.73C510.087 1318.14 509.338 1319.93 508.614 1321.25C506.836 1324.5 505.058 1327.75 503.279 1331C504.903 1328.94 506.786 1327.3 508.816 1326.15C509.164 1325.95 509.533 1325.76 509.908 1325.83C510.784 1325.97 511.265 1327.51 511.005 1328.69C510.745 1329.87 509.983 1330.69 509.2 1331.26C507.675 1332.36 505.95 1332.78 504.324 1333.55C502.044 1334.63 499.967 1336.4 497.913 1338.15C496.799 1339.1 495.598 1340.21 495.071 1342.83C497.444 1341.42 500.312 1342.7 502.667 1341.23C503.727 1340.57 504.581 1339.42 505.409 1338.28C506.226 1337.17 507.043 1336.05 507.859 1334.93C508.477 1336.18 508.446 1337.98 507.624 1339.77C509.454 1338.29 511.285 1336.82 513.115 1335.34C513.338 1335.16 513.57 1334.97 513.826 1334.94C514.591 1334.85 515.089 1336.24 514.841 1337.26C514.593 1338.27 513.899 1338.93 513.236 1339.46C506.522 1344.91 498.55 1346.26 490.819 1347.25C497.212 1347.75 503.661 1346.85 509.853 1344.58C507.699 1348.66 503.964 1350.33 500.479 1351.76C503.205 1352.2 505.918 1352.8 508.61 1353.55C509.8 1353.88 511.293 1354.79 511.16 1356.48C511.136 1356.78 511.039 1357.1 510.844 1357.24C510.702 1357.35 510.533 1357.34 510.374 1357.32C502.189 1356.72 494.075 1352.73 485.961 1354.33C484.535 1354.61 483.076 1355.1 481.943 1356.34C481.239 1357.11 480.703 1358.12 480.122 1359.07C477.397 1363.52 473.555 1366.61 469.434 1367.66C467.336 1368.2 464.729 1367.89 463.712 1365.27C463.488 1364.69 463.357 1364.03 463.039 1363.54C462.503 1362.73 461.615 1362.66 460.824 1362.68C458.727 1362.72 456.566 1362.92 454.597 1361.92C452.628 1360.91 450.896 1358.27 451.146 1355.36C451.253 1354.11 451.702 1352.8 451.325 1351.66C451.007 1350.69 450.203 1350.24 449.454 1350.05C448.054 1349.69 446.609 1349.9 445.195 1349.65C443.783 1349.4 442.29 1348.53 441.668 1346.74C441.046 1344.96 441.877 1342.28 443.301 1342.32C444.006 1342.34 444.612 1342.97 445.245 1343.4C448.094 1345.35 452.014 1342.64 453.548 1337.59V1337.59Z" fill="#4A2002"/>
<path d="M80.7025 1338.97C79.7526 1332.45 82.4277 1325.95 82.515 1319.3C82.5681 1315.24 81.656 1311.15 82.2448 1307.17C82.5032 1305.43 83.046 1303.76 83.0696 1301.98C83.1133 1298.7 81.3834 1295.56 81.9415 1292.37C82.1185 1291.36 82.5268 1290.36 82.3982 1289.34C82.2094 1287.82 80.9775 1287.01 80.5291 1285.61C79.7692 1283.24 81.5274 1280.79 81.7693 1278.21C81.9899 1275.86 80.9173 1273.62 80.8807 1271.25C80.8146 1267.01 83.9346 1263.92 84.4939 1259.76C84.6697 1258.45 84.6178 1256.95 85.2632 1255.97C86.0845 1254.72 87.6197 1254.95 88.5212 1253.81C89.4157 1252.69 89.3354 1250.72 89.772 1249.15C90.7361 1245.68 94.1309 1244.41 94.9841 1240.88C95.2779 1239.67 95.2201 1238.34 95.4632 1237.1C96.1712 1233.48 99.2026 1231.5 99.9625 1227.91C101.209 1229.25 101.488 1231.76 101.258 1233.93C101.027 1236.11 100.391 1238.17 100.177 1240.36C100.052 1241.63 100.07 1242.95 99.7713 1244.17C98.9076 1247.71 95.7876 1249.17 94.4566 1252.41C93.5409 1254.64 93.5622 1257.51 92.4329 1259.54C91.3261 1261.52 89.3154 1262.31 88.3855 1264.47C86.9825 1267.72 88.7879 1271.9 88.3702 1275.66C88.133 1277.79 87.1737 1279.73 87.1973 1281.89C87.2185 1283.81 88.0185 1285.57 88.1058 1287.48C88.2309 1290.24 86.8669 1292.77 86.8421 1295.53C86.8161 1298.36 88.1885 1301.03 87.8522 1303.81C87.6988 1305.08 87.2032 1306.21 86.8291 1307.39C86.2757 1309.12 85.9819 1311 85.6904 1312.85C85.5087 1314.01 85.327 1315.17 85.1464 1316.33C84.0172 1323.54 82.8879 1330.77 80.7049 1338.96L80.7025 1338.97Z" fill="#4A2002"/>
<path d="M79.0281 1342.59C77.7502 1334.99 76.464 1327.34 74.3801 1320.09C73.5895 1317.33 72.6762 1314.6 72.354 1311.67C72.1345 1309.67 72.1935 1307.61 71.7805 1305.67C71.0466 1302.22 68.866 1299.37 68.8778 1295.77C68.8837 1294.25 69.2683 1292.57 68.6642 1291.3C67.9113 1289.72 65.9525 1289.62 65.5844 1287.8C65.464 1287.2 65.5572 1286.53 65.3566 1285.97C64.6982 1284.15 62.1647 1285.91 61.4107 1284.16C61.2148 1283.7 61.2207 1283.14 61.1263 1282.63C60.4738 1279.06 55.8977 1279.7 55.113 1276.2C54.7402 1274.53 55.4163 1272.42 54.5785 1271.13C54.1018 1270.39 53.29 1270.23 52.8062 1269.51C51.9495 1268.23 52.5938 1266.13 53.3926 1264.78C54.1915 1263.43 55.1921 1261.91 54.9349 1260.2C54.8475 1259.62 54.6198 1259.1 54.4676 1258.55C53.6522 1255.58 55.0965 1252.43 56.4052 1249.84C57.7138 1247.24 58.9941 1243.85 57.8931 1241.07C58.7817 1240.83 59.6112 1240.17 60.8243 1239.84C59.2914 1243.21 60.3841 1247.7 59.6737 1251.56C59.3504 1253.32 58.6578 1254.91 58.3699 1256.68C58.0819 1258.45 58.3427 1260.62 59.4732 1261.51C60.1458 1262.04 61.0048 1262.02 61.629 1262.66C62.6745 1263.73 62.5105 1265.92 62.3925 1267.72C62.2745 1269.53 62.6285 1271.89 63.9111 1272.15C64.3914 1272.25 64.9236 1272 65.3448 1272.34C66.4293 1273.21 65.1206 1275.99 66.0222 1277.2C66.4977 1277.84 67.2623 1277.58 67.9196 1277.51C70.3941 1277.23 72.6656 1280.87 72.1369 1284.26C72.0638 1284.73 71.9469 1285.21 72.0272 1285.68C72.1877 1286.6 72.9747 1286.93 73.606 1287.28C75.2509 1288.18 76.5171 1290.32 76.8475 1292.74C77.1259 1294.79 76.7779 1296.93 77.0776 1298.97C77.3395 1300.75 78.077 1302.32 78.5349 1304.03C79.6264 1308.09 79.0753 1312.6 78.8145 1316.92C78.2882 1325.66 79.0281 1334.55 79.0293 1342.59L79.0281 1342.59Z" fill="#4A2002"/>
<path d="M83.937 1343.29C81.0483 1333.35 79.7173 1322.54 80.0619 1311.83C80.2105 1307.21 80.6554 1302.44 79.6135 1298.04C79.2099 1296.34 78.5892 1294.73 78.404 1292.95C78.0452 1289.52 79.3433 1285.78 78.2376 1282.68C77.2228 1279.83 74.471 1278.55 73.8928 1275.46C73.625 1274.04 73.8822 1272.42 73.363 1271.14C72.8096 1269.78 71.5824 1269.29 70.7658 1268.21C69.3486 1266.35 69.6248 1262.61 71.285 1261.19C69.718 1257.67 69.6507 1252.94 71.1163 1249.34C71.8337 1247.57 72.8839 1246.07 73.4031 1244.17C74.0698 1241.74 73.7984 1238.89 74.7047 1236.61C75.9083 1233.59 78.8358 1232.46 79.8943 1229.34C76.785 1226.66 72.1334 1228.67 70.649 1233.34C70.4177 1234.06 70.2879 1235.02 70.7045 1235.56C70.9629 1235.9 71.3558 1235.96 71.6272 1236.27C72.2609 1237.01 71.8373 1238.42 71.4372 1239.42C70.4 1242.04 69.8077 1244.99 69.7227 1247.98C69.9622 1245.88 70.1451 1243.49 69.161 1241.87C68.6548 1241.04 67.876 1240.5 67.5704 1239.5C66.9037 1237.31 68.9156 1235.25 69.03 1232.88C69.1008 1231.41 68.4188 1229.93 68.7197 1228.51C69.161 1226.44 71.1776 1226.23 72.7187 1226.43C72.4096 1224.4 74.1465 1222.84 75.6357 1222.82C77.1248 1222.8 78.6058 1223.62 80.0737 1223.27C81.0259 1223.05 82.18 1222.43 82.8266 1223.43C83.183 1223.99 83.2231 1224.88 83.6514 1225.32C84.088 1225.77 84.6981 1225.54 85.2421 1225.59C86.3229 1225.68 87.2186 1227.02 87.4015 1228.52C87.5844 1230.01 87.1513 1231.55 86.4492 1232.71C86.0386 1233.38 85.5135 1234.01 85.4167 1234.89C85.3447 1235.54 85.53 1236.18 85.6067 1236.83C85.9312 1239.58 84.3464 1241.96 82.9104 1243.89C80.9952 1246.46 78.9538 1250.06 79.9616 1253.49C80.1964 1254.29 80.5882 1255 80.7073 1255.85C81.0566 1258.35 78.9633 1260.34 78.8901 1262.88C78.8087 1265.69 81.2088 1267.97 80.7474 1270.7C80.6011 1271.57 80.1669 1272.35 80.1763 1273.24C80.1822 1273.84 80.3864 1274.39 80.5645 1274.93C81.6195 1278.14 81.8767 1281.85 81.2832 1285.28C81.1463 1286.07 80.9657 1286.88 81.0708 1287.68C81.1994 1288.65 81.728 1289.41 82.0395 1290.3C82.9599 1292.94 81.8625 1296.24 82.6248 1298.98C82.9234 1300.05 83.4862 1300.94 83.7907 1302.01C84.2568 1303.64 84.075 1305.47 83.9122 1307.2C82.8372 1318.68 82.8891 1330.37 83.9358 1343.29L83.937 1343.29Z" fill="#4A2002"/>
<path d="M80.8618 1343.03C80.509 1338.96 82.115 1335.08 83.8508 1331.77C85.5865 1328.46 87.5749 1325.19 88.1826 1321.17C88.559 1318.69 88.3773 1316.05 88.9814 1313.65C89.5655 1311.33 90.8376 1309.45 91.4358 1307.13C92.2453 1303.99 91.7225 1300.48 92.2583 1297.23C93.2813 1291.02 97.8338 1287.15 99.5684 1281.26C99.9153 1280.08 100.15 1278.82 100.658 1277.76C101.732 1275.51 103.794 1274.62 105.121 1272.65C106.458 1270.67 106.903 1267.6 106.226 1265.05C105.84 1263.6 105.123 1262.3 104.965 1260.76C104.705 1258.25 105.983 1256 107.054 1253.95C108.126 1251.89 109.082 1249.14 108.193 1246.93C107.728 1245.77 106.821 1244.98 106.542 1243.71C106.049 1241.46 107.732 1239.58 108.719 1237.67C110.411 1234.39 109.991 1229.34 107.188 1226.67C107.992 1227.35 109.118 1227.28 109.731 1228.27C110.514 1229.55 109.885 1231.54 110.158 1233.18C110.472 1235.08 111.942 1236.23 112.585 1238.57C111.06 1241.01 111.018 1245 112.492 1247.5C113.119 1248.57 114.009 1249.45 114.218 1250.8C114.557 1252.99 112.952 1254.75 112.373 1256.84C111.104 1261.41 114.926 1266.66 113.427 1271.1C112.716 1273.21 110.939 1274.47 110.549 1276.74C110.259 1278.42 110.835 1280.2 110.623 1281.91C110.275 1284.71 108.031 1286.22 107.1 1288.76C106.218 1291.16 106.638 1294.09 106.095 1296.68C104.944 1302.17 99.9424 1304.57 98.5583 1309.96C97.8196 1312.83 97.9683 1316.72 96.0001 1318.04C95.4537 1318.41 94.8307 1318.49 94.2572 1318.77C91.5951 1320.06 91.0358 1324.85 89.5738 1328.22C87.6633 1332.62 83.7198 1335.29 80.8642 1343.04L80.8618 1343.03Z" fill="#4A2002"/>
<rect y="1393" width="767" height="628" fill="#4A2002"/>
</g>
<defs>
<clipPath id="clip0_2413_523">
<rect width="767" height="1838" fill="white"/>
</clipPath>
</defs>
</svg>
