<svg width="767" height="174" viewBox="0 0 767 174" fill="none" xmlns="http://www.w3.org/2000/svg">
<path d="M81.1007 29.8817C77.0003 28.4356 73.3511 28.1931 71.0819 28.1978C73.2825 26.4479 76.4858 24.2671 80.7472 22.4113C85.3806 20.3953 89.6077 19.4838 92.6526 19.0434C89.2726 18.4217 83.0533 17.6987 75.6784 19.359C69.8417 20.6732 65.5461 22.9671 62.947 24.6203C63.7703 22.3406 65.0421 17.7717 64.0077 12.1006C62.9074 6.06442 59.7701 1.91 58.1131 0C59.6197 3.60803 62.3454 11.7473 59.5274 21.2525C58.4482 24.8935 56.8175 27.8516 55.2844 30.0913C55.8755 28.7936 59.435 20.6214 54.696 12.8354C49.9703 5.07527 40.4607 3.38901 36.7771 2.73429C29.104 1.37303 22.7766 3.02396 19.8029 3.99663C21.9375 4.22978 38.1334 6.23869 45.854 18.6219C48.9359 23.5653 49.5613 28.3862 49.6272 31.4572C47.1364 21.9402 39.2759 14.8561 30.178 13.7821C19.9322 12.5716 11.7181 19.4038 10.2563 20.6214C7.10055 23.2473 5.21921 26.0311 4.12682 27.9858C6.46201 26.5068 10.3777 24.4249 15.6787 23.3557C18.6049 22.7669 28.7505 20.7226 37.7218 26.1959C42.9621 29.3942 45.511 33.7582 46.6799 36.297C41.1784 29.38 32.1121 25.5412 22.9851 26.4079C11.4068 27.5054 3.78908 35.793 1.17684 43.2422C-0.59895 48.3175 0.0105722 52.8205 0.588431 55.3428C1.52778 52.5755 4.15057 46.2944 11.0796 41.4547C11.9715 40.8329 23.2595 33.2071 36.7771 36.4053C40.5082 37.2885 43.3077 38.7345 45.0281 39.7731C39.7166 38.7934 34.4077 40.2041 31.236 43.5602C28.7795 46.1602 28.3731 49.1182 28.2887 50.3994C29.1542 49.13 32.6688 44.3091 39.2522 43.035C41.3235 42.6346 43.1837 42.6841 44.635 42.8583C42.6507 44.6105 39.6638 47.4084 36.4631 51.1366C19.729 70.6063 17.0086 92.2144 15.7948 103.043C15.1853 108.481 14.7183 116.26 15.5626 125.69C20.8557 125.535 26.1488 125.379 31.4419 125.224C30.7189 122.671 29.8349 119.1 29.1726 114.788C28.3362 109.324 26.2411 92.092 33.5343 71.334C35.8879 64.6384 39.991 55.3734 47.3844 45.3524C49.0494 47.2553 51.1867 50.1356 52.8068 53.9792C54.3055 57.5378 54.8517 60.7172 55.047 63.0275C56.3214 60.4204 58.5379 54.82 57.0497 48.0867C56.5325 45.741 55.675 43.7651 54.8095 42.1942C57.3109 44.1113 64.203 49.9166 66.3614 59.5537C67.62 65.1707 66.7783 69.8997 66.0078 72.7047C66.6253 72.123 74.7126 64.2498 71.9025 53.8708C69.7678 45.9836 62.8151 42.1 61.4113 41.3511C65.6067 43.5766 77.908 50.7692 83.3383 64.8151C85.8265 71.2516 86.064 77.0381 85.8133 81.0182C88.196 77.8459 90.7185 73.3382 91.5893 67.6553C91.9481 65.312 93.5973 54.568 85.5785 45.7716C82.1483 42.0081 78.1903 39.9639 75.7945 38.9324C79.0162 39.3657 85.0666 40.5904 91.0009 44.6129C94.563 47.0269 96.9325 49.6693 98.4286 51.6617C98.2808 49.3113 97.5235 42.969 92.1803 37.1425C87.8714 32.4417 82.771 30.4704 81.1007 29.8817Z" fill="#933E00"/>
<path d="M128.756 29.8817C132.857 28.4356 136.506 28.1931 138.775 28.1978C136.575 26.4479 133.371 24.2671 129.11 22.4113C124.477 20.3953 120.25 19.4838 117.205 19.0434C120.585 18.4217 126.804 17.6987 134.179 19.359C140.015 20.6732 144.311 22.9671 146.91 24.6203C146.087 22.3406 144.815 17.7717 145.849 12.1006C146.95 6.06442 150.087 1.91 151.744 0C150.237 3.60803 147.512 11.7473 150.33 21.2525C151.409 24.8935 153.04 27.8516 154.573 30.0913C153.982 28.7936 150.422 20.6214 155.161 12.8354C159.887 5.07527 169.397 3.38901 173.08 2.73429C180.753 1.37303 187.081 3.02396 190.054 3.99663C187.92 4.22978 171.724 6.23869 164.003 18.6219C160.921 23.5653 160.296 28.3862 160.23 31.4572C162.721 21.9402 170.581 14.8561 179.679 13.7821C189.925 12.5716 198.139 19.4038 199.601 20.6214C202.757 23.2473 204.638 26.0311 205.73 27.9858C203.395 26.5068 199.479 24.4249 194.178 23.3557C191.252 22.7669 181.107 20.7226 172.135 26.1959C166.895 29.3942 164.346 33.7582 163.177 36.297C168.679 29.38 177.745 25.5412 186.872 26.4079C198.45 27.5054 206.068 35.793 208.68 43.2422C210.456 48.3175 209.847 52.8205 209.269 55.3428C208.329 52.5755 205.707 46.2944 198.778 41.4547C197.886 40.8329 186.598 33.2071 173.08 36.4053C169.349 37.2885 166.549 38.7345 164.829 39.7731C170.141 38.7934 175.45 40.2041 178.621 43.5602C181.078 46.1602 181.484 49.1182 181.568 50.3994C180.703 49.13 177.188 44.3091 170.605 43.035C168.534 42.6346 166.673 42.6841 165.222 42.8583C167.206 44.6105 170.193 47.4084 173.394 51.1366C190.128 70.6063 192.849 92.2144 194.062 103.043C194.672 108.481 195.139 116.26 194.295 125.69C189.001 125.535 183.708 125.379 178.415 125.224C179.138 122.671 180.022 119.1 180.685 114.788C181.521 109.324 183.616 92.092 176.323 71.334C173.969 64.6384 169.866 55.3734 162.473 45.3524C160.808 47.2553 158.671 50.1356 157.05 53.9792C155.552 57.5378 155.005 60.7172 154.81 63.0275C153.536 60.4204 151.319 54.82 152.807 48.0867C153.325 45.741 154.182 43.7651 155.048 42.1942C152.546 44.1113 145.654 49.9166 143.496 59.5537C142.237 65.1707 143.079 69.8997 143.849 72.7047C143.232 72.123 135.145 64.2498 137.955 53.8708C140.089 45.9836 147.042 42.1 148.446 41.3511C144.25 43.5766 131.949 50.7692 126.519 64.8151C124.031 71.2516 123.793 77.0381 124.044 81.0182C121.661 77.8459 119.139 73.3382 118.268 67.6553C117.909 65.312 116.26 54.568 124.279 45.7716C127.709 42.0081 131.667 39.9639 134.063 38.9324C130.841 39.3657 124.791 40.5904 118.856 44.6129C115.294 47.0269 112.925 49.6693 111.429 51.6617C111.576 49.3113 112.334 42.969 117.677 37.1425C121.986 32.4417 127.086 30.4704 128.756 29.8817Z" fill="#933E00"/>
<path d="M303.958 29.8817C299.857 28.4356 296.208 28.1931 293.939 28.1978C296.14 26.4479 299.343 24.2671 303.604 22.4113C308.238 20.3953 312.465 19.4838 315.51 19.0434C312.13 18.4217 305.91 17.6987 298.536 19.359C292.699 20.6732 288.403 22.9671 285.804 24.6203C286.627 22.3406 287.899 17.7717 286.865 12.1006C285.765 6.06442 282.627 1.91 280.97 0C282.477 3.60803 285.203 11.7473 282.385 21.2525C281.305 24.8935 279.675 27.8516 278.142 30.0913C278.733 28.7936 282.292 20.6214 277.553 12.8354C272.827 5.07527 263.318 3.38901 259.634 2.73429C251.961 1.37303 245.634 3.02396 242.66 3.99663C244.795 4.22978 260.991 6.23869 268.711 18.6219C271.793 23.5653 272.418 28.3862 272.484 31.4572C269.994 21.9402 262.133 14.8561 253.035 13.7821C242.789 12.5716 234.575 19.4038 233.114 20.6214C229.958 23.2473 228.076 26.0311 226.984 27.9858C229.319 26.5068 233.235 24.4249 238.536 23.3557C241.462 22.7669 251.608 20.7226 260.579 26.1959C265.819 29.3942 268.368 33.7582 269.537 36.297C264.036 29.38 254.969 25.5412 245.842 26.4079C234.264 27.5054 226.646 35.793 224.034 43.2422C222.258 48.3175 222.868 52.8205 223.446 55.3428C224.385 52.5755 227.008 46.2944 233.937 41.4547C234.829 40.8329 246.117 33.2071 259.634 36.4053C263.365 37.2885 266.165 38.7345 267.885 39.7731C262.574 38.7934 257.265 40.2041 254.093 43.5602C251.637 46.1602 251.23 49.1182 251.146 50.3994C252.011 49.13 255.526 44.3091 262.109 43.035C264.181 42.6346 266.041 42.6841 267.492 42.8583C265.508 44.6105 262.521 47.4084 259.32 51.1366C242.586 70.6063 239.866 92.2144 238.652 103.043C238.042 108.481 237.575 116.26 238.42 125.69C243.713 125.535 249.006 125.379 254.299 125.224C253.576 122.671 252.692 119.1 252.03 114.788C251.193 109.324 249.098 92.092 256.391 71.334C258.745 64.6384 262.848 55.3734 270.242 45.3524C271.907 47.2553 274.044 50.1356 275.664 53.9792C277.163 57.5378 277.709 60.7172 277.904 63.0275C279.179 60.4204 281.395 54.82 279.907 48.0867C279.39 45.741 278.532 43.7651 277.667 42.1942C280.168 44.1113 287.06 49.9166 289.219 59.5537C290.477 65.1707 289.635 69.8997 288.865 72.7047C289.482 72.123 297.57 64.2498 294.76 53.8708C292.625 45.9836 285.672 42.1 284.269 41.3511C288.464 43.5766 300.765 50.7692 306.195 64.8151C308.684 71.2516 308.921 77.0381 308.67 81.0182C311.053 77.8459 313.576 73.3382 314.446 67.6553C314.805 65.312 316.454 54.568 308.436 45.7716C305.005 42.0081 301.048 39.9639 298.652 38.9324C301.873 39.3657 307.924 40.5904 313.858 44.6129C317.42 47.0269 319.79 49.6693 321.286 51.6617C321.138 49.3113 320.381 42.969 315.037 37.1425C310.729 32.4417 305.628 30.4704 303.958 29.8817Z" fill="#933E00"/>
<path d="M351.614 29.8817C355.714 28.4356 359.363 28.1931 361.632 28.1978C359.432 26.4479 356.229 24.2671 351.967 22.4113C347.334 20.3953 343.107 19.4838 340.062 19.0434C343.442 18.4217 349.661 17.6987 357.036 19.359C362.873 20.6732 367.168 22.9671 369.767 24.6203C368.944 22.3406 367.672 17.7717 368.707 12.1006C369.807 6.06442 372.944 1.91 374.601 0C373.095 3.60803 370.369 11.7473 373.187 21.2525C374.266 24.8935 375.897 27.8516 377.43 30.0913C376.839 28.7936 373.279 20.6214 378.018 12.8354C382.744 5.07527 392.254 3.38901 395.937 2.73429C403.61 1.37303 409.938 3.02396 412.911 3.99663C410.777 4.22978 394.581 6.23869 386.86 18.6219C383.778 23.5653 383.153 28.3862 383.087 31.4572C385.578 21.9402 393.438 14.8561 402.536 13.7821C412.782 12.5716 420.996 19.4038 422.458 20.6214C425.614 23.2473 427.495 26.0311 428.588 27.9858C426.252 26.5068 422.337 24.4249 417.036 23.3557C414.109 22.7669 403.964 20.7226 394.993 26.1959C389.752 29.3942 387.203 33.7582 386.034 36.297C391.536 29.38 400.602 25.5412 409.729 26.4079C421.308 27.5054 428.925 35.793 431.538 43.2422C433.313 48.3175 432.704 52.8205 432.126 55.3428C431.187 52.5755 428.564 46.2944 421.635 41.4547C420.743 40.8329 409.455 33.2071 395.937 36.4053C392.206 37.2885 389.407 38.7345 387.686 39.7731C392.998 38.7934 398.307 40.2041 401.478 43.5602C403.935 46.1602 404.341 49.1182 404.426 50.3994C403.56 49.13 400.046 44.3091 393.462 43.035C391.391 42.6346 389.531 42.6841 388.079 42.8583C390.064 44.6105 393.051 47.4084 396.251 51.1366C412.985 70.6063 415.706 92.2144 416.92 103.043C417.529 108.481 417.996 116.26 417.152 125.69C411.859 125.535 406.566 125.379 401.273 125.224C401.995 122.671 402.879 119.1 403.542 114.788C404.378 109.324 406.473 92.092 399.18 71.334C396.826 64.6384 392.723 55.3734 385.33 45.3524C383.665 47.2553 381.528 50.1356 379.908 53.9792C378.409 57.5378 377.863 60.7172 377.667 63.0275C376.393 60.4204 374.176 54.82 375.665 48.0867C376.182 45.741 377.039 43.7651 377.905 42.1942C375.403 44.1113 368.511 49.9166 366.353 59.5537C365.094 65.1707 365.936 69.8997 366.707 72.7047C366.089 72.123 358.002 64.2498 360.812 53.8708C362.947 45.9836 369.899 42.1 371.303 41.3511C367.108 43.5766 354.806 50.7692 349.376 64.8151C346.888 71.2516 346.65 77.0381 346.901 81.0182C344.518 77.8459 341.996 73.3382 341.125 67.6553C340.766 65.312 339.117 54.568 347.136 45.7716C350.566 42.0081 354.524 39.9639 356.92 38.9324C353.698 39.3657 347.648 40.5904 341.714 44.6129C338.151 47.0269 335.782 49.6693 334.286 51.6617C334.434 49.3113 335.191 42.969 340.534 37.1425C344.843 32.4417 349.943 30.4704 351.614 29.8817Z" fill="#933E00"/>
<path d="M526.815 29.8817C522.715 28.4356 519.065 28.1931 516.796 28.1978C518.997 26.4479 522.2 24.2671 526.462 22.4113C531.095 20.3953 535.322 19.4838 538.367 19.0434C534.987 18.4217 528.768 17.6987 521.393 19.359C515.556 20.6732 511.26 22.9671 508.661 24.6203C509.485 22.3406 510.756 17.7717 509.722 12.1006C508.622 6.06442 505.484 1.91 503.827 0C505.334 3.60803 508.06 11.7473 505.242 21.2525C504.163 24.8935 502.532 27.8516 500.999 30.0913C501.59 28.7936 505.149 20.6214 500.41 12.8354C495.685 5.07527 486.175 3.38901 482.491 2.73429C474.818 1.37303 468.491 3.02396 465.517 3.99663C467.652 4.22978 483.848 6.23869 491.568 18.6219C494.65 23.5653 495.276 28.3862 495.342 31.4572C492.851 21.9402 484.99 14.8561 475.892 13.7821C465.647 12.5716 457.432 19.4038 455.971 20.6214C452.815 23.2473 450.934 26.0311 449.841 27.9858C452.176 26.5068 456.092 24.4249 461.393 23.3557C464.319 22.7669 474.465 20.7226 483.436 26.1959C488.676 29.3942 491.225 33.7582 492.394 36.297C486.893 29.38 477.826 25.5412 468.699 26.4079C457.121 27.5054 449.503 35.793 446.891 43.2422C445.115 48.3175 445.725 52.8205 446.303 55.3428C447.242 52.5755 449.865 46.2944 456.794 41.4547C457.686 40.8329 468.974 33.2071 482.491 36.4053C486.223 37.2885 489.022 38.7345 490.742 39.7731C485.431 38.7934 480.122 40.2041 476.95 43.5602C474.494 46.1602 474.087 49.1182 474.003 50.3994C474.869 49.13 478.383 44.3091 484.967 43.035C487.038 42.6346 488.898 42.6841 490.349 42.8583C488.365 44.6105 485.378 47.4084 482.178 51.1366C465.443 70.6063 462.723 92.2144 461.509 103.043C460.9 108.481 460.433 116.26 461.277 125.69C466.57 125.535 471.863 125.379 477.156 125.224C476.433 122.671 475.549 119.1 474.887 114.788C474.051 109.324 471.955 92.092 479.249 71.334C481.602 64.6384 485.705 55.3734 493.099 45.3524C494.764 47.2553 496.901 50.1356 498.521 53.9792C500.02 57.5378 500.566 60.7172 500.761 63.0275C502.036 60.4204 504.252 54.82 502.764 48.0867C502.247 45.741 501.389 43.7651 500.524 42.1942C503.025 44.1113 509.917 49.9166 512.076 59.5537C513.334 65.1707 512.493 69.8997 511.722 72.7047C512.34 72.123 520.427 64.2498 517.617 53.8708C515.482 45.9836 508.529 42.1 507.126 41.3511C511.321 43.5766 523.622 50.7692 529.053 64.8151C531.541 71.2516 531.778 77.0381 531.528 81.0182C533.91 77.8459 536.433 73.3382 537.304 67.6553C537.662 65.312 539.312 54.568 531.293 45.7716C527.863 42.0081 523.905 39.9639 521.509 38.9324C524.731 39.3657 530.781 40.5904 536.715 44.6129C540.277 47.0269 542.647 49.6693 544.143 51.6617C543.995 49.3113 543.238 42.969 537.895 37.1425C533.586 32.4417 528.485 30.4704 526.815 29.8817Z" fill="#933E00"/>
<path d="M574.471 29.8817C578.571 28.4356 582.22 28.1931 584.49 28.1978C582.289 26.4479 579.086 24.2671 574.824 22.4113C570.191 20.3953 565.964 19.4838 562.919 19.0434C566.299 18.4217 572.518 17.6987 579.893 19.359C585.73 20.6732 590.025 22.9671 592.625 24.6203C591.801 22.3406 590.529 17.7717 591.564 12.1006C592.664 6.06442 595.801 1.91 597.458 0C595.952 3.60803 593.226 11.7473 596.044 21.2525C597.123 24.8935 598.754 27.8516 600.287 30.0913C599.696 28.7936 596.137 20.6214 600.876 12.8354C605.601 5.07527 615.111 3.38901 618.794 2.73429C626.468 1.37303 632.795 3.02396 635.769 3.99663C633.634 4.22978 617.438 6.23869 609.718 18.6219C606.636 23.5653 606.01 28.3862 605.944 31.4572C608.435 21.9402 616.296 14.8561 625.394 13.7821C635.639 12.5716 643.853 19.4038 645.315 20.6214C648.471 23.2473 650.352 26.0311 651.445 27.9858C649.11 26.5068 645.194 24.4249 639.893 23.3557C636.967 22.7669 626.821 20.7226 617.85 26.1959C612.609 29.3942 610.061 33.7582 608.892 36.297C614.393 29.38 623.459 25.5412 632.586 26.4079C644.165 27.5054 651.782 35.793 654.395 43.2422C656.17 48.3175 655.561 52.8205 654.983 55.3428C654.044 52.5755 651.421 46.2944 644.492 41.4547C643.6 40.8329 632.312 33.2071 618.794 36.4053C615.063 37.2885 612.264 38.7345 610.543 39.7731C615.855 38.7934 621.164 40.2041 624.335 43.5602C626.792 46.1602 627.198 49.1182 627.283 50.3994C626.417 49.13 622.903 44.3091 616.319 43.035C614.248 42.6346 612.388 42.6841 610.937 42.8583C612.921 44.6105 615.908 47.4084 619.108 51.1366C635.843 70.6063 638.563 92.2144 639.777 103.043C640.386 108.481 640.853 116.26 640.009 125.69C634.716 125.535 629.423 125.379 624.13 125.224C624.853 122.671 625.737 119.1 626.399 114.788C627.235 109.324 629.33 92.092 622.037 71.334C619.684 64.6384 615.581 55.3734 608.187 45.3524C606.522 47.2553 604.385 50.1356 602.765 53.9792C601.266 57.5378 600.72 60.7172 600.525 63.0275C599.25 60.4204 597.034 54.82 598.522 48.0867C599.039 45.741 599.897 43.7651 600.762 42.1942C598.261 44.1113 591.369 49.9166 589.21 59.5537C587.952 65.1707 588.793 69.8997 589.564 72.7047C588.946 72.123 580.859 64.2498 583.669 53.8708C585.804 45.9836 592.756 42.1 594.16 41.3511C589.965 43.5766 577.664 50.7692 572.233 64.8151C569.745 71.2516 569.508 77.0381 569.758 81.0182C567.376 77.8459 564.853 73.3382 563.982 67.6553C563.623 65.312 561.974 54.568 569.993 45.7716C573.423 42.0081 577.381 39.9639 579.777 38.9324C576.555 39.3657 570.505 40.5904 564.571 44.6129C561.009 47.0269 558.639 49.6693 557.143 51.6617C557.291 49.3113 558.048 42.969 563.391 37.1425C567.7 32.4417 572.801 30.4704 574.471 29.8817Z" fill="#933E00"/>
<path d="M749.672 29.8817C745.572 28.4356 741.923 28.1931 739.653 28.1978C741.854 26.4479 745.057 24.2671 749.319 22.4113C753.952 20.3953 758.179 19.4838 761.224 19.0434C757.844 18.4217 751.625 17.6987 744.25 19.359C738.413 20.6732 734.118 22.9671 731.519 24.6203C732.342 22.3406 733.614 17.7717 732.579 12.1006C731.479 6.06442 728.342 1.91 726.685 0C728.191 3.60803 730.917 11.7473 728.099 21.2525C727.02 24.8935 725.389 27.8516 723.856 30.0913C724.447 28.7936 728.007 20.6214 723.268 12.8354C718.542 5.07527 709.032 3.38901 705.349 2.73429C697.676 1.37303 691.348 3.02396 688.374 3.99663C690.509 4.22978 706.705 6.23869 714.426 18.6219C717.507 23.5653 718.133 28.3862 718.199 31.4572C715.708 21.9402 707.847 14.8561 698.749 13.7821C688.504 12.5716 680.29 19.4038 678.828 20.6214C675.672 23.2473 673.791 26.0311 672.698 27.9858C675.034 26.5068 678.949 24.4249 684.25 23.3557C687.176 22.7669 697.322 20.7226 706.293 26.1959C711.534 29.3942 714.083 33.7582 715.251 36.297C709.75 29.38 700.684 25.5412 691.557 26.4079C679.978 27.5054 672.361 35.793 669.748 43.2422C667.973 48.3175 668.582 52.8205 669.16 55.3428C670.099 52.5755 672.722 46.2944 679.651 41.4547C680.543 40.8329 691.831 33.2071 705.349 36.4053C709.08 37.2885 711.879 38.7345 713.6 39.7731C708.288 38.7934 702.979 40.2041 699.808 43.5602C697.351 46.1602 696.945 49.1182 696.86 50.3994C697.726 49.13 701.24 44.3091 707.824 43.035C709.895 42.6346 711.755 42.6841 713.206 42.8583C711.222 44.6105 708.235 47.4084 705.035 51.1366C688.301 70.6063 685.58 92.2144 684.366 103.043C683.757 108.481 683.29 116.26 684.134 125.69C689.427 125.535 694.72 125.379 700.013 125.224C699.29 122.671 698.406 119.1 697.744 114.788C696.908 109.324 694.813 92.092 702.106 71.334C704.459 64.6384 708.563 55.3734 715.956 45.3524C717.621 47.2553 719.758 50.1356 721.378 53.9792C722.877 57.5378 723.423 60.7172 723.619 63.0275C724.893 60.4204 727.109 54.82 725.621 48.0867C725.104 45.741 724.246 43.7651 723.381 42.1942C725.882 44.1113 732.775 49.9166 734.933 59.5537C736.192 65.1707 735.35 69.8997 734.579 72.7047C735.197 72.123 743.284 64.2498 740.474 53.8708C738.339 45.9836 731.387 42.1 729.983 41.3511C734.178 43.5766 746.48 50.7692 751.91 64.8151C754.398 71.2516 754.636 77.0381 754.385 81.0182C756.768 77.8459 759.29 73.3382 760.161 67.6553C760.52 65.312 762.169 54.568 754.15 45.7716C750.72 42.0081 746.762 39.9639 744.366 38.9324C747.588 39.3657 753.638 40.5904 759.572 44.6129C763.135 47.0269 765.504 49.6693 767 51.6617C766.852 49.3113 766.095 42.969 760.752 37.1425C756.443 32.4417 751.343 30.4704 749.672 29.8817Z" fill="#933E00"/>
<rect y="123.69" width="767" height="50" fill="#933E00"/>
</svg>
